<?xml version="1.0" encoding="UTF-8" standalone="no"?>
<!-- Created with Inkscape (http://www.inkscape.org/) -->

<svg
   xmlns:dc="http://purl.org/dc/elements/1.1/"
   xmlns:cc="http://creativecommons.org/ns#"
   xmlns:rdf="http://www.w3.org/1999/02/22-rdf-syntax-ns#"
   xmlns:svg="http://www.w3.org/2000/svg"
   xmlns="http://www.w3.org/2000/svg"
   xmlns:sodipodi="http://sodipodi.sourceforge.net/DTD/sodipodi-0.dtd"
   xmlns:inkscape="http://www.inkscape.org/namespaces/inkscape"
   version="1.1"
   id="svg2"
   xml:space="preserve"
   width="566.92798"
   height="453.91867"
   viewBox="0 0 566.92798 453.91867"
   sodipodi:docname="background-almond.svg"
   inkscape:version="0.92.5 (2060ec1f9f, 2020-04-08)"><metadata
     id="metadata8"><rdf:RDF><cc:Work
         rdf:about=""><dc:format>image/svg+xml</dc:format><dc:type
           rdf:resource="http://purl.org/dc/dcmitype/StillImage" /><dc:title></dc:title></cc:Work></rdf:RDF></metadata><defs
     id="defs6"><clipPath
       clipPathUnits="userSpaceOnUse"
       id="clipPath730"><path
         d="m 2763.18,3662.59 c 0,4.41 0.72,8.91 2.34,13.59 -0.54,0 -1.08,0.09 -1.71,0.18 -0.09,-0.27 -0.27,-0.54 -0.45,-0.81 -5.31,-18.09 -20.34,-38.34 -61.29,-35.1 0,0 -0.09,1.26 -0.09,3.33 0,4.5 0.45,13.23 3.15,22.5 -5.58,-4.77 -12.96,-9.09 -22.32,-12.69 -0.09,-0.09 -0.09,-0.09 -0.18,-0.09 -0.63,-0.27 -1.26,-0.45 -1.89,-0.72 0,0 -6.57,11.79 -8.28,26.82 -5.76,1.44 -11.97,3.78 -18.72,7.2 0,0 4.23,12.96 14.22,24.48 -1.62,2.7 -2.97,6.12 -2.88,9.81 -3.15,-3.78 -8.46,-6.57 -17.55,-6.48 0,0 -0.18,1.08 -0.18,2.88 0,3.69 0.63,10.17 4.86,14.94 -4.32,-0.54 -9.36,0.63 -15.03,5.22 -0.63,0.54 -1.35,1.08 -1.98,1.71 0,0 10.8,16.11 25.47,7.74 0.09,0.27 0.18,0.54 0.18,0.72 -6.84,1.08 -15.93,5.49 -15.57,21.51 0,0 13.86,1.89 20.16,-7.65 -0.18,0.81 -0.36,1.62 -0.45,2.43 -8.46,5.31 -16.56,14.22 -23.58,28.44 -0.36,0.72 -0.81,1.62 -1.17,2.43 0,0 11.97,8.01 27.63,10.71 -0.99,0.45 -1.98,0.99 -3.06,1.71 l -0.09,0.09 c -0.27,0.09 -0.45,0.27 -0.63,0.36 -0.18,0.18 -0.36,0.27 -0.54,0.45 -1.08,0.72 -2.16,1.62 -3.15,2.61 0,0 10.8,16.11 25.47,7.65 0,0.27 0.09,0.54 0.18,0.72 -6.84,1.08 -15.93,5.49 -15.57,21.51 0,0 13.86,1.89 20.16,-7.65 -1.26,4.77 -0.63,10.62 5.04,17.01 0.81,0.99 1.8,1.98 2.97,2.97 0,0 8.64,-7.11 8.55,-16.56 1.44,1.71 3.24,3.15 5.58,4.23 -3.06,10.71 -2.61,24.48 4.14,42.03 0,0 19.35,-4.05 33.21,-17.55 4.5,0 12.87,-1.08 17.37,-7.92 -1.53,5.4 -0.54,12.51 7.92,20.07 0,0 8.73,-7.11 8.55,-16.56 0,0 0,0 0,-0.09 3.15,3.78 8.46,6.66 17.55,6.57 0,0 0.18,-1.26 0.18,-3.24 0,-1.44 -0.09,-3.33 -0.45,-5.22 2.52,-2.7 4.59,-6.3 4.77,-10.89 0,0 0.09,0 0.18,-0.09 0.81,5.4 4.23,11.07 13.68,14.13 0.9,0.36 1.89,0.63 3.06,0.9 0,0 1.08,-2.7 1.62,-6.48 1.8,0.36 3.69,0.63 5.67,0.81 3.78,5.31 8.82,10.8 15.39,16.29 0.27,0.27 0.63,0.45 0.9,0.72 0,0 10.35,-9.18 16.83,-23.13 0.18,-0.09 0.36,-0.18 0.54,-0.18 0.54,2.07 1.35,4.32 2.61,6.84 0.09,0.27 0.27,0.63 0.45,0.9 0,0 14.31,-5.04 14.58,-17.46 0,-0.3 -0.01,-0.6 -0.02,-0.91 -0.04,-0.37 -0.06,-0.73 -0.08,-1.09 -0.1,-1.02 -0.3,-2.09 -0.62,-3.22 0.27,0 0.45,0 0.72,0 -0.11,1.02 -0.15,2.11 -0.1,3.22 0.04,0.37 0.06,0.73 0.08,1.09 0.62,6.21 4.4,13.15 16.94,16.12 0,0 1.8,-4.41 1.8,-9.81 0,-3.87 -0.99,-8.1 -4.14,-11.7 4.68,2.61 11.16,3.42 19.62,-1.62 0.63,-0.36 1.17,-0.72 1.71,-1.08 0,0 -4.68,-10.17 -13.86,-12.51 1.98,-0.9 3.87,-2.25 5.49,-4.32 8.46,4.95 19.89,7.83 35.28,7.02 2.07,-0.09 4.23,-0.27 6.48,-0.54 0,0 0,-0.36 0,-1.08 0,-4.23 -0.45,-20.88 -8.73,-35.46 0.45,-1.8 0.9,-4.23 0.9,-7.02 -0.09,-3.78 -0.99,-8.01 -4.14,-11.61 4.95,2.79 11.97,3.51 21.33,-2.7 0,0 -4.77,-10.26 -14.04,-12.51 3.78,-1.8 7.38,-5.31 9.72,-11.97 0.36,-0.99 0.72,-2.16 0.99,-3.42 0,0 -10.08,-4.23 -18.36,0.09 1.08,-2.61 1.44,-5.76 0.72,-9.45 12.24,-9.36 21.6,-26.01 17.28,-55.98 0,0 -22.86,-0.36 -39.96,12.24 -4.14,-1.62 -9.72,-3.33 -16.02,-4.41 -3.96,-8.1 -10.62,-16.65 -21.15,-25.29 0,0 -3.87,3.51 -8.37,9.36 -0.18,-7.02 -1.71,-15.03 -5.04,-24.12 -0.09,-0.27 -0.18,-0.54 -0.27,-0.81 -0.09,-0.09 -0.18,-0.27 -0.18,-0.45 -0.36,-0.9 -0.72,-1.89 -1.17,-2.88 0,0 -35.82,8.55 -44.1,37.53 -2.43,-1.53 -5.67,-2.61 -9.81,-2.88 2.25,-14.13 -1.8,-31.05 -21.42,-48.78 -1.08,-0.99 -2.25,-2.07 -3.51,-3.06 0,0 -22.5,19.8 -22.32,45.36 m 13.68,43.83 c 1.17,-0.9 2.25,-1.89 3.42,-3.06 0.36,-0.36 0.72,-0.81 1.08,-1.17 0,0 -4.5,-5.58 -11.07,-7.83 -0.27,-1.89 -0.63,-3.78 -1.26,-5.76 0.45,-0.81 0.81,-1.71 1.17,-2.61 2.88,4.68 6.84,9.45 11.97,14.13 -0.9,2.16 -1.62,4.68 -1.53,7.29 0,0.99 0.09,1.98 0.36,3.06 -0.09,0 -0.09,0 -0.18,0.09 -0.99,-1.53 -2.25,-2.97 -3.96,-4.14 m 18.72,-7.92 c 0.36,-0.36 0.72,-0.81 0.99,-1.26 0.36,0.36 0.72,0.72 1.17,1.08 0,0.81 -0.09,1.62 -0.09,2.43 0,0.99 0.09,2.07 0.09,3.15 -0.09,0 -0.09,0 -0.18,0 -0.36,-1.71 -0.99,-3.51 -1.98,-5.4 m -113.67,24.48 c 0.18,0.09 0.45,0.18 0.63,0.36 -0.36,0.36 -0.72,0.81 -0.99,1.26 0.18,-0.54 0.27,-1.08 0.36,-1.62 m -3.42,7.83 c 0.36,-0.45 0.63,-0.9 0.99,-1.35 -0.18,0.45 -0.27,0.99 -0.45,1.62 -0.18,-0.09 -0.36,-0.18 -0.54,-0.27 m 221.49,8.91 c -0.63,-1.89 -1.62,-3.69 -3.15,-5.4 0.72,0.45 1.53,0.81 2.34,1.08 0.09,0.99 0.27,1.89 0.45,2.88 0,0 1.8,0.09 4.86,0 0.54,1.17 1.35,2.34 2.34,3.51 -1.98,-1.08 -4.23,-1.89 -6.84,-2.07 m -193.14,-5.04 h 0.09 c 0,0 0,0.09 0.09,0.18 -0.09,-0.09 -0.09,-0.18 -0.18,-0.18 m 214.47,0.81 h 0.09 c 0,0.27 0,0.54 0,0.9 0,-0.36 0,-0.63 -0.09,-0.9 m 0.18,2.16 c 0.18,0.99 0.36,1.98 0.63,2.97 -0.27,0 -0.45,0.09 -0.72,0.09 0.09,-0.99 0.18,-1.98 0.09,-3.06 m -235.17,0.72 c 0.72,-0.18 1.53,-0.27 2.34,-0.54 0,0.09 0,0.09 0,0.09 -0.63,0.27 -1.35,0.63 -2.07,1.08 -0.09,-0.27 -0.18,-0.45 -0.27,-0.63 m 224.91,6.93 c 0.45,0.18 0.81,0.45 1.26,0.63 -0.09,0.18 -0.18,0.27 -0.27,0.45 -0.27,-0.36 -0.63,-0.72 -0.99,-1.08 m -34.65,7.29 c 0.27,0 0.63,0 0.9,0 2.88,0 6.12,-0.81 9.45,-2.97 1.44,1.44 3.33,2.7 5.67,3.87 1.89,1.53 4.14,2.79 6.75,3.51 -2.16,0.99 -4.32,2.61 -6.12,5.13 -1.26,0.09 -2.52,0.18 -3.78,0.36 1.17,-2.16 2.16,-4.77 2.97,-7.92 0,0 -7.65,-3.15 -15.03,-1.26 -0.27,-0.27 -0.54,-0.54 -0.81,-0.72 m -208.62,3.24 c 0,0 0.09,0 0.18,0.09 -0.09,0.18 -0.27,0.36 -0.36,0.54 0.09,-0.18 0.09,-0.45 0.18,-0.63 m 265.77,7.02 c 0.09,-0.09 0.09,-0.09 0.18,-0.18 0.18,0.18 0.27,0.36 0.45,0.54 -0.18,-0.09 -0.36,-0.27 -0.63,-0.36 m -51.03,7.29 c 0.09,0 0.09,0 0.18,0 0,0 0,-0.27 0,-0.81 0.72,-0.45 1.35,-0.9 2.07,-1.44 0,0.99 0,2.07 0.09,3.24 -0.72,-0.36 -1.53,-0.72 -2.34,-0.99 m -13.41,11.07 c 0,0 0.09,-0.09 0.09,-0.18 0.18,0.18 0.36,0.36 0.54,0.54 -0.27,-0.09 -0.45,-0.27 -0.63,-0.36 m 8.82,20.07 c 0.18,-1.35 0.36,-2.88 0.36,-4.59 0,-3.78 -0.99,-8.01 -4.14,-11.61 3.42,1.98 7.83,2.88 13.32,1.26 0.18,0.81 0.45,1.62 0.72,2.43 -4.14,2.61 -9.45,7.47 -9.63,14.94 0,0.27 0.01,0.54 0.02,0.81 0.05,0.44 0.08,0.88 0.09,1.31 0.11,0.99 0.3,2.01 0.61,3.1 -0.27,0 -0.45,0 -0.72,0.09 0.12,-1 0.16,-2.08 0.11,-3.19 -0.04,-0.44 -0.08,-0.88 -0.09,-1.31 -0.12,-1.06 -0.32,-2.15 -0.65,-3.24 m -19.08,-15.21 c 0.27,0 0.45,0 0.72,0 -0.11,0.99 -0.16,2.04 -0.12,3.13 0.05,0.47 0.09,0.93 0.1,1.37 0.12,1.07 0.32,2.15 0.65,3.24 -0.18,1.35 -0.36,2.88 -0.36,4.59 0,2.16 0.36,4.5 1.17,6.75 -1.17,-1.89 -2.52,-3.69 -3.96,-5.58 1.44,-2.25 2.43,-4.95 2.52,-8.19 0,-0.26 -0.01,-0.53 -0.02,-0.81 -0.05,-0.46 -0.08,-0.92 -0.1,-1.37 -0.1,-1 -0.29,-2.05 -0.6,-3.13 m -139.77,1.44 c 0.27,0 0.63,0 0.9,0 1.26,0 2.52,-0.18 3.78,-0.45 h 0.09 c -0.81,0.36 -1.62,0.72 -2.43,1.26 -1.08,0.09 -2.16,0.18 -3.33,0.45 0.36,-0.36 0.63,-0.81 0.99,-1.26 m -6.48,2.25 c 0.09,0.09 0.09,0.09 0.18,0.18 0.09,0.09 0.18,0.18 0.27,0.27 0.09,0.09 0.09,0.09 0.18,0.18 -0.81,0.36 -1.62,0.81 -2.34,1.35 0.54,-0.63 1.17,-1.35 1.71,-1.98 m -5.94,6.03 c 0.09,-0.09 0.18,-0.18 0.27,-0.27 -0.09,0.18 -0.18,0.27 -0.27,0.45 0,-0.09 0,-0.18 0,-0.18 m -3.06,6.57 c 0.27,-0.36 0.45,-0.81 0.72,-1.17 -0.09,0.45 -0.18,0.9 -0.27,1.35 -0.18,-0.09 -0.36,-0.18 -0.45,-0.18 m 192.24,1.44 c 0.09,0.18 0.27,0.27 0.36,0.45 -0.18,0.09 -0.45,0.18 -0.63,0.27 0.09,-0.18 0.18,-0.45 0.27,-0.72 m -177.21,3.51 c 2.25,-0.27 5.04,-0.72 7.65,-1.89 0.45,0.27 0.99,0.63 1.53,0.99 0.54,1.53 1.08,3.15 1.71,4.77 -3.78,-2.43 -8.73,-4.14 -14.4,-2.25 1.17,-0.45 2.34,-0.99 3.51,-1.62 m -7.29,2.52 c 1.08,-0.18 2.25,-0.45 3.33,-0.81 -0.99,0.36 -2.07,0.81 -3.06,1.44 -0.09,-0.18 -0.18,-0.45 -0.27,-0.63 m 152.37,0 c -0.09,-0.09 -0.18,-0.27 -0.18,-0.36 0.09,0.18 0.27,0.36 0.45,0.54 -0.09,-0.09 -0.18,-0.09 -0.27,-0.18 m -131.94,3.06 c 0.81,-0.27 1.89,-0.63 3.15,-1.08 0.18,0.36 0.36,0.63 0.54,0.99 -0.72,0.45 -1.44,0.9 -2.16,1.35 -0.45,-0.45 -0.99,-0.9 -1.53,-1.26 m 136.62,0.63 c 0.45,0.27 0.81,0.45 1.26,0.63 -0.09,0.18 -0.18,0.27 -0.27,0.45 -0.27,-0.36 -0.63,-0.72 -0.99,-1.08 m -148.5,11.7 c 0.27,0.09 0.45,0.09 0.72,0.09 -0.09,0.09 -0.18,0.27 -0.27,0.36 -0.18,-0.09 -0.27,-0.27 -0.45,-0.45 m -26.91,2.07 c 0.09,0 0.09,0.09 0.18,0.09 -0.09,0.18 -0.27,0.45 -0.36,0.63 0,-0.27 0.09,-0.45 0.18,-0.72 m 197.91,3.78 c 0.09,0 0.09,-0.09 0.18,-0.09 0.09,0.09 0.27,0.27 0.45,0.45 -0.18,-0.09 -0.45,-0.18 -0.63,-0.36 m -121.23,20.52 c 0.09,0 0.18,0.09 0.27,0.09 -0.18,0.27 -0.36,0.54 -0.54,0.81 0.09,-0.27 0.18,-0.63 0.27,-0.9"
         id="path728"
         inkscape:connector-curvature="0"
         style="clip-rule:evenodd" /></clipPath></defs><sodipodi:namedview
     pagecolor="#ffffff"
     bordercolor="#666666"
     borderopacity="1"
     objecttolerance="10"
     gridtolerance="10"
     guidetolerance="10"
     inkscape:pageopacity="0"
     inkscape:pageshadow="2"
     inkscape:window-width="1366"
     inkscape:window-height="704"
     id="namedview4"
     showgrid="false"
     inkscape:zoom="0.29435065"
     inkscape:cx="-163.51554"
     inkscape:cy="129.3299"
     inkscape:window-x="0"
     inkscape:window-y="27"
     inkscape:window-maximized="1"
     inkscape:current-layer="g10" /><g
     id="g10"
     inkscape:groupmode="layer"
     inkscape:label="ink_ext_XXXXXX"
     transform="matrix(1.3333333,0,0,-1.3333333,-6.7972177,573.72688)"><path
       inkscape:connector-curvature="0"
       id="path14"
       style="fill:#f1c98c;fill-opacity:1;fill-rule:nonzero;stroke:none;stroke-width:0.1"
       d="M 5.0979134,89.856164 H 430.29391 V 430.29517 H 5.0979134 Z" /></g></svg>