<?xml version="1.0" encoding="UTF-8" standalone="no"?>
<!-- Created with Inkscape (http://www.inkscape.org/) -->

<svg
   xmlns:dc="http://purl.org/dc/elements/1.1/"
   xmlns:cc="http://creativecommons.org/ns#"
   xmlns:rdf="http://www.w3.org/1999/02/22-rdf-syntax-ns#"
   xmlns:svg="http://www.w3.org/2000/svg"
   xmlns="http://www.w3.org/2000/svg"
   xmlns:sodipodi="http://sodipodi.sourceforge.net/DTD/sodipodi-0.dtd"
   xmlns:inkscape="http://www.inkscape.org/namespaces/inkscape"
   width="4.63797mm"
   height="18.638309mm"
   viewBox="0 0 4.63797 18.638309"
   version="1.1"
   id="svg45061"
   inkscape:version="0.92.5 (2060ec1f9f, 2020-04-08)"
   sodipodi:docname="book-yellow-2.svg">
  <defs
     id="defs45055" />
  <sodipodi:namedview
     id="base"
     pagecolor="#ffffff"
     bordercolor="#666666"
     borderopacity="1.0"
     inkscape:pageopacity="0.0"
     inkscape:pageshadow="2"
     inkscape:zoom="0.35"
     inkscape:cx="418.76467"
     inkscape:cy="100.93628"
     inkscape:document-units="mm"
     inkscape:current-layer="layer1"
     showgrid="false"
     inkscape:window-width="1366"
     inkscape:window-height="704"
     inkscape:window-x="0"
     inkscape:window-y="27"
     inkscape:window-maximized="1" />
  <metadata
     id="metadata45058">
    <rdf:RDF>
      <cc:Work
         rdf:about="">
        <dc:format>image/svg+xml</dc:format>
        <dc:type
           rdf:resource="http://purl.org/dc/dcmitype/StillImage" />
        <dc:title></dc:title>
      </cc:Work>
    </rdf:RDF>
  </metadata>
  <g
     inkscape:label="Layer 1"
     inkscape:groupmode="layer"
     id="layer1"
     transform="translate(143.68208,-156.90108)">
    <path
       inkscape:connector-curvature="0"
       id="path20428"
       style="fill:#fae039;fill-opacity:1;fill-rule:nonzero;stroke:none;stroke-width:0.03527778"
       d="m -139.04411,175.53939 h -4.63797 v -18.63831 h 4.63797 v 18.63831" />
    <path
       inkscape:connector-curvature="0"
       id="path20516"
       style="fill:#fff9f5;fill-opacity:1;fill-rule:nonzero;stroke:none;stroke-width:0.03527778"
       d="m -140.73956,161.51048 c 0,0.34396 -0.27905,0.623 -0.62336,0.623 -0.34431,0 -0.62336,-0.27904 -0.62336,-0.623 0,-0.34431 0.27905,-0.62336 0.62336,-0.62336 0.34431,0 0.62336,0.27905 0.62336,0.62336" />
    <path
       inkscape:connector-curvature="0"
       id="path20518"
       style="fill:#fff9f5;fill-opacity:1;fill-rule:nonzero;stroke:none;stroke-width:0.03527778"
       d="m -140.73956,164.15596 c 0,0.34431 -0.27905,0.62336 -0.62336,0.62336 -0.34431,0 -0.62336,-0.27905 -0.62336,-0.62336 0,-0.34431 0.27905,-0.62336 0.62336,-0.62336 0.34431,0 0.62336,0.27905 0.62336,0.62336" />
    <path
       inkscape:connector-curvature="0"
       id="path20520"
       style="fill:#fff9f5;fill-opacity:1;fill-rule:nonzero;stroke:none;stroke-width:0.03527778"
       d="m -140.73956,166.80144 c 0,0.34396 -0.27905,0.62301 -0.62336,0.62301 -0.34431,0 -0.62336,-0.27905 -0.62336,-0.62301 0,-0.34431 0.27905,-0.62336 0.62336,-0.62336 0.34431,0 0.62336,0.27905 0.62336,0.62336" />
  </g>
</svg>
