<?xml version="1.0" encoding="UTF-8" standalone="no"?>
<!-- Created with Inkscape (http://www.inkscape.org/) -->

<svg
   xmlns:dc="http://purl.org/dc/elements/1.1/"
   xmlns:cc="http://creativecommons.org/ns#"
   xmlns:rdf="http://www.w3.org/1999/02/22-rdf-syntax-ns#"
   xmlns:svg="http://www.w3.org/2000/svg"
   xmlns="http://www.w3.org/2000/svg"
   xmlns:sodipodi="http://sodipodi.sourceforge.net/DTD/sodipodi-0.dtd"
   xmlns:inkscape="http://www.inkscape.org/namespaces/inkscape"
   width="64.119179mm"
   height="85.588577mm"
   viewBox="0 0 64.119179 85.588577"
   version="1.1"
   id="svg26178"
   inkscape:version="0.92.5 (2060ec1f9f, 2020-04-08)"
   sodipodi:docname="chair-blue-2.svg">
  <defs
     id="defs26172" />
  <sodipodi:namedview
     id="base"
     pagecolor="#ffffff"
     bordercolor="#666666"
     borderopacity="1.0"
     inkscape:pageopacity="0.0"
     inkscape:pageshadow="2"
     inkscape:zoom="0.24748737"
     inkscape:cx="175.27775"
     inkscape:cy="201.67928"
     inkscape:document-units="mm"
     inkscape:current-layer="layer1"
     showgrid="false"
     inkscape:window-width="1366"
     inkscape:window-height="704"
     inkscape:window-x="0"
     inkscape:window-y="27"
     inkscape:window-maximized="1" />
  <metadata
     id="metadata26175">
    <rdf:RDF>
      <cc:Work
         rdf:about="">
        <dc:format>image/svg+xml</dc:format>
        <dc:type
           rdf:resource="http://purl.org/dc/dcmitype/StillImage" />
        <dc:title></dc:title>
      </cc:Work>
    </rdf:RDF>
  </metadata>
  <g
     inkscape:label="Layer 1"
     inkscape:groupmode="layer"
     id="layer1"
     transform="translate(208.95245,-228.50333)">
    <path
       inkscape:connector-curvature="0"
       id="path20358"
       style="opacity:0.62000002;fill:#4fa27c;fill-opacity:1;fill-rule:nonzero;stroke:none;stroke-width:0.03527778"
       d="m -144.83327,309.23942 c 0,2.68001 -12.17753,4.85249 -27.19952,4.85249 -15.02162,0 -27.19916,-2.17248 -27.19916,-4.85249 0,-2.67974 12.17754,-4.85246 27.19916,-4.85246 15.02199,0 27.19952,2.17272 27.19952,4.85246" />
    <path
       inkscape:connector-curvature="0"
       id="path20360"
       style="fill:#9c797d;fill-opacity:1;fill-rule:nonzero;stroke:none;stroke-width:0.03527778"
       d="m -187.64849,273.01623 c 0,0 -0.46179,3.07587 4.4771,3.78143 4.93889,0.70555 17.24519,0.56797 21.56672,-0.27623 3.64948,-0.71261 3.0868,-4.06223 3.0868,-4.06223 l -29.13062,0.55703" />
    <path
       inkscape:connector-curvature="0"
       id="path20362"
       style="fill:#c29a9c;fill-opacity:1;fill-rule:nonzero;stroke:none;stroke-width:0.03527778"
       d="m -174.94003,279.14962 c 0,5.97465 0,11.94933 0,17.92394 0,2.27019 3.52778,2.27361 3.52778,0 0,-5.97461 0,-11.94929 0,-17.92394 0,-2.26977 -3.52778,-2.27365 -3.52778,0" />
    <path
       inkscape:connector-curvature="0"
       id="path20364"
       style="fill:#473b72;fill-opacity:1;fill-rule:nonzero;stroke:none;stroke-width:0.03527778"
       d="m -173.8122,297.2461 c -3.7539,1.09703 -7.38892,2.58685 -10.80205,4.50134 -2.35903,1.32334 -3.78425,2.86921 -3.19581,5.73444 0.34254,1.66687 2.89313,0.96132 2.55128,-0.70309 -0.45508,-2.21643 2.63737,-3.14646 4.21746,-3.92712 2.55094,-1.26009 5.20312,-2.25669 7.93256,-3.05428 1.6309,-0.47667 0.93698,-3.03071 -0.70344,-2.55129" />
    <path
       inkscape:connector-curvature="0"
       id="path20366"
       style="fill:#473b72;fill-opacity:1;fill-rule:nonzero;stroke:none;stroke-width:0.03527778"
       d="m -173.0502,299.65766 c 2.89984,0.57463 5.72453,1.66616 8.47866,2.71596 1.80482,0.68792 5.80602,1.49161 5.42396,4.1311 -0.24094,1.66578 2.30788,2.38481 2.55129,0.70375 0.55528,-3.83674 -2.03235,-5.2838 -5.07823,-6.52391 -3.43747,-1.3994 -7.01993,-2.85433 -10.67224,-3.57819 -1.66299,-0.3295 -2.3749,2.21999 -0.70344,2.55129" />
    <path
       inkscape:connector-curvature="0"
       id="path20368"
       style="fill:#473b72;fill-opacity:1;fill-rule:nonzero;stroke:none;stroke-width:0.03527778"
       d="m -173.84077,299.04982 c 1.10878,1.59353 2.30046,3.12635 3.47027,4.67497 1.18569,1.56958 1.80235,2.43071 1.6697,4.54272 -0.10654,1.70078 2.5393,1.69401 2.64584,0 0.2741,-4.3677 -3.17606,-7.21211 -5.50122,-10.55331 -0.96591,-1.38783 -3.26037,-0.0667 -2.28459,1.33562" />
    <path
       inkscape:connector-curvature="0"
       id="path20370"
       style="fill:#473b72;fill-opacity:1;fill-rule:nonzero;stroke:none;stroke-width:0.03527778"
       d="m -184.06498,307.13048 c 0,1.36355 -1.1056,2.46944 -2.46944,2.46944 -1.36384,0 -2.46944,-1.10589 -2.46944,-2.46944 0,-1.36384 1.1056,-2.46945 2.46944,-2.46945 1.36384,0 2.46944,1.10561 2.46944,2.46945" />
    <path
       inkscape:connector-curvature="0"
       id="path20372"
       style="fill:#473b72;fill-opacity:1;fill-rule:nonzero;stroke:none;stroke-width:0.03527778"
       d="m -155.40249,306.8564 c 0,1.36423 -1.1056,2.46945 -2.46944,2.46945 -1.36384,0 -2.46945,-1.10522 -2.46945,-2.46945 0,-1.36387 1.10561,-2.46944 2.46945,-2.46944 1.36384,0 2.46944,1.10557 2.46944,2.46944" />
    <path
       inkscape:connector-curvature="0"
       id="path20374"
       style="fill:#473b72;fill-opacity:1;fill-rule:nonzero;stroke:none;stroke-width:0.03527778"
       d="m -164.90844,308.26751 c 0,1.36423 -1.1056,2.46945 -2.46944,2.46945 -1.36384,0 -2.46945,-1.10522 -2.46945,-2.46945 0,-1.36387 1.10561,-2.46944 2.46945,-2.46944 1.36384,0 2.46944,1.10557 2.46944,2.46944" />
    <path
       inkscape:connector-curvature="0"
       id="path20376"
       style="fill:#473b72;fill-opacity:1;fill-rule:nonzero;stroke:none;stroke-width:0.03527778"
       d="m -171.01467,293.73099 h -4.15925 c -0.13441,0 -0.24306,0.10901 -0.24306,0.24334 v 5.55311 h 4.64502 v -5.55311 c 0,-0.13433 -0.10865,-0.24334 -0.24271,-0.24334" />
    <path
       inkscape:connector-curvature="0"
       id="path20378"
       style="fill:#9c797d;fill-opacity:1;fill-rule:nonzero;stroke:none;stroke-width:0.03527778"
       d="m -173.17614,279.48159 c 4.73993,0 4.62351,-2.00519 4.73993,-2.92488 l -9.55146,-0.0353 c -0.13618,1.84855 0.86077,2.96016 4.81153,2.96016" />
    <path
       inkscape:connector-curvature="0"
       id="path20380"
       style="fill:#473b72;fill-opacity:1;fill-rule:nonzero;stroke:none;stroke-width:0.03527778"
       d="m -171.24609,274.60867 -22.19678,-0.59267 c -4.72369,-0.18344 -8.07861,-1.55575 -9.06991,-6.17714 -2.32481,-10.84086 -5.95842,-31.10088 -6.35,-34.08538 -0.70556,-5.40809 2.9845,-5.22464 2.9845,-5.22464 h 21.96041 c 0,0 1.43934,22.92702 4.191,34.7733 0.53975,2.33892 1.13595,4.24745 1.778,5.461 1.64042,3.09739 6.70278,5.84553 6.70278,5.84553" />
    <path
       inkscape:connector-curvature="0"
       id="path20382"
       style="fill:#524587;fill-opacity:1;fill-rule:nonzero;stroke:none;stroke-width:0.03527778"
       d="m -179.72687,263.30214 c -0.68791,0.0917 -1.38641,0.10936 -2.07786,0.0776 -5.98311,-0.28575 -11.32064,-4.32505 -14.48505,-9.41211 -3.16442,-5.08353 -4.44853,-11.10897 -5.17525,-17.0568 -0.3422,-2.78342 -0.5715,-5.58095 -0.69145,-8.382 h 18.23861 c 0,0 1.43934,22.92702 4.191,34.7733" />
    <path
       inkscape:connector-curvature="0"
       id="path20384"
       style="fill:#717ec3;fill-opacity:1;fill-rule:nonzero;stroke:none;stroke-width:0.03527778"
       d="m -186.66177,231.89786 c 0.27693,2.66595 2.5594,36.70336 9.23572,40.92293 1.69686,1.07245 2.95839,1.70321 6.1789,1.78929 8.3185,0.22225 19.74004,0.0582 22.87164,-0.70273 2.66524,-0.6477 1.95968,-5.82048 -1.7219,-5.58518 -5.5245,0.35278 -21.16068,1.36666 -23.61918,-0.97014 -3.23392,-3.07375 -5.40844,-13.93472 -7.29086,-36.45358 -0.14711,-1.76178 -1.6757,-2.55588 -2.91042,-2.3682 -1.89547,0.28857 -2.95098,1.37618 -2.7439,3.36761" />
    <path
       inkscape:connector-curvature="0"
       id="path20386"
       style="fill:#717ec3;fill-opacity:1;fill-rule:nonzero;stroke:none;stroke-width:0.03527778"
       d="m -179.12503,258.97391 c 3.20569,0.0201 6.41174,0.0399 9.61743,0.0596 3.09492,0.0194 6.3119,-0.18979 9.3853,0.22754 6.19584,0.84208 7.67291,6.32037 8.58731,11.66107 0.22931,1.33985 2.26978,0.77188 2.04118,-0.56303 -0.90135,-5.26415 -2.51425,-11.07722 -8.25677,-12.76491 -3.09633,-0.90982 -6.51157,-0.64453 -9.69609,-0.66464 -3.89291,-0.024 -7.78546,-0.0483 -11.67836,-0.0723 -1.36207,-0.008 -1.36384,2.1082 0,2.11667" />
    <path
       inkscape:connector-curvature="0"
       id="path20388"
       style="fill:#473b72;fill-opacity:1;fill-rule:nonzero;stroke:none;stroke-width:0.03527778"
       d="m -174.05526,256.13017 c -0.69039,0.87383 -0.64911,3.60574 0.8375,3.93347 2.88572,0.63571 11.14283,0.5394 12.55395,0.30445 1.41111,-0.2353 0.9719,-3.423 0,-3.95217 -1.32292,-0.72002 -12.87251,-0.94227 -13.39145,-0.28575" />
  </g>
</svg>
