<?xml version="1.0" encoding="UTF-8" standalone="no"?>
<!-- Created with Inkscape (http://www.inkscape.org/) -->

<svg
   xmlns:dc="http://purl.org/dc/elements/1.1/"
   xmlns:cc="http://creativecommons.org/ns#"
   xmlns:rdf="http://www.w3.org/1999/02/22-rdf-syntax-ns#"
   xmlns:svg="http://www.w3.org/2000/svg"
   xmlns="http://www.w3.org/2000/svg"
   xmlns:sodipodi="http://sodipodi.sourceforge.net/DTD/sodipodi-0.dtd"
   xmlns:inkscape="http://www.inkscape.org/namespaces/inkscape"
   width="37.39444mm"
   height="81.407318mm"
   viewBox="0 0 37.39444 81.407318"
   version="1.1"
   id="svg23151"
   inkscape:version="0.92.5 (2060ec1f9f, 2020-04-08)"
   sodipodi:docname="chair-blue-1.svg">
  <defs
     id="defs23145" />
  <sodipodi:namedview
     id="base"
     pagecolor="#ffffff"
     bordercolor="#666666"
     borderopacity="1.0"
     inkscape:pageopacity="0.0"
     inkscape:pageshadow="2"
     inkscape:zoom="0.35"
     inkscape:cx="-856.4762"
     inkscape:cy="-134.73083"
     inkscape:document-units="mm"
     inkscape:current-layer="layer1"
     showgrid="false"
     inkscape:window-width="1366"
     inkscape:window-height="704"
     inkscape:window-x="0"
     inkscape:window-y="27"
     inkscape:window-maximized="1" />
  <metadata
     id="metadata23148">
    <rdf:RDF>
      <cc:Work
         rdf:about="">
        <dc:format>image/svg+xml</dc:format>
        <dc:type
           rdf:resource="http://purl.org/dc/dcmitype/StillImage" />
        <dc:title></dc:title>
      </cc:Work>
    </rdf:RDF>
  </metadata>
  <g
     inkscape:label="Layer 1"
     inkscape:groupmode="layer"
     id="layer1"
     transform="translate(-193.7254,-31.778485)">
    <path
       inkscape:connector-curvature="0"
       id="path20536"
       style="fill:#9c797d;fill-opacity:1;fill-rule:nonzero;stroke:none;stroke-width:0.03527778"
       d="m 197.90405,75.465072 c 0,0 -0.46214,3.075871 4.47675,3.781425 4.93889,0.705557 17.24554,0.567973 21.56707,-0.276225 3.64984,-0.71261 3.0868,-4.062235 3.0868,-4.062235 l -29.13062,0.557035" />
    <path
       inkscape:connector-curvature="0"
       id="path20538"
       style="fill:#c29a9c;fill-opacity:1;fill-rule:nonzero;stroke:none;stroke-width:0.03527778"
       d="m 210.61252,81.598468 c 0,5.974644 0,11.949322 0,17.923931 0,2.270201 3.52777,2.273621 3.52777,0 0,-5.974609 0,-11.949287 0,-17.923931 0,-2.269773 -3.52777,-2.273654 -3.52777,0" />
    <path
       inkscape:connector-curvature="0"
       id="path20540"
       style="fill:#473b72;fill-opacity:1;fill-rule:nonzero;stroke:none;stroke-width:0.03527778"
       d="m 211.74035,99.694944 c -3.75356,1.097036 -7.38929,2.586846 -10.80206,4.501336 -2.35902,1.32334 -3.78425,2.86921 -3.19546,5.73444 0.34219,1.66687 2.89313,0.96132 2.55094,-0.70309 -0.45509,-2.21643 2.63772,-3.14646 4.21745,-3.92712 2.55094,-1.26009 5.20312,-2.25668 7.93257,-3.05428 1.63089,-0.47667 0.93697,-3.030711 -0.70344,-2.551286" />
    <path
       inkscape:connector-curvature="0"
       id="path20542"
       style="fill:#473b72;fill-opacity:1;fill-rule:nonzero;stroke:none;stroke-width:0.03527778"
       d="m 212.5027,102.1065 c 2.89913,0.57464 5.72417,1.66617 8.47866,2.71596 1.80446,0.68792 5.80566,1.49162 5.42361,4.1311 -0.2413,1.66578 2.30787,2.38481 2.55129,0.70376 0.55527,-3.83674 -2.03236,-5.2838 -5.07824,-6.52392 -3.43711,-1.3994 -7.01993,-2.85433 -10.67223,-3.578193 -1.663,-0.329493 -2.3749,2.219993 -0.70309,2.551293" />
    <path
       inkscape:connector-curvature="0"
       id="path20544"
       style="fill:#473b72;fill-opacity:1;fill-rule:nonzero;stroke:none;stroke-width:0.03527778"
       d="m 211.71177,101.49866 c 1.10878,1.59353 2.30047,3.12635 3.47028,4.67498 1.18604,1.56958 1.80234,2.43071 1.66969,4.54272 -0.10689,1.70077 2.53965,1.694 2.64584,0 0.27411,-4.36771 -3.17606,-7.21212 -5.50122,-10.55331 -0.96555,-1.387834 -3.26037,-0.0667 -2.28459,1.33561" />
    <path
       inkscape:connector-curvature="0"
       id="path20546"
       style="fill:#473b72;fill-opacity:1;fill-rule:nonzero;stroke:none;stroke-width:0.03527778"
       d="m 201.48757,109.57932 c 0,1.36355 -1.10561,2.46944 -2.46945,2.46944 -1.36348,0 -2.46944,-1.10589 -2.46944,-2.46944 0,-1.36384 1.10596,-2.46945 2.46944,-2.46945 1.36384,0 2.46945,1.10561 2.46945,2.46945" />
    <path
       inkscape:connector-curvature="0"
       id="path20548"
       style="fill:#473b72;fill-opacity:1;fill-rule:nonzero;stroke:none;stroke-width:0.03527778"
       d="m 230.15006,109.30524 c 0,1.36423 -1.10561,2.46945 -2.46945,2.46945 -1.36384,0 -2.46944,-1.10522 -2.46944,-2.46945 0,-1.36387 1.1056,-2.46944 2.46944,-2.46944 1.36384,0 2.46945,1.10557 2.46945,2.46944" />
    <path
       inkscape:connector-curvature="0"
       id="path20550"
       style="fill:#473b72;fill-opacity:1;fill-rule:nonzero;stroke:none;stroke-width:0.03527778"
       d="m 220.64411,110.71636 c 0,1.36422 -1.10561,2.46944 -2.46945,2.46944 -1.36384,0 -2.46944,-1.10522 -2.46944,-2.46944 0,-1.36388 1.1056,-2.46945 2.46944,-2.46945 1.36384,0 2.46945,1.10557 2.46945,2.46945" />
    <path
       inkscape:connector-curvature="0"
       id="path20552"
       style="fill:#473b72;fill-opacity:1;fill-rule:nonzero;stroke:none;stroke-width:0.03527778"
       d="m 214.34173,96.17983 h -3.76731 c -0.24236,0 -0.43886,0.196779 -0.43886,0.439174 v 5.357286 h 4.64538 v -5.357286 c 0,-0.242395 -0.19685,-0.439174 -0.43921,-0.439174" />
    <path
       inkscape:connector-curvature="0"
       id="path20554"
       style="fill:#9c797d;fill-opacity:1;fill-rule:nonzero;stroke:none;stroke-width:0.03527778"
       d="m 212.37641,81.93043 c 4.73992,0 4.6235,-2.005187 4.73992,-2.924878 l -9.55146,-0.03528 c -0.13617,1.848557 0.86078,2.960158 4.81154,2.960158" />
    <path
       inkscape:connector-curvature="0"
       id="path20556"
       style="fill:#473b72;fill-opacity:1;fill-rule:nonzero;stroke:none;stroke-width:0.03527778"
       d="m 231.11984,33.856346 v 39.560499 c 0,1.622777 -1.31586,2.93864 -2.93864,2.93864 h -31.51364 c -1.6263,0 -2.94216,-1.315863 -2.94216,-2.93864 V 33.856346 c 0,-1.146527 0.93133,-2.077861 2.07786,-2.077861 h 33.23872 c 1.15005,0 2.07786,0.931334 2.07786,2.077861" />
    <path
       inkscape:connector-curvature="0"
       id="path20558"
       style="fill:#524587;fill-opacity:1;fill-rule:nonzero;stroke:none;stroke-width:0.03527778"
       d="m 231.11984,33.856346 v 35.535306 c -1.02306,0.335137 -2.08844,0.560916 -3.15383,0.709083 -8.61484,1.185333 -17.7412,-3.182056 -22.22147,-10.63625 -2.91042,-4.84364 -3.88762,-10.653889 -3.73239,-16.301861 0.10583,-3.831167 0.70202,-7.62 1.44991,-11.384139 h 25.57992 c 1.15005,0 2.07786,0.931334 2.07786,2.077861" />
  </g>
</svg>
