<?xml version="1.0" encoding="UTF-8" standalone="no"?>
<!-- Created with Inkscape (http://www.inkscape.org/) -->

<svg
   xmlns:dc="http://purl.org/dc/elements/1.1/"
   xmlns:cc="http://creativecommons.org/ns#"
   xmlns:rdf="http://www.w3.org/1999/02/22-rdf-syntax-ns#"
   xmlns:svg="http://www.w3.org/2000/svg"
   xmlns="http://www.w3.org/2000/svg"
   xmlns:sodipodi="http://sodipodi.sourceforge.net/DTD/sodipodi-0.dtd"
   xmlns:inkscape="http://www.inkscape.org/namespaces/inkscape"
   width="20.952881mm"
   height="20.952881mm"
   viewBox="0 0 20.952881 20.952881"
   version="1.1"
   id="svg4188"
   inkscape:version="0.92.5 (2060ec1f9f, 2020-04-08)"
   sodipodi:docname="clock-red.svg">
  <defs
     id="defs4182" />
  <sodipodi:namedview
     id="base"
     pagecolor="#ffffff"
     bordercolor="#666666"
     borderopacity="1.0"
     inkscape:pageopacity="0.0"
     inkscape:pageshadow="2"
     inkscape:zoom="0.35"
     inkscape:cx="358.16743"
     inkscape:cy="265.31027"
     inkscape:document-units="mm"
     inkscape:current-layer="layer1"
     showgrid="false"
     inkscape:window-width="1366"
     inkscape:window-height="704"
     inkscape:window-x="0"
     inkscape:window-y="27"
     inkscape:window-maximized="1" />
  <metadata
     id="metadata4185">
    <rdf:RDF>
      <cc:Work
         rdf:about="">
        <dc:format>image/svg+xml</dc:format>
        <dc:type
           rdf:resource="http://purl.org/dc/dcmitype/StillImage" />
        <dc:title></dc:title>
      </cc:Work>
    </rdf:RDF>
  </metadata>
  <g
     inkscape:label="Layer 1"
     inkscape:groupmode="layer"
     id="layer1"
     transform="translate(127.64906,-198.07713)">
    <path
       inkscape:connector-curvature="0"
       id="path686"
       style="fill:#d82930;fill-opacity:1;fill-rule:nonzero;stroke:none;stroke-width:0.03527778"
       d="m -127.64906,208.55322 c 0,5.78626 4.69018,10.47679 10.47609,10.47679 5.78591,0 10.47679,-4.69053 10.47679,-10.47679 0,-5.78556 -4.69088,-10.47609 -10.47679,-10.47609 -5.78591,0 -10.47609,4.69053 -10.47609,10.47609" />
    <path
       inkscape:connector-curvature="0"
       id="path688"
       style="fill:#c6252b;fill-opacity:1;fill-rule:nonzero;stroke:none;stroke-width:0.03527778"
       d="m -117.17297,217.84115 c -5.12904,0 -9.28758,-4.15819 -9.28758,-9.28793 0,-5.12904 4.15854,-9.28758 9.28758,-9.28758 5.12903,0 9.28793,4.15854 9.28793,9.28758 0,5.12974 -4.1589,9.28793 -9.28793,9.28793" />
    <path
       inkscape:connector-curvature="0"
       id="path690"
       style="fill:#82171a;fill-opacity:1;fill-rule:nonzero;stroke:none;stroke-width:0.03527778"
       d="m -124.7778,208.55322 c 0,4.37444 3.54612,7.92021 7.92056,7.92021 4.3741,0 7.91987,-3.54577 7.91987,-7.92021 0,-4.37409 -3.54577,-7.92057 -7.91987,-7.92057 -4.37444,0 -7.92056,3.54648 -7.92056,7.92057" />
    <path
       inkscape:connector-curvature="0"
       id="path692"
       style="fill:#ffffff;fill-opacity:1;fill-rule:nonzero;stroke:none;stroke-width:0.03527778"
       d="m -124.7778,208.55322 c 0,4.14584 3.36091,7.50605 7.5057,7.50605 4.14549,0 7.50605,-3.36021 7.50605,-7.50605 0,-4.14479 -3.36056,-7.5057 -7.50605,-7.5057 -4.14479,0 -7.5057,3.36091 -7.5057,7.5057" />
    <path
       inkscape:connector-curvature="0"
       id="path694"
       style="fill:#1c2027;fill-opacity:1;fill-rule:nonzero;stroke:none;stroke-width:0.03527778"
       d="m -117.36947,201.05034 c 0.0325,-0.001 0.0649,-0.003 0.0974,-0.003 0.11183,0 0.22225,0.004 0.33373,0.009 v 0.85372 h -0.4311 v -0.85972" />
    <path
       inkscape:connector-curvature="0"
       id="path696"
       style="fill:#1c2027;fill-opacity:1;fill-rule:nonzero;stroke:none;stroke-width:0.03527778"
       d="m -117.36947,216.0568 v -0.78669 h 0.4311 v 0.78105 c -0.11148,0.005 -0.2219,0.008 -0.33373,0.008 -0.0325,0 -0.0649,-0.002 -0.0974,-0.002" />
    <path
       inkscape:connector-curvature="0"
       id="path698"
       style="fill:#1c2027;fill-opacity:1;fill-rule:nonzero;stroke:none;stroke-width:0.03527778"
       d="m -120.69863,201.87619 0.44732,0.79128 -0.37465,0.21202 -0.44979,-0.79586 c 0.12382,-0.0727 0.24941,-0.14182 0.37712,-0.20744" />
    <path
       inkscape:connector-curvature="0"
       id="path700"
       style="fill:#1c2027;fill-opacity:1;fill-rule:nonzero;stroke:none;stroke-width:0.03527778"
       d="m -113.69423,215.15334 -0.36266,-0.64135 0.37536,-0.21132 0.35877,0.635 c -0.1217,0.0755 -0.24553,0.14888 -0.37147,0.21767" />
    <path
       inkscape:connector-curvature="0"
       id="path702"
       style="fill:#1c2027;fill-opacity:1;fill-rule:nonzero;stroke:none;stroke-width:0.03527778"
       d="m -123.76145,204.78414 c 0.072,-0.12453 0.14781,-0.24694 0.22684,-0.36654 l 0.8008,0.49178 -0.22472,0.36759 -0.80292,-0.49283" />
    <path
       inkscape:connector-curvature="0"
       id="path704"
       style="fill:#1c2027;fill-opacity:1;fill-rule:nonzero;stroke:none;stroke-width:0.03527778"
       d="m -110.75171,212.27044 c -0.0713,0.12418 -0.14605,0.24659 -0.22437,0.36653 l -0.59866,-0.36724 0.22578,-0.36689 0.59725,0.3676" />
    <path
       inkscape:connector-curvature="0"
       id="path706"
       style="fill:#1c2027;fill-opacity:1;fill-rule:nonzero;stroke:none;stroke-width:0.03527778"
       d="m -123.83412,208.8051 h -0.93698 c -0.004,-0.0836 -0.007,-0.16722 -0.007,-0.25188 0,-0.0596 0.003,-0.11854 0.004,-0.17851 h 0.93945 v 0.43039" />
    <path
       inkscape:connector-curvature="0"
       id="path708"
       style="fill:#1c2027;fill-opacity:1;fill-rule:nonzero;stroke:none;stroke-width:0.03527778"
       d="m -110.47407,208.37471 h 0.70308 c 10e-4,0.06 0.005,0.11889 0.005,0.17851 0,0.0847 -0.003,0.16827 -0.007,0.25188 h -0.70097 v -0.43039" />
    <path
       inkscape:connector-curvature="0"
       id="path710"
       style="fill:#1c2027;fill-opacity:1;fill-rule:nonzero;stroke:none;stroke-width:0.03527778"
       d="m -123.13986,211.56241 0.20391,0.37924 -0.79798,0.42862 c -0.073,-0.12276 -0.14217,-0.2487 -0.20849,-0.37641 l 0.80256,-0.43145" />
    <path
       inkscape:connector-curvature="0"
       id="path712"
       style="fill:#1c2027;fill-opacity:1;fill-rule:nonzero;stroke:none;stroke-width:0.03527778"
       d="m -111.16764,205.6174 -0.20425,-0.37959 0.64946,-0.34889 c 0.0702,0.12453 0.13794,0.25153 0.20108,0.381 l -0.64629,0.34748" />
    <path
       inkscape:connector-curvature="0"
       id="path714"
       style="fill:#1c2027;fill-opacity:1;fill-rule:nonzero;stroke:none;stroke-width:0.03527778"
       d="m -120.47391,214.39028 0.38064,0.20144 -0.3944,0.744 c -0.13053,-0.0614 -0.25859,-0.12594 -0.38418,-0.19508 l 0.39794,-0.75036" />
    <path
       inkscape:connector-curvature="0"
       id="path716"
       style="fill:#1c2027;fill-opacity:1;fill-rule:nonzero;stroke:none;stroke-width:0.03527778"
       d="m -113.83358,202.78954 -0.38064,-0.2025 0.37535,-0.70697 c 0.12806,0.0653 0.25365,0.13441 0.37712,0.20708 l -0.37183,0.70239" />
    <path
       inkscape:connector-curvature="0"
       id="path718"
       style="fill:#1c2027;fill-opacity:1;fill-rule:nonzero;stroke:none;stroke-width:0.03527778"
       d="m -117.48694,208.59026 h 0.43003 v -5.71077 h -0.43003 v 5.71077" />
    <path
       inkscape:connector-curvature="0"
       id="path720"
       style="fill:#1c2027;fill-opacity:1;fill-rule:nonzero;stroke:none;stroke-width:0.03527778"
       d="m -117.05691,208.79487 -0.0917,-0.42016 -3.75391,0.81845 0.0917,0.42016 3.7539,-0.81845" />
    <path
       inkscape:connector-curvature="0"
       id="path722"
       style="fill:#ed3947;fill-opacity:1;fill-rule:nonzero;stroke:none;stroke-width:0.03527778"
       d="m -118.00165,208.55322 c 0,0.40287 0.32632,0.7299 0.72955,0.7299 0.40322,0 0.72954,-0.32703 0.72954,-0.7299 0,-0.40252 -0.32632,-0.7299 -0.72954,-0.7299 -0.40323,0 -0.72955,0.32738 -0.72955,0.7299" />
  </g>
</svg>
