<?xml version="1.0" encoding="UTF-8" standalone="no"?>
<!-- Created with Inkscape (http://www.inkscape.org/) -->

<svg
   xmlns:dc="http://purl.org/dc/elements/1.1/"
   xmlns:cc="http://creativecommons.org/ns#"
   xmlns:rdf="http://www.w3.org/1999/02/22-rdf-syntax-ns#"
   xmlns:svg="http://www.w3.org/2000/svg"
   xmlns="http://www.w3.org/2000/svg"
   xmlns:sodipodi="http://sodipodi.sourceforge.net/DTD/sodipodi-0.dtd"
   xmlns:inkscape="http://www.inkscape.org/namespaces/inkscape"
   width="16.872301mm"
   height="16.872301mm"
   viewBox="0 0 16.872301 16.872301"
   version="1.1"
   id="svg37114"
   inkscape:version="0.92.5 (2060ec1f9f, 2020-04-08)"
   sodipodi:docname="clock-blue.svg">
  <defs
     id="defs37108" />
  <sodipodi:namedview
     id="base"
     pagecolor="#ffffff"
     bordercolor="#666666"
     borderopacity="1.0"
     inkscape:pageopacity="0.0"
     inkscape:pageshadow="2"
     inkscape:zoom="0.98994949"
     inkscape:cx="8.7811353"
     inkscape:cy="-107.4794"
     inkscape:document-units="mm"
     inkscape:current-layer="layer1"
     showgrid="false"
     inkscape:window-width="1366"
     inkscape:window-height="704"
     inkscape:window-x="0"
     inkscape:window-y="27"
     inkscape:window-maximized="1" />
  <metadata
     id="metadata37111">
    <rdf:RDF>
      <cc:Work
         rdf:about="">
        <dc:format>image/svg+xml</dc:format>
        <dc:type
           rdf:resource="http://purl.org/dc/dcmitype/StillImage" />
        <dc:title></dc:title>
      </cc:Work>
    </rdf:RDF>
  </metadata>
  <g
     inkscape:label="Layer 1"
     inkscape:groupmode="layer"
     id="layer1"
     transform="translate(-2.1471823,-47.415039)">
    <path
       inkscape:connector-curvature="0"
       id="path20414"
       style="fill:#717ec3;fill-opacity:1;fill-rule:nonzero;stroke:none;stroke-width:0.03527778"
       d="m 19.019484,55.851014 c 0,4.659488 -3.776839,8.436327 -8.435975,8.436327 -4.659488,0 -8.4363267,-3.776839 -8.4363267,-8.436327 0,-4.659136 3.7768387,-8.435975 8.4363267,-8.435975 4.659136,0 8.435975,3.776839 8.435975,8.435975" />
    <path
       inkscape:connector-curvature="0"
       id="path20416"
       style="fill:#fff9f5;fill-opacity:1;fill-rule:nonzero;stroke:none;stroke-width:0.03527778"
       d="M 10.583509,56.203791 H 5.849232 c -0.195086,0 -0.3527777,-0.157691 -0.3527777,-0.352777 0,-0.194734 0.1576917,-0.352778 0.3527777,-0.352778 h 4.481336 l 1.769886,-5.228166 c 0.06244,-0.184503 0.262466,-0.283634 0.446969,-0.221192 0.184856,0.06244 0.283634,0.26282 0.221192,0.447322 l -1.851025,5.468055 c -0.04868,0.143228 -0.182739,0.239536 -0.334081,0.239536" />
  </g>
</svg>
