<?xml version="1.0" encoding="UTF-8" standalone="no"?>
<!-- Created with Inkscape (http://www.inkscape.org/) -->

<svg
   xmlns:dc="http://purl.org/dc/elements/1.1/"
   xmlns:cc="http://creativecommons.org/ns#"
   xmlns:rdf="http://www.w3.org/1999/02/22-rdf-syntax-ns#"
   xmlns:svg="http://www.w3.org/2000/svg"
   xmlns="http://www.w3.org/2000/svg"
   xmlns:sodipodi="http://sodipodi.sourceforge.net/DTD/sodipodi-0.dtd"
   xmlns:inkscape="http://www.inkscape.org/namespaces/inkscape"
   width="19.382355mm"
   height="37.743401mm"
   viewBox="0 0 19.382355 37.743401"
   version="1.1"
   id="svg6340"
   inkscape:version="0.92.5 (2060ec1f9f, 2020-04-08)"
   sodipodi:docname="door-open.svg">
  <defs
     id="defs6334" />
  <sodipodi:namedview
     id="base"
     pagecolor="#ffffff"
     bordercolor="#666666"
     borderopacity="1.0"
     inkscape:pageopacity="0.0"
     inkscape:pageshadow="2"
     inkscape:zoom="2.8"
     inkscape:cx="31.378788"
     inkscape:cy="84.428993"
     inkscape:document-units="mm"
     inkscape:current-layer="layer1"
     showgrid="false"
     inkscape:window-width="1366"
     inkscape:window-height="704"
     inkscape:window-x="0"
     inkscape:window-y="27"
     inkscape:window-maximized="1" />
  <metadata
     id="metadata6337">
    <rdf:RDF>
      <cc:Work
         rdf:about="">
        <dc:format>image/svg+xml</dc:format>
        <dc:type
           rdf:resource="http://purl.org/dc/dcmitype/StillImage" />
        <dc:title></dc:title>
      </cc:Work>
    </rdf:RDF>
  </metadata>
  <g
     inkscape:label="Layer 1"
     inkscape:groupmode="layer"
     id="layer1"
     transform="translate(-71.195728,-284.93189)">
    <path
       inkscape:connector-curvature="0"
       id="path2820"
       style="fill:#c75b3b;fill-opacity:1;fill-rule:nonzero;stroke:none;stroke-width:0.03527778"
       d="M 90.57808,286.68943 H 71.195728 v 31.88049 h 0.985343 v -30.90788 h 17.4117 v 30.90788 h 0.985309 v -31.88049" />
    <path
       inkscape:connector-curvature="0"
       id="path2822"
       style="fill:#95452b;fill-opacity:1;fill-rule:nonzero;stroke:none;stroke-width:0.03527778"
       d="m 89.592771,287.66204 v 30.90788 h 0.985309 v -31.88049 l -0.985309,0.97261" />
    <path
       inkscape:connector-curvature="0"
       id="path2824"
       style="fill:#702a18;fill-opacity:1;fill-rule:nonzero;stroke:none;stroke-width:0.03527778"
       d="m 89.919443,318.56992 h -0.326672 v -30.90788 l 0.07761,-0.0624 0.249061,30.97032" />
    <path
       inkscape:connector-curvature="0"
       id="path2826"
       style="fill:#c75b3b;fill-opacity:1;fill-rule:nonzero;stroke:none;stroke-width:0.03527778"
       d="m 71.195728,286.68943 v 31.88049 h 0.985343 v -30.90788 l -0.985343,-0.97261" />
    <path
       inkscape:connector-curvature="0"
       id="path2828"
       style="fill:#b75435;fill-opacity:1;fill-rule:nonzero;stroke:none;stroke-width:0.03527778"
       d="m 72.181071,287.66204 h 17.4117 l 0.985309,-0.97261 H 71.195728 l 0.985343,0.97261" />
    <path
       inkscape:connector-curvature="0"
       id="path2830"
       style="fill:#dc613f;fill-opacity:1;fill-rule:nonzero;stroke:none;stroke-width:0.03527778"
       d="m 90.57808,286.68943 -0.985309,0.97261 0.979311,-0.78564 0.006,-0.18697" />
    <path
       inkscape:connector-curvature="0"
       id="path2832"
       style="fill:#dc613f;fill-opacity:1;fill-rule:nonzero;stroke:none;stroke-width:0.03527778"
       d="m 71.232946,286.68943 0.98552,0.97261 -0.978923,-0.78564 -0.0066,-0.18697" />
    <path
       inkscape:connector-curvature="0"
       id="path2834"
       style="fill:#ac422a;fill-opacity:1;fill-rule:nonzero;stroke:none;stroke-width:0.03527778"
       d="m 72.181071,318.53962 v 0 -30.87758 h 7.2644 -7.2644 v 30.87758" />
    <path
       inkscape:connector-curvature="0"
       id="path2836"
       style="fill:#ed8255;fill-opacity:1;fill-rule:nonzero;stroke:none;stroke-width:0.03527778"
       d="m 72.181071,318.56992 v 0 l -0.317958,-31.19328 0.154975,0.12418 0.162983,0.16122 v 30.87758 0.0303" />
    <path
       inkscape:connector-curvature="0"
       id="path2838"
       style="fill:#e67c4e;fill-opacity:1;fill-rule:nonzero;stroke:none;stroke-width:0.03527778"
       d="m 79.445471,287.66204 h -7.227005 l -0.302437,-0.29845 7.529089,0.12771 3.44e-4,0.17074 m -7.227005,0 h -0.03739 l -0.162983,-0.16122 0.200378,0.16122" />
    <path
       inkscape:connector-curvature="0"
       id="path2840"
       style="fill:#f48858;fill-opacity:1;fill-rule:nonzero;stroke:none;stroke-width:0.03527778"
       d="m 72.218466,287.66204 v 0 m 0,0 -0.200378,-0.16122 -0.154975,-0.12418 -1.41e-4,-0.0141 0.05306,10e-4 0.302437,0.29845" />
    <path
       inkscape:connector-curvature="0"
       id="path2842"
       style="fill:#c75b3b;fill-opacity:1;fill-rule:nonzero;stroke:none;stroke-width:0.03527778"
       d="m 89.592771,287.66204 -9.313686,-2.73015 v 37.74336 l 9.313686,-4.10533 v -30.90788" />
    <path
       inkscape:connector-curvature="0"
       id="path2844"
       style="fill:#ec6641;fill-opacity:1;fill-rule:nonzero;stroke:none;stroke-width:0.03527778"
       d="m 79.436299,284.93189 h 0.842786 v 37.74336 l -0.715433,-0.0628 -0.127353,-37.68052" />
    <path
       inkscape:connector-curvature="0"
       id="path2846"
       style="fill:#da5938;fill-opacity:1;fill-rule:nonzero;stroke:none;stroke-width:0.03527778"
       d="m 80.279085,322.67525 -0.715433,-0.0628 0.715433,-37.68052 v 37.74336" />
    <path
       inkscape:connector-curvature="0"
       id="path2848"
       style="fill:#70361c;fill-opacity:1;fill-rule:nonzero;stroke:none;stroke-width:0.03527778"
       d="m 85.259602,293.75906 2.709686,-3.91191 0.360892,-0.46285 -6.641747,-1.6958 0.367947,0.6484 3.203222,5.42216" />
    <path
       inkscape:connector-curvature="0"
       id="path2850"
       style="fill:#843f23;fill-opacity:1;fill-rule:nonzero;stroke:none;stroke-width:0.03527778"
       d="m 85.259602,293.75906 -3.203222,-5.42216 -0.367947,-0.6484 v 11.28575 l 0.367947,-0.59161 3.203222,-4.62358" />
    <path
       inkscape:connector-curvature="0"
       id="path2852"
       style="fill:#ec6641;fill-opacity:1;fill-rule:nonzero;stroke:none;stroke-width:0.03527778"
       d="m 85.259602,293.75906 -3.203222,4.62358 -0.367947,0.59161 6.70701,0.0685 -0.369005,-0.59877 -2.766836,-4.68489" />
    <path
       inkscape:connector-curvature="0"
       id="path2854"
       style="fill:#d76140;fill-opacity:1;fill-rule:nonzero;stroke:none;stroke-width:0.03527778"
       d="m 87.969288,289.84715 -2.709686,3.91191 2.766836,4.68489 0.369005,0.59877 -0.06526,-9.65842 -0.360892,0.46285" />
    <path
       inkscape:connector-curvature="0"
       id="path2856"
       style="fill:#d76140;fill-opacity:1;fill-rule:nonzero;stroke:none;stroke-width:0.03527778"
       d="m 85.276888,312.6343 2.855736,3.23303 0.381353,0.3091 -0.06773,-9.4645 -0.373591,0.74825 -2.795764,5.17412" />
    <path
       inkscape:connector-curvature="0"
       id="path2858"
       style="fill:#70361c;fill-opacity:1;fill-rule:nonzero;stroke:none;stroke-width:0.03527778"
       d="m 85.276888,312.6343 2.795764,-5.17412 0.373591,-0.74825 -6.75781,1.7363 0.381352,0.55468 3.207103,3.63139" />
    <path
       inkscape:connector-curvature="0"
       id="path2860"
       style="fill:#ec6641;fill-opacity:1;fill-rule:nonzero;stroke:none;stroke-width:0.03527778"
       d="m 88.132624,315.86733 -2.855736,-3.23303 -3.207103,5.93675 -0.381352,0.64876 6.825544,-3.04338 -0.381353,-0.3091" />
    <path
       inkscape:connector-curvature="0"
       id="path2862"
       style="fill:#843f23;fill-opacity:1;fill-rule:nonzero;stroke:none;stroke-width:0.03527778"
       d="m 85.276888,312.6343 -3.207103,-3.63139 -0.381352,-0.55468 v 10.77158 l 0.381352,-0.64876 3.207103,-5.93675" />
    <path
       inkscape:connector-curvature="0"
       id="path2864"
       style="fill:#c75b3b;fill-opacity:1;fill-rule:nonzero;stroke:none;stroke-width:0.03527778"
       d="M 87.969288,289.84715 82.05638,288.3369 v 10.04574 l 5.970058,0.0613 -0.05715,-8.59681" />
    <path
       inkscape:connector-curvature="0"
       id="path2866"
       style="fill:#c75b3b;fill-opacity:1;fill-rule:nonzero;stroke:none;stroke-width:0.03527778"
       d="m 82.069785,318.57105 6.062839,-2.70372 -0.05997,-8.40715 -6.002867,1.54273 v 9.56814" />
    <path
       inkscape:connector-curvature="0"
       id="path2868"
       style="fill:#f89c68;fill-opacity:1;fill-rule:nonzero;stroke:none;stroke-width:0.03527778"
       d="m 80.279085,322.67525 v -37.74336 l 9.313686,2.73015 -9.115425,-2.49343 -0.198261,37.50664" />
    <path
       inkscape:connector-curvature="0"
       id="path2870"
       style="fill:#70361c;fill-opacity:1;fill-rule:nonzero;stroke:none;stroke-width:0.03527778"
       d="m 80.861874,301.02364 v 5.66071 l 1.699331,-0.35553 v -5.35683 l -1.699331,0.0516" />
    <path
       inkscape:connector-curvature="0"
       id="path2872"
       style="fill:#d5d5d3;fill-opacity:1;fill-rule:nonzero;stroke:none;stroke-width:0.03527778"
       d="m 80.949363,301.1088 v 5.48806 l 1.52647,-0.34424 v -5.19384 l -1.52647,0.05" />
    <path
       inkscape:connector-curvature="0"
       id="path2874"
       style="fill:#e8e6e7;fill-opacity:1;fill-rule:nonzero;stroke:none;stroke-width:0.03527778"
       d="m 81.093296,301.2648 v 5.17384 l 1.382537,-0.32505 v -4.89592 l -1.382537,0.0471" />
    <path
       inkscape:connector-curvature="0"
       id="path2876"
       style="fill:#ffffff;fill-opacity:1;fill-rule:nonzero;stroke:none;stroke-width:0.03527778"
       d="m 81.093296,306.43864 v -5.17384 l 1.382537,-0.0471 -1.236839,0.1906 -0.145698,5.03037" />
    <path
       inkscape:connector-curvature="0"
       id="path2878"
       style="fill:#7f3927;fill-opacity:1;fill-rule:nonzero;stroke:none;stroke-width:0.03527778"
       d="m 82.561205,304.55653 v -0.1717 c 0.253647,-0.0457 0.490008,-0.0871 0.820561,-0.144 0.125589,-0.0218 0.217664,-0.21858 0.205316,-0.44002 -0.0071,-0.11698 -0.04128,-0.21787 -0.09066,-0.28441 -0.0049,-0.008 -0.01023,-0.0157 -0.01552,-0.0233 0.109361,0.036 0.189442,0.21569 0.187678,0.44097 -0.0018,0.26155 -0.112889,0.48853 -0.249414,0.50659 -0.344664,0.0459 -0.59443,0.0794 -0.857955,0.11589" />
    <path
       inkscape:connector-curvature="0"
       id="path2880"
       style="fill:#432217;fill-opacity:1;fill-rule:nonzero;stroke:none;stroke-width:0.03527778"
       d="m 82.475833,304.56839 v -0.16814 c 0.02858,-0.005 0.05715,-0.0103 0.08537,-0.0154 v 0.1717 c -0.02822,0.004 -0.0568,0.008 -0.08537,0.0118" />
    <path
       inkscape:connector-curvature="0"
       id="path2882"
       style="fill:#949293;fill-opacity:1;fill-rule:nonzero;stroke:none;stroke-width:0.03527778"
       d="m 81.833071,304.65767 c -0.118886,0 -0.214488,-0.16397 -0.230011,-0.39013 0.05821,0.12693 0.157339,0.22214 0.287161,0.23745 0.0042,-7.1e-4 0.0081,-0.002 0.01199,-0.002 7.14e-4,0 0.0018,0 0.0025,0 0.0081,0 0.01658,-6.6e-4 0.02505,-0.002 0.211313,-0.0391 0.384527,-0.071 0.5461,-0.10019 v 0.16814 c -0.18415,0.0255 -0.380295,0.0532 -0.623712,0.0878 -0.0063,9.5e-4 -0.0127,0.002 -0.01905,0.002" />
    <path
       inkscape:connector-curvature="0"
       id="path2884"
       style="fill:#435862;fill-opacity:1;fill-rule:nonzero;stroke:none;stroke-width:0.03527778"
       d="m 81.544852,304.02447 c 0.01235,0.23287 0.140053,0.45639 0.345369,0.48052 0.589845,-0.10929 0.792692,-0.26363 1.365956,-0.36174 0.125589,-0.0216 0.265642,-0.28317 0.253294,-0.50479 l 0.05115,0.071 c -0.0127,-0.22144 -0.224366,-0.3944 -0.350308,-0.37511 -0.57397,0.0875 -0.864306,0.13328 -1.453445,0.23044 -0.130175,0.0213 -0.225425,0.22751 -0.212019,0.4597" />
    <path
       inkscape:connector-curvature="0"
       id="path2886"
       style="fill:#6c8996;fill-opacity:1;fill-rule:nonzero;stroke:none;stroke-width:0.03527778"
       d="m 81.670441,304.12438 c 0.01235,0.23206 0.129117,0.40033 0.259292,0.37606 0.588786,-0.10915 0.879122,-0.16083 1.452033,-0.25961 0.125589,-0.0218 0.217664,-0.21858 0.205316,-0.44002 -0.01305,-0.22228 -0.125236,-0.38611 -0.251177,-0.36724 -0.574322,0.0875 -0.863953,0.13395 -1.453445,0.23149 -0.129822,0.0214 -0.225425,0.22712 -0.212019,0.45932" />
    <path
       inkscape:connector-curvature="0"
       id="path2888"
       style="fill:#98adb7;fill-opacity:1;fill-rule:nonzero;stroke:none;stroke-width:0.03527778"
       d="m 81.824252,304.09736 c 0.01129,0.1906 0.113594,0.32797 0.229658,0.30677 0.527756,-0.0966 0.7874,-0.14238 1.302103,-0.22987 0.113242,-0.0197 0.196144,-0.18327 0.185561,-0.36696 -0.01058,-0.18245 -0.110419,-0.31725 -0.223661,-0.29961 -0.514703,0.0795 -0.775053,0.12157 -1.30175,0.20905 -0.116769,0.0189 -0.201789,0.18948 -0.191911,0.38062" />
    <path
       inkscape:connector-curvature="0"
       id="path2890"
       style="fill:#f3f4f6;fill-opacity:1;fill-rule:nonzero;stroke:none;stroke-width:0.03527778"
       d="m 83.521113,303.98683 v 0 0 0" />
    <path
       inkscape:connector-curvature="0"
       id="path2892"
       style="fill:#f6f8f9;fill-opacity:1;fill-rule:nonzero;stroke:none;stroke-width:0.03527778"
       d="m 83.521113,303.98683 c -0.0018,-0.32078 -0.182386,-0.41451 -0.182386,-0.41451 -0.524581,0.0783 -0.789869,0.11962 -1.328561,0.20616 0.536222,-0.11067 0.799747,-0.1633 1.321505,-0.2636 0.22225,0.02 0.189795,0.47005 0.189442,0.47195 v 0" />
    <path
       inkscape:connector-curvature="0"
       id="path2894"
       style="fill:#939594;fill-opacity:1;fill-rule:nonzero;stroke:none;stroke-width:0.03527778"
       d="m 89.681671,295.72248 c 0,0.0386 -0.04269,0.0517 -0.09419,0.0285 -0.05221,-0.0231 -0.09419,-0.073 -0.09419,-0.11162 -7.14e-4,-0.71931 -7.14e-4,-1.43866 -0.0014,-2.15801 0,-0.0386 0.04269,-0.0507 0.09525,-0.0265 0.05186,0.0248 0.09454,0.0757 0.09454,0.11441 0,0.7178 0,1.43549 0,2.15318" />
    <path
       inkscape:connector-curvature="0"
       id="path2896"
       style="fill:#626365;fill-opacity:1;fill-rule:nonzero;stroke:none;stroke-width:0.03527778"
       d="m 89.587127,293.4549 -0.0078,-0.002 c 0,0.76496 0,1.52908 0,2.29376 l 0.0081,0.005 c 0.05151,0.0232 0.09419,0.0101 0.09419,-0.0285 0,-0.71769 0,-1.43538 0,-2.15318 0,-0.0387 -0.04269,-0.0896 -0.09455,-0.11441" />
    <path
       inkscape:connector-curvature="0"
       id="path2898"
       style="fill:#939594;fill-opacity:1;fill-rule:nonzero;stroke:none;stroke-width:0.03527778"
       d="m 89.681671,312.14898 c 0,0.0386 -0.04269,0.0514 -0.09419,0.0285 -0.05221,-0.0226 -0.09419,-0.0729 -0.09419,-0.11162 -7.14e-4,-0.71921 -7.14e-4,-1.43852 -0.0014,-2.15829 0,-0.0386 0.04269,-0.0503 0.09525,-0.0255 0.05186,0.0241 0.09454,0.0751 0.09454,0.11437 0,0.71684 0,1.43453 0,2.15251" />
    <path
       inkscape:connector-curvature="0"
       id="path2900"
       style="fill:#626365;fill-opacity:1;fill-rule:nonzero;stroke:none;stroke-width:0.03527778"
       d="m 89.587127,309.8821 -0.0078,-0.003 c 0,0.76482 0,1.52947 0,2.29429 l 0.0081,0.004 c 0.05151,0.0229 0.09419,0.0101 0.09419,-0.0285 0,-0.71797 0,-1.43566 0,-2.15251 0,-0.0393 -0.04269,-0.0903 -0.09455,-0.11437" />
  </g>
</svg>
