<?xml version="1.0" encoding="UTF-8" standalone="no"?>
<!-- Created with Inkscape (http://www.inkscape.org/) -->

<svg
   xmlns:dc="http://purl.org/dc/elements/1.1/"
   xmlns:cc="http://creativecommons.org/ns#"
   xmlns:rdf="http://www.w3.org/1999/02/22-rdf-syntax-ns#"
   xmlns:svg="http://www.w3.org/2000/svg"
   xmlns="http://www.w3.org/2000/svg"
   xmlns:sodipodi="http://sodipodi.sourceforge.net/DTD/sodipodi-0.dtd"
   xmlns:inkscape="http://www.inkscape.org/namespaces/inkscape"
   width="21.774195mm"
   height="30.62813mm"
   viewBox="0 0 21.774195 30.62813"
   version="1.1"
   id="svg25578"
   inkscape:version="0.92.5 (2060ec1f9f, 2020-04-08)"
   sodipodi:docname="dustbin-blue.svg">
  <defs
     id="defs25572" />
  <sodipodi:namedview
     id="base"
     pagecolor="#ffffff"
     bordercolor="#666666"
     borderopacity="1.0"
     inkscape:pageopacity="0.0"
     inkscape:pageshadow="2"
     inkscape:zoom="0.35"
     inkscape:cx="408.29039"
     inkscape:cy="395.02264"
     inkscape:document-units="mm"
     inkscape:current-layer="layer1"
     showgrid="false"
     inkscape:window-width="1366"
     inkscape:window-height="704"
     inkscape:window-x="0"
     inkscape:window-y="27"
     inkscape:window-maximized="1" />
  <metadata
     id="metadata25575">
    <rdf:RDF>
      <cc:Work
         rdf:about="">
        <dc:format>image/svg+xml</dc:format>
        <dc:type
           rdf:resource="http://purl.org/dc/dcmitype/StillImage" />
        <dc:title></dc:title>
      </cc:Work>
    </rdf:RDF>
  </metadata>
  <g
     inkscape:label="Layer 1"
     inkscape:groupmode="layer"
     id="layer1"
     transform="translate(140.91076,-222.72161)">
    <path
       inkscape:connector-curvature="0"
       id="path20410"
       style="fill:#473b72;fill-opacity:1;fill-rule:nonzero;stroke:none;stroke-width:0.03527778"
       d="m -119.85452,224.37159 -0.42538,0.4258 -1.02263,-1.0227 0.34738,-0.34749 h 0.39758 c 0.19911,0 0.38393,0.0801 0.52063,0.22472 0.13642,0.145 0.20532,0.33408 0.19361,0.53305 z m -0.19057,3.23391 -0.23481,0.2346 -1.02252,-1.0227 1.02252,-1.02235 0.32244,0.32244 z m -0.19057,3.23357 -0.0442,0.0441 -1.02253,-1.02305 1.02253,-1.02235 0.15311,0.15346 z m -0.17434,2.95701 -0.89242,-0.89291 1.00418,-1.00401 z m -0.16948,2.87334 -0.72294,-0.72319 0.81361,-0.81344 z m -0.16922,2.87377 -0.55372,-0.55397 0.6229,-0.62301 z m -0.0588,0.99659 -0.99371,0.99371 -1.02263,-1.02263 1.02263,-1.02278 0.99688,0.99727 z m -0.11081,1.87678 -0.38407,-0.38421 0.43229,-0.43215 z m -0.0798,1.35682 -0.8031,0.80282 -1.02263,-1.02235 1.02263,-1.02264 0.82751,0.82766 z m -0.0894,1.51694 -0.21484,-0.21526 0.24172,-0.24172 z m -0.10128,1.71662 -0.61239,0.61239 -1.02263,-1.02277 1.02263,-1.02264 0.658,0.65857 z m -0.068,1.15672 -0.0455,-0.0456 0.051,-0.0511 z m -1.18057,0.092 h -1.77053 l -0.13737,-0.13765 1.02263,-1.02263 1.02264,1.02263 z m -3.42925,-1.65872 1.02235,-1.02306 1.02277,1.02264 -1.02277,1.02277 z m 0.38612,1.65872 h -1.77024 l -0.13752,-0.13765 1.02264,-1.02224 1.02252,1.02224 z m -3.42925,-1.65914 1.02249,-1.02264 1.02281,1.02306 -1.02267,1.02235 z m 0.3864,1.65914 h -1.77049 l -0.13741,-0.13765 1.02264,-1.02263 1.02266,1.02263 z m -3.42953,-1.65872 1.02291,-1.02306 1.02253,1.02264 -1.02267,1.02277 z m 0.38639,1.65872 h -1.7702 l -0.13755,-0.13765 1.02267,-1.02224 1.02263,1.02224 z m -3.42924,-1.65914 1.02281,-1.02264 1.02249,1.02306 -1.02249,1.02235 z m 0.38639,1.65914 h -1.77034 l -0.13755,-0.13765 1.02267,-1.02263 1.02277,1.02263 z m -3.42924,-1.65872 1.02252,-1.02306 1.02264,1.02264 -1.02264,1.02277 z m 0.38629,1.65872 h -1.13291 l -0.0507,-0.86155 0.29849,-0.29834 1.02249,1.02224 z m -1.35298,-3.73517 0.46786,-0.46782 1.02249,1.02235 -1.02249,1.02306 -0.39839,-0.39868 z m -0.12125,-2.05465 -0.0483,-0.81883 0.63737,-0.63733 1.02249,1.02263 -1.02249,1.02263 z m 0.0656,1.11234 -0.003,-0.0518 0.0277,0.0274 z m -0.1936,-3.28538 0.21826,0.21802 -0.19402,0.19402 z m -0.0896,-1.51941 0.8067,-0.80684 1.02249,1.02263 -1.02249,1.02277 -0.77971,-0.77967 z m -0.10118,-1.71415 0.40901,0.40845 -0.36353,0.36339 z m -0.0683,-1.15933 0.97621,-0.97607 1.02249,1.02235 -1.02249,1.02267 -0.97028,-0.97014 z m -0.12224,-2.07423 0.59958,0.5993 -0.53273,0.53276 z m -0.19057,-3.23395 0.79015,0.79022 -0.70224,0.70203 z m -0.19074,-3.23321 0.98089,0.98037 -0.8716,0.87171 z m -0.0624,-1.06045 -0.12457,-2.11314 0.002,-0.0547 1.16568,1.16593 -1.02263,1.02235 z m 0.58967,-2.87091 h 1.62771 l 0.34742,0.34749 -1.02263,1.0227 -1.28461,-1.28517 c 0.10128,-0.0533 0.21333,-0.085 0.33211,-0.085 z m 3.49648,1.86902 -1.02263,1.02235 -1.02253,-1.02235 1.02267,-1.0227 z m -0.1761,-1.86902 h 1.35032 l 0.34742,0.34749 -1.02277,1.0227 -1.02253,-1.0227 z m 3.21909,1.86867 -1.02249,1.0227 -1.02281,-1.02235 1.02281,-1.0227 z m -0.17639,-1.86867 h 1.35061 l 0.34728,0.34749 -1.02263,1.02235 -1.02267,-1.02235 z m 3.21938,1.86902 -1.02252,1.02235 -1.02292,-1.0227 1.02278,-1.02235 z m -0.17653,-1.86902 h 1.35076 l 0.34727,0.34749 -1.02267,1.0227 -1.02263,-1.0227 z m 3.21953,1.86867 -1.02281,1.0227 -1.02249,-1.02235 1.02263,-1.0227 z m -0.17653,-1.86867 h 1.35075 l 0.34713,0.34749 -1.02253,1.02235 -1.02263,-1.02235 z m 3.21948,1.86902 -1.02277,1.02235 -1.02235,-1.0227 1.02235,-1.02235 z m -0.17664,-1.86902 h 1.35061 l 0.34738,0.34749 -1.02249,1.0227 -1.02263,-1.0227 z m 1.17437,1.86902 1.02249,-1.0227 1.02263,1.0227 -1.02249,1.02235 z m 0,3.04271 1.02263,-1.02235 1.02249,1.02235 -1.02249,1.02235 z m 0,3.04306 1.02263,-1.0227 1.02249,1.0227 -1.02249,1.02235 z m 0,3.04303 1.02263,-1.02267 1.02249,1.02267 -1.02249,1.02238 z m 0,3.04271 1.02263,-1.02235 1.02249,1.02235 -1.02249,1.02266 z m -1.5215,1.52149 1.02263,-1.02263 1.02264,1.02263 -1.02264,1.02277 z m 0,3.04313 1.02263,-1.02263 1.02264,1.02263 -1.02264,1.02263 z m 1.02263,2.02036 1.02264,1.02235 -1.02264,1.02263 -1.02263,-1.02263 z m -2.54398,-0.49886 1.02235,-1.02264 1.02277,1.02264 -1.02277,1.02235 z m -0.49901,0.49886 1.02253,1.02235 -1.02253,1.02306 -1.02277,-1.02306 z m -2.54412,-0.49886 1.02263,-1.02264 1.02267,1.02264 -1.02281,1.02235 z m -0.49887,0.49886 1.02253,1.02235 -1.02253,1.02263 -1.02249,-1.02263 z m -2.54427,-0.49886 1.02278,-1.02264 1.02266,1.02264 -1.02252,1.02235 z m -0.49868,0.49886 1.02277,1.02235 -1.02277,1.02306 -1.02267,-1.02306 z m -2.54417,-0.49886 1.02281,-1.02264 1.02249,1.02264 -1.02249,1.02235 z m -0.49882,0.49886 1.02277,1.02235 -1.02277,1.02263 -1.02267,-1.02263 z m -0.49887,-0.49886 -1.02263,1.02235 -1.02253,-1.02235 1.02253,-1.02264 z m 0,-3.04299 -1.02263,1.02263 -1.02253,-1.02263 1.02253,-1.02278 z m 0,-3.04313 -1.02263,1.02266 -1.02253,-1.02266 1.02253,-1.02235 z m -1.02263,-4.06538 1.02263,1.02267 -1.02263,1.02238 -1.02253,-1.02238 z m -0.49886,-0.49918 -1.02249,1.02302 -1.02278,-1.02302 1.02278,-1.02235 z m 0,-3.04306 -1.02249,1.02305 -1.02264,-1.02305 1.02264,-1.02235 z m -1.02249,-2.02001 -1.02264,-1.0227 1.02264,-1.02235 1.02249,1.02235 z m 2.54398,0.49883 -1.02263,1.02235 -1.02253,-1.02235 1.02253,-1.02235 z m 0.49887,-0.49883 -1.02267,-1.0227 1.02267,-1.02235 1.02277,1.02235 z m 2.54412,0.49883 -1.02249,1.02235 -1.02281,-1.02235 1.02281,-1.02235 z m 0.49887,-0.49883 -1.02267,-1.0227 1.02267,-1.0227 1.02277,1.0227 z m 2.54412,0.49883 -1.02266,1.02235 -1.02278,-1.02235 1.02292,-1.02235 z m 0.49883,-0.49883 -1.02249,-1.0227 1.02249,-1.02235 1.02253,1.02235 z m 2.54417,0.49883 -1.02267,1.02235 -1.02263,-1.02235 1.02249,-1.02235 z m 0.49882,-0.49883 -1.02277,-1.0227 1.02277,-1.0227 1.02253,1.0227 z m 2.54413,0.49883 -1.02277,1.02235 -1.02235,-1.02235 1.02235,-1.02235 z m -0.52377,-1.52153 1.02263,-1.02235 1.02264,1.02235 -1.02264,1.0227 z m 0,3.04271 1.02263,-1.02235 1.02264,1.02235 -1.02264,1.02305 z m 0,3.04306 1.02263,-1.02235 1.02264,1.02235 -1.02264,1.02302 z m 0,3.04306 1.02263,-1.02235 1.02264,1.02235 -1.02264,1.02267 z m -1.52135,1.5215 1.02235,-1.02235 1.02277,1.02235 -1.02277,1.02266 z m 0,3.04313 1.02235,-1.02278 1.02277,1.02278 -1.02277,1.02263 z m -0.49901,0.49886 1.02253,1.02263 -1.02253,1.02263 -1.02263,-1.02263 z m -2.54412,-0.49886 1.02249,-1.02278 1.02281,1.02278 -1.02267,1.02263 z m -0.49887,0.49886 1.02267,1.02263 -1.02267,1.02263 -1.02263,-1.02263 z m -2.54427,-0.49886 1.02292,-1.02278 1.02252,1.02278 -1.02266,1.02263 z m -0.49868,0.49886 1.02263,1.02263 -1.02263,1.02263 -1.02267,-1.02263 z m -2.54417,-0.49886 1.02281,-1.02278 1.02249,1.02278 -1.02249,1.02263 z m 0.52395,1.52149 -1.02277,1.02263 -1.02267,-1.02263 1.02267,-1.02263 z m 0,-3.04313 -1.02277,1.02277 -1.02267,-1.02277 1.02267,-1.02263 z m 0,-3.04299 -1.02277,1.02267 -1.02267,-1.02267 1.02267,-1.02235 z m -1.02277,-4.06541 1.02277,1.02235 -1.02277,1.02302 -1.02267,-1.02302 z m -0.49887,-0.49883 -1.02263,1.02235 -1.02253,-1.02235 1.02253,-1.0227 z m 0.49887,-0.49883 -1.02267,-1.02305 1.02267,-1.02235 1.02277,1.02235 z m 2.54412,0.49883 -1.02249,1.02235 -1.02281,-1.02235 1.02281,-1.0227 z m 0.49887,-0.49883 -1.02267,-1.02305 1.02267,-1.02235 1.02263,1.02235 z m 2.54412,0.49883 -1.02252,1.02235 -1.02292,-1.02235 1.02278,-1.0227 z m 0.49883,-0.49883 -1.02263,-1.02305 1.02263,-1.02235 1.02267,1.02235 z m 2.54417,0.49883 -1.02281,1.02235 -1.02249,-1.02235 1.02263,-1.0227 z m 0.49882,-0.49883 -1.02263,-1.02305 1.02263,-1.02235 1.02253,1.02235 z m 0.49901,0.49883 1.02235,-1.0227 1.02277,1.0227 -1.02277,1.02235 z m 0,3.04303 1.02235,-1.02267 1.02277,1.02267 -1.02277,1.02238 z m -1.52164,1.52121 1.02263,-1.02235 1.02253,1.02235 -1.02253,1.02267 z m 1.02263,2.02036 1.02253,1.02263 -1.02253,1.02277 -1.02277,-1.02277 z m -2.54412,-0.49886 1.02263,-1.02235 1.02267,1.02235 -1.02281,1.02266 z m -0.49887,0.49886 1.02253,1.02263 -1.02253,1.02277 -1.02249,-1.02277 z m -2.54427,-0.49886 1.02278,-1.02235 1.02266,1.02235 -1.02252,1.02266 z m -0.49868,0.49886 1.02277,1.02263 -1.02277,1.02277 -1.02267,-1.02277 z m -0.49887,-0.49886 -1.02249,1.02266 -1.02281,-1.02266 1.02281,-1.02235 z m 0,-3.04271 -1.02249,1.02238 -1.02281,-1.02238 1.02281,-1.02267 z m 0.49887,-0.49883 -1.02267,-1.02302 1.02267,-1.02235 1.02277,1.02235 z m 1.02263,2.02004 -1.02263,1.02267 -1.02267,-1.02267 1.02267,-1.02235 z m 1.52149,-1.52121 -1.02266,1.02238 -1.02278,-1.02238 1.02292,-1.02267 z m 0.49883,-0.49883 -1.02249,-1.02302 1.02249,-1.02235 1.02253,1.02235 z m 1.02267,2.02004 -1.02267,1.02267 -1.02263,-1.02267 1.02263,-1.02235 z m 0.99755,-3.04306 1.02277,-1.02235 1.02253,1.02235 -1.02253,1.02302 z m 0.52395,1.52185 -1.02267,1.02238 -1.02263,-1.02238 1.02249,-1.02267 z m 7.34077,-11.25711 c -0.26733,-0.28363 -0.64407,-0.44626 -1.03378,-0.44626 h -18.93245 c -0.38972,0 -0.76662,0.16263 -1.03396,0.44626 -0.26733,0.28328 -0.4076,0.66922 -0.38446,1.05834 l 1.67707,28.45188 c 0.0222,0.37715 0.33472,0.67165 0.71258,0.67165 h 16.98985 c 0.37796,0 0.69038,-0.2945 0.71271,-0.67165 l 1.67707,-28.45188 c 0.023,-0.38912 -0.11715,-0.77506 -0.38463,-1.05834" />
  </g>
</svg>
