<?xml version="1.0" encoding="UTF-8" standalone="no"?>
<!-- Created with Inkscape (http://www.inkscape.org/) -->

<svg
   xmlns:dc="http://purl.org/dc/elements/1.1/"
   xmlns:cc="http://creativecommons.org/ns#"
   xmlns:rdf="http://www.w3.org/1999/02/22-rdf-syntax-ns#"
   xmlns:svg="http://www.w3.org/2000/svg"
   xmlns="http://www.w3.org/2000/svg"
   xmlns:sodipodi="http://sodipodi.sourceforge.net/DTD/sodipodi-0.dtd"
   xmlns:inkscape="http://www.inkscape.org/namespaces/inkscape"
   width="14.115391mm"
   height="21.171959mm"
   viewBox="0 0 14.115391 21.171959"
   version="1.1"
   id="svg38339"
   inkscape:version="0.92.5 (2060ec1f9f, 2020-04-08)"
   sodipodi:docname="flower-pot-2.svg">
  <defs
     id="defs38333" />
  <sodipodi:namedview
     id="base"
     pagecolor="#ffffff"
     bordercolor="#666666"
     borderopacity="1.0"
     inkscape:pageopacity="0.0"
     inkscape:pageshadow="2"
     inkscape:zoom="0.35"
     inkscape:cx="-354.75382"
     inkscape:cy="-345.70428"
     inkscape:document-units="mm"
     inkscape:current-layer="layer1"
     showgrid="false"
     inkscape:window-width="1366"
     inkscape:window-height="704"
     inkscape:window-x="0"
     inkscape:window-y="27"
     inkscape:window-maximized="1" />
  <metadata
     id="metadata38336">
    <rdf:RDF>
      <cc:Work
         rdf:about="">
        <dc:format>image/svg+xml</dc:format>
        <dc:type
           rdf:resource="http://purl.org/dc/dcmitype/StillImage" />
        <dc:title></dc:title>
      </cc:Work>
    </rdf:RDF>
  </metadata>
  <g
     inkscape:label="Layer 1"
     inkscape:groupmode="layer"
     id="layer1"
     transform="translate(-60.978019,-36.193782)">
    <path
       inkscape:connector-curvature="0"
       id="path20586"
       style="fill:#f14b53;fill-opacity:1;fill-rule:nonzero;stroke:none;stroke-width:0.03527778"
       d="m 69.822887,38.860785 c 0.148166,-0.397228 0.375355,-0.86995 0.144286,-1.234017 -0.552098,-0.869245 -1.160992,-0.358422 -1.577623,-0.275872 0.143581,-0.593373 -0.209197,-1.158523 -0.835024,-1.157111 -1.063625,0.0028 -1.200856,0.682625 -1.122187,1.159227 -0.159102,-0.633941 -1.255183,-0.222602 -1.426986,0.02187 -0.331258,0.470605 -0.05433,1.11125 0.11042,1.179336 -0.342547,0.06421 -0.661106,0.443089 -0.746478,0.790575 -0.372886,1.516591 1.575858,3.01625 1.97485,3.254022 0.398992,0.237772 0.885472,0.273755 1.349728,0.258939 0.585611,-0.0187 1.198033,-0.120298 1.659819,-0.480836 0.760589,-0.594078 1.619956,-1.410053 1.296106,-2.849739 -0.08431,-0.373239 -0.44697,-0.709789 -0.826911,-0.666397" />
    <path
       inkscape:connector-curvature="0"
       id="path20588"
       style="fill:#46a27e;fill-opacity:1;fill-rule:nonzero;stroke:none;stroke-width:0.03527778"
       d="m 62.988876,45.060854 c 0.116769,-0.1143 0.253647,-0.216606 0.324908,-0.363714 0.145697,-0.301978 -0.03316,-0.650522 -0.181681,-0.951442 -0.278341,-0.563739 -0.458964,-1.2192 -0.271991,-1.819275 0.186972,-0.600075 1.131711,-0.606777 1.727553,-0.4064 -0.22472,-0.607836 0.368652,-1.615016 1.016352,-1.617133 0.6477,-0.0018 1.422047,0.578908 1.5875,1.205795 0.440972,-1.205795 1.4478,-1.163814 1.884892,-0.830439 0.436739,0.333727 0.695678,0.843491 0.940153,1.335616 0.418747,-0.762352 1.528585,-1.036814 2.254249,-0.557741 0.725664,0.479072 0.909108,1.607608 0.372533,2.291997 0.541162,0.08255 0.811389,0.763411 0.665339,1.290814 -0.14605,0.527755 -0.569736,0.92463 -0.974725,1.292577 0.74542,0.383117 0.857603,1.473553 0.451203,2.20592 -0.4064,0.733072 -1.163108,1.189919 -1.886302,1.613958 -2.236259,1.309864 -4.21252,1.270706 -6.451247,-0.07373 -1.377245,-0.827264 -2.981325,-3.124553 -1.458736,-4.616803" />
    <path
       inkscape:connector-curvature="0"
       id="path20590"
       style="fill:#377f64;fill-opacity:1;fill-rule:nonzero;stroke:none;stroke-width:0.03527778"
       d="m 64.875178,42.293312 c -0.438855,0.505531 -0.660752,0.872772 -0.535869,1.579034 0.04551,0.256469 0.132997,0.512586 0.278694,0.731661 0.420159,0.631472 0.514703,0.178152 0.389467,1.3335 -0.112183,1.033638 -0.270581,2.175933 0.98425,2.564341 0.226483,0.0702 0.436386,-0.254353 0.2413,-0.414514 -0.714728,-0.586669 -0.840317,-1.210027 -0.567619,-2.099733 0.08502,-0.276931 0.227188,-0.498122 0.169686,-0.797983 -0.04586,-0.23742 -0.185209,-0.367595 -0.314325,-0.55492 -0.46602,-0.675922 -0.902406,-1.330677 -0.437798,-2.181225 0.06914,-0.126647 -0.10548,-0.277989 -0.207786,-0.160161" />
    <path
       inkscape:connector-curvature="0"
       id="path20592"
       style="fill:#377f64;fill-opacity:1;fill-rule:nonzero;stroke:none;stroke-width:0.03527778"
       d="m 67.750317,42.083057 c -0.357364,0.385233 -0.579966,0.843844 -0.533753,1.386769 0.02328,0.274461 0.106539,0.404989 0.196498,0.65405 0.203905,0.216958 0.310444,0.481189 0.320675,0.792339 -0.09525,0.184503 -0.182386,0.372886 -0.261761,0.564444 -0.286809,0.9017 0.06138,1.982259 0.996949,2.312459 0.22225,0.07867 0.412045,-0.246239 0.233187,-0.400756 -0.498123,-0.430036 -0.8382,-0.875594 -0.711553,-1.566686 0.06421,-0.351014 0.300214,-0.646289 0.322439,-1.007533 0.0099,-0.161572 -0.01764,-0.327025 -0.07691,-0.479425 -0.296686,-0.761647 -0.825147,-1.2192 -0.234597,-2.061986 0.104422,-0.149225 -0.128411,-0.325967 -0.251178,-0.193675" />
    <path
       inkscape:connector-curvature="0"
       id="path20594"
       style="fill:#377f64;fill-opacity:1;fill-rule:nonzero;stroke:none;stroke-width:0.03527778"
       d="m 69.550542,42.543784 c 0.908403,0.203553 1.102431,1.042812 0.785989,1.759303 -0.117475,0.266347 -0.299508,0.55245 -0.296686,0.853722 0.0025,0.214842 0.08325,0.334081 0.157692,0.523523 0.174977,0.444852 0.395463,0.684741 0.267405,1.1684 -0.1143,0.431094 -0.428272,0.682272 -0.796925,0.918986 -0.115358,0.07408 -0.07585,0.270933 0.07232,0.267052 0.557389,-0.01446 0.9525,-0.341841 1.166636,-0.863247 0.323144,-0.787047 -0.164748,-1.151114 -0.287867,-1.87078 -0.116417,-0.681567 0.542219,-1.233664 0.319969,-1.95192 -0.176741,-0.571147 -0.721783,-1.037166 -1.302102,-1.119011 -0.200731,-0.02822 -0.295981,0.2667 -0.08643,0.313972" />
    <path
       inkscape:connector-curvature="0"
       id="path20596"
       style="fill:#ce4944;fill-opacity:1;fill-rule:nonzero;stroke:none;stroke-width:0.03527778"
       d="M 74.665467,47.517245 H 61.405962 c -0.254353,0 -0.452614,0.220487 -0.42545,0.473428 l 1.007533,9.375069 h 12.095338 l 1.007534,-9.375069 c 0.02716,-0.252941 -0.171098,-0.473428 -0.42545,-0.473428" />
    <path
       inkscape:connector-curvature="0"
       id="path20598"
       style="fill:#b53d3c;fill-opacity:1;fill-rule:nonzero;stroke:none;stroke-width:0.03527778"
       d="m 63.046378,49.811006 c 3.389136,0.07408 6.976886,0.310445 10.34803,-0.06315 0.18415,-0.02046 0.184503,-0.266347 0,-0.286808 -3.371144,-0.373239 -6.958894,-0.137231 -10.34803,-0.0635 -0.265994,0.006 -0.266347,0.407811 0,0.413455" />
    <path
       inkscape:connector-curvature="0"
       id="path20600"
       style="fill:#b53d3c;fill-opacity:1;fill-rule:nonzero;stroke:none;stroke-width:0.03527778"
       d="m 63.727592,52.058906 c 0.638881,-0.147461 1.306689,-0.06809 1.950509,-0.175683 0.160513,-0.02681 0.160513,-0.297392 0,-0.324203 -0.644173,-0.107597 -1.311275,-0.02822 -1.950509,-0.17533 -0.564091,-0.129822 -0.567619,0.805744 0,0.675216" />
    <path
       inkscape:connector-curvature="0"
       id="path20602"
       style="fill:#b53d3c;fill-opacity:1;fill-rule:nonzero;stroke:none;stroke-width:0.03527778"
       d="m 63.987237,53.724017 c 0.512939,0.01058 1.017058,0.02681 1.528586,-0.0194 0.13088,-0.01199 0.131233,-0.191911 0,-0.203906 -0.511175,-0.04586 -1.016,-0.02999 -1.528586,-0.0194 -0.155928,0.0035 -0.156281,0.239183 0,0.242711" />
  </g>
</svg>
