<?xml version="1.0" encoding="UTF-8" standalone="no"?>
<!-- Created with Inkscape (http://www.inkscape.org/) -->

<svg
   xmlns:dc="http://purl.org/dc/elements/1.1/"
   xmlns:cc="http://creativecommons.org/ns#"
   xmlns:rdf="http://www.w3.org/1999/02/22-rdf-syntax-ns#"
   xmlns:svg="http://www.w3.org/2000/svg"
   xmlns="http://www.w3.org/2000/svg"
   xmlns:sodipodi="http://sodipodi.sourceforge.net/DTD/sodipodi-0.dtd"
   xmlns:inkscape="http://www.inkscape.org/namespaces/inkscape"
   width="15.513755mm"
   height="20.022255mm"
   viewBox="0 0 15.513755 20.022255"
   version="1.1"
   id="svg37730"
   inkscape:version="0.92.5 (2060ec1f9f, 2020-04-08)"
   sodipodi:docname="flower-pot-1.svg">
  <defs
     id="defs37724" />
  <sodipodi:namedview
     id="base"
     pagecolor="#ffffff"
     bordercolor="#666666"
     borderopacity="1.0"
     inkscape:pageopacity="0.0"
     inkscape:pageshadow="2"
     inkscape:zoom="0.35"
     inkscape:cx="-320.68267"
     inkscape:cy="-307.87695"
     inkscape:document-units="mm"
     inkscape:current-layer="layer1"
     showgrid="false"
     inkscape:window-width="1366"
     inkscape:window-height="704"
     inkscape:window-x="0"
     inkscape:window-y="27"
     inkscape:window-maximized="1" />
  <metadata
     id="metadata37727">
    <rdf:RDF>
      <cc:Work
         rdf:about="">
        <dc:format>image/svg+xml</dc:format>
        <dc:type
           rdf:resource="http://purl.org/dc/dcmitype/StillImage" />
        <dc:title></dc:title>
      </cc:Work>
    </rdf:RDF>
  </metadata>
  <g
     inkscape:label="Layer 1"
     inkscape:groupmode="layer"
     id="layer1"
     transform="translate(-51.963361,-47.351968)">
    <path
       inkscape:connector-curvature="0"
       id="path20604"
       style="fill:#ebcf2e;fill-opacity:1;fill-rule:nonzero;stroke:none;stroke-width:0.03527778"
       d="m 58.678133,56.384137 c 0.09102,-0.273403 0.222955,-0.549981 0.183444,-0.835731 -0.04798,-0.347839 -0.335844,-0.607836 -0.493536,-0.921808 -0.561622,-1.119364 0.635353,-2.427111 0.388056,-3.654778 -0.09525,-0.473075 -0.397934,-0.878769 -0.537634,-1.340908 -0.139347,-0.461786 -0.0314,-1.078794 0.424392,-1.237544 -0.04657,-0.393347 0.13088,-0.804686 0.44838,-1.0414 0.817387,0.703086 -0.117122,2.294114 0.659342,3.042708 0.11677,0.112183 0.2667,0.196144 0.346781,0.337255 0.211666,0.372887 -0.192264,0.810331 -0.182739,1.239309 0.0042,0.189794 0.09031,0.366183 0.158044,0.54363 0.28822,0.757767 0.250825,1.595261 0.209197,2.404886 -0.0695,1.351492 -0.138994,2.702631 -0.208491,4.054828 -0.06632,1.289756 -0.9271,0.339725 -1.216731,-0.258233 -0.348897,-0.720019 -0.433211,-1.567745 -0.178505,-2.332214" />
    <path
       inkscape:connector-curvature="0"
       id="path20606"
       style="fill:#3b8a6b;fill-opacity:1;fill-rule:nonzero;stroke:none;stroke-width:0.03527778"
       d="m 57.914016,55.99467 c -1.015647,-0.77223 -2.629605,-0.790222 -3.476272,0.164395 -0.54222,0.612069 -0.687564,1.465792 -0.9398,2.243667 -0.252236,0.778227 -0.733425,1.599141 -1.534583,1.764241 1.12783,0.04339 1.694391,-0.546453 2.076449,-1.319389 0.197203,-0.398286 0.28575,-0.85725 0.568678,-1.199444 0.309386,-0.37465 0.8255,-0.550334 1.308453,-0.4953 0.482953,0.05468 0.928158,0.321733 1.249539,0.686505 0.382411,0.433917 0.599017,1.0033 0.639586,1.580445 0.01199,0.167922 0.01023,0.339372 0.05997,0.500591 0.127,0.410987 0.625122,0.663928 1.031875,0.524228 1.591381,-0.546805 -0.210255,-3.862211 -0.983897,-4.449939" />
    <path
       inkscape:connector-curvature="0"
       id="path20608"
       style="fill:#3b8a6b;fill-opacity:1;fill-rule:nonzero;stroke:none;stroke-width:0.03527778"
       d="m 58.528555,59.010215 c -0.07655,-0.770114 -0.151342,-1.563864 0.07303,-2.304345 0.203553,-0.673453 0.638175,-1.249539 1.072092,-1.8034 0.450497,-0.574322 0.923925,-1.155347 1.554691,-1.523294 0.630767,-0.367595 1.459795,-0.482953 2.083153,-0.102659 0.485422,0.295981 0.764117,0.827617 1.074561,1.30422 0.310092,0.476955 0.733072,0.954264 1.298222,1.017764 -0.233891,0.404989 -0.833613,0.419805 -1.25483,0.218016 -0.421569,-0.202141 -0.754944,-0.555977 -1.174044,-0.763058 -0.680156,-0.335492 -1.55822,-0.217664 -2.12584,0.285397 -0.693913,0.614539 -0.853016,1.648178 -0.733072,2.567164 0.06914,0.527403 0.212725,1.076325 0.03669,1.578681 -0.473427,1.350433 -1.798461,0.595136 -1.904647,-0.474486" />
    <path
       inkscape:connector-curvature="0"
       id="path20610"
       style="fill:#46a27e;fill-opacity:1;fill-rule:nonzero;stroke:none;stroke-width:0.03527778"
       d="m 60.252933,58.418959 c 0.09419,-0.402519 0.202494,-0.812447 0.440619,-1.149703 0.588786,-0.834319 1.876778,-0.964494 2.748139,-0.4318 0.572206,0.349956 0.978606,0.912989 1.496836,1.338792 0.518231,0.426156 1.381831,0.613834 2.538589,0.164395 -0.04833,0.328789 -1.450622,1.537052 -3.017308,0.449439 -0.584553,-0.406048 -1.282347,-0.74295 -1.987903,-0.651228 -0.522817,0.06773 -0.826559,0.640997 -0.893586,1.163814 -0.230717,1.794933 -1.667581,0.579261 -1.325386,-0.883709" />
    <path
       inkscape:connector-curvature="0"
       id="path20612"
       style="fill:#46a27e;fill-opacity:1;fill-rule:nonzero;stroke:none;stroke-width:0.03527778"
       d="m 60.51928,56.14072 c -0.837495,-2.671939 -3.277306,-2.843389 -3.757789,-3.936294 -0.48013,-1.093258 -0.436033,-1.866547 -0.49283,-3.058936 -0.522464,0.778228 -0.838553,1.694039 -0.907345,2.6289 -0.02963,0.405694 -0.01199,0.824441 0.141111,1.201208 0.508353,1.251303 2.289175,1.640064 2.715331,2.921706 0.163689,0.49283 0.08925,1.031169 -0.01235,1.54058 -0.1016,0.509411 -0.228953,1.026584 -0.165806,1.542345 0.133703,1.087261 1.436159,1.713441 2.141714,0.736952 0.581025,-0.804333 0.612775,-2.69875 0.337961,-3.576461" />
    <path
       inkscape:connector-curvature="0"
       id="path20614"
       style="fill:#cc8344;fill-opacity:1;fill-rule:nonzero;stroke:none;stroke-width:0.03527778"
       d="m 64.170177,59.259276 h -8.977136 c -0.172155,0 -0.306211,0.182033 -0.287867,0.390172 l 0.68192,7.724775 h 8.189031 l 0.681919,-7.724775 c 0.01834,-0.208139 -0.115711,-0.390172 -0.287867,-0.390172" />
    <path
       inkscape:connector-curvature="0"
       id="path20616"
       style="fill:#b46b3c;fill-opacity:1;fill-rule:nonzero;stroke:none;stroke-width:0.03527778"
       d="m 56.266191,61.013993 c 2.182989,0.06985 4.403725,0.151694 6.585303,0.02469 0.170039,-0.0099 0.170392,-0.254705 0,-0.264583 -2.181578,-0.126647 -4.401961,-0.0448 -6.585303,0.02505 -0.138289,0.0042 -0.138642,0.210255 0,0.214842" />
    <path
       inkscape:connector-curvature="0"
       id="path20618"
       style="fill:#b46b3c;fill-opacity:1;fill-rule:nonzero;stroke:none;stroke-width:0.03527778"
       d="m 56.971747,62.736606 c 0.611716,0.0127 1.297869,0.112184 1.900413,0.0028 0.06844,-0.01235 0.06844,-0.125589 0,-0.137936 -0.602897,-0.109362 -1.28905,-0.01023 -1.900413,0.0028 -0.08502,0.0018 -0.08537,0.130528 0,0.132291" />
    <path
       inkscape:connector-curvature="0"
       id="path20620"
       style="fill:#b46b3c;fill-opacity:1;fill-rule:nonzero;stroke:none;stroke-width:0.03527778"
       d="m 57.441999,64.555529 c 0.467078,0.01552 0.985309,0.0949 1.445684,0.0039 0.123472,-0.02469 0.123472,-0.225425 0,-0.250119 -0.460728,-0.09137 -0.978959,-0.01199 -1.445684,0.0039 -0.155927,0.0049 -0.15628,0.237067 0,0.242359" />
  </g>
</svg>
