<?xml version="1.0" encoding="UTF-8" standalone="no"?>
<!-- Created with Inkscape (http://www.inkscape.org/) -->

<svg
   xmlns:dc="http://purl.org/dc/elements/1.1/"
   xmlns:cc="http://creativecommons.org/ns#"
   xmlns:rdf="http://www.w3.org/1999/02/22-rdf-syntax-ns#"
   xmlns:svg="http://www.w3.org/2000/svg"
   xmlns="http://www.w3.org/2000/svg"
   xmlns:sodipodi="http://sodipodi.sourceforge.net/DTD/sodipodi-0.dtd"
   xmlns:inkscape="http://www.inkscape.org/namespaces/inkscape"
   width="16.39781mm"
   height="44.968258mm"
   viewBox="0 0 16.39781 44.968258"
   version="1.1"
   id="svg6097"
   inkscape:version="0.92.5 (2060ec1f9f, 2020-04-08)"
   sodipodi:docname="flower-in-pot.svg">
  <defs
     id="defs6091" />
  <sodipodi:namedview
     id="base"
     pagecolor="#ffffff"
     bordercolor="#666666"
     borderopacity="1.0"
     inkscape:pageopacity="0.0"
     inkscape:pageshadow="2"
     inkscape:zoom="0.35"
     inkscape:cx="606.70228"
     inkscape:cy="-520.7349"
     inkscape:document-units="mm"
     inkscape:current-layer="layer1"
     showgrid="false"
     inkscape:window-width="1366"
     inkscape:window-height="704"
     inkscape:window-x="0"
     inkscape:window-y="27"
     inkscape:window-maximized="1" />
  <metadata
     id="metadata6094">
    <rdf:RDF>
      <cc:Work
         rdf:about="">
        <dc:format>image/svg+xml</dc:format>
        <dc:type
           rdf:resource="http://purl.org/dc/dcmitype/StillImage" />
        <dc:title></dc:title>
      </cc:Work>
    </rdf:RDF>
  </metadata>
  <g
     inkscape:label="Layer 1"
     inkscape:groupmode="layer"
     id="layer1"
     transform="translate(193.40724,33.912701)">
    <path
       inkscape:connector-curvature="0"
       id="path102"
       style="fill:#7cbc2a;fill-opacity:1;fill-rule:nonzero;stroke:none;stroke-width:0.03527778"
       d="m -190.42345,-27.395837 c 0,0 3.63397,-0.144992 4.38679,10.549113 h -0.69744 c 0,0 -0.31644,-7.342011 -3.68935,-10.549113" />
    <path
       inkscape:connector-curvature="0"
       id="path104"
       style="fill:#7cbc2a;fill-opacity:1;fill-rule:nonzero;stroke:none;stroke-width:0.03527778"
       d="m -178.90384,-27.395837 c 0,0 -3.63432,-0.144992 -4.38679,10.549113 h 0.69709 c 0,0 0.31644,-7.342011 3.6897,-10.549113" />
    <path
       inkscape:connector-curvature="0"
       id="path106"
       style="fill:#7cbc2a;fill-opacity:1;fill-rule:nonzero;stroke:none;stroke-width:0.03527778"
       d="m -189.37005,-27.697815 2.62114,10.896952 0.38135,-0.09172 -2.62114,-10.896952 -0.38135,0.09172" />
    <path
       inkscape:connector-curvature="0"
       id="path108"
       style="fill:#7cbc2a;fill-opacity:1;fill-rule:nonzero;stroke:none;stroke-width:0.03527778"
       d="m -182.78722,-25.556101 -1.31092,8.680097 0.3877,0.05856 1.31092,-8.680097 -0.3877,-0.05856" />
    <path
       inkscape:connector-curvature="0"
       id="path110"
       style="fill:#7cbc2a;fill-opacity:1;fill-rule:nonzero;stroke:none;stroke-width:0.03527778"
       d="m -185.40412,-30.722532 -0.53517,13.868047 0.39194,0.01517 0.53516,-13.8684 -0.39193,-0.01482" />
    <path
       inkscape:connector-curvature="0"
       id="path112"
       style="fill:#ffffff;fill-opacity:1;fill-rule:nonzero;stroke:none;stroke-width:0.03527778"
       d="m -182.80733,-9.1099539 c -0.18556,-4.0516531 2.46804,-6.9730061 2.46804,-6.9730061 h -4.86869 -4.86904 c 0,0 2.65289,2.921353 2.46768,6.9730061 -3.35633,1.309158 -5.7979,5.289197 -5.7979,9.99736997 0,4.93747703 2.6857,9.07273703 6.29532,10.16811193 h 3.80753 c 3.60927,-1.0953749 6.29496,-5.2306349 6.29496,-10.16811193 0,-4.70817297 -2.44157,-8.68821197 -5.7979,-9.99736997" />
    <path
       inkscape:connector-curvature="0"
       id="path114"
       style="fill:#bcde15;fill-opacity:1;fill-rule:nonzero;stroke:none;stroke-width:0.03527778"
       d="m -182.8165,-9.4920129 c -0.006,-2.2196781 0.81739,-4.0696441 1.51624,-5.2387501 h 3.4e-4 c -0.69885,1.169106 -1.52223,3.018367 -1.51624,5.2383971 -3.4e-4,0 -3.4e-4,0 -3.4e-4,3.44e-4" />
    <path
       inkscape:connector-curvature="0"
       id="path116"
       style="fill:#ffffff;fill-opacity:1;fill-rule:nonzero;stroke:none;stroke-width:0.03527778"
       d="m -184.20433,-9.3057459 c -1.38112,0 -1.96709,-1.1260671 -2.29517,-2.3223361 -0.19156,-0.696031 -0.25259,-1.472495 -0.12629,-2.187222 0.15028,-0.848078 1.05127,-0.856192 1.71697,-0.894998 0.76235,-0.04374 1.52258,-0.117122 2.27964,-0.117122 0.44415,0 0.88724,0.0254 1.32892,0.09666 -0.69885,1.169106 -1.52224,3.019072 -1.51624,5.2387501 -0.42757,0.115006 -0.87701,0.163336 -1.25024,0.182739 -0.0469,0.0025 -0.0924,0.0035 -0.13759,0.0035" />
    <path
       inkscape:connector-curvature="0"
       id="path118"
       style="fill:#ffffff;fill-opacity:1;fill-rule:nonzero;stroke:none;stroke-width:0.03527778"
       d="m -183.14317,7.9129841 c -1.56916,0 -3.15101,-0.674158 -4.24498,-1.83656 -2.18016,-2.315988 -2.7245,-6.56272503 -0.0998,-8.778875 1.22061,-1.030113 2.782,-1.762831 4.39032,-1.762831 0.38876,0 0.78034,0.04268 1.17051,0.134408 0.9906,0.234243 1.80764,0.703792 2.4511,1.327856 2.64619,2.56716197 2.37102,7.755819 -0.7366,9.994194 -0.87736,0.632177 -1.90112,0.921808 -2.93052,0.921808" />
    <path
       inkscape:connector-curvature="0"
       id="path120"
       style="fill:#95cc1e;fill-opacity:1;fill-rule:nonzero;stroke:none;stroke-width:0.03527778"
       d="m -180.84412,-15.432438 c -3.4e-4,0 -3.4e-4,0 -7.1e-4,0 0.29668,-0.420511 0.50553,-0.650522 0.50553,-0.650522 v 0 c 0,0 -0.2085,0.230011 -0.50483,0.650522" />
    <path
       inkscape:connector-curvature="0"
       id="path122"
       style="fill:#69be2b;fill-opacity:1;fill-rule:nonzero;stroke:none;stroke-width:0.03527778"
       d="m -182.13917,10.581749 h -3.4e-4 c 0.48013,-0.247298 0.93768,-0.55104 1.36772,-0.9041709 -0.43004,0.3531309 -0.88759,0.6568729 -1.36737,0.9041709 m 1.36843,-0.9052299 c 0.002,-0.0019 0.004,-0.0032 0.006,-0.0049 -0.002,0.0019 -0.004,0.0032 -0.006,0.0049 m 0.0109,-0.0088 c 7.1e-4,-7.94e-4 0.001,-0.0013 0.002,-0.0021 -7.2e-4,7.94e-4 -10e-4,0.0013 -0.002,0.0021 m -0.17887,-17.705221 c -0.50376,-0.392642 -1.04351,-0.717903 -1.61148,-0.965906 0.0646,0.02469 0.8957,0.349603 1.61148,0.965906" />
    <path
       inkscape:connector-curvature="0"
       id="path124"
       style="fill:#c1a470;fill-opacity:1;fill-rule:nonzero;stroke:none;stroke-width:0.03527778"
       d="m -182.26476,10.644543 v 0 c 0.042,-0.02045 0.0836,-0.04127 0.12524,-0.06279 h 3.4e-4 c -0.0416,0.02117 -0.0836,0.04233 -0.12558,0.06279" />
    <path
       inkscape:connector-curvature="0"
       id="path126"
       style="fill:#cac2a1;fill-opacity:1;fill-rule:nonzero;stroke:none;stroke-width:0.03527778"
       d="m -183.30439,11.055528 h -3.80753 c -0.35595,-0.108302 -0.70309,-0.245885 -1.03929,-0.410985 v 0 c 0.3362,0.1651 0.68334,0.302683 1.03929,0.410985 h 3.80753 c 0.35595,-0.108302 0.70308,-0.245885 1.03963,-0.410985 v 0 c -0.33619,0.1651 -0.68333,0.302683 -1.03963,0.410985" />
    <path
       inkscape:connector-curvature="0"
       id="path128"
       style="fill:#d3eaf2;fill-opacity:1;fill-rule:nonzero;stroke:none;stroke-width:0.03527778"
       d="m -183.30439,11.055528 h -3.80753 c -0.35595,-0.108302 -0.70309,-0.245885 -1.03929,-0.410985 -3.0741,-1.5077739 -5.25603,-5.3064839 -5.25603,-9.75712693 0,-4.70817297 2.44157,-8.68821197 5.7979,-9.99736997 0.006,-0.138289 0.009,-0.27552 0.009,-0.411339 -0.002,-3.8364591 -2.47685,-6.5616671 -2.47685,-6.5616671 h 9.73772 c 0,0 -0.20884,0.230011 -0.50553,0.650522 -0.66181,-0.0049 -1.28446,-0.01482 -1.91523,-0.01482 -1.06186,0 -2.14771,0.02822 -3.48685,0.156986 -0.44944,0.04269 -1.16699,0.210608 -1.26753,0.678391 -0.22225,1.032581 0.0801,2.238728 0.21096,3.275895 0.11359,0.897466 0.35489,1.8760721 1.13841,2.4246411 0.36548,0.255412 0.80328,0.376062 1.24354,0.418395 0,0 0.24554,0.05821 0.6089,0.05821 0.47942,0 1.16381,-0.101247 1.75859,-0.570441 0,0 0.001,7.14e-4 0.004,0.0018 0.56798,0.248003 1.10773,0.573264 1.61149,0.965906 0.0332,0.02822 0.066,0.0575 0.0984,0.08749 0.89465,0.718606 1.67041,1.654527 2.28741,2.745669 -1.47496,-0.27164 -2.94181,-0.488598 -4.43018,-0.488598 -0.57044,0 -1.1437,0.03175 -1.72226,0.104775 -1.59632,0.200723 -3.2251,0.600773 -4.38291,1.785048 -2.5139,2.571044 -1.81504,7.392459 -0.10196,10.179402 0.79834,1.299634 2.02812,2.230615 3.47839,2.675115 0.53552,0.164394 1.05798,0.234595 1.57022,0.234595 1.59279,0 3.08786,-0.678743 4.59493,-1.305628 0.18838,-0.07832 0.36653,-0.162984 0.53692,-0.25259 -0.50729,0.745773 -1.09572,1.399468 -1.74801,1.937808 -7.1e-4,7.94e-4 -0.001,0.0013 -0.002,0.0021 -0.001,0.0011 -0.003,0.0024 -0.005,0.0039 -0.002,0.0019 -0.004,0.0032 -0.006,0.0049 -3.4e-4,2.65e-4 -7.1e-4,7.94e-4 -0.001,0.0011 -0.43004,0.3531319 -0.88759,0.6568729 -1.36772,0.9041719 -0.0416,0.02151 -0.0833,0.04233 -0.12523,0.06279 -0.33655,0.1651 -0.68369,0.302683 -1.03964,0.410985" />
    <path
       inkscape:connector-curvature="0"
       id="path130"
       style="fill:#ffffff;fill-opacity:1;fill-rule:nonzero;stroke:none;stroke-width:0.03527778"
       d="m -180.05249,-16.464665 c 0,0.210961 -0.17145,0.381705 -0.3817,0.381705 h -9.59556 c -0.21061,0 -0.38206,-0.170744 -0.38206,-0.381705 0,-0.210609 0.17145,-0.382059 0.38206,-0.382059 h 9.59556 c 0.21025,0 0.3817,0.17145 0.3817,0.382059" />
    <path
       inkscape:connector-curvature="0"
       id="path132"
       style="fill:#6b850e;fill-opacity:1;fill-rule:nonzero;stroke:none;stroke-width:0.03527778"
       d="m -185.20798,-16.846724 c 0,0 -0.76094,-12.196938 5.97006,-17.065977 0,0 -5.08388,5.470525 -5.1555,17.065977 h -0.81456" />
    <path
       inkscape:connector-curvature="0"
       id="path134"
       style="fill:#87a812;fill-opacity:1;fill-rule:nonzero;stroke:none;stroke-width:0.03527778"
       d="m -185.7435,-16.846724 c 0,0 0.76094,-12.196938 -5.97041,-17.065977 0,0 5.08459,5.470525 5.15585,17.065977 h 0.81456" />
    <path
       inkscape:connector-curvature="0"
       id="path136"
       style="fill:#ffffff;fill-opacity:1;fill-rule:nonzero;stroke:none;stroke-width:0.03527778"
       d="m -189.29809,-30.660796 c 0,0 -1.21038,0.993423 0,1.986845 0,0 1.21285,-0.906639 0,-1.986845" />
    <path
       inkscape:connector-curvature="0"
       id="path138"
       style="fill:#7e9d11;fill-opacity:1;fill-rule:nonzero;stroke:none;stroke-width:0.03527778"
       d="m -189.29315,-30.656562 c -3.4e-4,-3.44e-4 -3.4e-4,-3.44e-4 -7.1e-4,-7.15e-4 3.4e-4,3.44e-4 3.4e-4,3.44e-4 7.1e-4,7.15e-4" />
    <path
       inkscape:connector-curvature="0"
       id="path140"
       style="fill:#eeecd5;fill-opacity:1;fill-rule:nonzero;stroke:none;stroke-width:0.03527778"
       d="m -189.6431,-29.041193 c -0.009,-0.01305 -0.0176,-0.02575 -0.0258,-0.0388 -0.0296,-0.107245 -0.0741,-0.219075 -0.14005,-0.324556 -0.0187,-0.07691 -0.0268,-0.152047 -0.0272,-0.225072 -3.5e-4,-0.589492 0.53798,-1.03117 0.53798,-1.03117 0.001,0.0011 0.003,0.0021 0.004,0.0035 3.5e-4,3.44e-4 3.5e-4,3.44e-4 7.2e-4,7.15e-4 0.0952,0.08537 0.17074,0.16898 0.23742,0.251883 -0.11219,0.03245 -0.21838,0.07866 -0.30411,0.163328 -0.16544,0.161922 -0.16121,0.443086 -0.13581,0.653694 0.0222,0.190148 0.10442,0.372887 0.25435,0.490009 -0.0279,-0.0025 -0.0564,-0.0039 -0.0854,-0.0039 -0.11183,0 -0.21872,0.02117 -0.31644,0.06033" />
    <path
       inkscape:connector-curvature="0"
       id="path142"
       style="fill:#ffffff;fill-opacity:1;fill-rule:nonzero;stroke:none;stroke-width:0.03527778"
       d="m -189.29667,-25.815746 c 0,0 1.21038,-0.993069 0,-1.987197 0,0 -1.21285,0.906639 0,1.987197" />
    <path
       inkscape:connector-curvature="0"
       id="path144"
       style="fill:#a8cd15;fill-opacity:1;fill-rule:nonzero;stroke:none;stroke-width:0.03527778"
       d="m -189.29667,-25.815746 c -0.0123,-0.01093 -0.0247,-0.02187 -0.0363,-0.03281 0.012,0.01093 0.024,0.02187 0.0363,0.03281 0,0 0.0332,-0.02716 0.0829,-0.07691 v 0 c -0.0497,0.04974 -0.0829,0.07691 -0.0829,0.07691" />
    <path
       inkscape:connector-curvature="0"
       id="path146"
       style="fill:#eeecd5;fill-opacity:1;fill-rule:nonzero;stroke:none;stroke-width:0.03527778"
       d="m -189.29667,-25.815746 c -0.0123,-0.01093 -0.0243,-0.02187 -0.0363,-0.03281 -0.0808,-0.07514 -0.1464,-0.149225 -0.20638,-0.222603 0.11219,-0.03281 0.21837,-0.07937 0.30445,-0.164041 0.1651,-0.161925 0.16087,-0.442384 0.13617,-0.653345 -0.024,-0.20073 -0.1143,-0.392994 -0.2801,-0.508705 0.0173,0.0011 0.0349,0.0014 0.0522,0.0014 0.12488,0 0.24342,-0.02681 0.35031,-0.07479 0.018,0.02469 0.0349,0.04939 0.0504,0.07408 0.0296,0.107244 0.0741,0.219075 0.14006,0.324555 0.0187,0.07691 0.0272,0.1524 0.0272,0.225425 0,0.0042 0,0.0081 0,0.01235 -0.004,0.268111 -0.11747,0.504825 -0.23953,0.682625 -0.0773,0.112184 -0.1577,0.200731 -0.21555,0.258939 -0.0497,0.04974 -0.0829,0.07691 -0.0829,0.07691" />
    <path
       inkscape:connector-curvature="0"
       id="path148"
       style="fill:#ffffff;fill-opacity:1;fill-rule:nonzero;stroke:none;stroke-width:0.03527778"
       d="m -187.48692,-29.847643 c 0,0 -1.54623,-0.24518 -1.48485,1.319389 0,0 1.48308,0.304447 1.48485,-1.319389" />
    <path
       inkscape:connector-curvature="0"
       id="path150"
       style="fill:#a8cd15;fill-opacity:1;fill-rule:nonzero;stroke:none;stroke-width:0.03527778"
       d="m -187.48692,-29.829298 c 0,-0.006 0,-0.01199 0,-0.01834 v 0 c 0,0.0064 0,0.01235 0,0.01834" />
    <path
       inkscape:connector-curvature="0"
       id="path152"
       style="fill:#eeecd5;fill-opacity:1;fill-rule:nonzero;stroke:none;stroke-width:0.03527778"
       d="m -188.61193,-28.715226 c -0.0801,-0.122061 -0.1905,-0.22225 -0.32068,-0.290336 0.17463,-0.754239 0.86431,-0.855839 1.22414,-0.855839 0.13335,0 0.22155,0.01376 0.22155,0.01376 0,0.0064 0,0.01235 0,0.01834 -0.001,0.122414 -0.0134,0.231069 -0.0303,0.332669 -0.0988,-0.06209 -0.20391,-0.110419 -0.32421,-0.118886 -0.009,-3.44e-4 -0.018,-7.14e-4 -0.0268,-7.14e-4 -0.22013,0 -0.41663,0.180975 -0.55209,0.334081 -0.13865,0.155231 -0.22402,0.35949 -0.19156,0.566923" />
    <path
       inkscape:connector-curvature="0"
       id="path154"
       style="fill:#ffffff;fill-opacity:1;fill-rule:nonzero;stroke:none;stroke-width:0.03527778"
       d="m -191.10819,-26.629251 c 0,0 1.54728,0.245533 1.4852,-1.319036 0,0 -1.48308,-0.304448 -1.4852,1.319036" />
    <path
       inkscape:connector-curvature="0"
       id="path156"
       style="fill:#eeecd5;fill-opacity:1;fill-rule:nonzero;stroke:none;stroke-width:0.03527778"
       d="m -190.88664,-26.61514 c -0.13335,0 -0.22155,-0.01411 -0.22155,-0.01411 0,-0.129822 0.0131,-0.243417 0.0307,-0.349955 0.0988,0.06174 0.20391,0.110419 0.32456,0.117827 0.009,7.15e-4 0.0176,0.0011 0.0268,0.0011 0.22013,0 0.41663,-0.180269 0.55174,-0.333375 0.12418,-0.1397 0.20497,-0.317147 0.19827,-0.50165 0.0843,0.09913 0.1912,0.178506 0.31256,0.230717 -0.0166,0.0695 -0.0374,0.133703 -0.0621,0.192617 -0.008,0.0187 -0.0162,0.03704 -0.0247,0.05468 -0.001,0.0025 -0.002,0.0049 -0.004,0.0074 -0.0585,0.118176 -0.13264,0.213073 -0.2166,0.289626 -0.28328,0.258939 -0.67416,0.305153 -0.91616,0.305153" />
    <path
       inkscape:connector-curvature="0"
       id="path158"
       style="fill:#ffffff;fill-opacity:1;fill-rule:nonzero;stroke:none;stroke-width:0.03527778"
       d="m -186.87486,-28.220985 c 0,0 -0.98425,-1.217436 -1.98755,-0.01411 0,0 0.89853,1.218495 1.98755,0.01411" />
    <path
       inkscape:connector-curvature="0"
       id="path160"
       style="fill:#a8cd15;fill-opacity:1;fill-rule:nonzero;stroke:none;stroke-width:0.03527778"
       d="m -186.90237,-28.191351 c 0.009,-0.0095 0.0183,-0.01976 0.0275,-0.02963 v 0 c -0.009,0.0099 -0.0183,0.02011 -0.0275,0.02963" />
    <path
       inkscape:connector-curvature="0"
       id="path162"
       style="fill:#eeecd5;fill-opacity:1;fill-rule:nonzero;stroke:none;stroke-width:0.03527778"
       d="m -187.13203,-27.980743 c -0.0318,-0.112183 -0.0783,-0.218722 -0.16228,-0.305153 -0.11536,-0.119591 -0.29351,-0.1524 -0.46249,-0.1524 -0.066,0 -0.13088,0.0053 -0.18979,0.01164 -0.21696,0.02469 -0.42581,0.126295 -0.53799,0.3175 0.007,-0.04551 0.0113,-0.09208 0.0113,-0.1397 v 0 0 0 0 0 c 0,-0.106891 -0.0198,-0.209197 -0.0557,-0.303388 0.21661,-0.155575 0.42686,-0.214137 0.62089,-0.214137 0.59267,0 1.03329,0.545395 1.03329,0.545395 -0.009,0.0099 -0.0183,0.02011 -0.0275,0.02963 -0.078,0.08326 -0.15417,0.150989 -0.22966,0.210608" />
    <path
       inkscape:connector-curvature="0"
       id="path164"
       style="fill:#ffffff;fill-opacity:1;fill-rule:nonzero;stroke:none;stroke-width:0.03527778"
       d="m -191.71991,-28.254851 c 0,0 0.98461,1.216378 1.98685,0.01376 0,0 -0.89853,-1.218847 -1.98685,-0.01376" />
    <path
       inkscape:connector-curvature="0"
       id="path166"
       style="fill:#a8cd15;fill-opacity:1;fill-rule:nonzero;stroke:none;stroke-width:0.03527778"
       d="m -191.71991,-28.254851 c 0.009,-0.01023 0.0183,-0.02046 0.0275,-0.02999 -0.009,0.0099 -0.0183,0.01976 -0.0275,0.02999" />
    <path
       inkscape:connector-curvature="0"
       id="path168"
       style="fill:#eeecd5;fill-opacity:1;fill-rule:nonzero;stroke:none;stroke-width:0.03527778"
       d="m -190.68697,-27.710162 c -0.59196,0 -1.03294,-0.544689 -1.03294,-0.544689 v 0 c 0.009,-0.01023 0.0183,-0.02011 0.0275,-0.02999 0.078,-0.08326 0.15417,-0.150636 0.22966,-0.210609 0.0317,0.111831 0.078,0.21837 0.16193,0.305153 0.11606,0.119945 0.29386,0.152047 0.46319,0.152047 0.0656,0 0.13053,-0.0049 0.18944,-0.01129 0.17851,-0.02011 0.35031,-0.09208 0.46885,-0.224013 -3.5e-4,0.0085 -3.5e-4,0.01658 -3.5e-4,0.02469 v 0 0 c 0,0.125236 0.0268,0.244122 0.0751,0.351366 -0.20284,0.135467 -0.39969,0.187325 -0.58243,0.187325" />
    <path
       inkscape:connector-curvature="0"
       id="path170"
       style="fill:#ffffff;fill-opacity:1;fill-rule:nonzero;stroke:none;stroke-width:0.03527778"
       d="m -187.52502,-26.586212 c 0,0 0.0988,-1.562453 -1.4531,-1.35502 0,0 -0.16439,1.50495 1.4531,1.35502" />
    <path
       inkscape:connector-curvature="0"
       id="path172"
       style="fill:#eeecd5;fill-opacity:1;fill-rule:nonzero;stroke:none;stroke-width:0.03527778"
       d="m -187.71482,-26.577393 c -0.0564,0 -0.11042,-0.0021 -0.16298,-0.006 0.0529,-0.104068 0.0907,-0.213429 0.0878,-0.334079 -0.007,-0.230716 -0.21414,-0.420158 -0.38523,-0.545394 -0.12912,-0.09454 -0.28293,-0.155222 -0.43957,-0.155222 -0.0547,0 -0.10936,0.0074 -0.16368,0.02328 0.11183,-0.09384 0.19932,-0.216253 0.25153,-0.3556 0.94262,0.108302 1.00294,1.066447 1.00294,1.308805 3.5e-4,0.03528 -0.001,0.05539 -0.001,0.05539 v 0 c -0.067,0.0063 -0.12982,0.0088 -0.18979,0.0088" />
    <path
       inkscape:connector-curvature="0"
       id="path174"
       style="fill:#ffffff;fill-opacity:1;fill-rule:nonzero;stroke:none;stroke-width:0.03527778"
       d="m -191.06903,-29.890329 c 0,0 -0.0995,1.562806 1.45274,1.355372 0,0 0.16439,-1.50495 -1.45274,-1.355372" />
    <path
       inkscape:connector-curvature="0"
       id="path176"
       style="fill:#a8cd15;fill-opacity:1;fill-rule:nonzero;stroke:none;stroke-width:0.03527778"
       d="m -191.06903,-29.890329 c 0.0155,-0.0014 0.0307,-0.0028 0.0459,-0.0039 -0.0152,0.0011 -0.0303,0.0025 -0.0459,0.0039" />
    <path
       inkscape:connector-curvature="0"
       id="path178"
       style="fill:#eeecd5;fill-opacity:1;fill-rule:nonzero;stroke:none;stroke-width:0.03527778"
       d="m -190.13064,-28.534604 c -0.8823,-0.142875 -0.9398,-1.063272 -0.9398,-1.299986 0,-0.03563 0.001,-0.05574 0.001,-0.05574 v 0 c 0.0155,-0.0014 0.0307,-0.0028 0.0459,-0.0039 0.0497,-0.0035 0.097,-0.0049 0.14287,-0.0049 0.0568,0 0.11078,0.0021 0.16334,0.0056 -0.0522,0.10407 -0.0907,0.213783 -0.0878,0.334786 0.006,0.23107 0.21413,0.419806 0.38523,0.545042 0.12912,0.0949 0.28258,0.155222 0.43886,0.155222 0.0201,0 0.0402,-0.0011 0.0607,-0.0032 -0.0935,0.09031 -0.16616,0.202142 -0.21061,0.327025" />
    <path
       inkscape:connector-curvature="0"
       id="path180"
       style="fill:#ebb72e;fill-opacity:1;fill-rule:nonzero;stroke:none;stroke-width:0.03527778"
       d="m -188.47329,-28.248854 c 0,0.471664 -0.38241,0.853017 -0.85337,0.853017 -0.47131,0 -0.85302,-0.381353 -0.85302,-0.853017 0,-0.470958 0.38171,-0.852664 0.85302,-0.852664 0.47096,0 0.85337,0.381706 0.85337,0.852664" />
    <path
       inkscape:connector-curvature="0"
       id="path182"
       style="fill:#e3a124;fill-opacity:1;fill-rule:nonzero;stroke:none;stroke-width:0.03527778"
       d="m -189.32666,-27.395837 c -0.11959,0 -0.23354,-0.02434 -0.3369,-0.06879 -0.12136,-0.05221 -0.22825,-0.131586 -0.31256,-0.230717 -0.0519,-0.06068 -0.0952,-0.128764 -0.12842,-0.202141 -0.0483,-0.107245 -0.0751,-0.226131 -0.0751,-0.351367 0,-0.470958 0.38171,-0.852664 0.85302,-0.852664 0.47096,0 0.85337,0.381706 0.85337,0.852664 0,-0.381353 -0.30974,-0.691092 -0.69145,-0.691092 -0.38205,0 -0.69038,0.309739 -0.69038,0.691092 0,0.382058 0.30833,0.690739 0.69038,0.690739 0.38171,0 0.69145,-0.308681 0.69145,-0.690739 0,0.262819 -0.11853,0.497769 -0.30515,0.65405 -0.0515,0.04304 -0.10831,0.08043 -0.16898,0.110419 -0.1143,0.0568 -0.24307,0.08855 -0.37924,0.08855" />
    <path
       inkscape:connector-curvature="0"
       id="path184"
       style="fill:#eee02d;fill-opacity:1;fill-rule:nonzero;stroke:none;stroke-width:0.03527778"
       d="m -188.67437,-28.248854 c 0,0.2794 -0.22578,0.505178 -0.50483,0.505178 -0.27905,0 -0.50518,-0.225778 -0.50518,-0.505178 0,-0.279047 0.22613,-0.504825 0.50518,-0.504825 0.27905,0 0.50483,0.225778 0.50483,0.504825" />
    <path
       inkscape:connector-curvature="0"
       id="path186"
       style="fill:#fff200;fill-opacity:1;fill-rule:nonzero;stroke:none;stroke-width:0.03527778"
       d="m -188.87757,-28.273548 c 0,0.127352 -0.10407,0.231422 -0.23143,0.231422 -0.12841,0 -0.23212,-0.10407 -0.23212,-0.231422 0,-0.127706 0.10371,-0.231775 0.23212,-0.231775 0.12736,0 0.23143,0.104069 0.23143,0.231775" />
    <path
       inkscape:connector-curvature="0"
       id="path188"
       style="fill:#ffffff;fill-opacity:1;fill-rule:nonzero;stroke:none;stroke-width:0.03527778"
       d="m -181.72606,-29.689951 c 0,0 -1.21038,0.992364 0,1.986491 0,0 1.21249,-0.906991 0,-1.986491" />
    <path
       inkscape:connector-curvature="0"
       id="path190"
       style="fill:#76be25;fill-opacity:1;fill-rule:nonzero;stroke:none;stroke-width:0.03527778"
       d="m -181.71548,-29.680779 c -0.003,-0.0032 -0.007,-0.0063 -0.0106,-0.0092 0.004,0.0028 0.007,0.006 0.0106,0.0092" />
    <path
       inkscape:connector-curvature="0"
       id="path192"
       style="fill:#eeecd5;fill-opacity:1;fill-rule:nonzero;stroke:none;stroke-width:0.03527778"
       d="m -182.07108,-28.070701 c -0.009,-0.01305 -0.0176,-0.02646 -0.0261,-0.03951 -0.0296,-0.106892 -0.0737,-0.21837 -0.1397,-0.323498 -0.0148,-0.06103 -0.0233,-0.12065 -0.0261,-0.179563 -7.1e-4,-0.01552 -0.001,-0.03104 -0.001,-0.04621 -6.6e-4,-0.589139 0.53804,-1.030464 0.53804,-1.030464 v 0 c 0.004,0.0028 0.007,0.006 0.0106,0.0092 0.0928,0.08361 0.16651,0.164747 0.23177,0.246239 -0.11183,0.03246 -0.21802,0.07937 -0.30409,0.163336 -0.16475,0.162631 -0.16087,0.443442 -0.13618,0.654403 0.0229,0.190147 0.10513,0.373239 0.25471,0.489655 -0.0282,-0.0025 -0.0564,-0.0042 -0.0854,-0.0042 -0.11183,0 -0.21872,0.02152 -0.31644,0.06068" />
    <path
       inkscape:connector-curvature="0"
       id="path194"
       style="fill:#ffffff;fill-opacity:1;fill-rule:nonzero;stroke:none;stroke-width:0.03527778"
       d="m -181.72465,-24.844549 c 0,0 1.21002,-0.994833 0,-1.987549 0,0 -1.2125,0.906286 0,1.987549" />
    <path
       inkscape:connector-curvature="0"
       id="path196"
       style="fill:#eeecd5;fill-opacity:1;fill-rule:nonzero;stroke:none;stroke-width:0.03527778"
       d="m -181.72465,-24.844549 v 0 c -0.0977,-0.08749 -0.17428,-0.171802 -0.24201,-0.256469 0.11148,-0.03281 0.21802,-0.07867 0.30374,-0.164042 0.16546,-0.161925 0.16087,-0.442736 0.13582,-0.653344 -0.024,-0.199672 -0.11324,-0.391231 -0.27728,-0.507294 0.0166,0.0011 0.0332,0.0014 0.0497,0.0014 0.12524,0 0.24377,-0.02681 0.35101,-0.07514 0.0176,0.02434 0.0339,0.04833 0.0494,0.07267 0.0296,0.107597 0.0741,0.219427 0.14041,0.325261 0.0187,0.07691 0.0268,0.152047 0.0268,0.225072 3.4e-4,0.174978 -0.0469,0.336903 -0.1136,0.478367 -0.0296,0.06244 -0.0628,0.121002 -0.0974,0.174625 -0.15063,0.234244 -0.32667,0.378883 -0.32667,0.378883" />
    <path
       inkscape:connector-curvature="0"
       id="path198"
       style="fill:#ffffff;fill-opacity:1;fill-rule:nonzero;stroke:none;stroke-width:0.03527778"
       d="m -179.9149,-28.877151 c 0,0 -1.54623,-0.244828 -1.4852,1.319036 0,0 1.48379,0.3048 1.4852,-1.319036" />
    <path
       inkscape:connector-curvature="0"
       id="path200"
       style="fill:#76be25;fill-opacity:1;fill-rule:nonzero;stroke:none;stroke-width:0.03527778"
       d="m -179.9149,-28.858807 c 0,-0.006 0,-0.01199 0,-0.01834 v 0 c 0,0.006 0,0.01235 0,0.01834" />
    <path
       inkscape:connector-curvature="0"
       id="path202"
       style="fill:#eeecd5;fill-opacity:1;fill-rule:nonzero;stroke:none;stroke-width:0.03527778"
       d="m -181.03991,-27.744735 c -0.0801,-0.122413 -0.1905,-0.222602 -0.32068,-0.290336 0.17498,-0.754238 0.86466,-0.855838 1.2245,-0.855838 0.13335,0 0.22119,0.01376 0.22119,0.01376 0,0.0064 0,0.01235 0,0.01834 -0.001,0.122061 -0.0131,0.230716 -0.03,0.331963 -0.0988,-0.06174 -0.20391,-0.109713 -0.32491,-0.117827 -0.009,-3.44e-4 -0.0176,-7.15e-4 -0.0265,-7.15e-4 -0.21978,0 -0.41663,0.18027 -0.55245,0.333375 -0.13829,0.155928 -0.22331,0.359128 -0.19121,0.567267" />
    <path
       inkscape:connector-curvature="0"
       id="path204"
       style="fill:#ffffff;fill-opacity:1;fill-rule:nonzero;stroke:none;stroke-width:0.03527778"
       d="m -183.53617,-25.658054 c 0,0 1.54729,0.244828 1.48555,-1.320094 0,0 -1.48378,-0.303742 -1.48555,1.320094" />
    <path
       inkscape:connector-curvature="0"
       id="path206"
       style="fill:#eeecd5;fill-opacity:1;fill-rule:nonzero;stroke:none;stroke-width:0.03527778"
       d="m -182.93256,-25.684865 c -0.0773,-0.06738 -0.1771,-0.144639 -0.29493,-0.210608 0.0152,0.0025 0.0307,0.0042 0.0462,0.0053 0.009,7.14e-4 0.0173,7.14e-4 0.0257,7.14e-4 0.22084,0 0.41769,-0.181328 0.55351,-0.333375 0.12383,-0.139347 0.20497,-0.3175 0.19791,-0.50165 0.0843,0.09913 0.19121,0.178858 0.31256,0.23107 -0.0169,0.07126 -0.0384,0.136525 -0.0638,0.196497 -0.007,0.01588 -0.0138,0.03104 -0.0208,0.04586 -0.16827,0.351013 -0.47625,0.503413 -0.75635,0.566208" />
    <path
       inkscape:connector-curvature="0"
       id="path208"
       style="fill:#ffffff;fill-opacity:1;fill-rule:nonzero;stroke:none;stroke-width:0.03527778"
       d="m -179.30283,-27.250846 c 0,0 -0.98425,-1.217083 -1.98685,-0.01376 0,0 0.89817,1.218495 1.98685,0.01376" />
    <path
       inkscape:connector-curvature="0"
       id="path210"
       style="fill:#73af27;fill-opacity:1;fill-rule:nonzero;stroke:none;stroke-width:0.03527778"
       d="m -179.31589,-27.236735 c 0.004,-0.0046 0.009,-0.0095 0.013,-0.01411 v 0 c -0.004,0.0046 -0.009,0.0095 -0.013,0.01411" />
    <path
       inkscape:connector-curvature="0"
       id="path212"
       style="fill:#eeecd5;fill-opacity:1;fill-rule:nonzero;stroke:none;stroke-width:0.03527778"
       d="m -179.56036,-27.010604 c -0.0314,-0.111831 -0.078,-0.218369 -0.16122,-0.305153 -0.11606,-0.119239 -0.29386,-0.151694 -0.46285,-0.151694 -0.0663,0 -0.13088,0.0049 -0.19014,0.01164 -0.21731,0.02363 -0.42616,0.126294 -0.53834,0.318205 0.007,-0.04586 0.0113,-0.09313 0.0113,-0.141111 v 0 0 0 0 0 c 0,-0.106539 -0.0194,-0.208844 -0.0554,-0.303036 0.2166,-0.155575 0.42721,-0.214136 0.62124,-0.214136 0.59196,0 1.03293,0.545042 1.03293,0.545042 -0.004,0.0046 -0.009,0.0095 -0.013,0.01411 -0.0829,0.09031 -0.16439,0.16263 -0.24447,0.22613" />
    <path
       inkscape:connector-curvature="0"
       id="path214"
       style="fill:#ffffff;fill-opacity:1;fill-rule:nonzero;stroke:none;stroke-width:0.03527778"
       d="m -184.14788,-27.285418 c 0,0 0.98425,1.217436 1.98649,0.01552 0,0 -0.89782,-1.219906 -1.98649,-0.01552" />
    <path
       inkscape:connector-curvature="0"
       id="path216"
       style="fill:#a8cd15;fill-opacity:1;fill-rule:nonzero;stroke:none;stroke-width:0.03527778"
       d="m -184.14788,-27.285418 c 0.006,-0.0067 0.012,-0.01341 0.018,-0.01976 -0.006,0.0064 -0.012,0.01305 -0.018,0.01976" />
    <path
       inkscape:connector-curvature="0"
       id="path218"
       style="fill:#eeecd5;fill-opacity:1;fill-rule:nonzero;stroke:none;stroke-width:0.03527778"
       d="m -183.11424,-26.739671 c -0.0998,0 -0.19509,-0.01552 -0.2847,-0.04127 0.0148,-0.0889 0.024,-0.185561 0.0268,-0.291041 0.0356,0.0035 0.0713,0.0049 0.1069,0.0049 0.0656,0 0.13017,-0.0049 0.18908,-0.01164 0.17816,-0.02046 0.35067,-0.09278 0.46885,-0.224367 -3.5e-4,0.0081 -3.5e-4,0.01623 -3.5e-4,0.02434 v 0 0 c 0,0.125589 0.0268,0.244475 0.0755,0.351719 -0.20284,0.135467 -0.39969,0.187325 -0.58208,0.187325 m -0.85971,-0.370416 c -0.11078,-0.09737 -0.17392,-0.175331 -0.17392,-0.175331 v 0 c 0.006,-0.0067 0.012,-0.01341 0.018,-0.01976 0.0811,-0.08749 0.16086,-0.157339 0.23953,-0.220133 0.0314,0.112536 0.0776,0.218722 0.16193,0.305505 0.0268,0.02787 0.0568,0.0508 0.0892,0.06985 -0.0974,0.0025 -0.21343,0.0127 -0.33478,0.03986" />
    <path
       inkscape:connector-curvature="0"
       id="path220"
       style="fill:#ffffff;fill-opacity:1;fill-rule:nonzero;stroke:none;stroke-width:0.03527778"
       d="m -179.95336,-25.615368 c 0,0 0.0995,-1.563158 -1.45344,-1.355725 0,0 -0.16334,1.50495 1.45344,1.355725" />
    <path
       inkscape:connector-curvature="0"
       id="path222"
       style="fill:#76be25;fill-opacity:1;fill-rule:nonzero;stroke:none;stroke-width:0.03527778"
       d="m -179.96606,-25.613957 c 0.004,-3.44e-4 0.008,-0.0011 0.0127,-0.0014 0,0 0.001,-0.02011 0.001,-0.05539 0,0.03528 -0.001,0.05539 -0.001,0.05539 -0.004,3.44e-4 -0.008,0.0011 -0.0127,0.0014" />
    <path
       inkscape:connector-curvature="0"
       id="path224"
       style="fill:#eeecd5;fill-opacity:1;fill-rule:nonzero;stroke:none;stroke-width:0.03527778"
       d="m -180.14068,-25.606548 c -0.0572,0 -0.11218,-0.0025 -0.1651,-0.0067 0.0529,-0.103717 0.0903,-0.212725 0.0875,-0.333728 -0.006,-0.231069 -0.21378,-0.420511 -0.38488,-0.545394 -0.12912,-0.09455 -0.28293,-0.15487 -0.43921,-0.15487 -0.0547,0 -0.10936,0.0074 -0.16369,0.02328 0.11183,-0.09419 0.19932,-0.216605 0.25118,-0.355953 0.94262,0.108303 1.00295,1.066448 1.00295,1.309159 0,0.03528 -0.001,0.05539 -0.001,0.05539 -0.004,3.44e-4 -0.008,0.0011 -0.0127,0.0014 -0.0614,0.0053 -0.11924,0.0074 -0.17463,0.0074" />
    <path
       inkscape:connector-curvature="0"
       id="path226"
       style="fill:#ffffff;fill-opacity:1;fill-rule:nonzero;stroke:none;stroke-width:0.03527778"
       d="m -183.49701,-28.919837 c 0,0 -0.0991,1.562452 1.45239,1.355372 0,0 0.16404,-1.50495 -1.45239,-1.355372" />
    <path
       inkscape:connector-curvature="0"
       id="path228"
       style="fill:#a8cd15;fill-opacity:1;fill-rule:nonzero;stroke:none;stroke-width:0.03527778"
       d="m -183.49701,-28.919837 c 0.0166,-0.0014 0.0332,-0.0028 0.0494,-0.0039 -0.0162,0.0011 -0.0328,0.0025 -0.0494,0.0039" />
    <path
       inkscape:connector-curvature="0"
       id="path230"
       style="fill:#eeecd5;fill-opacity:1;fill-rule:nonzero;stroke:none;stroke-width:0.03527778"
       d="m -182.55862,-27.564112 c -0.88194,-0.143228 -0.9398,-1.063272 -0.9398,-1.299986 0,-0.03563 0.001,-0.05574 0.001,-0.05574 v 0 c 0.0166,-0.0014 0.0332,-0.0028 0.0494,-0.0039 0.048,-0.0035 0.0938,-0.0049 0.13794,-0.0049 0.0571,0 0.11147,0.0025 0.16439,0.006 -0.0519,0.104775 -0.09,0.213783 -0.0871,0.33408 0.006,0.231775 0.21378,0.420511 0.38488,0.545394 0.12947,0.0949 0.28399,0.155223 0.44097,0.155223 0.019,0 0.0384,-7.15e-4 0.0579,-0.0025 -0.0931,0.08996 -0.1658,0.201436 -0.2099,0.326319" />
    <path
       inkscape:connector-curvature="0"
       id="path232"
       style="fill:#ebb72e;fill-opacity:1;fill-rule:nonzero;stroke:none;stroke-width:0.03527778"
       d="m -180.90162,-27.278715 c 0,0.472017 -0.38136,0.854428 -0.85302,0.854428 -0.47131,0 -0.85302,-0.382411 -0.85302,-0.854428 0,-0.470958 0.38171,-0.852664 0.85302,-0.852664 0.47166,0 0.85302,0.381706 0.85302,0.852664" />
    <path
       inkscape:connector-curvature="0"
       id="path234"
       style="fill:#e3a124;fill-opacity:1;fill-rule:nonzero;stroke:none;stroke-width:0.03527778"
       d="m -181.75464,-26.424287 c -0.11959,0 -0.23354,-0.02469 -0.3369,-0.06914 -0.12136,-0.05221 -0.22825,-0.13194 -0.31256,-0.23107 -0.0519,-0.06068 -0.0949,-0.128764 -0.12806,-0.202495 -0.0487,-0.107244 -0.0755,-0.22613 -0.0755,-0.351719 0,-0.470958 0.38171,-0.852664 0.85302,-0.852664 0.47166,0 0.85302,0.381706 0.85302,0.852664 0,-0.381 -0.30904,-0.690739 -0.69109,-0.690739 -0.38171,0 -0.69074,0.309739 -0.69074,0.690739 0,0.382411 0.30903,0.691797 0.69074,0.691797 0.38205,0 0.69109,-0.309386 0.69109,-0.691797 0,0.262819 -0.11818,0.497769 -0.30445,0.654755 -0.0515,0.04339 -0.1083,0.08079 -0.16933,0.111125 -0.1143,0.0568 -0.24307,0.08855 -0.37924,0.08855" />
    <path
       inkscape:connector-curvature="0"
       id="path236"
       style="fill:#eee02d;fill-opacity:1;fill-rule:nonzero;stroke:none;stroke-width:0.03527778"
       d="m -181.10165,-27.278715 c 0,0.279753 -0.22613,0.505883 -0.50553,0.505883 -0.27905,0 -0.50553,-0.22613 -0.50553,-0.505883 0,-0.278695 0.22648,-0.504472 0.50553,-0.504472 0.2794,0 0.50553,0.225777 0.50553,0.504472" />
    <path
       inkscape:connector-curvature="0"
       id="path238"
       style="fill:#fff200;fill-opacity:1;fill-rule:nonzero;stroke:none;stroke-width:0.03527778"
       d="m -181.30555,-27.30341 c 0,0.127706 -0.10372,0.231775 -0.23178,0.231775 -0.12806,0 -0.23142,-0.104069 -0.23142,-0.231775 0,-0.127705 0.10336,-0.231422 0.23142,-0.231422 0.12806,0 0.23178,0.103717 0.23178,0.231422" />
    <path
       inkscape:connector-curvature="0"
       id="path240"
       style="fill:#ffffff;fill-opacity:1;fill-rule:nonzero;stroke:none;stroke-width:0.03527778"
       d="m -185.06475,-33.632243 c 0,0 -1.21038,0.99307 0,1.987198 0,0 1.21249,-0.907345 0,-1.987198" />
    <path
       inkscape:connector-curvature="0"
       id="path242"
       style="fill:#76be25;fill-opacity:1;fill-rule:nonzero;stroke:none;stroke-width:0.03527778"
       d="m -185.05064,-33.619543 c -0.005,-0.0042 -0.009,-0.0085 -0.0141,-0.0127 0.005,0.0042 0.01,0.0085 0.0141,0.0127" />
    <path
       inkscape:connector-curvature="0"
       id="path244"
       style="fill:#eeecd5;fill-opacity:1;fill-rule:nonzero;stroke:none;stroke-width:0.03527778"
       d="m -185.40977,-32.012287 c -0.009,-0.01305 -0.0176,-0.02611 -0.0257,-0.03916 -0.0296,-0.107245 -0.0741,-0.219075 -0.14005,-0.324556 -0.0187,-0.07691 -0.0268,-0.152047 -0.0272,-0.225072 -3.5e-4,-0.589492 0.53799,-1.03117 0.53799,-1.03117 v 0 c 0.005,0.0042 0.01,0.0085 0.0141,0.0127 0.091,0.0822 0.16333,0.162631 0.22789,0.243064 -0.11148,0.03246 -0.21766,0.07938 -0.30374,0.163689 -0.1651,0.162278 -0.16087,0.442736 -0.13617,0.653697 0.0229,0.190148 0.10548,0.373945 0.25576,0.490714 -0.0282,-0.0028 -0.0572,-0.0042 -0.0864,-0.0042 -0.11183,0 -0.21872,0.02152 -0.31644,0.06032" />
    <path
       inkscape:connector-curvature="0"
       id="path246"
       style="fill:#ffffff;fill-opacity:1;fill-rule:nonzero;stroke:none;stroke-width:0.03527778"
       d="m -185.06299,-28.78684 c 0,0 1.20968,-0.993422 0,-1.98755 0,0 -1.2132,0.907697 0,1.98755" />
    <path
       inkscape:connector-curvature="0"
       id="path248"
       style="fill:#a8cd15;fill-opacity:1;fill-rule:nonzero;stroke:none;stroke-width:0.03527778"
       d="m -185.06299,-28.78684 c -0.008,-0.0067 -0.0152,-0.01341 -0.0226,-0.02011 v 0 c 0.007,0.0067 0.0148,0.01341 0.0226,0.02011 0,0 0.45791,-0.376061 0.52846,-0.897114 v 0 c -0.0705,0.521053 -0.52846,0.897114 -0.52846,0.897114" />
    <path
       inkscape:connector-curvature="0"
       id="path250"
       style="fill:#73af27;fill-opacity:1;fill-rule:nonzero;stroke:none;stroke-width:0.03527778"
       d="m -185.08557,-28.806948 -3.4e-4,-3.44e-4 3.4e-4,3.44e-4 v 0" />
    <path
       inkscape:connector-curvature="0"
       id="path252"
       style="fill:#eeecd5;fill-opacity:1;fill-rule:nonzero;stroke:none;stroke-width:0.03527778"
       d="m -185.06299,-28.78684 c -0.008,-0.0067 -0.0152,-0.01341 -0.0226,-0.02011 l -3.4e-4,-3.44e-4 c -0.0871,-0.07973 -0.15699,-0.158045 -0.21978,-0.236009 0.11218,-0.03175 0.21766,-0.07867 0.30409,-0.162983 0.1651,-0.162278 0.16122,-0.443442 0.13582,-0.653697 -0.024,-0.201084 -0.11394,-0.393348 -0.27904,-0.508706 0.0173,0.0011 0.0342,0.0018 0.0515,0.0018 0.12489,0 0.24342,-0.02681 0.35066,-0.07514 0.018,0.02469 0.0346,0.04939 0.0501,0.07408 0.0296,0.106892 0.0741,0.218722 0.14005,0.324203 0.0187,0.07726 0.0272,0.1524 0.0272,0.225778 0,0.04551 -0.003,0.09031 -0.009,0.134055 -0.0706,0.521053 -0.52847,0.897114 -0.52847,0.897114" />
    <path
       inkscape:connector-curvature="0"
       id="path254"
       style="fill:#ffffff;fill-opacity:1;fill-rule:nonzero;stroke:none;stroke-width:0.03527778"
       d="m -183.25324,-32.81909 c 0,0 -1.54658,-0.24518 -1.48519,1.319742 0,0 1.48307,0.303036 1.48519,-1.319742" />
    <path
       inkscape:connector-curvature="0"
       id="path256"
       style="fill:#76be25;fill-opacity:1;fill-rule:nonzero;stroke:none;stroke-width:0.03527778"
       d="m -183.25324,-32.80004 c 0,-0.0063 0,-0.0127 0,-0.01905 v 0 c 0,0.0064 0,0.0127 0,0.01905" />
    <path
       inkscape:connector-curvature="0"
       id="path258"
       style="fill:#eeecd5;fill-opacity:1;fill-rule:nonzero;stroke:none;stroke-width:0.03527778"
       d="m -184.37825,-31.685968 c -0.0801,-0.122414 -0.19085,-0.222602 -0.32102,-0.290689 0.17462,-0.754238 0.8643,-0.856191 1.22449,-0.856191 0.13335,0 0.22154,0.01376 0.22154,0.01376 0,0.0064 0,0.0127 0,0.01905 -0.001,0.122061 -0.0138,0.230011 -0.0307,0.331258 -0.0988,-0.06174 -0.20355,-0.110067 -0.32455,-0.117828 -0.009,-7.06e-4 -0.018,-0.0011 -0.0268,-0.0011 -0.21978,0 -0.41627,0.180975 -0.55209,0.334081 -0.13864,0.155575 -0.22331,0.359833 -0.19086,0.567619" />
    <path
       inkscape:connector-curvature="0"
       id="path260"
       style="fill:#ffffff;fill-opacity:1;fill-rule:nonzero;stroke:none;stroke-width:0.03527778"
       d="m -186.87486,-29.600698 c 0,0 1.54694,0.245533 1.4852,-1.319742 0,0 -1.48308,-0.303742 -1.4852,1.319742" />
    <path
       inkscape:connector-curvature="0"
       id="path262"
       style="fill:#eeecd5;fill-opacity:1;fill-rule:nonzero;stroke:none;stroke-width:0.03527778"
       d="m -186.65331,-29.586587 c -0.13335,0 -0.22155,-0.01411 -0.22155,-0.01411 3.5e-4,-0.12947 0.0134,-0.24377 0.0307,-0.350309 0.0984,0.06174 0.20355,0.110067 0.32455,0.118181 0.009,7.14e-4 0.018,0.0011 0.0272,0.0011 0.22013,0 0.41663,-0.180975 0.55209,-0.33267 0.12348,-0.1397 0.20461,-0.3175 0.19721,-0.502355 0.0847,0.09913 0.19155,0.178505 0.31291,0.230717 -0.0176,0.07408 -0.0402,0.141463 -0.067,0.203552 -0.005,0.01129 -0.01,0.02222 -0.0148,0.03351 -0.25189,0.5334 -0.82445,0.612422 -1.14124,0.612422" />
    <path
       inkscape:connector-curvature="0"
       id="path264"
       style="fill:#ffffff;fill-opacity:1;fill-rule:nonzero;stroke:none;stroke-width:0.03527778"
       d="m -182.64152,-31.192432 c 0,0 -0.98425,-1.217436 -1.98755,-0.01411 0,0 0.89852,1.218848 1.98755,0.01411" />
    <path
       inkscape:connector-curvature="0"
       id="path266"
       style="fill:#76be25;fill-opacity:1;fill-rule:nonzero;stroke:none;stroke-width:0.03527778"
       d="m -182.67433,-31.157154 c 0.0109,-0.01129 0.0219,-0.02328 0.0328,-0.03528 v 0 c -0.0109,0.01199 -0.0219,0.02399 -0.0328,0.03528" />
    <path
       inkscape:connector-curvature="0"
       id="path268"
       style="fill:#eeecd5;fill-opacity:1;fill-rule:nonzero;stroke:none;stroke-width:0.03527778"
       d="m -182.89905,-30.95219 c -0.0318,-0.111831 -0.0776,-0.219075 -0.16157,-0.305153 -0.11571,-0.119944 -0.29387,-0.1524 -0.46285,-0.1524 -0.066,0 -0.13052,0.0049 -0.18944,0.01164 -0.21731,0.02434 -0.4258,0.126295 -0.53834,0.317853 0.007,-0.04551 0.0116,-0.09207 0.0116,-0.1397 v 0 0 0 0 0 c 0,-0.107244 -0.0197,-0.20955 -0.0561,-0.303742 0.21661,-0.155575 0.42686,-0.214136 0.62089,-0.214136 0.59232,0 1.03329,0.545395 1.03329,0.545395 -0.0109,0.01199 -0.0219,0.02399 -0.0328,0.03528 -0.0759,0.08079 -0.15064,0.146756 -0.22472,0.204964" />
    <path
       inkscape:connector-curvature="0"
       id="path270"
       style="fill:#ffffff;fill-opacity:1;fill-rule:nonzero;stroke:none;stroke-width:0.03527778"
       d="m -187.48692,-31.226651 c 0,0 0.9846,1.21673 1.98755,0.01447 0,0 -0.89888,-1.2192 -1.98755,-0.01447" />
    <path
       inkscape:connector-curvature="0"
       id="path272"
       style="fill:#76be25;fill-opacity:1;fill-rule:nonzero;stroke:none;stroke-width:0.03527778"
       d="m -187.48692,-31.226651 c 0.003,-0.0032 0.006,-0.006 0.008,-0.0092 -0.002,0.0032 -0.005,0.006 -0.008,0.0092" />
    <path
       inkscape:connector-curvature="0"
       id="path274"
       style="fill:#eeecd5;fill-opacity:1;fill-rule:nonzero;stroke:none;stroke-width:0.03527778"
       d="m -186.45329,-30.681609 c -0.59266,0 -1.03363,-0.545042 -1.03363,-0.545042 v 0 c 0.003,-0.0032 0.006,-0.006 0.008,-0.0092 0.0847,-0.09243 0.16792,-0.165453 0.24941,-0.231422 0.0317,0.112183 0.0783,0.219075 0.16228,0.305505 0.11641,0.119945 0.29527,0.152048 0.46531,0.152048 0.0649,0 0.12876,-0.0046 0.18697,-0.01093 0.17816,-0.01976 0.35066,-0.09243 0.46849,-0.224014 0,0.0081 0,0.01623 0,0.02469 v 0 0 c 0,0.125236 0.0268,0.244122 0.0751,0.351367 -0.20284,0.135463 -0.39969,0.186968 -0.58208,0.186968" />
    <path
       inkscape:connector-curvature="0"
       id="path276"
       style="fill:#ffffff;fill-opacity:1;fill-rule:nonzero;stroke:none;stroke-width:0.03527778"
       d="m -183.29204,-29.557307 c 0,0 0.0988,-1.562805 -1.4531,-1.355019 0,0 -0.16368,1.503892 1.4531,1.355019" />
    <path
       inkscape:connector-curvature="0"
       id="path278"
       style="fill:#eeecd5;fill-opacity:1;fill-rule:nonzero;stroke:none;stroke-width:0.03527778"
       d="m -183.47796,-29.54884 c -0.0579,0 -0.11324,-0.0025 -0.16686,-0.006 0.0526,-0.104422 0.0907,-0.213078 0.0878,-0.334433 -0.006,-0.230362 -0.21414,-0.419451 -0.38523,-0.545393 -0.12912,-0.09419 -0.28293,-0.154516 -0.43956,-0.154516 -0.0543,0 -0.10901,0.0071 -0.16334,0.02293 0.11183,-0.09384 0.19967,-0.2159 0.25153,-0.355248 0.94227,0.108303 1.00259,1.066448 1.00295,1.308806 0,0.03528 -0.001,0.05539 -0.001,0.05539 v 0 c -0.0656,0.006 -0.127,0.0085 -0.18592,0.0085" />
    <path
       inkscape:connector-curvature="0"
       id="path280"
       style="fill:#ffffff;fill-opacity:1;fill-rule:nonzero;stroke:none;stroke-width:0.03527778"
       d="m -186.8357,-32.862129 c 0,0 -0.0991,1.562453 1.45239,1.355372 0,0 0.16439,-1.50495 -1.45239,-1.355372" />
    <path
       inkscape:connector-curvature="0"
       id="path282"
       style="fill:#76be25;fill-opacity:1;fill-rule:nonzero;stroke:none;stroke-width:0.03527778"
       d="m -186.8357,-32.862129 c 0.002,0 0.004,-3.52e-4 0.007,-3.52e-4 -0.002,0 -0.005,3.52e-4 -0.007,3.52e-4" />
    <path
       inkscape:connector-curvature="0"
       id="path284"
       style="fill:#eeecd5;fill-opacity:1;fill-rule:nonzero;stroke:none;stroke-width:0.03527778"
       d="m -185.89731,-31.506404 c -0.88194,-0.142875 -0.93945,-1.062919 -0.9398,-1.299986 0,-0.03563 0.001,-0.05574 0.001,-0.05574 v 0 c 0.002,0 0.004,-3.52e-4 0.007,-3.52e-4 0.0624,-0.0056 0.12136,-0.0081 0.17745,-0.0081 0.0586,0 0.11395,0.0025 0.16792,0.0063 -0.0522,0.103364 -0.0903,0.213078 -0.0878,0.334081 0.006,0.231422 0.21378,0.419805 0.38559,0.545747 0.12911,0.09454 0.28257,0.154869 0.4392,0.154869 0.0198,0 0.0399,-0.0011 0.0596,-0.0028 -0.0931,0.08996 -0.1658,0.201084 -0.21025,0.325967" />
    <path
       inkscape:connector-curvature="0"
       id="path286"
       style="fill:#ebb72e;fill-opacity:1;fill-rule:nonzero;stroke:none;stroke-width:0.03527778"
       d="m -184.23961,-31.219948 c 0,0.471664 -0.38276,0.853016 -0.85372,0.853016 -0.47166,0 -0.85301,-0.381352 -0.85301,-0.853016 0,-0.470959 0.38135,-0.852664 0.85301,-0.852664 0.47096,0 0.85372,0.381705 0.85372,0.852664" />
    <path
       inkscape:connector-curvature="0"
       id="path288"
       style="fill:#e3a124;fill-opacity:1;fill-rule:nonzero;stroke:none;stroke-width:0.03527778"
       d="m -185.09333,-30.366932 c -0.11959,0 -0.23354,-0.02469 -0.3369,-0.06914 -0.12136,-0.05221 -0.22825,-0.131586 -0.31291,-0.230717 -0.0515,-0.06068 -0.0949,-0.128411 -0.12806,-0.201789 -0.0483,-0.107244 -0.0751,-0.22613 -0.0751,-0.351366 0,-0.470959 0.38135,-0.852664 0.85301,-0.852664 0.47096,0 0.85372,0.381705 0.85372,0.852664 0,-0.381706 -0.30973,-0.690739 -0.69179,-0.690739 -0.38206,0 -0.69039,0.309033 -0.69039,0.690739 0,0.381352 0.30833,0.691091 0.69039,0.691091 0.38206,0 0.69179,-0.309739 0.69179,-0.691091 0,0.262466 -0.11888,0.497416 -0.3055,0.653697 -0.0515,0.04304 -0.10795,0.08043 -0.16898,0.110419 -0.1143,0.0568 -0.24307,0.0889 -0.37924,0.0889" />
    <path
       inkscape:connector-curvature="0"
       id="path290"
       style="fill:#eee02d;fill-opacity:1;fill-rule:nonzero;stroke:none;stroke-width:0.03527778"
       d="m -184.44069,-31.219948 c 0,0.279047 -0.22578,0.504825 -0.50553,0.504825 -0.27905,0 -0.50482,-0.225778 -0.50482,-0.504825 0,-0.2794 0.22577,-0.505531 0.50482,-0.505531 0.27975,0 0.50553,0.226131 0.50553,0.505531" />
    <path
       inkscape:connector-curvature="0"
       id="path292"
       style="fill:#fff200;fill-opacity:1;fill-rule:nonzero;stroke:none;stroke-width:0.03527778"
       d="m -184.64389,-31.245701 c 0,0.128764 -0.10407,0.23248 -0.23213,0.23248 -0.12805,0 -0.23177,-0.103716 -0.23177,-0.23248 0,-0.127 0.10372,-0.231422 0.23177,-0.231422 0.12806,0 0.23213,0.104422 0.23213,0.231422" />
    <path
       inkscape:connector-curvature="0"
       id="path294"
       style="fill:#ffffff;fill-opacity:1;fill-rule:nonzero;stroke:none;stroke-width:0.03527778"
       d="m -181.53768,-24.717549 c 0,0 -1.21038,0.993423 0,1.986492 0,0 1.2125,-0.906992 0,-1.986492" />
    <path
       inkscape:connector-curvature="0"
       id="path296"
       style="fill:#73af27;fill-opacity:1;fill-rule:nonzero;stroke:none;stroke-width:0.03527778"
       d="m -181.51722,-24.698851 c -0.007,-0.0063 -0.0138,-0.01235 -0.0205,-0.0187 0.007,0.0064 0.0138,0.01235 0.0205,0.0187" />
    <path
       inkscape:connector-curvature="0"
       id="path298"
       style="fill:#eeecd5;fill-opacity:1;fill-rule:nonzero;stroke:none;stroke-width:0.03527778"
       d="m -181.8827,-23.097946 c -0.009,-0.01305 -0.0176,-0.02611 -0.0257,-0.03916 -0.0296,-0.107245 -0.0741,-0.218722 -0.14005,-0.324203 -0.0187,-0.07691 -0.0272,-0.1524 -0.0272,-0.225425 -3.4e-4,-0.588786 0.53799,-1.030817 0.53799,-1.030817 v 0 c 0.007,0.0064 0.0138,0.01235 0.0205,0.0187 0.0875,0.07973 0.15804,0.159103 0.22154,0.237067 -0.11218,0.03281 -0.21802,0.07867 -0.30409,0.164042 -0.16475,0.161572 -0.16122,0.442736 -0.13582,0.653344 0.0222,0.190148 0.10477,0.372887 0.25435,0.490009 -0.0279,-0.0028 -0.0561,-0.0042 -0.0847,-0.0042 -0.11218,0 -0.21908,0.02152 -0.31679,0.06068" />
    <path
       inkscape:connector-curvature="0"
       id="path300"
       style="fill:#ffffff;fill-opacity:1;fill-rule:nonzero;stroke:none;stroke-width:0.03527778"
       d="m -181.53627,-19.871793 c 0,0 1.20968,-0.994481 0,-1.98755 0,0 -1.2132,0.906992 0,1.98755" />
    <path
       inkscape:connector-curvature="0"
       id="path302"
       style="fill:#eeecd5;fill-opacity:1;fill-rule:nonzero;stroke:none;stroke-width:0.03527778"
       d="m -181.53627,-19.871793 v 0 c -0.0977,-0.08749 -0.17427,-0.172861 -0.24271,-0.256822 0.11183,-0.0321 0.21837,-0.07902 0.30409,-0.162984 0.16546,-0.16263 0.16158,-0.443794 0.13618,-0.654402 -0.024,-0.200025 -0.1143,-0.392289 -0.27905,-0.507648 0.0169,0.0011 0.0342,0.0014 0.0519,0.0014 0.12453,0 0.24306,-0.02681 0.34995,-0.07514 0.0176,0.02469 0.0342,0.04904 0.0494,0.07338 0.03,0.107597 0.0744,0.21978 0.14076,0.325967 0.0187,0.07655 0.0268,0.151694 0.0272,0.224366 3.5e-4,0.589492 -0.53763,1.031875 -0.53763,1.031875" />
    <path
       inkscape:connector-curvature="0"
       id="path304"
       style="fill:#ffffff;fill-opacity:1;fill-rule:nonzero;stroke:none;stroke-width:0.03527778"
       d="m -179.72652,-23.905101 c 0,0 -1.54693,-0.24377 -1.48555,1.320447 0,0 1.48343,0.303742 1.48555,-1.320447" />
    <path
       inkscape:connector-curvature="0"
       id="path306"
       style="fill:#a8cd15;fill-opacity:1;fill-rule:nonzero;stroke:none;stroke-width:0.03527778"
       d="m -179.72652,-23.879701 c 0,-0.0085 0,-0.01693 0,-0.0254 v 0 c 0,0.0085 0,0.01693 0,0.0254" />
    <path
       inkscape:connector-curvature="0"
       id="path308"
       style="fill:#eeecd5;fill-opacity:1;fill-rule:nonzero;stroke:none;stroke-width:0.03527778"
       d="m -180.85188,-22.771979 c -0.0801,-0.122061 -0.1905,-0.222603 -0.32068,-0.290336 0.17533,-0.754945 0.86678,-0.856545 1.22626,-0.856545 0.13264,0 0.21978,0.01376 0.21978,0.01376 0,0.0085 0,0.01693 0,0.0254 -0.001,0.120297 -0.0138,0.22613 -0.0307,0.325966 -0.0984,-0.06244 -0.2039,-0.110419 -0.3242,-0.118533 -0.009,-7.14e-4 -0.0183,-0.0011 -0.0275,-0.0011 -0.22014,0 -0.41593,0.181327 -0.55139,0.333727 -0.139,0.156281 -0.22367,0.359481 -0.19156,0.56762" />
    <path
       inkscape:connector-curvature="0"
       id="path310"
       style="fill:#ffffff;fill-opacity:1;fill-rule:nonzero;stroke:none;stroke-width:0.03527778"
       d="m -183.34778,-20.685299 c 0,0 1.54693,0.244475 1.48519,-1.319388 0,0 -1.48343,-0.3048 -1.48519,1.319388" />
    <path
       inkscape:connector-curvature="0"
       id="path312"
       style="fill:#73af27;fill-opacity:1;fill-rule:nonzero;stroke:none;stroke-width:0.03527778"
       d="m -183.34778,-20.685299 c 0,-0.006 0,-0.01235 0,-0.01834 0,0.006 0,0.01199 0,0.01834" />
    <path
       inkscape:connector-curvature="0"
       id="path314"
       style="fill:#eeecd5;fill-opacity:1;fill-rule:nonzero;stroke:none;stroke-width:0.03527778"
       d="m -183.12694,-20.67154 c -7.2e-4,0 -0.001,0 -0.001,0 -0.1323,0 -0.21943,-0.01376 -0.21943,-0.01376 v 0 c 0,-0.0063 0,-0.01235 0,-0.01834 0.001,-0.122414 0.0134,-0.23107 0.0307,-0.333022 0.0984,0.06279 0.20355,0.110772 0.3242,0.119239 0.009,3.43e-4 0.0173,7.14e-4 0.0261,7.14e-4 0.22049,0 0.41734,-0.180975 0.5528,-0.33408 0.12418,-0.138995 0.20532,-0.317148 0.19791,-0.50165 0.0847,0.09913 0.19156,0.178858 0.31291,0.231069 -0.0166,0.0695 -0.0374,0.133703 -0.0621,0.192264 -0.008,0.0194 -0.0162,0.03775 -0.025,0.05609 -0.18626,0.382763 -0.53975,0.527402 -0.83925,0.577497 -0.11007,0.01834 -0.21308,0.02399 -0.2974,0.02399" />
    <path
       inkscape:connector-curvature="0"
       id="path316"
       style="fill:#ffffff;fill-opacity:1;fill-rule:nonzero;stroke:none;stroke-width:0.03527778"
       d="m -179.1148,-22.277737 c 0,0 -0.98461,-1.217437 -1.98685,-0.01446 0,0 0.89817,1.2192 1.98685,0.01446" />
    <path
       inkscape:connector-curvature="0"
       id="path318"
       style="fill:#eeecd5;fill-opacity:1;fill-rule:nonzero;stroke:none;stroke-width:0.03527778"
       d="m -179.37268,-22.037496 c -0.031,-0.11183 -0.0773,-0.218722 -0.16122,-0.3048 -0.11571,-0.120297 -0.29457,-0.152753 -0.46426,-0.152753 -0.0656,0 -0.12947,0.0049 -0.18803,0.01129 -0.21837,0.02434 -0.42651,0.127 -0.53869,0.320323 0.008,-0.04621 0.0116,-0.09349 0.0116,-0.141817 v 0 0 0 0 0 c 0,-0.106892 -0.0198,-0.20955 -0.0557,-0.303742 0.21661,-0.155575 0.42686,-0.214136 0.62089,-0.214136 0.59196,0 1.03328,0.545395 1.03328,0.545395 v 0 c -0.0871,0.09631 -0.1725,0.172861 -0.25788,0.240241" />
    <path
       inkscape:connector-curvature="0"
       id="path320"
       style="fill:#ffffff;fill-opacity:1;fill-rule:nonzero;stroke:none;stroke-width:0.03527778"
       d="m -183.95985,-22.31231 c 0,0 0.98389,1.217789 1.98649,0.01482 0,0 -0.89782,-1.2192 -1.98649,-0.01482" />
    <path
       inkscape:connector-curvature="0"
       id="path322"
       style="fill:#eeecd5;fill-opacity:1;fill-rule:nonzero;stroke:none;stroke-width:0.03527778"
       d="m -182.92657,-21.766915 c -0.0123,0 -0.0243,0 -0.0363,-7.15e-4 -0.13758,-0.0049 -0.2667,-0.03916 -0.38347,-0.08784 -0.36124,-0.151342 -0.60289,-0.444148 -0.61312,-0.456495 0,-3.44e-4 -3.5e-4,-3.44e-4 -3.5e-4,-3.44e-4 0.0871,-0.09666 0.17286,-0.172508 0.25718,-0.239536 0.0318,0.111478 0.0783,0.218369 0.16192,0.304447 0.11571,0.119945 0.29281,0.1524 0.46179,0.1524 0.0663,0 0.13123,-0.0049 0.19085,-0.01164 0.17851,-0.02011 0.35066,-0.09243 0.4692,-0.223661 -3.5e-4,0.0085 -3.5e-4,0.01658 -3.5e-4,0.02505 v 0 0 c 0,0.124883 0.0268,0.243769 0.0751,0.350661 -0.20285,0.135819 -0.40005,0.187677 -0.58243,0.187677" />
    <path
       inkscape:connector-curvature="0"
       id="path324"
       style="fill:#ffffff;fill-opacity:1;fill-rule:nonzero;stroke:none;stroke-width:0.03527778"
       d="m -179.76568,-20.642613 c 0,0 0.0998,-1.562805 -1.45309,-1.355372 0,0 -0.16334,1.50495 1.45309,1.355372" />
    <path
       inkscape:connector-curvature="0"
       id="path326"
       style="fill:#a8cd15;fill-opacity:1;fill-rule:nonzero;stroke:none;stroke-width:0.03527778"
       d="m -179.81154,-20.638732 c 0.0152,-0.0011 0.0303,-0.0025 0.0459,-0.0039 0,0 10e-4,-0.02011 10e-4,-0.05574 0,0.03563 -10e-4,0.05574 -10e-4,0.05574 -0.0155,0.0014 -0.0307,0.0028 -0.0459,0.0039" />
    <path
       inkscape:connector-curvature="0"
       id="path328"
       style="fill:#eeecd5;fill-opacity:1;fill-rule:nonzero;stroke:none;stroke-width:0.03527778"
       d="m -179.95124,-20.633793 c -0.0578,0 -0.11289,-0.0025 -0.16616,-0.0063 0.0526,-0.10407 0.0903,-0.213783 0.0875,-0.333728 -0.007,-0.231775 -0.21413,-0.420511 -0.38523,-0.545042 -0.12947,-0.09525 -0.28293,-0.155574 -0.43921,-0.155574 -0.0547,0 -0.11007,0.0074 -0.16475,0.02364 0.11219,-0.09419 0.20003,-0.216606 0.25224,-0.355953 0.94262,0.108303 1.00259,1.066095 1.00259,1.308453 0,0.03563 -0.001,0.05574 -0.001,0.05574 -0.0155,0.0014 -0.0307,0.0028 -0.0459,0.0039 -0.0487,0.0035 -0.0949,0.0049 -0.1397,0.0049" />
    <path
       inkscape:connector-curvature="0"
       id="path330"
       style="fill:#ffffff;fill-opacity:1;fill-rule:nonzero;stroke:none;stroke-width:0.03527778"
       d="m -183.30863,-23.947435 c 0,0 -0.10018,1.562806 1.45274,1.355725 0,0 0.16369,-1.50495 -1.45274,-1.355725" />
    <path
       inkscape:connector-curvature="0"
       id="path332"
       style="fill:#a8cd15;fill-opacity:1;fill-rule:nonzero;stroke:none;stroke-width:0.03527778"
       d="m -183.30863,-23.947435 c 0.004,-3.44e-4 0.008,-7.14e-4 0.0127,-0.0011 -0.004,3.44e-4 -0.008,7.15e-4 -0.0127,0.0011" />
    <path
       inkscape:connector-curvature="0"
       id="path334"
       style="fill:#eeecd5;fill-opacity:1;fill-rule:nonzero;stroke:none;stroke-width:0.03527778"
       d="m -182.37024,-22.59171 c -0.88265,-0.142522 -0.9398,-1.063272 -0.9398,-1.300339 0,-0.03528 10e-4,-0.05539 10e-4,-0.05539 v 0 c 0.004,-3.44e-4 0.008,-7.14e-4 0.0127,-0.0011 0.06,-0.0053 0.11713,-0.0074 0.17145,-0.0074 0.0582,0 0.11395,0.0025 0.16757,0.0064 -0.0519,0.103716 -0.0907,0.213077 -0.0875,0.334433 0.006,0.230717 0.21414,0.419806 0.38524,0.544689 0.12947,0.09454 0.28328,0.155575 0.43991,0.155575 0.0194,0 0.0392,-0.0011 0.0589,-0.0032 -0.0931,0.09031 -0.16545,0.201789 -0.2099,0.326319" />
    <path
       inkscape:connector-curvature="0"
       id="path336"
       style="fill:#ebb72e;fill-opacity:1;fill-rule:nonzero;stroke:none;stroke-width:0.03527778"
       d="m -180.71324,-22.305254 c 0,0.470605 -0.38241,0.853016 -0.85266,0.853016 -0.47202,0 -0.85337,-0.382411 -0.85337,-0.853016 0,-0.471664 0.38135,-0.85337 0.85337,-0.85337 0.47025,0 0.85266,0.381706 0.85266,0.85337" />
    <path
       inkscape:connector-curvature="0"
       id="path338"
       style="fill:#e3a124;fill-opacity:1;fill-rule:nonzero;stroke:none;stroke-width:0.03527778"
       d="m -181.5659,-21.452238 c -0.11995,0 -0.23389,-0.02469 -0.33726,-0.06914 -0.12135,-0.05221 -0.22825,-0.131939 -0.31291,-0.231069 -0.0515,-0.06068 -0.0949,-0.128764 -0.12806,-0.202142 -0.0483,-0.106892 -0.0751,-0.225778 -0.0751,-0.350661 0,-0.471664 0.38135,-0.85337 0.85337,-0.85337 0.47025,0 0.85266,0.381706 0.85266,0.85337 0,-0.381706 -0.30903,-0.691797 -0.69109,-0.691797 -0.38206,0 -0.69109,0.310091 -0.69109,0.691797 0,0.381705 0.30903,0.691092 0.69109,0.691092 0.38206,0 0.69109,-0.309387 0.69109,-0.691092 0,0.262467 -0.11888,0.497769 -0.30586,0.654403 -0.0515,0.04269 -0.10795,0.08008 -0.16827,0.110066 -0.1143,0.0568 -0.24271,0.08855 -0.37853,0.08855" />
    <path
       inkscape:connector-curvature="0"
       id="path340"
       style="fill:#eee02d;fill-opacity:1;fill-rule:nonzero;stroke:none;stroke-width:0.03527778"
       d="m -180.91432,-22.305254 c 0,0.278342 -0.22578,0.505178 -0.50483,0.505178 -0.27869,0 -0.50482,-0.226836 -0.50482,-0.505178 0,-0.278695 0.22613,-0.505531 0.50482,-0.505531 0.27905,0 0.50483,0.226836 0.50483,0.505531" />
    <path
       inkscape:connector-curvature="0"
       id="path342"
       style="fill:#fff200;fill-opacity:1;fill-rule:nonzero;stroke:none;stroke-width:0.03527778"
       d="m -181.11788,-22.330654 c 0,0.128058 -0.10336,0.231775 -0.23106,0.231775 -0.12806,0 -0.23178,-0.103717 -0.23178,-0.231775 0,-0.128058 0.10372,-0.231422 0.23178,-0.231422 0.1277,0 0.23106,0.103364 0.23106,0.231422" />
    <path
       inkscape:connector-curvature="0"
       id="path344"
       style="fill:#fff200;fill-opacity:1;fill-rule:nonzero;stroke:none;stroke-width:0.03527778"
       d="m -190.72613,-24.819501 c 0,0 3.11009,2.053872 3.61103,7.972777 h 0.55704 c 0,0 0.45438,-6.182783 -4.16807,-7.972777" />
    <path
       inkscape:connector-curvature="0"
       id="path346"
       style="fill:#ffffff;fill-opacity:1;fill-rule:nonzero;stroke:none;stroke-width:0.03527778"
       d="m -188.59182,-25.426985 c 0,0 -1.21003,0.99307 0,1.986139 0,0 1.21249,-0.906639 0,-1.986139" />
    <path
       inkscape:connector-curvature="0"
       id="path348"
       style="fill:#73af27;fill-opacity:1;fill-rule:nonzero;stroke:none;stroke-width:0.03527778"
       d="m -188.58653,-25.422398 c -3.5e-4,-3.44e-4 -7.2e-4,-7.15e-4 -10e-4,-0.0011 3.4e-4,3.44e-4 7.1e-4,7.14e-4 10e-4,0.0011" />
    <path
       inkscape:connector-curvature="0"
       id="path350"
       style="fill:#eeecd5;fill-opacity:1;fill-rule:nonzero;stroke:none;stroke-width:0.03527778"
       d="m -188.93684,-23.808087 c -0.009,-0.01341 -0.018,-0.02646 -0.0265,-0.03986 -0.0293,-0.106543 -0.0734,-0.217668 -0.13899,-0.322443 -0.0187,-0.07726 -0.0272,-0.152753 -0.0272,-0.225778 -7.1e-4,-0.589139 0.53764,-1.030817 0.53764,-1.030817 0.001,0.0011 0.003,0.0021 0.004,0.0035 3.4e-4,3.44e-4 7.1e-4,7.15e-4 10e-4,0.0011 0.0949,0.08467 0.17039,0.168275 0.23671,0.250825 -0.11183,0.03245 -0.21802,0.07937 -0.3041,0.164395 -0.1651,0.161925 -0.16086,0.442736 -0.13581,0.653344 0.0226,0.189442 0.10477,0.372181 0.254,0.489303 -0.0279,-0.0028 -0.0561,-0.0042 -0.0847,-0.0042 -0.11183,0 -0.21872,0.02152 -0.31644,0.06068" />
    <path
       inkscape:connector-curvature="0"
       id="path352"
       style="fill:#ffffff;fill-opacity:1;fill-rule:nonzero;stroke:none;stroke-width:0.03527778"
       d="m -188.59077,-20.581582 c 0,0 1.21038,-0.994128 0,-1.98755 0,0 -1.21285,0.906992 0,1.98755" />
    <path
       inkscape:connector-curvature="0"
       id="path354"
       style="fill:#eeecd5;fill-opacity:1;fill-rule:nonzero;stroke:none;stroke-width:0.03527778"
       d="m -188.59077,-20.581582 v 0 c -0.0974,-0.08714 -0.17462,-0.172156 -0.24235,-0.256117 0.11253,-0.03281 0.21836,-0.07937 0.30409,-0.164041 0.16545,-0.162278 0.16157,-0.443089 0.13652,-0.65405 -0.0243,-0.199672 -0.1143,-0.391936 -0.27904,-0.507647 0.0169,0.0011 0.0339,0.0014 0.0512,0.0014 0.12488,0 0.24342,-0.02681 0.35031,-0.07479 0.0176,0.02434 0.0342,0.04868 0.0497,0.07302 0.0296,0.107597 0.0741,0.220133 0.14076,0.325967 0.0183,0.07655 0.0268,0.151694 0.0268,0.224719 0,0.14217 -0.031,0.275872 -0.0787,0.396522 -0.14922,0.380295 -0.45932,0.635 -0.45932,0.635" />
    <path
       inkscape:connector-curvature="0"
       id="path356"
       style="fill:#ffffff;fill-opacity:1;fill-rule:nonzero;stroke:none;stroke-width:0.03527778"
       d="m -186.78066,-24.614537 c 0,0 -1.54658,-0.244123 -1.4852,1.319741 0,0 1.48308,0.304095 1.4852,-1.319741" />
    <path
       inkscape:connector-curvature="0"
       id="path358"
       style="fill:#eeecd5;fill-opacity:1;fill-rule:nonzero;stroke:none;stroke-width:0.03527778"
       d="m -187.90567,-23.481062 c -0.0801,-0.122414 -0.1905,-0.222956 -0.32068,-0.291042 0.17498,-0.754592 0.86572,-0.856192 1.22555,-0.856192 0.0543,0 0.10125,0.0025 0.13723,0.0049 -0.037,0.08396 -0.0674,0.178506 -0.0892,0.285398 -0.0575,-0.02363 -0.11783,-0.03951 -0.18274,-0.0441 -0.009,-3.44e-4 -0.0176,-7.15e-4 -0.0265,-7.15e-4 -0.22013,0 -0.41698,0.180975 -0.55245,0.333375 -0.13829,0.156633 -0.22366,0.360538 -0.1912,0.568325" />
    <path
       inkscape:connector-curvature="0"
       id="path360"
       style="fill:#ffffff;fill-opacity:1;fill-rule:nonzero;stroke:none;stroke-width:0.03527778"
       d="m -190.40193,-21.395088 c 0,0 1.54658,0.244828 1.48484,-1.320447 0,0 -1.48272,-0.303036 -1.48484,1.320447" />
    <path
       inkscape:connector-curvature="0"
       id="path362"
       style="fill:#a8cd15;fill-opacity:1;fill-rule:nonzero;stroke:none;stroke-width:0.03527778"
       d="m -190.40193,-21.395088 c 0,-0.0064 0,-0.0127 0,-0.01905 0,0.0063 0,0.0127 0,0.01905" />
    <path
       inkscape:connector-curvature="0"
       id="path364"
       style="fill:#eeecd5;fill-opacity:1;fill-rule:nonzero;stroke:none;stroke-width:0.03527778"
       d="m -190.18144,-21.381329 c -0.13265,0 -0.22049,-0.01376 -0.22049,-0.01376 v 0 c 0,-0.0064 0,-0.0127 0,-0.01905 0.001,-0.122061 0.0138,-0.230011 0.0307,-0.331963 0.0984,0.06244 0.20391,0.110419 0.32456,0.11818 0.009,7.15e-4 0.018,0.0011 0.0272,0.0011 0.21978,0 0.41663,-0.180623 0.5514,-0.33267 0.12417,-0.140053 0.20531,-0.3175 0.1979,-0.502355 0.0847,0.09913 0.19121,0.178505 0.31256,0.230716 -0.0173,0.07232 -0.0388,0.138289 -0.0649,0.198967 -0.006,0.01446 -0.0127,0.02893 -0.0194,0.04269 -0.25294,0.529872 -0.82373,0.608542 -1.13947,0.608189" />
    <path
       inkscape:connector-curvature="0"
       id="path366"
       style="fill:#ffffff;fill-opacity:1;fill-rule:nonzero;stroke:none;stroke-width:0.03527778"
       d="m -186.16859,-22.987526 c 0,0 -0.98461,-1.216731 -1.98755,-0.01411 0,0 0.89817,1.2192 1.98755,0.01411" />
    <path
       inkscape:connector-curvature="0"
       id="path368"
       style="fill:#7e9d11;fill-opacity:1;fill-rule:nonzero;stroke:none;stroke-width:0.03527778"
       d="m -186.18129,-22.974121 c 0.004,-0.0042 0.008,-0.0092 0.0127,-0.01341 v 0 c -0.004,0.0046 -0.008,0.0088 -0.0127,0.01341" />
    <path
       inkscape:connector-curvature="0"
       id="path370"
       style="fill:#eeecd5;fill-opacity:1;fill-rule:nonzero;stroke:none;stroke-width:0.03527778"
       d="m -186.42612,-22.746579 c -0.0318,-0.112183 -0.078,-0.219428 -0.16228,-0.305858 -0.11571,-0.119945 -0.29386,-0.1524 -0.46284,-0.1524 -0.0656,0 -0.13018,0.0049 -0.18874,0.01164 -0.21802,0.02399 -0.42686,0.126647 -0.53904,0.319617 0.008,-0.04586 0.0116,-0.09349 0.0116,-0.141817 v 0 0 0 0 0 c 0,-0.106539 -0.0198,-0.208844 -0.0557,-0.303036 0.2166,-0.155575 0.42721,-0.214136 0.62124,-0.214136 0.59231,0 1.03329,0.545042 1.03329,0.545042 -0.004,0.0042 -0.008,0.0092 -0.0127,0.01341 -0.0829,0.09066 -0.16405,0.163336 -0.24483,0.227542" />
    <path
       inkscape:connector-curvature="0"
       id="path372"
       style="fill:#ffffff;fill-opacity:1;fill-rule:nonzero;stroke:none;stroke-width:0.03527778"
       d="m -191.014,-23.021746 c 0,0 0.98461,1.217436 1.98685,0.01446 0,0 -0.89782,-1.218847 -1.98685,-0.01446" />
    <path
       inkscape:connector-curvature="0"
       id="path374"
       style="fill:#a8cd15;fill-opacity:1;fill-rule:nonzero;stroke:none;stroke-width:0.03527778"
       d="m -191.014,-23.021746 c 0.004,-0.0049 0.009,-0.0099 0.0134,-0.01482 -0.005,0.0049 -0.009,0.0099 -0.0134,0.01482" />
    <path
       inkscape:connector-curvature="0"
       id="path376"
       style="fill:#eeecd5;fill-opacity:1;fill-rule:nonzero;stroke:none;stroke-width:0.03527778"
       d="m -189.98071,-22.476351 c -0.59231,0 -1.03329,-0.545395 -1.03329,-0.545395 v 0 c 0.004,-0.0049 0.009,-0.0099 0.0134,-0.01482 0.0825,-0.08961 0.16404,-0.16122 0.24377,-0.225425 0.0321,0.112536 0.078,0.218722 0.16228,0.305505 0.11571,0.119592 0.29315,0.152047 0.46214,0.152047 0.0663,0 0.13088,-0.0049 0.19014,-0.01164 0.17851,-0.01976 0.35066,-0.09207 0.4692,-0.224014 -3.5e-4,0.0085 -3.5e-4,0.01658 -3.5e-4,0.02469 v 0 0 c 0,0.125236 0.0268,0.244475 0.0751,0.351367 -0.20284,0.135819 -0.39969,0.187678 -0.58243,0.187678" />
    <path
       inkscape:connector-curvature="0"
       id="path378"
       style="fill:#ffffff;fill-opacity:1;fill-rule:nonzero;stroke:none;stroke-width:0.03527778"
       d="m -186.81912,-21.352401 c 0,0 0.0988,-1.562453 -1.45379,-1.35502 0,0 -0.16369,1.504597 1.45379,1.35502" />
    <path
       inkscape:connector-curvature="0"
       id="path380"
       style="fill:#73af27;fill-opacity:1;fill-rule:nonzero;stroke:none;stroke-width:0.03527778"
       d="m -186.86216,-21.348521 c 0.003,-3.44e-4 0.006,-7.14e-4 0.008,-7.14e-4 v 0 c -0.002,0 -0.005,3.44e-4 -0.008,7.14e-4" />
    <path
       inkscape:connector-curvature="0"
       id="path382"
       style="fill:#7e9d11;fill-opacity:1;fill-rule:nonzero;stroke:none;stroke-width:0.03527778"
       d="m -186.85404,-21.349226 v 0 c 0.0116,-0.0011 0.0233,-0.0021 0.0349,-0.0032 0,0 0.001,-0.02011 0.001,-0.05539 0,0.03528 -0.001,0.05539 -0.001,0.05539 -0.0116,0.0011 -0.0233,0.0021 -0.0349,0.0032" />
    <path
       inkscape:connector-curvature="0"
       id="path384"
       style="fill:#eeecd5;fill-opacity:1;fill-rule:nonzero;stroke:none;stroke-width:0.03527778"
       d="m -187.00503,-21.343582 c -0.0579,0 -0.11289,-0.0025 -0.16651,-0.0064 0.0526,-0.104422 0.0903,-0.213078 0.0871,-0.333728 -0.006,-0.231069 -0.21378,-0.419805 -0.38488,-0.545747 -0.12911,-0.09419 -0.28328,-0.154869 -0.43991,-0.154869 -0.0547,0 -0.10936,0.0071 -0.16334,0.02293 0.11183,-0.09384 0.19932,-0.2159 0.25153,-0.355247 0.94263,0.108303 1.00295,1.066447 1.0033,1.308805 0,0.03528 -0.001,0.05539 -0.001,0.05539 -0.0116,0.0011 -0.0233,0.0021 -0.0349,0.0032 -0.002,0 -0.005,3.43e-4 -0.008,7.14e-4 -0.0497,0.0035 -0.0974,0.0049 -0.14288,0.0049" />
    <path
       inkscape:connector-curvature="0"
       id="path386"
       style="fill:#ffffff;fill-opacity:1;fill-rule:nonzero;stroke:none;stroke-width:0.03527778"
       d="m -190.36277,-24.657224 c 0,0 -0.0995,1.563159 1.45239,1.355725 0,0 0.16439,-1.505302 -1.45239,-1.355725" />
    <path
       inkscape:connector-curvature="0"
       id="path388"
       style="fill:#eeecd5;fill-opacity:1;fill-rule:nonzero;stroke:none;stroke-width:0.03527778"
       d="m -189.42438,-23.301146 c -0.8823,-0.142875 -0.93945,-1.063625 -0.93945,-1.300339 0,-0.03563 0.001,-0.05574 0.001,-0.05574 0.066,-0.0056 0.12806,-0.0081 0.18733,-0.0081 0.0572,0 0.11148,0.0021 0.16439,0.006 -0.0522,0.103717 -0.0903,0.213078 -0.0871,0.334434 0.006,0.231069 0.21343,0.419453 0.38488,0.545042 0.12911,0.09454 0.28292,0.155222 0.43956,0.155222 0.0194,0 0.0392,-0.0011 0.0589,-0.0028 -0.0928,0.09031 -0.16545,0.201436 -0.20955,0.32632" />
    <path
       inkscape:connector-curvature="0"
       id="path390"
       style="fill:#ebb72e;fill-opacity:1;fill-rule:nonzero;stroke:none;stroke-width:0.03527778"
       d="m -187.76738,-23.015396 c 0,0.471311 -0.38241,0.85337 -0.85302,0.85337 -0.47166,0 -0.85302,-0.382059 -0.85302,-0.85337 0,-0.470958 0.38136,-0.853369 0.85302,-0.853369 0.47061,0 0.85302,0.382411 0.85302,0.853369" />
    <path
       inkscape:connector-curvature="0"
       id="path392"
       style="fill:#e3a124;fill-opacity:1;fill-rule:nonzero;stroke:none;stroke-width:0.03527778"
       d="m -188.6204,-22.162026 c -0.11994,0 -0.23389,-0.02469 -0.33726,-0.06914 -0.12135,-0.05221 -0.22789,-0.131586 -0.31256,-0.230716 -0.0515,-0.06068 -0.0949,-0.128412 -0.12805,-0.202142 -0.0483,-0.106892 -0.0752,-0.226131 -0.0752,-0.351367 0,-0.470958 0.38136,-0.853369 0.85302,-0.853369 0.47061,0 0.85302,0.382411 0.85302,0.853369 0,-0.381353 -0.30939,-0.690739 -0.69109,-0.690739 -0.38242,0 -0.6911,0.309386 -0.6911,0.690739 0,0.382059 0.30868,0.691445 0.6911,0.691445 0.3817,0 0.69109,-0.309386 0.69109,-0.691445 0,0.26282 -0.11854,0.497417 -0.30516,0.65405 -0.0515,0.04339 -0.1083,0.08043 -0.16898,0.110772 -0.1143,0.0568 -0.24306,0.08855 -0.37888,0.08855" />
    <path
       inkscape:connector-curvature="0"
       id="path394"
       style="fill:#eee02d;fill-opacity:1;fill-rule:nonzero;stroke:none;stroke-width:0.03527778"
       d="m -187.96811,-23.015396 c 0,0.279047 -0.22578,0.505531 -0.50518,0.505531 -0.2787,0 -0.50483,-0.226484 -0.50483,-0.505531 0,-0.278694 0.22613,-0.504472 0.50483,-0.504472 0.2794,0 0.50518,0.225778 0.50518,0.504472" />
    <path
       inkscape:connector-curvature="0"
       id="path396"
       style="fill:#fff200;fill-opacity:1;fill-rule:nonzero;stroke:none;stroke-width:0.03527778"
       d="m -188.17202,-23.04009 c 0,0.128058 -0.10336,0.232128 -0.23107,0.232128 -0.12806,0 -0.23177,-0.10407 -0.23177,-0.232128 0,-0.127706 0.10371,-0.232128 0.23177,-0.232128 0.12771,0 0.23107,0.104422 0.23107,0.232128" />
    <path
       inkscape:connector-curvature="0"
       id="path398"
       style="fill:#ffffff;fill-opacity:1;fill-rule:nonzero;stroke:none;stroke-width:0.03527778"
       d="m -185.18258,-27.949698 c 0,0 -1.21003,0.993775 0,1.987197 0,0 1.21285,-0.907345 0,-1.987197" />
    <path
       inkscape:connector-curvature="0"
       id="path400"
       style="fill:#eeecd5;fill-opacity:1;fill-rule:nonzero;stroke:none;stroke-width:0.03527778"
       d="m -185.52795,-26.330448 c -0.009,-0.01305 -0.0173,-0.02575 -0.0254,-0.03881 -0.0296,-0.106892 -0.0741,-0.218722 -0.1397,-0.32385 -0.0187,-0.07691 -0.0272,-0.1524 -0.0272,-0.225425 -7.2e-4,-0.589139 0.53763,-1.031169 0.53763,-1.031169 0.097,0.08643 0.17392,0.17145 0.24201,0.255763 -0.11148,0.03246 -0.21767,0.07902 -0.30375,0.164042 -0.1651,0.161925 -0.16157,0.442736 -0.13617,0.653697 0.0226,0.189442 0.10478,0.372181 0.25435,0.489303 -0.0282,-0.0028 -0.0568,-0.0042 -0.0854,-0.0042 -0.11183,0 -0.21872,0.02152 -0.31644,0.06068" />
    <path
       inkscape:connector-curvature="0"
       id="path402"
       style="fill:#ffffff;fill-opacity:1;fill-rule:nonzero;stroke:none;stroke-width:0.03527778"
       d="m -185.18187,-23.104649 c 0,0 1.21073,-0.993422 0,-1.986844 0,0 -1.21215,0.906992 0,1.986844" />
    <path
       inkscape:connector-curvature="0"
       id="path404"
       style="fill:#eeecd5;fill-opacity:1;fill-rule:nonzero;stroke:none;stroke-width:0.03527778"
       d="m -185.18187,-23.104649 v 0 c -0.0967,-0.08678 -0.17392,-0.171802 -0.24166,-0.256116 0.11148,-0.0321 0.21802,-0.07902 0.3041,-0.162984 0.16474,-0.16263 0.16122,-0.443794 0.13582,-0.654402 -0.024,-0.200025 -0.11395,-0.392289 -0.2794,-0.508 0.0169,0.0011 0.0342,0.0014 0.0515,0.0014 0.12453,0 0.24307,-0.02681 0.34996,-0.07479 0.0183,0.02505 0.0353,0.05009 0.0508,0.07479 0.0296,0.106891 0.0741,0.218016 0.1397,0.323144 0.0187,0.07726 0.0272,0.152753 0.0272,0.225778 0,0.01235 -3.4e-4,0.02434 -7.1e-4,0.03669 -0.004,0.109716 -0.0265,0.214138 -0.06,0.311152 -0.1404,0.407106 -0.4773,0.683331 -0.4773,0.683331" />
    <path
       inkscape:connector-curvature="0"
       id="path406"
       style="fill:#ffffff;fill-opacity:1;fill-rule:nonzero;stroke:none;stroke-width:0.03527778"
       d="m -183.37142,-27.136546 c 0,0 -1.54658,-0.245533 -1.48519,1.320095 0,0 1.48307,0.303741 1.48519,-1.320095" />
    <path
       inkscape:connector-curvature="0"
       id="path408"
       style="fill:#eeecd5;fill-opacity:1;fill-rule:nonzero;stroke:none;stroke-width:0.03527778"
       d="m -183.37142,-27.117143 c 0,-0.0064 0,-0.01305 0,-0.0194 v 0 c 0,0.0064 0,0.01305 0,0.0194" />
    <path
       inkscape:connector-curvature="0"
       id="path410"
       style="fill:#eeecd5;fill-opacity:1;fill-rule:nonzero;stroke:none;stroke-width:0.03527778"
       d="m -184.49643,-26.003776 c -0.0801,-0.122061 -0.1905,-0.222956 -0.32067,-0.290689 0.17498,-0.754239 0.86466,-0.856192 1.22449,-0.856192 0.13335,0 0.22119,0.01411 0.22119,0.01411 0,0.0064 0,0.01305 0,0.0194 -0.001,0.122414 -0.0138,0.229659 -0.0307,0.331259 -0.0984,-0.06209 -0.2039,-0.11042 -0.32385,-0.118534 -0.009,-7.14e-4 -0.018,-0.0011 -0.0268,-0.0011 -0.22049,0 -0.41769,0.180975 -0.5528,0.333375 -0.13759,0.156987 -0.22296,0.360892 -0.19086,0.568325" />
    <path
       inkscape:connector-curvature="0"
       id="path412"
       style="fill:#ffffff;fill-opacity:1;fill-rule:nonzero;stroke:none;stroke-width:0.03527778"
       d="m -186.99233,-23.917449 c 0,0 1.54658,0.244475 1.48484,-1.319741 0,0 -1.48343,-0.304095 -1.48484,1.319741" />
    <path
       inkscape:connector-curvature="0"
       id="path414"
       style="fill:#eeecd5;fill-opacity:1;fill-rule:nonzero;stroke:none;stroke-width:0.03527778"
       d="m -186.99233,-23.917449 c 0,-0.0063 0,-0.01235 0,-0.01834 0,0.006 0,0.01199 0,0.01834" />
    <path
       inkscape:connector-curvature="0"
       id="path416"
       style="fill:#eeecd5;fill-opacity:1;fill-rule:nonzero;stroke:none;stroke-width:0.03527778"
       d="m -186.77184,-23.90369 c -0.0547,0 -0.1016,-0.0025 -0.13794,-0.0049 -0.0522,-0.0042 -0.0825,-0.0088 -0.0825,-0.0088 v 0 c 0,-0.0064 0,-0.01235 0,-0.01834 0.001,-0.122414 0.0131,-0.231422 0.03,-0.332669 0.0988,0.06209 0.2039,0.109713 0.3249,0.11818 0.009,3.44e-4 0.018,7.14e-4 0.0272,7.14e-4 0.21978,0 0.41628,-0.180269 0.55139,-0.333022 0.12418,-0.139347 0.20532,-0.3175 0.19791,-0.502003 0.0847,0.09913 0.19156,0.178859 0.31291,0.23107 -0.0162,0.06844 -0.0367,0.131233 -0.061,0.189441 -0.009,0.02117 -0.018,0.04163 -0.0275,0.06138 -0.003,0.0053 -0.005,0.01093 -0.008,0.01623 -0.25893,0.506942 -0.81632,0.582789 -1.12712,0.582789" />
    <path
       inkscape:connector-curvature="0"
       id="path418"
       style="fill:#ffffff;fill-opacity:1;fill-rule:nonzero;stroke:none;stroke-width:0.03527778"
       d="m -182.7597,-25.51024 c 0,0 -0.9839,-1.217436 -1.9872,-0.01411 0,0 0.89853,1.218847 1.9872,0.01411" />
    <path
       inkscape:connector-curvature="0"
       id="path420"
       style="fill:#a8cd15;fill-opacity:1;fill-rule:nonzero;stroke:none;stroke-width:0.03527778"
       d="m -182.80345,-25.462968 c 7.2e-4,-7.14e-4 0.002,-0.0018 0.002,-0.0025 v 0 c -0.001,7.15e-4 -0.002,0.0018 -0.002,0.0025" />
    <path
       inkscape:connector-curvature="0"
       id="path422"
       style="fill:#73af27;fill-opacity:1;fill-rule:nonzero;stroke:none;stroke-width:0.03527778"
       d="m -182.80098,-25.465437 v 0 c 0.0138,-0.01482 0.0275,-0.02928 0.0413,-0.0448 v 0 c -0.0138,0.01552 -0.0275,0.03034 -0.0413,0.0448" />
    <path
       inkscape:connector-curvature="0"
       id="path424"
       style="fill:#eeecd5;fill-opacity:1;fill-rule:nonzero;stroke:none;stroke-width:0.03527778"
       d="m -183.01688,-25.269998 c -0.0318,-0.111831 -0.078,-0.21837 -0.16228,-0.3048 -0.11571,-0.119945 -0.29456,-0.1524 -0.4646,-0.1524 -0.0653,0 -0.12912,0.0049 -0.18768,0.01129 -0.21731,0.02434 -0.42545,0.126647 -0.53799,0.318911 0.007,-0.04586 0.0116,-0.09278 0.0116,-0.140758 v 0 0 0 0 0 c 0,-0.106892 -0.0198,-0.209198 -0.0557,-0.303742 0.21625,-0.155575 0.42686,-0.214136 0.62088,-0.214136 0.59232,0 1.03294,0.545394 1.03294,0.545394 -0.0138,0.01552 -0.0275,0.02999 -0.0413,0.0448 -7.2e-4,7.15e-4 -0.002,0.0018 -0.002,0.0025 -0.072,0.07514 -0.14323,0.137584 -0.21343,0.19297" />
    <path
       inkscape:connector-curvature="0"
       id="path426"
       style="fill:#ffffff;fill-opacity:1;fill-rule:nonzero;stroke:none;stroke-width:0.03527778"
       d="m -187.60475,-25.544107 c 0,0 0.9846,1.216731 1.98684,0.01411 0,0 -0.89817,-1.2192 -1.98684,-0.01411" />
    <path
       inkscape:connector-curvature="0"
       id="path428"
       style="fill:#eeecd5;fill-opacity:1;fill-rule:nonzero;stroke:none;stroke-width:0.03527778"
       d="m -186.57147,-24.999065 c -0.59231,0 -1.03328,-0.545042 -1.03328,-0.545042 0.0875,-0.09701 0.17356,-0.172861 0.25717,-0.240241 0.0325,0.111477 0.0783,0.218722 0.16193,0.305505 0.11606,0.119239 0.29351,0.152047 0.46249,0.152047 0.0663,0 0.13123,-0.0053 0.1905,-0.01199 0.17815,-0.0194 0.35031,-0.09208 0.46884,-0.224014 -3.4e-4,0.0081 -3.4e-4,0.01658 -3.4e-4,0.02505 v 0 0 c 0,0.125237 0.0268,0.244123 0.0751,0.351014 -0.20285,0.13582 -0.3997,0.187678 -0.58244,0.187678" />
    <path
       inkscape:connector-curvature="0"
       id="path430"
       style="fill:#ffffff;fill-opacity:1;fill-rule:nonzero;stroke:none;stroke-width:0.03527778"
       d="m -183.41022,-23.874762 c 0,0 0.0991,-1.562806 -1.4531,-1.356078 0,0 -0.16404,1.505655 1.4531,1.356078" />
    <path
       inkscape:connector-curvature="0"
       id="path432"
       style="fill:#eeecd5;fill-opacity:1;fill-rule:nonzero;stroke:none;stroke-width:0.03527778"
       d="m -183.59931,-23.866296 c -0.0568,0 -0.11078,-0.0021 -0.16299,-0.006 0.0529,-0.10442 0.0903,-0.213428 0.0871,-0.334078 -0.006,-0.23107 -0.21378,-0.419453 -0.38523,-0.545395 -0.12877,-0.09454 -0.28258,-0.154869 -0.43957,-0.154869 -0.0543,0 -0.10936,0.0071 -0.16333,0.02293 0.11218,-0.09419 0.19967,-0.216253 0.25188,-0.355953 0.94227,0.109008 1.00224,1.0668 1.0026,1.309158 0,0.03563 -0.001,0.05574 -0.001,0.05574 v 0 c -0.0667,0.006 -0.12947,0.0085 -0.18909,0.0085" />
    <path
       inkscape:connector-curvature="0"
       id="path434"
       style="fill:#ffffff;fill-opacity:1;fill-rule:nonzero;stroke:none;stroke-width:0.03527778"
       d="m -186.95352,-27.179585 c 0,0 -0.0995,1.5621 1.45238,1.355373 0,0 0.1644,-1.50495 -1.45238,-1.355373" />
    <path
       inkscape:connector-curvature="0"
       id="path436"
       style="fill:#eeecd5;fill-opacity:1;fill-rule:nonzero;stroke:none;stroke-width:0.03527778"
       d="m -186.01514,-25.82386 c -0.88229,-0.142875 -0.9398,-1.063272 -0.9398,-1.300338 0,-0.03528 0.001,-0.05539 0.001,-0.05539 0.0656,-0.006 0.12771,-0.0085 0.18733,-0.0085 0.0572,0 0.11148,0.0025 0.16439,0.0064 -0.0522,0.103716 -0.0903,0.212725 -0.0875,0.333728 0.006,0.231422 0.21414,0.420158 0.38524,0.545041 0.12911,0.09525 0.28293,0.155928 0.43956,0.155928 0.0198,0 0.0395,-0.0011 0.0593,-0.0032 -0.0931,0.09031 -0.16546,0.201789 -0.20991,0.326319" />
    <path
       inkscape:connector-curvature="0"
       id="path438"
       style="fill:#ebb72e;fill-opacity:1;fill-rule:nonzero;stroke:none;stroke-width:0.03527778"
       d="m -184.35779,-25.537757 c 0,0.471664 -0.38276,0.853017 -0.85372,0.853017 -0.47096,0 -0.85266,-0.381353 -0.85266,-0.853017 0,-0.470958 0.3817,-0.853369 0.85266,-0.853369 0.47096,0 0.85372,0.382411 0.85372,0.853369" />
    <path
       inkscape:connector-curvature="0"
       id="path440"
       style="fill:#e3a124;fill-opacity:1;fill-rule:nonzero;stroke:none;stroke-width:0.03527778"
       d="m -185.21151,-24.68474 c -0.11959,0 -0.23354,-0.02469 -0.33655,-0.06879 -0.12135,-0.05221 -0.22825,-0.131939 -0.31291,-0.231069 -0.0515,-0.06068 -0.0949,-0.128411 -0.12806,-0.202142 -0.0483,-0.106892 -0.0751,-0.225778 -0.0751,-0.351014 0,-0.470958 0.3817,-0.853369 0.85266,-0.853369 0.47096,0 0.85372,0.382411 0.85372,0.853369 0,-0.381353 -0.30973,-0.691444 -0.69109,-0.691444 -0.38276,0 -0.69144,0.310091 -0.69144,0.691444 0,0.382059 0.30868,0.691092 0.69144,0.691092 0.38136,0 0.69109,-0.309033 0.69109,-0.691092 0,0.26282 -0.11888,0.497417 -0.3055,0.65405 -0.0515,0.04304 -0.1083,0.08008 -0.16898,0.11042 -0.1143,0.0568 -0.24307,0.08855 -0.37924,0.08855" />
    <path
       inkscape:connector-curvature="0"
       id="path442"
       style="fill:#eee02d;fill-opacity:1;fill-rule:nonzero;stroke:none;stroke-width:0.03527778"
       d="m -184.55887,-25.537757 c 0,0.279047 -0.22613,0.505531 -0.50482,0.505531 -0.2794,0 -0.50553,-0.226484 -0.50553,-0.505531 0,-0.278694 0.22613,-0.504825 0.50553,-0.504825 0.27869,0 0.50482,0.226131 0.50482,0.504825" />
    <path
       inkscape:connector-curvature="0"
       id="path444"
       style="fill:#fff200;fill-opacity:1;fill-rule:nonzero;stroke:none;stroke-width:0.03527778"
       d="m -184.76242,-25.562451 c 0,0.127705 -0.10337,0.231422 -0.23142,0.231422 -0.12806,0 -0.23143,-0.103717 -0.23143,-0.231422 0,-0.128764 0.10337,-0.232128 0.23143,-0.232128 0.12805,0 0.23142,0.103364 0.23142,0.232128" />
  </g>
</svg>
