<?xml version="1.0" encoding="UTF-8" standalone="no"?>
<!-- Created with Inkscape (http://www.inkscape.org/) -->

<svg
   xmlns:dc="http://purl.org/dc/elements/1.1/"
   xmlns:cc="http://creativecommons.org/ns#"
   xmlns:rdf="http://www.w3.org/1999/02/22-rdf-syntax-ns#"
   xmlns:svg="http://www.w3.org/2000/svg"
   xmlns="http://www.w3.org/2000/svg"
   xmlns:sodipodi="http://sodipodi.sourceforge.net/DTD/sodipodi-0.dtd"
   xmlns:inkscape="http://www.inkscape.org/namespaces/inkscape"
   width="34.727093mm"
   height="105.81393mm"
   viewBox="0 0 34.727093 105.81393"
   version="1.1"
   id="svg2511"
   inkscape:version="0.92.5 (2060ec1f9f, 2020-04-08)"
   sodipodi:docname="key-mudblue-2.svg">
  <defs
     id="defs2505" />
  <sodipodi:namedview
     id="base"
     pagecolor="#ffffff"
     bordercolor="#666666"
     borderopacity="1.0"
     inkscape:pageopacity="0.0"
     inkscape:pageshadow="2"
     inkscape:zoom="0.35"
     inkscape:cx="344.19742"
     inkscape:cy="-154.32239"
     inkscape:document-units="mm"
     inkscape:current-layer="layer1"
     showgrid="false"
     inkscape:window-width="1366"
     inkscape:window-height="704"
     inkscape:window-x="0"
     inkscape:window-y="27"
     inkscape:window-maximized="1" />
  <metadata
     id="metadata2508">
    <rdf:RDF>
      <cc:Work
         rdf:about="">
        <dc:format>image/svg+xml</dc:format>
        <dc:type
           rdf:resource="http://purl.org/dc/dcmitype/StillImage" />
        <dc:title></dc:title>
      </cc:Work>
    </rdf:RDF>
  </metadata>
  <g
     inkscape:label="Layer 1"
     inkscape:groupmode="layer"
     id="layer1"
     transform="translate(123.95283,-2.1882731)">
    <path
       inkscape:connector-curvature="0"
       id="path976"
       style="fill:#66687f;fill-opacity:1;fill-rule:nonzero;stroke:none;stroke-width:0.03527778"
       d="m -114.00838,15.143331 c -2.69819,0 -4.89328,2.195336 -4.89328,4.89338 0,2.698045 2.19509,4.893381 4.89328,4.893381 2.6984,0 4.89338,-2.195336 4.89338,-4.893381 0,-2.698044 -2.19498,-4.89338 -4.89338,-4.89338 z m 0,14.837834 c -5.48333,0 -9.94445,-4.461229 -9.94445,-9.944454 0,-5.483577 4.46112,-9.944452 9.94445,-9.944452 5.48358,0 9.94445,4.460875 9.94445,9.944452 0,5.483225 -4.46087,9.944454 -9.94445,9.944454" />
    <path
       inkscape:connector-curvature="0"
       id="path978"
       style="fill:#66687f;fill-opacity:1;fill-rule:nonzero;stroke:none;stroke-width:0.03527778"
       d="m -99.170547,15.143331 c -2.698043,0 -4.893383,2.195336 -4.893383,4.89338 0,2.698045 2.19534,4.893381 4.893383,4.893381 2.698396,0 4.89338,-2.195336 4.89338,-4.893381 0,-2.698044 -2.194984,-4.89338 -4.89338,-4.89338 z m 0,14.837834 c -5.483223,0 -9.944453,-4.461229 -9.944453,-9.944454 0,-5.483577 4.46123,-9.944452 9.944453,-9.944452 5.483578,0 9.944805,4.460875 9.944805,9.944452 0,5.483225 -4.461227,9.944454 -9.944805,9.944454" />
    <path
       inkscape:connector-curvature="0"
       id="path980"
       style="fill:#3c415e;fill-opacity:1;fill-rule:nonzero;stroke:none;stroke-width:0.03527778"
       d="m -94.101132,14.905559 c -0.01304,0.01129 -0.02574,0.02223 -0.0388,0.03316 -0.86854,0.741186 -1.104196,1.973439 -0.611365,3.003903 0.303742,0.634647 0.474134,1.344436 0.474134,2.094088 0,2.677936 -2.162527,4.857397 -4.832703,4.890206 -0.7239,1.625953 -1.278814,3.251905 -1.918054,4.877858 0.60219,0.1143 1.222729,0.17639 1.857377,0.17639 5.483578,0 9.944805,-4.461229 9.944805,-9.944454 0,-1.560336 -0.36195,-3.037063 -1.005769,-4.352219 -0.715788,-1.462264 -2.630665,-1.835503 -3.869621,-0.778933" />
    <path
       inkscape:connector-curvature="0"
       id="path982"
       style="fill:#66687f;fill-opacity:1;fill-rule:nonzero;stroke:none;stroke-width:0.03527778"
       d="m -106.58946,7.2393451 c -1.36878,0 -2.48285,1.1140724 -2.48285,2.4832027 0,1.3687772 1.11407,2.4824972 2.48285,2.4824972 1.36913,0 2.48285,-1.11372 2.48285,-2.4824972 0,-1.3691303 -1.11372,-2.4832027 -2.48285,-2.4832027 z m 0,10.0167719 c -4.15432,0 -7.53393,-3.379611 -7.53393,-7.5335692 0,-4.1546637 3.37961,-7.5342747 7.53393,-7.5342747 4.15431,0 7.534271,3.379611 7.534271,7.5342747 0,4.1539582 -3.379961,7.5335692 -7.534271,7.5335692" />
    <path
       inkscape:connector-curvature="0"
       id="path984"
       style="fill:#66687f;fill-opacity:1;fill-rule:nonzero;stroke:none;stroke-width:0.03527778"
       d="m -114.00838,24.930092 h 14.837833 v 5.051073 h -14.837833 v -5.051073" />
    <path
       inkscape:connector-curvature="0"
       id="path986"
       style="fill:#3c415e;fill-opacity:1;fill-rule:nonzero;stroke:none;stroke-width:0.03527778"
       d="m -114.01896,24.930092 h 14.848413 v 5.051073 h -14.848413 c -1.36801,0 -2.47689,-1.108782 -2.47689,-2.476854 v -0.09772 c 0,-1.36772 1.10888,-2.4765 2.47689,-2.4765" />
    <path
       inkscape:connector-curvature="0"
       id="path988"
       style="fill:#3c415e;fill-opacity:1;fill-rule:nonzero;stroke:none;stroke-width:0.03527778"
       d="m -110.31515,104.28498 c 0,2.05316 1.66405,3.71722 3.71722,3.71722 v 0 c 2.05281,0 3.71722,-1.66406 3.71722,-3.71722 V 29.369093 c 0,-2.052812 -1.66441,-3.717218 -3.71722,-3.717218 v 0 c -2.05317,0 -3.71722,1.664406 -3.71722,3.717218 v 74.915887" />
    <path
       inkscape:connector-curvature="0"
       id="path990"
       style="fill:#66687f;fill-opacity:1;fill-rule:nonzero;stroke:none;stroke-width:0.03527778"
       d="m -98.983575,104.04544 h -3.897135 V 89.116243 h 3.897135 v 14.929197" />
    <path
       inkscape:connector-curvature="0"
       id="path992"
       style="fill:#3c415e;fill-opacity:1;fill-rule:nonzero;stroke:none;stroke-width:0.03527778"
       d="m -94.277167,92.62356 v -3.507317 h -4.706408 v 14.929197 h 2.278239 2.428169 v -3.50766 h -2.428169 v -2.203453 h 2.428169 V 94.82701 h -2.428169 v -2.20345 h 2.428169" />
  </g>
</svg>
