<?xml version="1.0" encoding="UTF-8" standalone="no"?>
<!-- Created with Inkscape (http://www.inkscape.org/) -->

<svg
   xmlns:dc="http://purl.org/dc/elements/1.1/"
   xmlns:cc="http://creativecommons.org/ns#"
   xmlns:rdf="http://www.w3.org/1999/02/22-rdf-syntax-ns#"
   xmlns:svg="http://www.w3.org/2000/svg"
   xmlns="http://www.w3.org/2000/svg"
   xmlns:sodipodi="http://sodipodi.sourceforge.net/DTD/sodipodi-0.dtd"
   xmlns:inkscape="http://www.inkscape.org/namespaces/inkscape"
   width="29.96397mm"
   height="55.870121mm"
   viewBox="0 0 29.96397 55.870121"
   version="1.1"
   id="svg1883"
   inkscape:version="0.92.5 (2060ec1f9f, 2020-04-08)"
   sodipodi:docname="key-mudblue-1.svg">
  <defs
     id="defs1877" />
  <sodipodi:namedview
     id="base"
     pagecolor="#ffffff"
     bordercolor="#666666"
     borderopacity="1.0"
     inkscape:pageopacity="0.0"
     inkscape:pageshadow="2"
     inkscape:zoom="0.35"
     inkscape:cx="846.62483"
     inkscape:cy="-474.41867"
     inkscape:document-units="mm"
     inkscape:current-layer="layer1"
     showgrid="false"
     inkscape:window-width="1366"
     inkscape:window-height="704"
     inkscape:window-x="0"
     inkscape:window-y="27"
     inkscape:window-maximized="1" />
  <metadata
     id="metadata1880">
    <rdf:RDF>
      <cc:Work
         rdf:about="">
        <dc:format>image/svg+xml</dc:format>
        <dc:type
           rdf:resource="http://purl.org/dc/dcmitype/StillImage" />
        <dc:title></dc:title>
      </cc:Work>
    </rdf:RDF>
  </metadata>
  <g
     inkscape:label="Layer 1"
     inkscape:groupmode="layer"
     id="layer1"
     transform="translate(256.88675,32.56006)">
    <path
       inkscape:connector-curvature="0"
       id="path994"
       style="fill:#66687f;fill-opacity:1;fill-rule:nonzero;stroke:none;stroke-width:0.03527778"
       d="m -256.8867,8.328294 c 0,-8.274402 6.70775,-14.982119 14.98205,-14.982119 8.27426,0 14.98187,6.707717 14.98187,14.982119 0,8.27405 -6.70761,14.981766 -14.98187,14.981766 -8.2743,0 -14.98205,-6.707716 -14.98205,-14.981766" />
    <path
       inkscape:connector-curvature="0"
       id="path996"
       style="fill:#3c415e;fill-opacity:1;fill-rule:nonzero;stroke:none;stroke-width:0.03527778"
       d="m -247.92368,-2.04196 h 12.03788 c 0.4094,0 0.74125,-0.331613 0.74125,-0.741188 v -5.652557 c 0,-0.409222 -0.33185,-0.741186 -0.74125,-0.741186 h -2.64432 c -0.40957,0 -0.7414,-0.331964 -0.7414,-0.741186 v -0.155928 c 0,-0.409575 -0.33182,-0.741539 -0.74125,-0.741539 h -1.24848 c -0.40944,0 -0.7414,-0.331964 -0.7414,-0.741186 v -3.043414 c 0,-0.409222 0.33196,-0.741186 0.7414,-0.741186 h 1.24848 c 0.40943,0 0.74125,-0.331964 0.74125,-0.741186 v 0 c 0,-0.409575 0.33183,-0.741539 0.7414,-0.741539 h 2.64432 c 0.4094,0 0.74125,-0.331611 0.74125,-0.741186 V -29.03581 c 0,-0.409575 -0.33185,-0.741186 -0.74125,-0.741186 h -5.27763 c -0.4094,0 -0.74122,-0.331964 -0.74122,-0.741186 v -1.300692 c 0,-0.409575 -0.332,-0.741186 -0.7414,-0.741186 h -5.27763 c -0.40939,0 -0.74122,0.331611 -0.74122,0.741186 v 29.035726 c 0,0.409575 0.33183,0.741188 0.74122,0.741188" />
    <path
       inkscape:connector-curvature="0"
       id="path998"
       style="fill:#66687f;fill-opacity:1;fill-rule:nonzero;stroke:none;stroke-width:0.03527778"
       d="m -255.89823,8.328294 c 0,-7.728654 6.2651,-13.993635 13.99358,-13.993635 7.72844,0 13.99353,6.264981 13.99353,13.993635 0,7.728304 -6.26509,13.993283 -13.99353,13.993283 -7.72848,0 -13.99358,-6.264979 -13.99358,-13.993283" />
    <path
       inkscape:connector-curvature="0"
       id="path1000"
       style="fill:#7f8194;fill-opacity:1;fill-rule:nonzero;stroke:none;stroke-width:0.03527778"
       d="m -237.29349,20.211967 c 0.25537,-0.106892 0.50645,-0.221898 0.75283,-0.344665 0.46647,-0.232833 0.65898,-0.80151 0.43945,-1.274233 -0.003,-0.006 -0.005,-0.01199 -0.008,-0.01799 -0.23453,-0.505529 -0.83647,-0.70132 -1.33586,-0.454377 -0.19336,0.0956 -0.39014,0.18556 -0.58981,0.269523 -0.48631,0.204962 -0.73145,0.750004 -0.54557,1.243894 0.002,0.0067 0.005,0.01376 0.008,0.02045 0.19374,0.511175 0.77512,0.768702 1.27935,0.55739" />
    <path
       inkscape:connector-curvature="0"
       id="path1002"
       style="fill:#7f8194;fill-opacity:1;fill-rule:nonzero;stroke:none;stroke-width:0.03527778"
       d="m -241.90465,20.945392 c 0.37317,0 0.74193,-0.01834 1.10599,-0.05257 0.60371,-0.05644 1.00997,-0.650875 0.84254,-1.234017 -0.002,-0.006 -0.004,-0.01236 -0.005,-0.01871 -0.12992,-0.451547 -0.56141,-0.740824 -1.02965,-0.700255 -0.96739,0.08431 -1.97196,0.0381 -3.0008,-0.166159 -4.6742,-0.929558 -8.21326,-4.940641 -8.53916,-9.695029 -0.27919,-4.07176 1.73288,-7.694435 4.87412,-9.714087 0.45889,-0.294923 0.5982,-0.902055 0.28773,-1.350788 -0.0128,-0.018336 -0.0256,-0.037042 -0.0385,-0.055737 -0.28497,-0.41134 -0.86896,-0.533755 -1.29053,-0.263525 -3.50213,2.241902 -5.82358,6.166554 -5.82358,10.633779 0,6.968066 5.64885,12.617098 12.6172,12.617098" />
    <path
       inkscape:connector-curvature="0"
       id="path1004"
       style="fill:#3c415e;fill-opacity:1;fill-rule:nonzero;stroke:none;stroke-width:0.03527778"
       d="m -253.73871,12.924284 c -0.60482,-1.555044 -0.91254,-3.258257 -0.85149,-5.040842 0.22545,-6.57719 5.55792,-11.957757 12.13292,-12.236802 5.53382,-0.234598 10.3251,3.075517 12.29212,7.847542 0.23357,0.566912 0.88717,0.83467 1.45715,0.608893 0.007,-0.0028 0.0142,-0.0056 0.0212,-0.0085 0.59076,-0.234244 0.86857,-0.909461 0.62537,-1.496484 -2.33591,-5.638093 -8.01218,-9.541227 -14.56241,-9.235016 -7.67832,0.358775 -13.91117,6.61176 -14.2481,14.291026 -0.0943,2.14983 0.26514,4.204759 0.98985,6.078009 0.2355,0.608541 0.93307,0.898879 1.52686,0.62865 0.007,-0.0032 0.0139,-0.0063 0.021,-0.0095 0.54226,-0.246944 0.81166,-0.871712 0.59559,-1.426985" />
    <path
       inkscape:connector-curvature="0"
       id="path1006"
       style="fill:#3c415e;fill-opacity:1;fill-rule:nonzero;stroke:none;stroke-width:0.03527778"
       d="m -244.51757,12.571152 c -0.0696,-0.316442 -0.0828,-0.654402 -0.0274,-1.002945 0.18246,-1.14935 1.12765,-2.069748 2.28173,-2.21968 1.26905,-0.164745 2.3931,0.560917 2.83436,1.6383 0.16496,0.402521 0.59725,0.61948 1.01533,0.49883 0.0101,-0.0028 0.0201,-0.0056 0.0302,-0.0085 0.48327,-0.138642 0.73794,-0.661458 0.54913,-1.12748 -0.65705,-1.62207 -2.25185,-2.763308 -4.11399,-2.745316 -2.25943,0.02188 -4.17724,1.822098 -4.34068,4.075641 -0.0317,0.437799 0.003,0.86219 0.0922,1.265415 0.10559,0.47484 0.58431,0.773994 1.05325,0.644877 0.006,-0.0013 0.0112,-0.0032 0.0168,-0.0046 0.4432,-0.12206 0.70792,-0.565502 0.60911,-1.01459" />
    <path
       inkscape:connector-curvature="0"
       id="path1008"
       style="fill:#ffffff;fill-opacity:1;fill-rule:nonzero;stroke:none;stroke-width:0.03527778"
       d="m -241.90465,14.674767 c 1.47711,0 2.67462,-1.197682 2.67462,-2.67476 0,-1.477082 -1.19751,-2.674763 -2.67462,-2.674763 -1.47726,0 -2.6748,1.197681 -2.6748,2.674763 0,1.477078 1.19754,2.67476 2.6748,2.67476" />
    <path
       inkscape:connector-curvature="0"
       id="path1010"
       style="fill:#66687f;fill-opacity:1;fill-rule:nonzero;stroke:none;stroke-width:0.03527778"
       d="m -248.6649,-31.818874 v 20.949708 c 0,0.934508 0.75777,1.692275 1.69249,1.692275 v 0 c 0.93472,0 1.69252,-0.757767 1.69252,-1.692275 V -32.56006 h -2.64379 c -0.40939,0 -0.74122,0.331611 -0.74122,0.741186" />
  </g>
</svg>
