<?xml version="1.0" encoding="UTF-8" standalone="no"?>
<!-- Created with Inkscape (http://www.inkscape.org/) -->

<svg
   xmlns:dc="http://purl.org/dc/elements/1.1/"
   xmlns:cc="http://creativecommons.org/ns#"
   xmlns:rdf="http://www.w3.org/1999/02/22-rdf-syntax-ns#"
   xmlns:svg="http://www.w3.org/2000/svg"
   xmlns="http://www.w3.org/2000/svg"
   xmlns:sodipodi="http://sodipodi.sourceforge.net/DTD/sodipodi-0.dtd"
   xmlns:inkscape="http://www.inkscape.org/namespaces/inkscape"
   width="33.874432mm"
   height="101.24687mm"
   viewBox="0 0 33.874432 101.24687"
   version="1.1"
   id="svg4344"
   inkscape:version="0.92.5 (2060ec1f9f, 2020-04-08)"
   sodipodi:docname="key-mudblue-3.svg">
  <defs
     id="defs4338" />
  <sodipodi:namedview
     id="base"
     pagecolor="#ffffff"
     bordercolor="#666666"
     borderopacity="1.0"
     inkscape:pageopacity="0.0"
     inkscape:pageshadow="2"
     inkscape:zoom="0.35"
     inkscape:cx="-554.55677"
     inkscape:cy="408.47553"
     inkscape:document-units="mm"
     inkscape:current-layer="layer1"
     showgrid="false"
     inkscape:window-width="1366"
     inkscape:window-height="704"
     inkscape:window-x="0"
     inkscape:window-y="27"
     inkscape:window-maximized="1" />
  <metadata
     id="metadata4341">
    <rdf:RDF>
      <cc:Work
         rdf:about="">
        <dc:format>image/svg+xml</dc:format>
        <dc:type
           rdf:resource="http://purl.org/dc/dcmitype/StillImage" />
        <dc:title></dc:title>
      </cc:Work>
    </rdf:RDF>
  </metadata>
  <g
     inkscape:label="Layer 1"
     inkscape:groupmode="layer"
     id="layer1"
     transform="translate(-113.84255,-155.66228)">
    <path
       inkscape:connector-curvature="0"
       id="path936"
       style="fill:#66687f;fill-opacity:1;fill-rule:nonzero;stroke:none;stroke-width:0.03527778"
       d="m 142.79043,169.46295 c 0,1.0989 -0.89076,1.98966 -1.98931,1.98966 H 120.7584 c -1.0989,0 -1.98966,-0.89076 -1.98966,-1.98966 v -6.88446 c 0,-1.09891 0.89076,-1.98967 1.98966,-1.98967 h 20.04272 c 1.09855,0 1.98931,0.89076 1.98931,1.98967 z m -0.8262,-13.80067 H 119.5953 c -3.17712,0 -5.75275,2.57563 -5.75275,5.75275 v 9.21102 c 0,3.17747 2.57563,5.75275 5.75275,5.75275 h 4.01566 c 1.79635,0 3.25297,1.45662 3.25297,3.25296 v 73.36155 c 0,2.16253 1.75295,3.91584 3.91583,3.91584 v 0 c 2.16288,0 3.91584,-1.75331 3.91584,-3.91584 v -73.36155 c 0,-1.79634 1.45626,-3.25296 3.25296,-3.25296 h 4.01567 c 3.17711,0 5.75275,-2.57528 5.75275,-5.75275 v -9.21102 c 0,-3.17712 -2.57564,-5.75275 -5.75275,-5.75275" />
    <path
       inkscape:connector-curvature="0"
       id="path938"
       style="fill:#3c415e;fill-opacity:1;fill-rule:nonzero;stroke:none;stroke-width:0.03527778"
       d="m 126.86393,252.99331 c 0,2.16253 1.75295,3.91584 3.91583,3.91584 v 0 c 2.16288,0 3.91584,-1.75331 3.91584,-3.91584 v -67.77178 c 0,-2.16253 -1.75296,-3.91583 -3.91584,-3.91583 v 0 c -2.16288,0 -3.91583,1.7533 -3.91583,3.91583 v 67.77178" />
    <path
       inkscape:connector-curvature="0"
       id="path940"
       style="fill:#66687f;fill-opacity:1;fill-rule:nonzero;stroke:none;stroke-width:0.03527778"
       d="m 138.80122,252.74037 h -4.10562 v -15.72683 h 4.10562 v 15.72683" />
    <path
       inkscape:connector-curvature="0"
       id="path942"
       style="fill:#3c415e;fill-opacity:1;fill-rule:nonzero;stroke:none;stroke-width:0.03527778"
       d="m 143.75916,240.70853 v -3.69499 h -4.95794 v 15.72683 h 2.39995 2.55799 v -3.69464 h -2.55799 v -2.32128 h 2.55799 v -3.69499 h -2.55799 v -2.32093 h 2.55799" />
    <path
       inkscape:connector-curvature="0"
       id="path944"
       style="fill:#3c415e;fill-opacity:1;fill-rule:nonzero;stroke:none;stroke-width:0.03527778"
       d="m 120.35835,237.01354 h 6.50558 v 15.72683 h -6.50558 v -15.72683" />
    <path
       inkscape:connector-curvature="0"
       id="path946"
       style="fill:#66687f;fill-opacity:1;fill-rule:nonzero;stroke:none;stroke-width:0.03527778"
       d="m 120.35835,237.01354 h 2.39995 v 15.72683 h -2.39995 v -15.72683" />
    <path
       inkscape:connector-curvature="0"
       id="path954"
       style="fill:#3c415e;fill-opacity:1;fill-rule:nonzero;stroke:none;stroke-width:0.03527778"
       d="m 120.7584,171.45261 c -1.0989,0 -1.98966,-0.89076 -1.98966,-1.98966 v -5.48005 c 0,-0.65899 -0.56374,-1.18393 -1.21991,-1.1236 -0.007,7.1e-4 -0.0152,0.001 -0.0226,0.002 -0.58243,0.055 -1.03116,0.53834 -1.03116,1.1236 v 5.47793 c 0,2.35444 1.90888,4.26332 4.26331,4.26332 h 12.04278 c 0.59972,0 1.09467,-0.4699 1.12466,-1.06927 3.4e-4,-0.007 7.1e-4,-0.0148 0.001,-0.0226 0.0317,-0.64241 -0.48155,-1.18181 -1.12501,-1.18181 H 120.7584" />
    <path
       inkscape:connector-curvature="0"
       id="path956"
       style="fill:#7f8194;fill-opacity:1;fill-rule:nonzero;stroke:none;stroke-width:0.03527778"
       d="m 130.52647,157.17817 h -0.40182 c -0.74118,0 -1.18815,0.82056 -0.78634,1.44356 l 0.0162,0.025 c 0.17145,0.26564 0.46637,0.42616 0.78246,0.42616 h 0.39123 c 0.55704,0 0.98954,-0.4819 0.93204,-1.03576 -7.1e-4,-0.006 -0.001,-0.0127 -0.002,-0.019 -0.0497,-0.47766 -0.45191,-0.83996 -0.93168,-0.83996" />
    <path
       inkscape:connector-curvature="0"
       id="path958"
       style="fill:#7f8194;fill-opacity:1;fill-rule:nonzero;stroke:none;stroke-width:0.03527778"
       d="m 141.96423,157.17817 h -8.41904 c -0.55669,0 -0.9899,0.48224 -0.9331,1.0361 7.1e-4,0.006 0.001,0.0127 0.002,0.019 0.049,0.47731 0.45297,0.83961 0.9331,0.83961 h 7.25381 c 1.93605,0 3.50556,1.56951 3.50556,3.50556 v 6.88446 c 0,1.93604 -1.56951,3.50555 -3.50556,3.50555 h -2.03235 c -0.7172,0 -1.16946,0.77152 -0.8188,1.39735 l 0.0106,0.0187 c 0.16581,0.29563 0.47802,0.47872 0.81704,0.47872 h 3.18664 c 2.33997,0 4.23686,-1.89689 4.23686,-4.23686 v -9.21138 c 0,-2.33998 -1.89689,-4.23686 -4.23686,-4.23686" />
  </g>
</svg>
