<?xml version="1.0" encoding="UTF-8" standalone="no"?>
<!-- Created with Inkscape (http://www.inkscape.org/) -->

<svg
   xmlns:dc="http://purl.org/dc/elements/1.1/"
   xmlns:cc="http://creativecommons.org/ns#"
   xmlns:rdf="http://www.w3.org/1999/02/22-rdf-syntax-ns#"
   xmlns:svg="http://www.w3.org/2000/svg"
   xmlns="http://www.w3.org/2000/svg"
   xmlns:sodipodi="http://sodipodi.sourceforge.net/DTD/sodipodi-0.dtd"
   xmlns:inkscape="http://www.inkscape.org/namespaces/inkscape"
   width="41.833092mm"
   height="88.648499mm"
   viewBox="0 0 41.833092 88.648499"
   version="1.1"
   id="svg1268"
   inkscape:version="0.92.5 (2060ec1f9f, 2020-04-08)"
   sodipodi:docname="key-yellow-1.svg">
  <defs
     id="defs1262" />
  <sodipodi:namedview
     id="base"
     pagecolor="#ffffff"
     bordercolor="#666666"
     borderopacity="1.0"
     inkscape:pageopacity="0.0"
     inkscape:pageshadow="2"
     inkscape:zoom="0.35"
     inkscape:cx="611.91179"
     inkscape:cy="424.66759"
     inkscape:document-units="mm"
     inkscape:current-layer="layer1"
     showgrid="false"
     inkscape:window-width="1366"
     inkscape:window-height="704"
     inkscape:window-x="0"
     inkscape:window-y="27"
     inkscape:window-maximized="1" />
  <metadata
     id="metadata1265">
    <rdf:RDF>
      <cc:Work
         rdf:about="">
        <dc:format>image/svg+xml</dc:format>
        <dc:type
           rdf:resource="http://purl.org/dc/dcmitype/StillImage" />
        <dc:title></dc:title>
      </cc:Work>
    </rdf:RDF>
  </metadata>
  <g
     inkscape:label="Layer 1"
     inkscape:groupmode="layer"
     id="layer1"
     transform="translate(194.78559,-172.5448)">
    <path
       inkscape:connector-curvature="0"
       id="path1030"
       style="fill:#fdcb2c;fill-opacity:1;fill-rule:nonzero;stroke:none;stroke-width:0.03527778"
       d="m -182.53235,261.1933 h 17.32647 c 6.76733,0 12.25338,-5.4857 12.25338,-12.2531 v 0 c 0,-6.76727 -5.48605,-12.25339 -12.25338,-12.25339 h -1.68395 c -1.79656,0 -3.25286,-1.45623 -3.25286,-3.25257 v -56.97361 c 0,-2.16253 -1.75313,-3.91583 -3.91598,-3.91583 v 0 c -2.1627,0 -3.91597,1.7533 -3.91597,3.91583 v 56.97361 c 0,1.79634 -1.4563,3.25257 -3.25272,3.25257 h -1.30499 c -6.76727,0 -12.25324,5.48612 -12.25324,12.25339 v 0 c 0,6.7674 5.48597,12.2531 12.25324,12.2531" />
    <path
       inkscape:connector-curvature="0"
       id="path1032"
       style="fill:#f2a00e;fill-opacity:1;fill-rule:nonzero;stroke:none;stroke-width:0.03527778"
       d="m -170.14269,176.46063 c 0,-2.16253 -1.75313,-3.91583 -3.91598,-3.91583 v 0 c -2.1627,0 -3.91597,1.7533 -3.91597,3.91583 v 51.38385 c 0,2.16252 1.75327,3.91583 3.91597,3.91583 v 0 c 2.16285,0 3.91598,-1.75331 3.91598,-3.91583 v -51.38385" />
    <path
       inkscape:connector-curvature="0"
       id="path1034"
       style="fill:#fdcb2c;fill-opacity:1;fill-rule:nonzero;stroke:none;stroke-width:0.03527778"
       d="m -182.08009,176.71322 h 4.10545 v 15.72719 h -4.10545 v -15.72719" />
    <path
       inkscape:connector-curvature="0"
       id="path1036"
       style="fill:#f2a00e;fill-opacity:1;fill-rule:nonzero;stroke:none;stroke-width:0.03527778"
       d="m -187.03814,188.74541 v 3.695 h 4.95805 v -15.72719 h -2.40012 -2.55793 v 3.69499 h 2.55793 v 2.32128 h -2.55793 v 3.695 h 2.55793 v 2.32092 h -2.55793" />
    <path
       inkscape:connector-curvature="0"
       id="path1038"
       style="fill:#f2a00e;fill-opacity:1;fill-rule:nonzero;stroke:none;stroke-width:0.03527778"
       d="m -163.63712,192.44041 h -6.50557 v -15.72719 h 6.50557 v 15.72719" />
    <path
       inkscape:connector-curvature="0"
       id="path1040"
       style="fill:#fdcb2c;fill-opacity:1;fill-rule:nonzero;stroke:none;stroke-width:0.03527778"
       d="m -163.63712,192.44041 h -2.39998 v -15.72719 h 2.39998 v 15.72719" />
    <path
       inkscape:connector-curvature="0"
       id="path1042"
       style="fill:#fdcb2c;fill-opacity:1;fill-rule:nonzero;stroke:none;stroke-width:0.03527778"
       d="m -161.07905,180.40821 h -2.55807 v -3.69499 h 2.55807 v 3.69499" />
    <path
       inkscape:connector-curvature="0"
       id="path1044"
       style="fill:#fdcb2c;fill-opacity:1;fill-rule:nonzero;stroke:none;stroke-width:0.03527778"
       d="m -161.07905,186.42449 h -2.55807 v -3.695 h 2.55807 v 3.695" />
    <path
       inkscape:connector-curvature="0"
       id="path1046"
       style="fill:#fdcb2c;fill-opacity:1;fill-rule:nonzero;stroke:none;stroke-width:0.03527778"
       d="m -161.07905,192.44041 h -2.55807 v -3.695 h 2.55807 v 3.695" />
    <path
       inkscape:connector-curvature="0"
       id="path1048"
       style="fill:#f2a00e;fill-opacity:1;fill-rule:nonzero;stroke:none;stroke-width:0.03527778"
       d="m -188.35925,245.50199 c 0,0.002 0,0.004 0,0.006 v 3.63319 h 1.63847 c 0.72997,0.65306 1.65188,1.09403 2.6646,1.21253 0.82861,0.0967 1.62098,-0.0145 2.33289,-0.28786 1.11619,-0.42898 2.36262,-0.15378 3.25822,0.63856 1.22424,1.08303 2.8327,1.7406 4.59588,1.7406 1.76336,0 3.37178,-0.65757 4.59606,-1.7406 0.89542,-0.79234 2.142,-1.06754 3.25822,-0.63856 0.71191,0.2734 1.50428,0.38459 2.33289,0.28786 1.01271,-0.1185 1.93463,-0.55947 2.66456,-1.21253 h 1.63841 v -3.63319 c 0,-0.002 0,-0.004 0,-0.006 v -0.004 0 c 0,-2.70097 -2.18934,-4.89066 -4.89032,-4.89066 -0.59005,0 -1.15534,0.10484 -1.67844,0.2971 -1.14667,0.42126 -2.41074,0.19541 -3.32574,-0.61379 -1.22411,-1.08271 -2.83256,-1.74032 -4.59564,-1.74032 -1.7629,0 -3.37136,0.65761 -4.59546,1.74032 -0.91503,0.8092 -2.17911,1.03505 -3.32578,0.61379 -0.52324,-0.19226 -1.08835,-0.2971 -1.67858,-0.2971 -2.7008,0 -4.88996,2.18969 -4.8901,4.89066 h -1.4e-4 v 0.004" />
    <path
       inkscape:connector-curvature="0"
       id="path1050"
       style="fill:#ffffff;fill-opacity:1;fill-rule:nonzero;stroke:none;stroke-width:0.03527778"
       d="m -184.05618,253.5238 c 0.82861,0.0968 1.62098,-0.0145 2.33289,-0.28814 1.11619,-0.4287 2.36262,-0.1535 3.25822,0.63888 1.22424,1.08271 2.8327,1.7406 4.59588,1.7406 1.76336,0 3.37178,-0.65789 4.59606,-1.7406 0.89542,-0.79238 2.142,-1.06758 3.25808,-0.63888 0.71205,0.27368 1.50442,0.38491 2.33303,0.28814 2.22814,-0.2607 4.02731,-2.07186 4.27263,-4.30166 0.32455,-2.94929 -1.97626,-5.44478 -4.85998,-5.44478 -0.59005,0 -1.15534,0.10475 -1.67844,0.29697 -1.14681,0.42126 -2.41074,0.19541 -3.32574,-0.61376 -1.22411,-1.08275 -2.83256,-1.74032 -4.59564,-1.74032 -1.7629,0 -3.37136,0.65757 -4.59546,1.74032 -0.91503,0.80917 -2.17911,1.03502 -3.32578,0.61376 -0.52324,-0.19222 -1.08835,-0.29697 -1.67858,-0.29697 -2.88354,0 -5.18432,2.49549 -4.85994,5.44506 0.24543,2.22994 2.04459,4.04068 4.27277,4.30138" />
    <path
       inkscape:connector-curvature="0"
       id="path1052"
       style="fill:#f4e391;fill-opacity:1;fill-rule:nonzero;stroke:none;stroke-width:0.03527778"
       d="m -181.76905,253.25329 c -0.70019,0.26074 -1.4763,0.36506 -2.28713,0.27051 -0.86543,-0.10114 -1.66468,-0.43779 -2.33387,-0.94117 -0.24472,-0.18412 -0.56995,-0.21167 -0.84402,-0.0751 -0.004,0.002 -0.008,0.004 -0.0121,0.006 -0.42375,0.21096 -0.58014,0.74867 -0.32176,1.14515 0.87203,1.33918 2.38178,2.22469 4.09896,2.22469 0.59023,0 1.15549,-0.10513 1.67872,-0.29736 1.14653,-0.421 2.41061,-0.19554 3.32564,0.61377 1.2241,1.08271 2.83256,1.74018 4.59546,1.74018 1.76308,0 3.37153,-0.65747 4.59564,-1.74018 0.915,-0.80931 2.17893,-1.03477 3.3256,-0.61377 0.52324,0.19223 1.08853,0.29736 1.67858,0.29736 1.23818,0 2.36651,-0.46217 3.22725,-1.22135 0.30357,-0.26776 0.38336,-0.70693 0.23163,-1.08204 -0.002,-0.006 -0.005,-0.0113 -0.007,-0.0169 -0.20644,-0.50934 -0.80959,-0.75036 -1.30171,-0.50588 -0.48285,0.23992 -1.00926,0.40185 -1.56309,0.46672 -0.81096,0.0945 -1.58707,-0.01 -2.28713,-0.27051 -1.12448,-0.41917 -2.37215,-0.21523 -3.26499,0.58625 -1.22908,1.10394 -2.85295,1.7756 -4.63504,1.7756 -1.78192,0 -3.40583,-0.67166 -4.63476,-1.7756 -0.89295,-0.80148 -2.14062,-1.00542 -3.2651,-0.58625" />
  </g>
</svg>
