<?xml version="1.0" encoding="UTF-8" standalone="no"?>
<!-- Created with Inkscape (http://www.inkscape.org/) -->

<svg
   xmlns:dc="http://purl.org/dc/elements/1.1/"
   xmlns:cc="http://creativecommons.org/ns#"
   xmlns:rdf="http://www.w3.org/1999/02/22-rdf-syntax-ns#"
   xmlns:svg="http://www.w3.org/2000/svg"
   xmlns="http://www.w3.org/2000/svg"
   xmlns:sodipodi="http://sodipodi.sourceforge.net/DTD/sodipodi-0.dtd"
   xmlns:inkscape="http://www.inkscape.org/namespaces/inkscape"
   width="35.865154mm"
   height="88.31852mm"
   viewBox="0 0 35.865154 88.31852"
   version="1.1"
   id="svg3122"
   inkscape:version="0.92.5 (2060ec1f9f, 2020-04-08)"
   sodipodi:docname="key-yellow-2.svg">
  <defs
     id="defs3116" />
  <sodipodi:namedview
     id="base"
     pagecolor="#ffffff"
     bordercolor="#666666"
     borderopacity="1.0"
     inkscape:pageopacity="0.0"
     inkscape:pageshadow="2"
     inkscape:zoom="1.4"
     inkscape:cx="65.310763"
     inkscape:cy="237.90035"
     inkscape:document-units="mm"
     inkscape:current-layer="layer1"
     showgrid="false"
     inkscape:window-width="1366"
     inkscape:window-height="704"
     inkscape:window-x="0"
     inkscape:window-y="27"
     inkscape:window-maximized="1" />
  <metadata
     id="metadata3119">
    <rdf:RDF>
      <cc:Work
         rdf:about="">
        <dc:format>image/svg+xml</dc:format>
        <dc:type
           rdf:resource="http://purl.org/dc/dcmitype/StillImage" />
        <dc:title />
      </cc:Work>
    </rdf:RDF>
  </metadata>
  <g
     inkscape:label="Layer 1"
     inkscape:groupmode="layer"
     id="layer1"
     transform="translate(-65.222186,-181.78122)">
    <path
       inkscape:connector-curvature="0"
       id="path960"
       style="fill:#f2a00e;fill-opacity:1;fill-rule:nonzero;stroke:none;stroke-width:0.03527778"
       d="M 88.744349,214.6594 H 77.565175 v 48.47096 c 0,0.26952 0.0889,0.53164 0.253294,0.74542 l 4.421011,5.7471 c 0.50165,0.65194 1.491544,0.63218 1.966736,-0.0395 l 3.977922,-5.62363 c 0.328083,-0.46425 0.293158,-1.09326 -0.08467,-1.518 l -1.651,-1.85773 c -0.417688,-0.46955 -0.410986,-1.17934 0.01517,-1.64112 l 1.956858,-2.11949 c 0.208139,-0.22613 0.32385,-0.52211 0.32385,-0.82938 v -9.47879 c 0,-0.40887 -0.204258,-0.79022 -0.544336,-1.01706 l -0.961672,-0.64135 c -0.725664,-0.48365 -0.725664,-1.5501 0,-2.03411 l 0.03739,-0.0247 c 0.710495,-0.47378 0.728486,-1.5113 0.03528,-2.00978 v 0 c -0.735894,-0.52881 -0.6604,-1.64676 0.1397,-2.07186 l 0.644878,-0.34255 c 0.399344,-0.21202 0.648758,-0.62724 0.648758,-1.0795 v -7.25064 c 0,-0.35983 -0.158397,-0.70132 -0.432858,-0.93345 l -1.641828,-1.38853 c -0.52458,-0.44344 -0.580672,-1.2319 -0.12453,-1.74555 l 1.890536,-2.12689 c 0.198966,-0.22366 0.30868,-0.51259 0.30868,-0.81175 v -8.37812" />
    <path
       inkscape:connector-curvature="0"
       id="path962"
       style="fill:#fdcb2c;fill-opacity:1;fill-rule:nonzero;stroke:none;stroke-width:0.03527778"
       d="m 83.078033,264.05146 h -0.162278 c -0.602545,0 -1.091495,-0.48859 -1.091495,-1.09149 V 214.6594 h 2.344914 v 48.30057 c 0,0.6029 -0.488597,1.09149 -1.091141,1.09149" />
    <path
       inkscape:connector-curvature="0"
       id="path964"
       style="fill:#fdcb2c;fill-opacity:1;fill-rule:nonzero;stroke:none;stroke-width:0.03527778"
       d="m 92.017773,220.12005 c 0.893588,0 1.73708,-0.42157 2.26413,-1.14335 4.144785,-5.67479 6.805437,-13.56396 6.805437,-19.26273 0,-9.90388 -8.028519,-17.93275 -17.932402,-17.93275 -9.904236,0 -17.932752,8.02887 -17.932752,17.93275 0,5.69877 2.66065,13.58794 6.805436,19.26273 0.52705,0.72178 1.370542,1.14335 2.264128,1.14335 h 17.726023" />
    <path
       inkscape:connector-curvature="0"
       id="path966"
       style="fill:#f2a00e;fill-opacity:1;fill-rule:nonzero;stroke:none;stroke-width:0.03527778"
       d="m 98.009705,193.13784 c -0.654757,0.3362 -0.979665,1.10137 -0.742599,1.79846 0.510117,1.50037 0.788459,3.10692 0.788459,4.77767 0,4.85599 -2.169935,11.3344 -5.374217,16.24648 -0.462137,0.70837 -1.257652,1.12783 -2.103965,1.12783 H 75.732847 c -0.847725,0 -1.643945,-0.42122 -2.106789,-1.13172 -1.2446,-1.90958 -2.331508,-4.05623 -3.196519,-6.25227 -0.328436,-0.83362 -1.302809,-1.20227 -2.090561,-0.77576 -0.01764,0.01 -0.03493,0.019 -0.05256,0.0282 -0.657931,0.3563 -0.949678,1.14794 -0.676275,1.84467 1.139472,2.90407 2.643716,5.74852 4.423833,8.18409 0.524933,0.71826 1.368072,1.13454 2.257778,1.13454 h 17.726023 c 0.888648,0 1.731433,-0.41452 2.255663,-1.13136 4.14937,-5.67584 6.8139,-13.57171 6.8139,-19.27472 0,-2.01154 -0.33408,-3.94441 -0.94615,-5.74887 -0.29245,-0.86289 -1.29434,-1.25694 -2.104671,-0.84102 -0.0088,0.005 -0.01799,0.009 -0.02681,0.0138" />
    <path
       inkscape:connector-curvature="0"
       id="path968"
       style="fill:#f4e391;fill-opacity:1;fill-rule:nonzero;stroke:none;stroke-width:0.03527778"
       d="m 77.923597,185.84698 c -0.297392,0.12453 -0.589492,0.25824 -0.8763,0.40146 -0.543278,0.27058 -0.767292,0.93275 -0.511881,1.48343 0.0032,0.007 0.0063,0.0138 0.0099,0.0208 0.27305,0.58808 0.973667,0.81633 1.555045,0.52881 0.225072,-0.11147 0.454025,-0.2159 0.686505,-0.31397 0.566209,-0.23812 0.851606,-0.87277 0.635,-1.4478 -0.0028,-0.008 -0.006,-0.0159 -0.0088,-0.024 -0.225819,-0.59478 -0.9028,-0.89464 -1.489469,-0.64876" />
    <path
       inkscape:connector-curvature="0"
       id="path970"
       style="fill:#f4e391;fill-opacity:1;fill-rule:nonzero;stroke:none;stroke-width:0.03527778"
       d="m 83.291463,184.99326 c -0.436739,0 -0.868186,0.0215 -1.294341,0.0617 -0.701675,0.066 -1.168753,0.75812 -0.97402,1.4358 l 0.0063,0.0219 c 0.151342,0.5267 0.655814,0.86219 1.201561,0.81492 1.125361,-0.0977 2.293409,-0.0441 3.490031,0.19403 4.677127,0.92992 8.376002,4.51097 9.563804,9.01347 0.152048,0.57679 0.704146,0.95109 1.291873,0.84878 0.0074,-0.001 0.01482,-0.003 0.02257,-0.004 0.658638,-0.1143 1.069975,-0.76764 0.901348,-1.41463 -1.645651,-6.31224 -7.381465,-10.97208 -14.209126,-10.97208" />
    <path
       inkscape:connector-curvature="0"
       id="path972"
       style="fill:#f2a00e;fill-opacity:1;fill-rule:nonzero;stroke:none;stroke-width:0.03527778"
       d="m 86.333113,194.74157 c 0.08079,0.36865 0.09631,0.76165 0.0321,1.16769 -0.212725,1.33809 -1.313039,2.40912 -2.656417,2.58375 -1.477433,0.19191 -2.785886,-0.65264 -3.29953,-1.90712 -0.191911,-0.46849 -0.695325,-0.72072 -1.182158,-0.58067 -0.01164,0.003 -0.02328,0.007 -0.03492,0.01 -0.562328,0.16157 -0.859014,0.77011 -0.639234,1.31268 0.764822,1.88842 2.621139,3.21663 4.788958,3.19582 2.630311,-0.0254 4.863042,-2.12125 5.053189,-4.74451 0.03669,-0.50976 -0.0028,-1.00365 -0.107244,-1.4732 -0.12312,-0.5528 -0.680156,-0.90064 -1.226256,-0.75071 -0.0064,0.002 -0.01305,0.003 -0.0194,0.006 -0.516114,0.14182 -0.824089,0.65828 -0.709084,1.18075" />
    <path
       inkscape:connector-curvature="0"
       id="path974"
       style="fill:#ffffff;fill-opacity:1;fill-rule:nonzero;stroke:none;stroke-width:0.03527778"
       d="m 83.291463,192.29294 c -1.719791,0 -3.113616,1.39418 -3.113616,3.11361 0,1.7198 1.393825,3.11362 3.113616,3.11362 1.719439,0 3.113617,-1.39382 3.113617,-3.11362 0,-1.71943 -1.394178,-3.11361 -3.113617,-3.11361" />
  </g>
</svg>
