<?xml version="1.0" encoding="UTF-8" standalone="no"?>
<!-- Created with Inkscape (http://www.inkscape.org/) -->

<svg
   xmlns:dc="http://purl.org/dc/elements/1.1/"
   xmlns:cc="http://creativecommons.org/ns#"
   xmlns:rdf="http://www.w3.org/1999/02/22-rdf-syntax-ns#"
   xmlns:svg="http://www.w3.org/2000/svg"
   xmlns="http://www.w3.org/2000/svg"
   xmlns:sodipodi="http://sodipodi.sourceforge.net/DTD/sodipodi-0.dtd"
   xmlns:inkscape="http://www.inkscape.org/namespaces/inkscape"
   width="36.380634mm"
   height="84.667053mm"
   viewBox="0 0 36.380634 84.667053"
   version="1.1"
   id="svg4973"
   inkscape:version="0.92.5 (2060ec1f9f, 2020-04-08)"
   sodipodi:docname="key-mudblue-4.svg">
  <defs
     id="defs4967" />
  <sodipodi:namedview
     id="base"
     pagecolor="#ffffff"
     bordercolor="#666666"
     borderopacity="1.0"
     inkscape:pageopacity="0.0"
     inkscape:pageshadow="2"
     inkscape:zoom="0.35"
     inkscape:cx="-869.82073"
     inkscape:cy="668.57214"
     inkscape:document-units="mm"
     inkscape:current-layer="layer1"
     showgrid="false"
     inkscape:window-width="1366"
     inkscape:window-height="704"
     inkscape:window-x="0"
     inkscape:window-y="27"
     inkscape:window-maximized="1" />
  <metadata
     id="metadata4970">
    <rdf:RDF>
      <cc:Work
         rdf:about="">
        <dc:format>image/svg+xml</dc:format>
        <dc:type
           rdf:resource="http://purl.org/dc/dcmitype/StillImage" />
        <dc:title></dc:title>
      </cc:Work>
    </rdf:RDF>
  </metadata>
  <g
     inkscape:label="Layer 1"
     inkscape:groupmode="layer"
     id="layer1"
     transform="translate(-197.25614,-241.05933)">
    <path
       inkscape:connector-curvature="0"
       id="path916"
       style="fill:#66687f;fill-opacity:1;fill-rule:nonzero;stroke:none;stroke-width:0.03527778"
       d="m 224.45495,321.81619 h -5.4162 v -20.7483 h 5.4162 v 20.7483" />
    <path
       inkscape:connector-curvature="0"
       id="path918"
       style="fill:#3c415e;fill-opacity:1;fill-rule:nonzero;stroke:none;stroke-width:0.03527778"
       d="m 230.99616,305.94257 v -4.87468 h -6.54121 v 20.7483 h 3.16653 3.37468 v -4.87468 h -3.37468 v -3.06214 h 3.37468 v -4.87465 h -3.37468 v -3.06215 h 3.37468" />
    <path
       inkscape:connector-curvature="0"
       id="path920"
       style="fill:#3c415e;fill-opacity:1;fill-rule:nonzero;stroke:none;stroke-width:0.03527778"
       d="m 215.69477,325.72638 h -0.49671 c -1.84679,0 -3.34398,-1.49726 -3.34398,-3.34408 v -53.14873 c 0,-0.14216 0.11536,-0.25717 0.25718,-0.25717 h 6.67032 c 0.14217,0 0.25717,0.11501 0.25717,0.25717 v 53.14873 c 0,1.84682 -1.49719,3.34408 -3.34398,3.34408" />
    <path
       inkscape:connector-curvature="0"
       id="path922"
       style="fill:#66687f;fill-opacity:1;fill-rule:nonzero;stroke:none;stroke-width:0.03527778"
       d="m 233.6367,259.24961 c 0,10.04641 -8.14388,18.19028 -18.19028,18.19028 -10.04606,0 -18.19028,-8.14387 -18.19028,-18.19028 0,-10.04605 8.14422,-18.19028 18.19028,-18.19028 10.0464,0 18.19028,8.14423 18.19028,18.19028" />
    <path
       inkscape:connector-curvature="0"
       id="path924"
       style="fill:#66687f;fill-opacity:1;fill-rule:nonzero;stroke:none;stroke-width:0.03527778"
       d="m 232.43655,259.24961 c 0,9.38354 -7.6066,16.99013 -16.99013,16.99013 -9.38354,0 -16.99013,-7.60659 -16.99013,-16.99013 0,-9.38353 7.60659,-16.99013 16.99013,-16.99013 9.38353,0 16.99013,7.6066 16.99013,16.99013" />
    <path
       inkscape:connector-curvature="0"
       id="path926"
       style="fill:#7f8194;fill-opacity:1;fill-rule:nonzero;stroke:none;stroke-width:0.03527778"
       d="m 209.84783,244.82065 c -0.31009,0.13017 -0.61489,0.26952 -0.91404,0.41874 -0.56656,0.28258 -0.8001,0.97297 -0.53376,1.54729 0.004,0.007 0.007,0.0145 0.0102,0.0219 0.2847,0.61348 1.01565,0.85125 1.62172,0.55139 0.23495,-0.11606 0.47378,-0.22507 0.7165,-0.32738 0.59019,-0.24835 0.88794,-0.91051 0.66216,-1.50988 -0.003,-0.008 -0.006,-0.0166 -0.01,-0.0251 -0.2353,-0.62054 -0.94121,-0.93345 -1.55328,-0.67698" />
    <path
       inkscape:connector-curvature="0"
       id="path928"
       style="fill:#7f8194;fill-opacity:1;fill-rule:nonzero;stroke:none;stroke-width:0.03527778"
       d="m 215.44642,243.93059 c -0.45297,0 -0.90064,0.0222 -1.34303,0.0635 -0.73307,0.0688 -1.22625,0.79057 -1.0227,1.49825 0.002,0.008 0.004,0.0155 0.006,0.0229 0.15769,0.54857 0.68192,0.89958 1.25024,0.85019 1.1744,-0.1023 2.39431,-0.0466 3.64349,0.20179 5.67514,1.12854 9.97197,5.99863 10.36779,11.77114 0.33902,4.94382 -2.10397,9.34226 -5.91785,11.79406 -0.55739,0.35842 -0.72637,1.09573 -0.3496,1.64042 0.0155,0.0222 0.0314,0.0448 0.0469,0.0674 0.34607,0.49988 1.05481,0.64805 1.56669,0.32032 4.25238,-2.72239 7.07072,-7.48736 7.07072,-12.91096 0,-8.46067 -6.85835,-15.31902 -15.31902,-15.31902" />
    <path
       inkscape:connector-curvature="0"
       id="path930"
       style="fill:#3c415e;fill-opacity:1;fill-rule:nonzero;stroke:none;stroke-width:0.03527778"
       d="m 229.8147,253.66937 c 0.73413,1.88772 1.10808,3.95605 1.03364,6.12034 -0.2734,7.98548 -6.74793,14.51822 -14.73094,14.85689 -6.719,0.28504 -12.53631,-3.73416 -14.92462,-9.52783 -0.28363,-0.68827 -1.07703,-1.01353 -1.76918,-0.73907 -0.008,0.003 -0.0169,0.007 -0.0257,0.0102 -0.7172,0.28434 -1.05445,1.1042 -0.75918,1.81681 2.83634,6.8453 9.72785,11.58452 17.68087,11.21269 9.32251,-0.43603 16.8903,-8.02781 17.29917,-17.35138 0.11465,-2.6102 -0.32174,-5.10539 -1.20156,-7.3794 -0.28611,-0.73907 -1.13313,-1.09185 -1.85385,-0.76341 -0.008,0.004 -0.0169,0.008 -0.0254,0.0113 -0.65864,0.29986 -0.98566,1.05833 -0.7232,1.73284" />
    <path
       inkscape:connector-curvature="0"
       id="path932"
       style="fill:#3c415e;fill-opacity:1;fill-rule:nonzero;stroke:none;stroke-width:0.03527778"
       d="m 218.6186,254.09764 c 0.0847,0.38453 0.10089,0.79481 0.0335,1.21815 -0.22155,1.39558 -1.36914,2.51283 -2.77037,2.69486 -1.54093,0.20003 -2.90548,-0.68086 -3.44135,-1.98896 -0.20002,-0.48895 -0.72531,-0.75212 -1.23295,-0.60607 -0.012,0.004 -0.0243,0.007 -0.0363,0.0106 -0.58667,0.16863 -0.89606,0.80328 -0.66675,1.36913 0.79763,1.96956 2.73402,3.35492 4.99498,3.33305 2.7432,-0.0265 5.07188,-2.21227 5.27014,-4.94842 0.0384,-0.53163 -0.003,-1.04669 -0.11183,-1.5367 -0.12806,-0.57644 -0.70943,-0.93909 -1.27882,-0.78281 -0.007,0.002 -0.0138,0.004 -0.0205,0.006 -0.53798,0.14816 -0.85972,0.68686 -0.73977,1.23155" />
    <path
       inkscape:connector-curvature="0"
       id="path934"
       style="fill:#ffffff;fill-opacity:1;fill-rule:nonzero;stroke:none;stroke-width:0.03527778"
       d="m 215.44642,251.54389 c -1.79352,0 -3.24732,1.45415 -3.24732,3.24767 0,1.79352 1.4538,3.24732 3.24732,3.24732 1.79352,0 3.24767,-1.4538 3.24767,-3.24732 0,-1.79352 -1.45415,-3.24767 -3.24767,-3.24767" />
  </g>
</svg>
