<?xml version="1.0" encoding="UTF-8" standalone="no"?>
<!-- Created with Inkscape (http://www.inkscape.org/) -->

<svg
   xmlns:dc="http://purl.org/dc/elements/1.1/"
   xmlns:cc="http://creativecommons.org/ns#"
   xmlns:rdf="http://www.w3.org/1999/02/22-rdf-syntax-ns#"
   xmlns:svg="http://www.w3.org/2000/svg"
   xmlns="http://www.w3.org/2000/svg"
   xmlns:sodipodi="http://sodipodi.sourceforge.net/DTD/sodipodi-0.dtd"
   xmlns:inkscape="http://www.inkscape.org/namespaces/inkscape"
   width="29.75116mm"
   height="61.291962mm"
   viewBox="0 0 29.75116 61.291962"
   version="1.1"
   id="svg5583"
   inkscape:version="0.92.5 (2060ec1f9f, 2020-04-08)"
   sodipodi:docname="key-yellow-4.svg">
  <defs
     id="defs5577" />
  <sodipodi:namedview
     id="base"
     pagecolor="#ffffff"
     bordercolor="#666666"
     borderopacity="1.0"
     inkscape:pageopacity="0.0"
     inkscape:pageshadow="2"
     inkscape:zoom="0.35"
     inkscape:cx="-879.49164"
     inkscape:cy="184.39875"
     inkscape:document-units="mm"
     inkscape:current-layer="layer1"
     showgrid="false"
     inkscape:window-width="1366"
     inkscape:window-height="704"
     inkscape:window-x="0"
     inkscape:window-y="27"
     inkscape:window-maximized="1" />
  <metadata
     id="metadata5580">
    <rdf:RDF>
      <cc:Work
         rdf:about="">
        <dc:format>image/svg+xml</dc:format>
        <dc:type
           rdf:resource="http://purl.org/dc/dcmitype/StillImage" />
        <dc:title></dc:title>
      </cc:Work>
    </rdf:RDF>
  </metadata>
  <g
     inkscape:label="Layer 1"
     inkscape:groupmode="layer"
     id="layer1"
     transform="translate(-199.8149,-136.33021)">
    <path
       inkscape:connector-curvature="0"
       id="path1054"
       style="fill:#f2a00e;fill-opacity:1;fill-rule:nonzero;stroke:none;stroke-width:0.03527778"
       d="m 209.07425,169.1456 h 11.23245 c 0.38206,0 0.6918,0.30974 0.6918,0.69179 v 5.27439 c 0,0.3817 -0.30974,0.69144 -0.6918,0.69144 h -2.46733 c -0.38206,0 -0.6918,0.30974 -0.6918,0.6918 v 0.14569 c 0,0.38206 -0.30974,0.69145 -0.69179,0.69145 h -1.16488 c -0.38205,0 -0.69179,0.30974 -0.69179,0.69179 v 2.83951 c 0,0.38206 0.30974,0.6918 0.69179,0.6918 h 1.16488 c 0.38205,0 0.69179,0.30974 0.69179,0.6918 v 0 c 0,0.38206 0.30974,0.69179 0.6918,0.69179 h 2.46733 c 0.38206,0 0.6918,0.30939 0.6918,0.69145 v 10.70328 c 0,0.38206 -0.30974,0.69179 -0.6918,0.69179 h -4.92443 c -0.38205,0 -0.69179,0.30974 -0.69179,0.69145 v 1.21355 c 0,0.38206 -0.30974,0.6918 -0.6918,0.6918 h -4.92443 c -0.38205,0 -0.69179,-0.30974 -0.69179,-0.6918 v -27.09298 c 0,-0.38205 0.30974,-0.69179 0.69179,-0.69179" />
    <path
       inkscape:connector-curvature="0"
       id="path1056"
       style="fill:#fdcb2c;fill-opacity:1;fill-rule:nonzero;stroke:none;stroke-width:0.03527778"
       d="M 208.38246,196.93037 V 177.3826 c 0,-0.87206 0.70732,-1.57938 1.57938,-1.57938 v 0 c 0.87242,0 1.57939,0.70732 1.57939,1.57938 v 20.23957 h -2.46698 c -0.38205,0 -0.69179,-0.30974 -0.69179,-0.6918" />
    <path
       inkscape:connector-curvature="0"
       id="path1058"
       style="fill:#fdcb2c;fill-opacity:1;fill-rule:nonzero;stroke:none;stroke-width:0.03527778"
       d="m 225.9589,172.63422 h -22.53685 c -1.99214,0 -3.60715,-1.61502 -3.60715,-3.60716 v -29.0897 c 0,-1.99213 1.61501,-3.60715 3.60715,-3.60715 h 22.53685 c 1.99214,0 3.60716,1.61502 3.60716,3.60715 v 29.0897 c 0,1.99214 -1.61502,3.60716 -3.60716,3.60716" />
    <path
       inkscape:connector-curvature="0"
       id="path1060"
       style="fill:#f2a00e;fill-opacity:1;fill-rule:nonzero;stroke:none;stroke-width:0.03527778"
       d="m 199.8149,165.18108 v 3.84598 c 0,1.99214 1.61501,3.60716 3.60715,3.60716 h 22.53685 c 1.99214,0 3.60716,-1.61502 3.60716,-3.60751 v -7.02063 H 202.9899 c -1.75366,0 -3.175,1.4217 -3.175,3.175" />
    <path
       inkscape:connector-curvature="0"
       id="path1062"
       style="fill:#f2a00e;fill-opacity:1;fill-rule:nonzero;stroke:none;stroke-width:0.03527778"
       d="m 217.73036,146.31629 c 0.0811,0.3683 0.0967,0.76165 0.0321,1.16769 -0.21237,1.33809 -1.31268,2.40912 -2.65641,2.58375 -1.47708,0.19191 -2.78554,-0.65264 -3.29918,-1.90712 -0.19227,-0.46849 -0.69533,-0.72108 -1.18216,-0.58067 -0.0116,0.003 -0.0233,0.007 -0.0349,0.01 -0.56268,0.16157 -0.85901,0.77011 -0.63959,1.31269 0.76518,1.88842 2.6215,3.21662 4.78931,3.19546 2.62996,-0.0254 4.86269,-2.1209 5.05284,-4.74416 0.037,-0.50976 -0.003,-1.00365 -0.10724,-1.4732 -0.12277,-0.5528 -0.68016,-0.90064 -1.22591,-0.75071 -0.007,0.002 -0.0131,0.004 -0.0198,0.005 -0.51576,0.14217 -0.82409,0.65828 -0.70908,1.1811" />
    <path
       inkscape:connector-curvature="0"
       id="path1064"
       style="fill:#ffffff;fill-opacity:1;fill-rule:nonzero;stroke:none;stroke-width:0.03527778"
       d="m 214.68871,143.86766 c -1.71944,0 -3.11361,1.39382 -3.11361,3.11362 0,1.71943 1.39417,3.11361 3.11361,3.11361 1.71979,0 3.11362,-1.39418 3.11362,-3.11361 0,-1.7198 -1.39383,-3.11362 -3.11362,-3.11362" />
    <path
       inkscape:connector-curvature="0"
       id="path1066"
       style="fill:#f4e391;fill-opacity:1;fill-rule:nonzero;stroke:none;stroke-width:0.03527778"
       d="m 212.29688,139.18453 h -0.4953 c -0.91405,0 -1.46544,1.01212 -0.96979,1.78012 l 0.0198,0.0307 c 0.21167,0.32809 0.57503,0.52635 0.9652,0.52635 h 0.4826 c 0.68651,0 1.22026,-0.59479 1.149,-1.27776 -7.1e-4,-0.008 -10e-4,-0.0159 -0.002,-0.0233 -0.0614,-0.58914 -0.55741,-1.03611 -1.14937,-1.03611" />
    <path
       inkscape:connector-curvature="0"
       id="path1068"
       style="fill:#f4e391;fill-opacity:1;fill-rule:nonzero;stroke:none;stroke-width:0.03527778"
       d="m 223.79108,139.18453 h -7.77098 c -0.6858,0 -1.22097,0.59302 -1.15112,1.2753 l 0.003,0.0261 c 0.0603,0.58844 0.55598,1.03576 1.14724,1.03576 h 7.77204 c 0.64523,0 1.1684,-0.52352 1.1684,-1.16875 v 0 c 0,-0.64524 -0.52317,-1.1684 -1.1684,-1.1684" />
  </g>
</svg>
