<?xml version="1.0" encoding="UTF-8" standalone="no"?>
<!-- Created with Inkscape (http://www.inkscape.org/) -->

<svg
   xmlns:dc="http://purl.org/dc/elements/1.1/"
   xmlns:cc="http://creativecommons.org/ns#"
   xmlns:rdf="http://www.w3.org/1999/02/22-rdf-syntax-ns#"
   xmlns:svg="http://www.w3.org/2000/svg"
   xmlns="http://www.w3.org/2000/svg"
   xmlns:sodipodi="http://sodipodi.sourceforge.net/DTD/sodipodi-0.dtd"
   xmlns:inkscape="http://www.inkscape.org/namespaces/inkscape"
   width="75.006462mm"
   height="34.938477mm"
   viewBox="0 0 75.006462 34.938477"
   version="1.1"
   id="svg3735"
   inkscape:version="0.92.5 (2060ec1f9f, 2020-04-08)"
   sodipodi:docname="key-yellow-3.svg">
  <defs
     id="defs3729" />
  <sodipodi:namedview
     id="base"
     pagecolor="#ffffff"
     bordercolor="#666666"
     borderopacity="1.0"
     inkscape:pageopacity="0.0"
     inkscape:pageshadow="2"
     inkscape:zoom="0.35"
     inkscape:cx="-542.54122"
     inkscape:cy="540.31118"
     inkscape:document-units="mm"
     inkscape:current-layer="layer1"
     showgrid="false"
     inkscape:window-width="1366"
     inkscape:window-height="704"
     inkscape:window-x="0"
     inkscape:window-y="27"
     inkscape:window-maximized="1" />
  <metadata
     id="metadata3732">
    <rdf:RDF>
      <cc:Work
         rdf:about="">
        <dc:format>image/svg+xml</dc:format>
        <dc:type
           rdf:resource="http://purl.org/dc/dcmitype/StillImage" />
        <dc:title></dc:title>
      </cc:Work>
    </rdf:RDF>
  </metadata>
  <g
     inkscape:label="Layer 1"
     inkscape:groupmode="layer"
     id="layer1"
     transform="translate(-110.66344,-256.85219)">
    <path
       inkscape:connector-curvature="0"
       id="path1012"
       style="fill:#f2a00e;fill-opacity:1;fill-rule:nonzero;stroke:none;stroke-width:0.03527778"
       d="M 159.04753,279.96881 V 268.674 h -42.55876 c -0.19615,0 -0.38665,0.09 -0.54187,0.25611 l -4.93642,4.46656 c -0.47448,0.50683 -0.46002,1.50703 0.0286,1.98712 l 4.84681,4.01892 c 0.33726,0.33157 0.79446,0.2963 1.10349,-0.0854 l 1.35079,-1.66825 c 0.34148,-0.42196 0.85725,-0.41519 1.19309,0.0156 l 1.54093,1.97693 c 0.1644,0.21015 0.37959,0.32727 0.6029,0.32727 h 6.89187 c 0.29704,0 0.57467,-0.2063 0.73942,-0.54998 l 0.46637,-0.97151 c 0.35172,-0.73339 1.12713,-0.73339 1.47885,0 l 0.018,0.0374 c 0.34431,0.71793 1.0989,0.73628 1.4612,0.0357 v 0 c 0.38453,-0.74334 1.19733,-0.66714 1.50636,0.14149 l 0.24906,0.65155 c 0.15417,0.40323 0.45615,0.65539 0.78493,0.65539 h 12.58923 c 0.26141,0 0.50977,-0.16013 0.67875,-0.43737 l 1.00929,-1.65919 c 0.32244,-0.52983 0.89571,-0.5866 1.26894,-0.12552 l 1.54658,1.91023 c 0.16263,0.2008 0.37289,0.31185 0.59055,0.31185 h 6.09106" />
    <path
       inkscape:connector-curvature="0"
       id="path1014"
       style="fill:#fdcb2c;fill-opacity:1;fill-rule:nonzero;stroke:none;stroke-width:0.03527778"
       d="m 115.81884,274.24362 v -0.16373 c 0,-0.60879 0.49389,-1.10243 1.10279,-1.10243 h 49.62172 c 0.17074,0 0.30938,0.13836 0.30938,0.3091 v 1.75081 c 0,0.17074 -0.13864,0.3091 -0.30938,0.3091 h -49.62172 c -0.6089,0 -1.10279,-0.49361 -1.10279,-1.10285" />
    <path
       inkscape:connector-curvature="0"
       id="path1016"
       style="fill:#fdcb2c;fill-opacity:1;fill-rule:nonzero;stroke:none;stroke-width:0.03527778"
       d="m 147.64716,286.73375 v -24.82497 c 0,-3.07623 2.72486,-5.43984 5.77038,-5.00486 l 27.91143,3.98498 c 2.49096,0.3556 4.34093,2.48884 4.34093,5.00521 v 16.85462 c 0,2.51644 -1.84997,4.64965 -4.34093,5.00518 l -27.91143,3.98501 c -3.04552,0.43505 -5.77038,-1.92856 -5.77038,-5.00517" />
    <path
       inkscape:connector-curvature="0"
       id="path1018"
       style="fill:#f2a00e;fill-opacity:1;fill-rule:nonzero;stroke:none;stroke-width:0.03527778"
       d="m 145.75239,282.65144 v -16.65997 c 0,-0.77152 0.62548,-1.397 1.397,-1.397 h 1.37478 c 0.77152,0 1.397,0.62548 1.397,1.397 v 16.65997 c 0,0.77114 -0.62548,1.39664 -1.397,1.39664 h -1.37478 c -0.77152,0 -1.397,-0.6255 -1.397,-1.39664" />
    <path
       inkscape:connector-curvature="0"
       id="path1020"
       style="fill:#f2a00e;fill-opacity:1;fill-rule:nonzero;stroke:none;stroke-width:0.03527778"
       d="m 175.92194,277.21012 c -0.36865,0.0812 -0.762,0.0963 -1.16769,0.0321 -1.33808,-0.21276 -2.40947,-1.313 -2.58374,-2.65645 -0.19192,-1.4774 0.65263,-2.78581 1.90676,-3.29942 0.46884,-0.19195 0.72108,-0.69536 0.58102,-1.1822 -0.004,-0.0116 -0.007,-0.0233 -0.0102,-0.0349 -0.16157,-0.56232 -0.76976,-0.85901 -1.31233,-0.63923 -1.88842,0.76482 -3.21663,2.62142 -3.19581,4.78896 0.0254,2.63024 2.1209,4.86308 4.74451,5.05312 0.50941,0.0368 1.0033,-0.003 1.4732,-0.10721 0.55245,-0.12277 0.90064,-0.68019 0.75035,-1.22619 -0.002,-0.006 -0.004,-0.0131 -0.005,-0.0194 -0.14216,-0.51604 -0.65827,-0.82405 -1.18074,-0.70912" />
    <path
       inkscape:connector-curvature="0"
       id="path1022"
       style="fill:#ffffff;fill-opacity:1;fill-rule:nonzero;stroke:none;stroke-width:0.03527778"
       d="m 178.37058,274.16851 c 0,-1.71979 -1.39418,-3.11369 -3.11397,-3.11369 -1.71944,0 -3.11327,1.3939 -3.11327,3.11369 0,1.71937 1.39383,3.11355 3.11327,3.11355 1.71979,0 3.11397,-1.39418 3.11397,-3.11355" />
    <path
       inkscape:connector-curvature="0"
       id="path1024"
       style="fill:#f4e391;fill-opacity:1;fill-rule:nonzero;stroke:none;stroke-width:0.03527778"
       d="m 183.05335,271.77639 v -0.49501 c 0,-0.91405 -1.01212,-1.46544 -1.78012,-0.96986 l -0.0307,0.0199 c -0.32773,0.21167 -0.52599,0.57503 -0.52599,0.96516 v 0.48218 c 0,0.68696 0.59443,1.22068 1.27776,1.14942 0.008,-7.1e-4 0.0155,-10e-4 0.0233,-0.002 0.58879,-0.0614 1.03576,-0.557 1.03576,-1.14928" />
    <path
       inkscape:connector-curvature="0"
       id="path1026"
       style="fill:#f4e391;fill-opacity:1;fill-rule:nonzero;stroke:none;stroke-width:0.03527778"
       d="m 183.05335,283.27046 v -7.77089 c 0,-0.68544 -0.59302,-1.22096 -1.27494,-1.15079 l -0.0261,0.002 c -0.58843,0.0606 -1.03576,0.55629 -1.03576,1.14762 v 7.77159 c 0,0.64533 0.52317,1.16843 1.1684,1.16843 v 0 c 0.64523,0 1.1684,-0.5231 1.1684,-1.16843" />
    <path
       inkscape:connector-curvature="0"
       id="path1028"
       style="fill:#f2a00e;fill-opacity:1;fill-rule:nonzero;stroke:none;stroke-width:0.03527778"
       d="m 153.41754,291.73892 19.07858,-2.72383 c 1.04175,-0.14884 1.60972,-1.29674 1.09573,-2.21506 l -0.0159,-0.0285 c -0.30374,-0.54292 -0.91052,-0.8432 -1.52682,-0.75529 l -9.86649,1.40864 c -1.06997,0.15268 -2.02706,-0.67733 -2.02706,-1.75782 v -26.41889 c 0.007,-0.21449 -0.0303,-0.43639 -0.12629,-0.65476 l -0.0148,-0.0332 c -0.20885,-0.47413 -0.64735,-0.8068 -1.16029,-0.88018 l -5.43666,-0.77611 c -3.04552,-0.43498 -5.77038,1.92863 -5.77038,5.00486 v 24.82497 c 0,3.07661 2.72486,5.44022 5.77038,5.00517" />
  </g>
</svg>
