<?xml version="1.0" encoding="UTF-8" standalone="no"?>
<!-- Created with Inkscape (http://www.inkscape.org/) -->

<svg
   xmlns:dc="http://purl.org/dc/elements/1.1/"
   xmlns:cc="http://creativecommons.org/ns#"
   xmlns:rdf="http://www.w3.org/1999/02/22-rdf-syntax-ns#"
   xmlns:svg="http://www.w3.org/2000/svg"
   xmlns="http://www.w3.org/2000/svg"
   xmlns:sodipodi="http://sodipodi.sourceforge.net/DTD/sodipodi-0.dtd"
   xmlns:inkscape="http://www.inkscape.org/namespaces/inkscape"
   width="69.849998mm"
   height="44.58934mm"
   viewBox="0 0 69.849998 44.58934"
   version="1.1"
   id="svg36389"
   inkscape:version="0.92.5 (2060ec1f9f, 2020-04-08)"
   sodipodi:docname="notice-board.svg">
  <defs
     id="defs36383" />
  <sodipodi:namedview
     id="base"
     pagecolor="#ffffff"
     bordercolor="#666666"
     borderopacity="1.0"
     inkscape:pageopacity="0.0"
     inkscape:pageshadow="2"
     inkscape:zoom="0.35"
     inkscape:cx="-846.57142"
     inkscape:cy="189.9776"
     inkscape:document-units="mm"
     inkscape:current-layer="layer1"
     showgrid="false"
     inkscape:window-width="1366"
     inkscape:window-height="704"
     inkscape:window-x="0"
     inkscape:window-y="27"
     inkscape:window-maximized="1" />
  <metadata
     id="metadata36386">
    <rdf:RDF>
      <cc:Work
         rdf:about="">
        <dc:format>image/svg+xml</dc:format>
        <dc:type
           rdf:resource="http://purl.org/dc/dcmitype/StillImage" />
        <dc:title></dc:title>
      </cc:Work>
    </rdf:RDF>
  </metadata>
  <g
     inkscape:label="Layer 1"
     inkscape:groupmode="layer"
     id="layer1"
     transform="translate(-191.10476,-154.5089)">
    <path
       inkscape:connector-curvature="0"
       id="path20178"
       style="fill:#cc8344;fill-opacity:1;fill-rule:nonzero;stroke:none;stroke-width:0.03527778"
       d="m 191.10476,199.09824 h 69.85 V 154.5089 h -69.85 z" />
    <path
       inkscape:connector-curvature="0"
       id="path20180"
       style="fill:#fae039;fill-opacity:1;fill-rule:nonzero;stroke:none;stroke-width:0.03527778"
       d="m 193.92699,196.46017 h 64.20555 v -39.31285 h -64.20555 z" />
    <path
       inkscape:connector-curvature="0"
       id="path20182"
       style="fill:#fff9f5;fill-opacity:1;fill-rule:nonzero;stroke:none;stroke-width:0.03527778"
       d="m 207.93826,171.4514 h -7.08272 v -9.38 h 7.08272 v 9.38" />
    <path
       inkscape:connector-curvature="0"
       id="path20184"
       style="fill:#f14b53;fill-opacity:1;fill-rule:nonzero;stroke:none;stroke-width:0.03527778"
       d="m 205.01267,163.84622 c 0,0.35207 -0.28575,0.63747 -0.63782,0.63747 -0.35207,0 -0.63747,-0.2854 -0.63747,-0.63747 0,-0.35242 0.2854,-0.63782 0.63747,-0.63782 0.35207,0 0.63782,0.2854 0.63782,0.63782" />
    <path
       inkscape:connector-curvature="0"
       id="path20186"
       style="fill:#9ab6e4;fill-opacity:1;fill-rule:nonzero;stroke:none;stroke-width:0.03527778"
       d="m 206.79738,165.79708 h -4.83482 v -0.35278 h 4.83482 v 0.35278" />
    <path
       inkscape:connector-curvature="0"
       id="path20188"
       style="fill:#9ab6e4;fill-opacity:1;fill-rule:nonzero;stroke:none;stroke-width:0.03527778"
       d="m 206.79244,166.93373 h -4.83482 v -0.35278 h 4.83482 v 0.35278" />
    <path
       inkscape:connector-curvature="0"
       id="path20190"
       style="fill:#9ab6e4;fill-opacity:1;fill-rule:nonzero;stroke:none;stroke-width:0.03527778"
       d="m 206.78715,168.07073 h -4.83447 v -0.35277 h 4.83447 v 0.35277" />
    <path
       inkscape:connector-curvature="0"
       id="path20192"
       style="fill:#9ab6e4;fill-opacity:1;fill-rule:nonzero;stroke:none;stroke-width:0.03527778"
       d="m 206.78185,169.20738 h -4.83446 v -0.35277 h 4.83446 v 0.35277" />
    <path
       inkscape:connector-curvature="0"
       id="path20194"
       style="fill:#9ab6e4;fill-opacity:1;fill-rule:nonzero;stroke:none;stroke-width:0.03527778"
       d="m 206.77727,170.34439 h -4.83482 v -0.35278 h 4.83482 v 0.35278" />
    <path
       inkscape:connector-curvature="0"
       id="path20196"
       style="fill:#fff9f5;fill-opacity:1;fill-rule:nonzero;stroke:none;stroke-width:0.03527778"
       d="m 241.05351,183.48994 h -6.57084 v -8.70196 h 6.57084 v 8.70196" />
    <path
       inkscape:connector-curvature="0"
       id="path20198"
       style="fill:#f14b53;fill-opacity:1;fill-rule:nonzero;stroke:none;stroke-width:0.03527778"
       d="m 238.33959,176.43439 c 0,0.32667 -0.26493,0.59161 -0.59161,0.59161 -0.32702,0 -0.59196,-0.26494 -0.59196,-0.59161 0,-0.32667 0.26494,-0.59161 0.59196,-0.59161 0.32668,0 0.59161,0.26494 0.59161,0.59161" />
    <path
       inkscape:connector-curvature="0"
       id="path20200"
       style="fill:#9ab6e4;fill-opacity:1;fill-rule:nonzero;stroke:none;stroke-width:0.03527778"
       d="m 239.99518,178.25684 h -4.48522 v -0.35278 h 4.48522 v 0.35278" />
    <path
       inkscape:connector-curvature="0"
       id="path20202"
       style="fill:#9ab6e4;fill-opacity:1;fill-rule:nonzero;stroke:none;stroke-width:0.03527778"
       d="m 239.99024,179.31165 h -4.48522 v -0.35278 h 4.48522 v 0.35278" />
    <path
       inkscape:connector-curvature="0"
       id="path20204"
       style="fill:#9ab6e4;fill-opacity:1;fill-rule:nonzero;stroke:none;stroke-width:0.03527778"
       d="m 239.98601,180.3661 h -4.48558 v -0.35278 h 4.48558 v 0.35278" />
    <path
       inkscape:connector-curvature="0"
       id="path20206"
       style="fill:#9ab6e4;fill-opacity:1;fill-rule:nonzero;stroke:none;stroke-width:0.03527778"
       d="m 239.98107,181.4209 h -4.48522 v -0.35277 h 4.48522 v 0.35277" />
    <path
       inkscape:connector-curvature="0"
       id="path20208"
       style="fill:#9ab6e4;fill-opacity:1;fill-rule:nonzero;stroke:none;stroke-width:0.03527778"
       d="m 239.97613,182.47571 h -4.48522 v -0.35278 h 4.48522 v 0.35278" />
    <path
       inkscape:connector-curvature="0"
       id="path20210"
       style="fill:#fff9f5;fill-opacity:1;fill-rule:nonzero;stroke:none;stroke-width:0.03527778"
       d="m 213.09093,189.13792 h -8.92951 v -12.53455 h 8.92951 v 12.53455" />
    <path
       inkscape:connector-curvature="0"
       id="path20212"
       style="fill:#717ec3;fill-opacity:1;fill-rule:nonzero;stroke:none;stroke-width:0.03527778"
       d="m 209.21779,178.20181 c 0,0.32667 -0.26494,0.5916 -0.59161,0.5916 -0.32703,0 -0.59196,-0.26493 -0.59196,-0.5916 0,-0.32668 0.26493,-0.59161 0.59196,-0.59161 0.32667,0 0.59161,0.26493 0.59161,0.59161" />
    <path
       inkscape:connector-curvature="0"
       id="path20214"
       style="fill:#7b648a;fill-opacity:1;fill-rule:nonzero;stroke:none;stroke-width:0.03527778"
       d="m 211.56235,179.78931 h -5.99723 v -0.35278 h 5.99723 v 0.35278" />
    <path
       inkscape:connector-curvature="0"
       id="path20216"
       style="fill:#7b648a;fill-opacity:1;fill-rule:nonzero;stroke:none;stroke-width:0.03527778"
       d="m 211.56235,181.31824 h -5.99723 v -0.35277 h 5.99723 v 0.35277" />
    <path
       inkscape:connector-curvature="0"
       id="path20218"
       style="fill:#7b648a;fill-opacity:1;fill-rule:nonzero;stroke:none;stroke-width:0.03527778"
       d="m 211.56235,182.84683 h -5.99723 v -0.35278 h 5.99723 v 0.35278" />
    <path
       inkscape:connector-curvature="0"
       id="path20220"
       style="fill:#7b648a;fill-opacity:1;fill-rule:nonzero;stroke:none;stroke-width:0.03527778"
       d="m 211.56235,184.37542 h -5.99723 v -0.35278 h 5.99723 v 0.35278" />
    <path
       inkscape:connector-curvature="0"
       id="path20226"
       style="fill:#9ab6e4;fill-opacity:1;fill-rule:nonzero;stroke:none;stroke-width:0.03527778"
       d="m 229.17372,189.72212 h -12.46505 v -12.4647 h 12.46505 v 12.4647" />
    <path
       inkscape:connector-curvature="0"
       id="path20228"
       style="fill:#fff9f5;fill-opacity:1;fill-rule:nonzero;stroke:none;stroke-width:0.03527778"
       d="m 223.06255,178.66853 c 0,0.32667 -0.26494,0.59161 -0.59161,0.59161 -0.32702,0 -0.59196,-0.26494 -0.59196,-0.59161 0,-0.32667 0.26494,-0.59161 0.59196,-0.59161 0.32667,0 0.59161,0.26494 0.59161,0.59161" />
    <path
       inkscape:connector-curvature="0"
       id="path20230"
       style="fill:#717ec3;fill-opacity:1;fill-rule:nonzero;stroke:none;stroke-width:0.03527778"
       d="m 227.05705,180.92666 h -8.29416 v -0.35278 h 8.29416 v 0.35278" />
    <path
       inkscape:connector-curvature="0"
       id="path20232"
       style="fill:#717ec3;fill-opacity:1;fill-rule:nonzero;stroke:none;stroke-width:0.03527778"
       d="m 227.05705,182.41679 h -8.29416 v -0.35277 h 8.29416 v 0.35277" />
    <path
       inkscape:connector-curvature="0"
       id="path20234"
       style="fill:#717ec3;fill-opacity:1;fill-rule:nonzero;stroke:none;stroke-width:0.03527778"
       d="m 227.05705,183.90693 h -8.29416 v -0.35278 h 8.29416 v 0.35278" />
    <path
       inkscape:connector-curvature="0"
       id="path20236"
       style="fill:#717ec3;fill-opacity:1;fill-rule:nonzero;stroke:none;stroke-width:0.03527778"
       d="m 227.05705,185.39742 h -8.29416 v -0.35278 h 8.29416 v 0.35278" />
    <path
       inkscape:connector-curvature="0"
       id="path20238"
       style="fill:#717ec3;fill-opacity:1;fill-rule:nonzero;stroke:none;stroke-width:0.03527778"
       d="m 227.05705,186.88755 h -8.29416 v -0.35278 h 8.29416 v 0.35278" />
    <path
       inkscape:connector-curvature="0"
       id="path20240"
       style="fill:#717ec3;fill-opacity:1;fill-rule:nonzero;stroke:none;stroke-width:0.03527778"
       d="m 227.05705,188.37733 h -8.29416 v -0.35278 h 8.29416 v 0.35278" />
    <path
       inkscape:connector-curvature="0"
       id="path20242"
       style="fill:#f14b53;fill-opacity:1;fill-rule:nonzero;stroke:none;stroke-width:0.03527778"
       d="m 251.84816,173.33841 h -7.65669 v -12.68518 h 7.65669 v 12.68518" />
    <path
       inkscape:connector-curvature="0"
       id="path20244"
       style="fill:#fff9f5;fill-opacity:1;fill-rule:nonzero;stroke:none;stroke-width:0.03527778"
       d="m 248.61142,162.0714 c 0,0.32702 -0.26494,0.5916 -0.59161,0.5916 -0.32702,0 -0.59196,-0.26458 -0.59196,-0.5916 0,-0.32668 0.26494,-0.59161 0.59196,-0.59161 0.32667,0 0.59161,0.26493 0.59161,0.59161" />
    <path
       inkscape:connector-curvature="0"
       id="path20246"
       style="fill:#fff9f5;fill-opacity:1;fill-rule:nonzero;stroke:none;stroke-width:0.03527778"
       d="m 250.37143,164.02296 h -4.46829 v -0.35278 h 4.46829 v 0.35278" />
    <path
       inkscape:connector-curvature="0"
       id="path20248"
       style="fill:#fff9f5;fill-opacity:1;fill-rule:nonzero;stroke:none;stroke-width:0.03527778"
       d="m 250.37143,165.5258 h -4.46829 v -0.35278 h 4.46829 v 0.35278" />
    <path
       inkscape:connector-curvature="0"
       id="path20250"
       style="fill:#fff9f5;fill-opacity:1;fill-rule:nonzero;stroke:none;stroke-width:0.03527778"
       d="m 250.37143,167.02863 h -4.46829 v -0.35278 h 4.46829 v 0.35278" />
    <path
       inkscape:connector-curvature="0"
       id="path20252"
       style="fill:#fff9f5;fill-opacity:1;fill-rule:nonzero;stroke:none;stroke-width:0.03527778"
       d="m 250.37143,168.53181 h -4.46829 v -0.35277 h 4.46829 v 0.35277" />
    <path
       inkscape:connector-curvature="0"
       id="path20254"
       style="fill:#fff9f5;fill-opacity:1;fill-rule:nonzero;stroke:none;stroke-width:0.03527778"
       d="m 250.37143,170.03465 h -4.46829 v -0.35278 h 4.46829 v 0.35278" />
    <path
       inkscape:connector-curvature="0"
       id="path20256"
       style="fill:#fff9f5;fill-opacity:1;fill-rule:nonzero;stroke:none;stroke-width:0.03527778"
       d="m 250.37143,171.53783 h -4.46829 v -0.35277 h 4.46829 v 0.35277" />
    <path
       inkscape:connector-curvature="0"
       id="path20258"
       style="fill:#f14b53;fill-opacity:1;fill-rule:nonzero;stroke:none;stroke-width:0.03527778"
       d="m 222.17108,169.67658 h -6.23253 v -8.65435 h 6.23253 v 8.65435" />
    <path
       inkscape:connector-curvature="0"
       id="path20260"
       style="fill:#9ab6e4;fill-opacity:1;fill-rule:nonzero;stroke:none;stroke-width:0.03527778"
       d="m 219.64625,162.75332 c 0,0.32667 -0.26494,0.5916 -0.59161,0.5916 -0.32667,0 -0.59161,-0.26493 -0.59161,-0.5916 0,-0.32668 0.26494,-0.59161 0.59161,-0.59161 0.32667,0 0.59161,0.26493 0.59161,0.59161" />
    <path
       inkscape:connector-curvature="0"
       id="path20262"
       style="fill:#9ab6e4;fill-opacity:1;fill-rule:nonzero;stroke:none;stroke-width:0.03527778"
       d="m 218.71386,166.20348 h -1.86302 v -1.86266 h 1.86302 v 1.86266" />
    <path
       inkscape:connector-curvature="0"
       id="path20264"
       style="fill:#fff9f5;fill-opacity:1;fill-rule:nonzero;stroke:none;stroke-width:0.03527778"
       d="m 221.25809,166.20348 h -1.86302 v -1.86266 h 1.86302 v 1.86266" />
    <path
       inkscape:connector-curvature="0"
       id="path20266"
       style="fill:#fff9f5;fill-opacity:1;fill-rule:nonzero;stroke:none;stroke-width:0.03527778"
       d="m 218.71386,168.71385 h -1.86302 v -1.86302 h 1.86302 v 1.86302" />
    <path
       inkscape:connector-curvature="0"
       id="path20268"
       style="fill:#9ab6e4;fill-opacity:1;fill-rule:nonzero;stroke:none;stroke-width:0.03527778"
       d="m 221.25809,168.71385 h -1.86302 v -1.86302 h 1.86302 v 1.86302" />
    <path
       inkscape:connector-curvature="0"
       id="path20270"
       style="fill:#717ec3;fill-opacity:1;fill-rule:nonzero;stroke:none;stroke-width:0.03527778"
       d="m 238.62499,194.47756 h -6.10553 v -8.46667 h 6.10553 v 8.46667" />
    <path
       inkscape:connector-curvature="0"
       id="path20272"
       style="fill:#9ab6e4;fill-opacity:1;fill-rule:nonzero;stroke:none;stroke-width:0.03527778"
       d="m 236.16401,187.65696 c 0,0.32702 -0.26494,0.59196 -0.59161,0.59196 -0.32702,0 -0.59196,-0.26494 -0.59196,-0.59196 0,-0.32668 0.26494,-0.59126 0.59196,-0.59126 0.32667,0 0.59161,0.26458 0.59161,0.59126" />
    <path
       inkscape:connector-curvature="0"
       id="path20274"
       style="fill:#9ab6e4;fill-opacity:1;fill-rule:nonzero;stroke:none;stroke-width:0.03527778"
       d="m 234.59873,190.24423 h -1.1758 v -1.17616 h 1.1758 v 1.17616" />
    <path
       inkscape:connector-curvature="0"
       id="path20276"
       style="fill:#fff9f5;fill-opacity:1;fill-rule:nonzero;stroke:none;stroke-width:0.03527778"
       d="m 236.16013,190.24423 h -1.17581 v -1.17616 h 1.17581 v 1.17616" />
    <path
       inkscape:connector-curvature="0"
       id="path20278"
       style="fill:#fff9f5;fill-opacity:1;fill-rule:nonzero;stroke:none;stroke-width:0.03527778"
       d="m 237.72188,190.24423 h -1.17616 v -1.17616 h 1.17616 v 1.17616" />
    <path
       inkscape:connector-curvature="0"
       id="path20280"
       style="fill:#fff9f5;fill-opacity:1;fill-rule:nonzero;stroke:none;stroke-width:0.03527778"
       d="m 234.59873,191.85572 h -1.1758 v -1.17616 h 1.1758 v 1.17616" />
    <path
       inkscape:connector-curvature="0"
       id="path20282"
       style="fill:#f14b53;fill-opacity:1;fill-rule:nonzero;stroke:none;stroke-width:0.03527778"
       d="m 236.16013,191.85572 h -1.17581 v -1.17616 h 1.17581 v 1.17616" />
    <path
       inkscape:connector-curvature="0"
       id="path20284"
       style="fill:#fff9f5;fill-opacity:1;fill-rule:nonzero;stroke:none;stroke-width:0.03527778"
       d="m 237.72188,191.85572 h -1.17616 v -1.17616 h 1.17616 v 1.17616" />
    <path
       inkscape:connector-curvature="0"
       id="path20286"
       style="fill:#fff9f5;fill-opacity:1;fill-rule:nonzero;stroke:none;stroke-width:0.03527778"
       d="m 234.59873,193.46721 h -1.1758 v -1.17617 h 1.1758 v 1.17617" />
    <path
       inkscape:connector-curvature="0"
       id="path20288"
       style="fill:#fff9f5;fill-opacity:1;fill-rule:nonzero;stroke:none;stroke-width:0.03527778"
       d="m 236.16013,193.46721 h -1.17581 v -1.17617 h 1.17581 v 1.17617" />
    <path
       inkscape:connector-curvature="0"
       id="path20290"
       style="fill:#9ab6e4;fill-opacity:1;fill-rule:nonzero;stroke:none;stroke-width:0.03527778"
       d="m 237.72188,193.46721 h -1.17616 v -1.17617 h 1.17616 v 1.17617" />
    <path
       inkscape:connector-curvature="0"
       id="path20292"
       style="fill:#fff9f5;fill-opacity:1;fill-rule:nonzero;stroke:none;stroke-width:0.03527778"
       d="m 250.82828,191.72519 h -5.38198 v -11.99444 h 5.38198 v 11.99444" />
    <path
       inkscape:connector-curvature="0"
       id="path20294"
       style="fill:#f14b53;fill-opacity:1;fill-rule:nonzero;stroke:none;stroke-width:0.03527778"
       d="m 248.72889,181.05895 c 0,0.32703 -0.26493,0.59161 -0.5916,0.59161 -0.32667,0 -0.59161,-0.26458 -0.59161,-0.59161 0,-0.32667 0.26494,-0.5916 0.59161,-0.5916 0.32667,0 0.5916,0.26493 0.5916,0.5916" />
    <path
       inkscape:connector-curvature="0"
       id="path20296"
       style="fill:#717ec3;fill-opacity:1;fill-rule:nonzero;stroke:none;stroke-width:0.03527778"
       d="m 247.13787,185.93752 h -0.94086 v -3.22122 h 0.94086 v 3.22122" />
    <path
       inkscape:connector-curvature="0"
       id="path20298"
       style="fill:#9ab6e4;fill-opacity:1;fill-rule:nonzero;stroke:none;stroke-width:0.03527778"
       d="m 248.60754,185.93752 h -0.94051 v -3.22122 h 0.94051 v 3.22122" />
    <path
       inkscape:connector-curvature="0"
       id="path20300"
       style="fill:#f14b53;fill-opacity:1;fill-rule:nonzero;stroke:none;stroke-width:0.03527778"
       d="m 250.07757,185.93752 h -0.94086 v -3.22122 h 0.94086 v 3.22122" />
    <path
       inkscape:connector-curvature="0"
       id="path20302"
       style="fill:#9ab6e4;fill-opacity:1;fill-rule:nonzero;stroke:none;stroke-width:0.03527778"
       d="m 250.07757,187.23257 h -3.88056 v -0.35278 h 3.88056 v 0.35278" />
    <path
       inkscape:connector-curvature="0"
       id="path20304"
       style="fill:#9ab6e4;fill-opacity:1;fill-rule:nonzero;stroke:none;stroke-width:0.03527778"
       d="m 250.07757,188.28737 h -3.88056 v -0.35278 h 3.88056 v 0.35278" />
    <path
       inkscape:connector-curvature="0"
       id="path20306"
       style="fill:#9ab6e4;fill-opacity:1;fill-rule:nonzero;stroke:none;stroke-width:0.03527778"
       d="m 250.07757,189.34182 h -3.88056 v -0.35278 h 3.88056 v 0.35278" />
    <path
       inkscape:connector-curvature="0"
       id="path20308"
       style="fill:#9ab6e4;fill-opacity:1;fill-rule:nonzero;stroke:none;stroke-width:0.03527778"
       d="m 250.07757,190.39663 h -3.88056 v -0.35278 h 3.88056 v 0.35278" />
    <path
       inkscape:connector-curvature="0"
       id="path20310"
       style="fill:#717ec3;fill-opacity:1;fill-rule:nonzero;stroke:none;stroke-width:0.03527778"
       d="m 235.04747,170.66471 h -5.69136 v -8.92246 h 5.69136 v 8.92246" />
    <path
       inkscape:connector-curvature="0"
       id="path20312"
       style="fill:#fff9f5;fill-opacity:1;fill-rule:nonzero;stroke:none;stroke-width:0.03527778"
       d="m 232.79357,162.92582 c 0,0.32668 -0.26494,0.59161 -0.59196,0.59161 -0.32667,0 -0.59161,-0.26493 -0.59161,-0.59161 0,-0.32667 0.26494,-0.5916 0.59161,-0.5916 0.32702,0 0.59196,0.26493 0.59196,0.5916" />
    <path
       inkscape:connector-curvature="0"
       id="path20314"
       style="fill:#9ab6e4;fill-opacity:1;fill-rule:nonzero;stroke:none;stroke-width:0.03527778"
       d="m 233.76301,165.3106 h -3.40537 v -0.35278 h 3.40537 v 0.35278" />
    <path
       inkscape:connector-curvature="0"
       id="path20316"
       style="fill:#9ab6e4;fill-opacity:1;fill-rule:nonzero;stroke:none;stroke-width:0.03527778"
       d="m 233.76301,166.72171 h -3.40537 v -0.35278 h 3.40537 v 0.35278" />
    <path
       inkscape:connector-curvature="0"
       id="path20318"
       style="fill:#9ab6e4;fill-opacity:1;fill-rule:nonzero;stroke:none;stroke-width:0.03527778"
       d="m 233.76301,168.13282 h -3.40537 v -0.35277 h 3.40537 v 0.35277" />
    <path
       inkscape:connector-curvature="0"
       id="path20320"
       style="fill:#9ab6e4;fill-opacity:1;fill-rule:nonzero;stroke:none;stroke-width:0.03527778"
       d="m 233.76301,169.54393 h -3.40537 v -0.35277 h 3.40537 v 0.35277" />
  </g>
</svg>
