<?xml version="1.0" encoding="UTF-8" standalone="no"?>
<!-- Created with Inkscape (http://www.inkscape.org/) -->

<svg
   xmlns:dc="http://purl.org/dc/elements/1.1/"
   xmlns:cc="http://creativecommons.org/ns#"
   xmlns:rdf="http://www.w3.org/1999/02/22-rdf-syntax-ns#"
   xmlns:svg="http://www.w3.org/2000/svg"
   xmlns="http://www.w3.org/2000/svg"
   xmlns:sodipodi="http://sodipodi.sourceforge.net/DTD/sodipodi-0.dtd"
   xmlns:inkscape="http://www.inkscape.org/namespaces/inkscape"
   width="12.31159mm"
   height="15.28727mm"
   viewBox="0 0 12.31159 15.28727"
   version="1.1"
   id="svg28710"
   inkscape:version="0.92.5 (2060ec1f9f, 2020-04-08)"
   sodipodi:docname="photo-frame-1.svg">
  <defs
     id="defs28704" />
  <sodipodi:namedview
     id="base"
     pagecolor="#ffffff"
     bordercolor="#666666"
     borderopacity="1.0"
     inkscape:pageopacity="0.0"
     inkscape:pageshadow="2"
     inkscape:zoom="0.35"
     inkscape:cx="578.98028"
     inkscape:cy="197.46076"
     inkscape:document-units="mm"
     inkscape:current-layer="layer1"
     showgrid="false"
     inkscape:window-width="1366"
     inkscape:window-height="704"
     inkscape:window-x="0"
     inkscape:window-y="27"
     inkscape:window-maximized="1" />
  <metadata
     id="metadata28707">
    <rdf:RDF>
      <cc:Work
         rdf:about="">
        <dc:format>image/svg+xml</dc:format>
        <dc:type
           rdf:resource="http://purl.org/dc/dcmitype/StillImage" />
        <dc:title></dc:title>
      </cc:Work>
    </rdf:RDF>
  </metadata>
  <g
     inkscape:label="Layer 1"
     inkscape:groupmode="layer"
     id="layer1"
     transform="translate(186.07246,-185.79089)">
    <path
       inkscape:connector-curvature="0"
       id="path20504"
       style="fill:#9c797d;fill-opacity:1;fill-rule:nonzero;stroke:none;stroke-width:0.03527778"
       d="m -173.76087,201.07816 h -12.31159 v -15.28727 h 12.31159 v 15.28727" />
    <path
       inkscape:connector-curvature="0"
       id="path20506"
       style="fill:#fff9f5;fill-opacity:1;fill-rule:nonzero;stroke:none;stroke-width:0.03527778"
       d="m -175.37165,199.4321 h -9.09003 v -11.9948 h 9.09003 v 11.9948" />
    <path
       inkscape:connector-curvature="0"
       id="path20508"
       style="fill:#daac64;fill-opacity:1;fill-rule:nonzero;stroke:none;stroke-width:0.03527778"
       d="m -180.476,191.47731 c 0,1.03188 -0.6103,1.86831 -1.36313,1.86831 -0.75283,0 -1.36313,-0.83643 -1.36313,-1.86831 0,-1.03187 0.6103,-1.86831 1.36313,-1.86831 0.75283,0 1.36313,0.83644 1.36313,1.86831" />
    <path
       inkscape:connector-curvature="0"
       id="path20510"
       style="fill:#eec178;fill-opacity:1;fill-rule:nonzero;stroke:none;stroke-width:0.03527778"
       d="m -176.81205,192.99285 c 0,0.88123 -0.5214,1.59561 -1.16416,1.59561 -0.64312,0 -1.16452,-0.71438 -1.16452,-1.59561 0,-0.88124 0.5214,-1.59562 1.16452,-1.59562 0.64276,0 1.16416,0.71438 1.16416,1.59562" />
    <path
       inkscape:connector-curvature="0"
       id="path20512"
       style="fill:#daac64;fill-opacity:1;fill-rule:nonzero;stroke:none;stroke-width:0.03527778"
       d="m -182.97719,192.99285 c 0,0 -1.33138,-0.32315 -1.09608,2.52871 0.23495,2.85185 -0.0279,3.91054 -0.0279,3.91054 h 4.53743 v -4.26332 c 0,0 0.60289,-1.81645 -1.1303,-2.18687 l -2.28318,0.0109" />
    <path
       inkscape:connector-curvature="0"
       id="path20514"
       style="fill:#eec178;fill-opacity:1;fill-rule:nonzero;stroke:none;stroke-width:0.03527778"
       d="m -178.51878,194.40431 c 0,0 -1.32751,0.0293 -1.39771,1.11725 -0.0706,1.08796 0.35278,3.91054 0.35278,3.91054 h 3.63361 v -3.91054 c 0,0 -0.41875,-1.11725 -1.50354,-1.11725 h -1.08514" />
  </g>
</svg>
