<?xml version="1.0" encoding="UTF-8" standalone="no"?>
<!-- Created with Inkscape (http://www.inkscape.org/) -->

<svg
   xmlns:dc="http://purl.org/dc/elements/1.1/"
   xmlns:cc="http://creativecommons.org/ns#"
   xmlns:rdf="http://www.w3.org/1999/02/22-rdf-syntax-ns#"
   xmlns:svg="http://www.w3.org/2000/svg"
   xmlns="http://www.w3.org/2000/svg"
   xmlns:sodipodi="http://sodipodi.sourceforge.net/DTD/sodipodi-0.dtd"
   xmlns:inkscape="http://www.inkscape.org/namespaces/inkscape"
   width="20.099159mm"
   height="17.587736mm"
   viewBox="0 0 20.099159 17.587736"
   version="1.1"
   id="svg3440"
   inkscape:version="0.92.5 (2060ec1f9f, 2020-04-08)"
   sodipodi:docname="photo-3.svg">
  <defs
     id="defs3434" />
  <sodipodi:namedview
     id="base"
     pagecolor="#ffffff"
     bordercolor="#666666"
     borderopacity="1.0"
     inkscape:pageopacity="0.0"
     inkscape:pageshadow="2"
     inkscape:zoom="0.35"
     inkscape:cx="-192.01734"
     inkscape:cy="-198.19191"
     inkscape:document-units="mm"
     inkscape:current-layer="layer1"
     showgrid="false"
     inkscape:window-width="1366"
     inkscape:window-height="704"
     inkscape:window-x="0"
     inkscape:window-y="27"
     inkscape:window-maximized="1" />
  <metadata
     id="metadata3437">
    <rdf:RDF>
      <cc:Work
         rdf:about="">
        <dc:format>image/svg+xml</dc:format>
        <dc:type
           rdf:resource="http://purl.org/dc/dcmitype/StillImage" />
        <dc:title></dc:title>
      </cc:Work>
    </rdf:RDF>
  </metadata>
  <g
     inkscape:label="Layer 1"
     inkscape:groupmode="layer"
     id="layer1"
     transform="translate(-17.920658,-78.807322)">
    <path
       inkscape:connector-curvature="0"
       id="path458"
       style="fill:#c7a573;fill-opacity:1;fill-rule:nonzero;stroke:none;stroke-width:0.03527778"
       d="M 38.019466,96.395058 H 17.920658 V 78.807322 h 0.988131 v 16.361833 h 19.110677 v 1.225903" />
    <path
       inkscape:connector-curvature="0"
       id="path460"
       style="fill:#c7a573;fill-opacity:1;fill-rule:nonzero;stroke:none;stroke-width:0.03527778"
       d="M 35.931727,93.38163 H 30.111952 V 84.112394 H 20.996527 V 80.5952 h 14.9352 v 12.78643" />
    <path
       inkscape:connector-curvature="0"
       id="path462"
       style="fill:#ffffff;fill-opacity:1;fill-rule:nonzero;stroke:none;stroke-width:0.03527778"
       d="m 20.996527,80.5952 h 14.9352 v 12.78643 h -14.9352 z m -2.087738,-1.787525 v 16.36148 H 38.019818 V 78.807675 H 18.908789" />
    <path
       inkscape:connector-curvature="0"
       id="path644"
       style="fill:#d82930;fill-opacity:1;fill-rule:nonzero;stroke:none;stroke-width:0.03527778"
       d="m 24.141188,89.682049 h 8.719608 c 0.98425,0 1.781881,0.797984 1.781881,1.782234 0,0.983897 -0.797631,1.78188 -1.781881,1.78188 h -8.719608 v -3.564114" />
    <path
       inkscape:connector-curvature="0"
       id="path646"
       style="fill:#ffffff;fill-opacity:1;fill-rule:nonzero;stroke:none;stroke-width:0.03527778"
       d="m 24.141188,90.095858 h 8.564033 c 0.756003,0 1.368425,0.612775 1.368425,1.368425 0,0.75565 -0.612422,1.368425 -1.368425,1.368425 h -8.564033 v -2.73685" />
    <path
       inkscape:connector-curvature="0"
       id="path648"
       style="fill:#d3d2d2;fill-opacity:1;fill-rule:nonzero;stroke:none;stroke-width:0.03527778"
       d="m 24.141188,90.410888 h 9.07662 c 0.04657,0 0.08431,0.0381 0.08431,0.08467 0,0.04621 -0.03775,0.08431 -0.08431,0.08431 h -9.07662 v -0.168981" />
    <path
       inkscape:connector-curvature="0"
       id="path650"
       style="fill:#d3d2d2;fill-opacity:1;fill-rule:nonzero;stroke:none;stroke-width:0.03527778"
       d="m 24.141188,90.895605 h 9.07662 c 0.04657,0 0.08431,0.0381 0.08431,0.08431 0,0.04692 -0.03775,0.08431 -0.08431,0.08431 h -9.07662 v -0.168628" />
    <path
       inkscape:connector-curvature="0"
       id="path652"
       style="fill:#d3d2d2;fill-opacity:1;fill-rule:nonzero;stroke:none;stroke-width:0.03527778"
       d="m 24.141188,91.379969 h 9.07662 c 0.04657,0 0.08431,0.03775 0.08431,0.08431 0,0.04657 -0.03775,0.08396 -0.08431,0.08396 h -9.07662 v -0.168275" />
    <path
       inkscape:connector-curvature="0"
       id="path654"
       style="fill:#d3d2d2;fill-opacity:1;fill-rule:nonzero;stroke:none;stroke-width:0.03527778"
       d="m 24.141188,91.864333 h 9.07662 c 0.04657,0 0.08431,0.03739 0.08431,0.08431 0,0.04657 -0.03775,0.08396 -0.08431,0.08396 h -9.07662 v -0.168275" />
    <path
       inkscape:connector-curvature="0"
       id="path656"
       style="fill:#d3d2d2;fill-opacity:1;fill-rule:nonzero;stroke:none;stroke-width:0.03527778"
       d="m 24.141188,92.348697 h 9.07662 c 0.04657,0 0.08431,0.03775 0.08431,0.08431 0,0.04657 -0.03775,0.08396 -0.08431,0.08396 h -9.07662 v -0.168275" />
    <path
       inkscape:connector-curvature="0"
       id="path658"
       style="fill:#3bbec5;fill-opacity:1;fill-rule:nonzero;stroke:none;stroke-width:0.03527778"
       d="m 34.927369,89.682049 h -8.719608 c -0.98425,0 -1.782234,-0.797983 -1.782234,-1.782232 0,-0.983898 0.797984,-1.782234 1.782234,-1.782234 h 8.719608 v 3.564466" />
    <path
       inkscape:connector-curvature="0"
       id="path660"
       style="fill:#ffffff;fill-opacity:1;fill-rule:nonzero;stroke:none;stroke-width:0.03527778"
       d="m 34.927369,89.268241 h -8.564386 c -0.75565,0 -1.36772,-0.612422 -1.36772,-1.368424 0,-0.75565 0.61207,-1.368425 1.36772,-1.368425 h 8.564386 v 2.736849" />
    <path
       inkscape:connector-curvature="0"
       id="path662"
       style="fill:#d3d2d2;fill-opacity:1;fill-rule:nonzero;stroke:none;stroke-width:0.03527778"
       d="m 34.927369,88.952505 h -9.07662 c -0.04621,0 -0.08396,-0.03739 -0.08396,-0.08396 0,-0.04657 0.03775,-0.08396 0.08396,-0.08396 h 9.07662 v 0.167922" />
    <path
       inkscape:connector-curvature="0"
       id="path664"
       style="fill:#d3d2d2;fill-opacity:1;fill-rule:nonzero;stroke:none;stroke-width:0.03527778"
       d="m 34.927369,88.468494 h -9.07662 c -0.04621,0 -0.08396,-0.03775 -0.08396,-0.08431 0,-0.04657 0.03775,-0.08431 0.08396,-0.08431 h 9.07662 v 0.168628" />
    <path
       inkscape:connector-curvature="0"
       id="path666"
       style="fill:#d3d2d2;fill-opacity:1;fill-rule:nonzero;stroke:none;stroke-width:0.03527778"
       d="m 34.927369,87.983778 h -9.07662 c -0.04621,0 -0.08396,-0.0374 -0.08396,-0.08396 0,-0.04692 0.03775,-0.08396 0.08396,-0.08396 h 9.07662 v 0.167922" />
    <path
       inkscape:connector-curvature="0"
       id="path668"
       style="fill:#d3d2d2;fill-opacity:1;fill-rule:nonzero;stroke:none;stroke-width:0.03527778"
       d="m 34.927369,87.499767 h -9.07662 c -0.04621,0 -0.08396,-0.0374 -0.08396,-0.08396 0,-0.04727 0.03775,-0.08431 0.08396,-0.08431 h 9.07662 v 0.168275" />
    <path
       inkscape:connector-curvature="0"
       id="path670"
       style="fill:#d3d2d2;fill-opacity:1;fill-rule:nonzero;stroke:none;stroke-width:0.03527778"
       d="m 34.927369,87.01505 h -9.07662 c -0.04621,0 -0.08396,-0.03704 -0.08396,-0.08396 0,-0.04657 0.03775,-0.08431 0.08396,-0.08431 h 9.07662 v 0.168275" />
    <path
       inkscape:connector-curvature="0"
       id="path672"
       style="fill:#f2572c;fill-opacity:1;fill-rule:nonzero;stroke:none;stroke-width:0.03527778"
       d="m 33.302121,86.117583 h -8.719608 c -0.98425,0 -1.782586,-0.797277 -1.782586,-1.781527 0,-0.98425 0.798336,-1.782234 1.782586,-1.782234 h 8.719608 v 3.563761" />
    <path
       inkscape:connector-curvature="0"
       id="path674"
       style="fill:#ffffff;fill-opacity:1;fill-rule:nonzero;stroke:none;stroke-width:0.03527778"
       d="m 33.302121,85.703775 h -8.564033 c -0.756002,0 -1.368777,-0.612422 -1.368777,-1.367719 0,-0.756003 0.612775,-1.368778 1.368777,-1.368778 h 8.564033 v 2.736497" />
    <path
       inkscape:connector-curvature="0"
       id="path676"
       style="fill:#d3d2d2;fill-opacity:1;fill-rule:nonzero;stroke:none;stroke-width:0.03527778"
       d="m 33.302121,85.388744 h -9.076972 c -0.04657,0 -0.08396,-0.03775 -0.08396,-0.08431 0,-0.04657 0.03739,-0.08431 0.08396,-0.08431 h 9.076972 v 0.168628" />
    <path
       inkscape:connector-curvature="0"
       id="path678"
       style="fill:#d3d2d2;fill-opacity:1;fill-rule:nonzero;stroke:none;stroke-width:0.03527778"
       d="m 33.302121,84.904028 h -9.076972 c -0.04657,0 -0.08396,-0.03739 -0.08396,-0.08361 0,-0.04727 0.03739,-0.08502 0.08396,-0.08502 h 9.076972 v 0.168628" />
    <path
       inkscape:connector-curvature="0"
       id="path680"
       style="fill:#d3d2d2;fill-opacity:1;fill-rule:nonzero;stroke:none;stroke-width:0.03527778"
       d="m 33.302121,84.420017 h -9.076972 c -0.04657,0 -0.08396,-0.03775 -0.08396,-0.08396 0,-0.04692 0.03739,-0.08467 0.08396,-0.08467 h 9.076972 v 0.168628" />
    <path
       inkscape:connector-curvature="0"
       id="path682"
       style="fill:#d3d2d2;fill-opacity:1;fill-rule:nonzero;stroke:none;stroke-width:0.03527778"
       d="m 33.302121,83.9353 h -9.076972 c -0.04657,0 -0.08396,-0.03739 -0.08396,-0.08396 0,-0.04657 0.03739,-0.08431 0.08396,-0.08431 h 9.076972 v 0.16827" />
    <path
       inkscape:connector-curvature="0"
       id="path684"
       style="fill:#d3d2d2;fill-opacity:1;fill-rule:nonzero;stroke:none;stroke-width:0.03527778"
       d="m 33.302121,83.451289 h -9.076972 c -0.04657,0 -0.08396,-0.0381 -0.08396,-0.08467 0,-0.04586 0.03739,-0.08396 0.08396,-0.08396 h 9.076972 v 0.168628" />
  </g>
</svg>
