<?xml version="1.0" encoding="UTF-8" standalone="no"?>
<!-- Created with Inkscape (http://www.inkscape.org/) -->

<svg
   xmlns:dc="http://purl.org/dc/elements/1.1/"
   xmlns:cc="http://creativecommons.org/ns#"
   xmlns:rdf="http://www.w3.org/1999/02/22-rdf-syntax-ns#"
   xmlns:svg="http://www.w3.org/2000/svg"
   xmlns="http://www.w3.org/2000/svg"
   xmlns:xlink="http://www.w3.org/1999/xlink"
   xmlns:sodipodi="http://sodipodi.sourceforge.net/DTD/sodipodi-0.dtd"
   xmlns:inkscape="http://www.inkscape.org/namespaces/inkscape"
   width="39.109947mm"
   height="1.9893245mm"
   viewBox="0 0 39.109947 1.9893245"
   version="1.1"
   id="svg19108"
   inkscape:version="0.92.5 (2060ec1f9f, 2020-04-08)"
   sodipodi:docname="pipe-brown.svg">
  <defs
     id="defs19102">
    <linearGradient
       inkscape:collect="always"
       xlink:href="#linearGradient3622"
       id="linearGradient17298"
       gradientUnits="userSpaceOnUse"
       gradientTransform="matrix(0,-5.61939,-5.61939,0,-83.72554,429.36762)"
       x1="0"
       y1="0"
       x2="1"
       y2="0"
       spreadMethod="pad" />
    <linearGradient
       x1="0"
       y1="0"
       x2="1"
       y2="0"
       gradientUnits="userSpaceOnUse"
       gradientTransform="matrix(0,-56.1939,-56.1939,0,928.333,3942.26)"
       spreadMethod="pad"
       id="linearGradient3622">
      <stop
         style="stop-opacity:1;stop-color:#dddbce"
         offset="0"
         id="stop3612" />
      <stop
         style="stop-opacity:1;stop-color:#9b907d"
         offset="0.197861"
         id="stop3614" />
      <stop
         style="stop-opacity:1;stop-color:#e9e8df"
         offset="0.379679"
         id="stop3616" />
      <stop
         style="stop-opacity:1;stop-color:#947e63"
         offset="0.68984"
         id="stop3618" />
      <stop
         style="stop-opacity:1;stop-color:#eddab3"
         offset="1"
         id="stop3620" />
    </linearGradient>
    <linearGradient
       inkscape:collect="always"
       xlink:href="#linearGradient3622"
       id="linearGradient17298-0"
       gradientUnits="userSpaceOnUse"
       gradientTransform="matrix(0,-5.61939,-5.61939,0,-78.529699,429.38765)"
       x1="0"
       y1="0"
       x2="1"
       y2="0"
       spreadMethod="pad" />
  </defs>
  <sodipodi:namedview
     id="base"
     pagecolor="#ffffff"
     bordercolor="#666666"
     borderopacity="1.0"
     inkscape:pageopacity="0.0"
     inkscape:pageshadow="2"
     inkscape:zoom="0.35"
     inkscape:cx="-547.52"
     inkscape:cy="-219.0978"
     inkscape:document-units="mm"
     inkscape:current-layer="layer1"
     showgrid="false"
     inkscape:window-width="1366"
     inkscape:window-height="704"
     inkscape:window-x="0"
     inkscape:window-y="27"
     inkscape:window-maximized="1" />
  <metadata
     id="metadata19105">
    <rdf:RDF>
      <cc:Work
         rdf:about="">
        <dc:format>image/svg+xml</dc:format>
        <dc:type
           rdf:resource="http://purl.org/dc/dcmitype/StillImage" />
        <dc:title></dc:title>
      </cc:Work>
    </rdf:RDF>
  </metadata>
  <g
     inkscape:label="Layer 1"
     inkscape:groupmode="layer"
     id="layer1"
     transform="translate(-111.98074,-88.874382)">
    <g
       transform="matrix(0.35277777,0,0,-0.35277777,160.15566,240.3528)"
       id="g19069">
      <path
         d="m -30.89184,423.74862 v 0 h -15.85 c 0.002,0.616 -0.021,1.528 -0.2,1.959 -0.23,0.552 -0.565,1.027 -0.883,1.543 -0.241,0.39 -0.552,0.935 -0.432,1.401 0.08,0.31 0.278,0.547 0.53,0.716 h 16.835 v -5.619 m -16.978,0 h -22.428 c 10e-4,0.616 -0.024,1.513 -0.201,1.939 -0.229,0.551 -0.564,1.026 -0.883,1.543 -0.241,0.39 -0.552,0.934 -0.432,1.4 0.084,0.324 0.295,0.567 0.562,0.737 h 22.16 c -0.071,-0.133 -0.132,-0.279 -0.184,-0.437 -0.181,-0.554 -0.087,-1.132 0.142,-1.653 0.121,-0.277 1.033,-1.454 1.124,-1.716 l 0.05,-0.235 c 0.072,-0.519 0.091,-1.048 0.09,-1.578 m -23.557,0 h -22.1582 c 0.0012,0.616 -0.0234,1.513 -0.2008,1.939 -0.2292,0.551 -0.564,1.026 -0.8828,1.543 -0.241,0.39 -0.5519,0.934 -0.4316,1.4 0.0832,0.324 0.2945,0.567 0.5609,0.737 h 21.9015 c -0.075,-0.139 -0.14,-0.291 -0.194,-0.458 -0.181,-0.554 -0.087,-1.131 0.141,-1.653 0.121,-0.276 1.034,-1.453 1.125,-1.715 l 0.05,-0.235 c 0.071,-0.513 0.09,-1.035 0.089,-1.558 m -23.2867,0 h -19.3828 c 0.001,0.616 -0.0234,1.513 -0.2008,1.939 -0.2297,0.551 -0.564,1.026 -0.8828,1.543 -0.241,0.39 -0.5519,0.934 -0.4316,1.4 0.0832,0.324 0.2945,0.567 0.5613,0.737 h 19.1258 c -0.075,-0.139 -0.1399,-0.291 -0.1946,-0.458 -0.1812,-0.554 -0.0875,-1.131 0.1415,-1.653 0.1207,-0.276 1.0332,-1.453 1.1242,-1.715 l 0.05,-0.235 c 0.0715,-0.513 0.0906,-1.035 0.0898,-1.558 m -20.5113,0 h -21.334 v 5.619 h 20.1227 c -0.0747,-0.139 -0.1399,-0.291 -0.1942,-0.458 -0.1812,-0.554 -0.0871,-1.131 0.1414,-1.653 0.1207,-0.276 1.0332,-1.453 1.1242,-1.715 l 0.05,-0.235 c 0.0715,-0.513 0.0907,-1.035 0.0899,-1.558"
         style="fill:url(#linearGradient17298);fill-opacity:1;fill-rule:nonzero;stroke:none;stroke-width:0.1"
         id="path3624"
         inkscape:connector-curvature="0" />
      <path
         d="m -25.696,423.76865 v 0 h -15.849998 c 0.0023,0.616 -0.021,1.528 -0.200002,1.959 -0.230003,0.552 -0.564998,1.027 -0.882998,1.543 -0.241005,0.39 -0.552,0.935 -0.432,1.401 0.07999,0.31 0.277995,0.547 0.529995,0.716 H -25.696 v -5.619 m -16.977998,0 H -65.102 c 9.75e-4,0.616 -0.024,1.513 -0.201,1.939 -0.229,0.551 -0.564,1.026 -0.883,1.543 -0.241,0.39 -0.552,0.934 -0.432,1.4 0.084,0.324 0.295,0.567 0.562,0.737 h 22.159997 c -0.07103,-0.133 -0.132,-0.279 -0.183997,-0.437 -0.180998,-0.554 -0.087,-1.132 0.141997,-1.653 0.121005,-0.277 1.033005,-1.454 1.124003,-1.716 l 0.05002,-0.235 c 0.072,-0.519 0.091,-1.048 0.09,-1.578 m -23.557003,0 H -88.3892 c 0.0012,0.616 -0.0234,1.513 -0.2008,1.939 -0.2292,0.551 -0.564,1.026 -0.8828,1.543 -0.241,0.39 -0.5519,0.934 -0.4316,1.4 0.0832,0.324 0.2945,0.567 0.5609,0.737 h 21.9015 c -0.075,-0.139 -0.14,-0.291 -0.194,-0.458 -0.181,-0.554 -0.087,-1.131 0.141,-1.653 0.121,-0.276 1.034,-1.453 1.125,-1.715 l 0.05,-0.235 c 0.071,-0.513 0.09,-1.035 0.089,-1.558 m -23.2867,0 h -19.3828 c 10e-4,0.616 -0.0234,1.513 -0.2008,1.939 -0.2297,0.551 -0.564,1.026 -0.8828,1.543 -0.241,0.39 -0.5519,0.934 -0.4316,1.4 0.0832,0.324 0.2945,0.567 0.5613,0.737 h 19.1258 c -0.075,-0.139 -0.1399,-0.291 -0.1946,-0.458 -0.1812,-0.554 -0.0875,-1.131 0.1415,-1.653 0.1207,-0.276 1.0332,-1.453 1.1242,-1.715 l 0.05,-0.235 c 0.0715,-0.513 0.0906,-1.035 0.0898,-1.558 m -20.5113,0 h -21.334 v 5.619 h 20.1227 c -0.0747,-0.139 -0.1399,-0.291 -0.1942,-0.458 -0.1812,-0.554 -0.0871,-1.131 0.1414,-1.653 0.1207,-0.276 1.0332,-1.453 1.1242,-1.715 l 0.05,-0.235 c 0.0715,-0.513 0.0907,-1.035 0.0899,-1.558"
         style="fill:url(#linearGradient17298-0);fill-opacity:1;fill-rule:nonzero;stroke:none;stroke-width:0.09999999"
         id="path3624-9"
         inkscape:connector-curvature="0" />
    </g>
  </g>
</svg>
