<?xml version="1.0" encoding="UTF-8" standalone="no"?>
<!-- Created with Inkscape (http://www.inkscape.org/) -->

<svg
   xmlns:dc="http://purl.org/dc/elements/1.1/"
   xmlns:cc="http://creativecommons.org/ns#"
   xmlns:rdf="http://www.w3.org/1999/02/22-rdf-syntax-ns#"
   xmlns:svg="http://www.w3.org/2000/svg"
   xmlns="http://www.w3.org/2000/svg"
   xmlns:sodipodi="http://sodipodi.sourceforge.net/DTD/sodipodi-0.dtd"
   xmlns:inkscape="http://www.inkscape.org/namespaces/inkscape"
   width="29.78079mm"
   height="65.464577mm"
   viewBox="0 0 29.78079 65.464577"
   version="1.1"
   id="svg22535"
   inkscape:version="0.92.5 (2060ec1f9f, 2020-04-08)"
   sodipodi:docname="plant-pot.svg">
  <defs
     id="defs22529" />
  <sodipodi:namedview
     id="base"
     pagecolor="#ffffff"
     bordercolor="#666666"
     borderopacity="1.0"
     inkscape:pageopacity="0.0"
     inkscape:pageshadow="2"
     inkscape:zoom="0.35"
     inkscape:cx="-505.14992"
     inkscape:cy="452.28403"
     inkscape:document-units="mm"
     inkscape:current-layer="layer1"
     showgrid="false"
     inkscape:window-width="1366"
     inkscape:window-height="704"
     inkscape:window-x="0"
     inkscape:window-y="27"
     inkscape:window-maximized="1" />
  <metadata
     id="metadata22532">
    <rdf:RDF>
      <cc:Work
         rdf:about="">
        <dc:format>image/svg+xml</dc:format>
        <dc:type
           rdf:resource="http://purl.org/dc/dcmitype/StillImage" />
        <dc:title></dc:title>
      </cc:Work>
    </rdf:RDF>
  </metadata>
  <g
     inkscape:label="Layer 1"
     inkscape:groupmode="layer"
     id="layer1"
     transform="translate(-100.77032,-203.03557)">
    <path
       inkscape:connector-curvature="0"
       id="path20622"
       style="fill:#4fa27c;fill-opacity:1;fill-rule:nonzero;stroke:none;stroke-width:0.03527778"
       d="m 130.55111,264.83941 c 0,2.0217 -6.66644,3.66074 -14.8904,3.66074 -8.22395,0 -14.89039,-1.63904 -14.89039,-3.66074 0,-2.02173 6.66644,-3.66116 14.89039,-3.66116 8.22396,0 14.8904,1.63943 14.8904,3.66116" />
    <path
       inkscape:connector-curvature="0"
       id="path20624"
       style="fill:#46a27e;fill-opacity:1;fill-rule:nonzero;stroke:none;stroke-width:0.03527778"
       d="m 123.32552,246.72219 c 0.79445,-1.71736 0.20249,-5.76689 0.3683,-7.68495 0.49247,-5.70018 2.77706,-9.73631 4.39137,-12.71658 1.61396,-2.98026 2.94605,-6.47841 2.29835,-9.90071 -0.47096,2.42923 -2.03024,4.40514 -3.75285,5.93761 -1.72296,1.53246 -3.65936,2.74249 -5.32694,4.35186 -2.70193,2.60809 -4.61786,9.7783 -5.36046,13.71953 -0.23319,1.23719 -0.35101,2.54212 -0.037,3.75638 0.95215,3.67277 5.96089,5.68815 7.41927,2.53686" />
    <path
       inkscape:connector-curvature="0"
       id="path20626"
       style="fill:#46a27e;fill-opacity:1;fill-rule:nonzero;stroke:none;stroke-width:0.03527778"
       d="m 113.34402,225.98976 c 1.45697,-6.58072 1.16064,-5.24228 5.08247,-22.95419 0.81633,3.50167 0.83185,11.79653 0.8128,14.16438 -0.0413,5.03202 -0.43109,13.58794 -1.16628,18.54976 -0.40358,2.72097 -0.54751,8.91646 -3.99803,5.69736 -3.01766,-2.81517 -1.52365,-11.87697 -0.73096,-15.45731" />
    <path
       inkscape:connector-curvature="0"
       id="path20628"
       style="fill:#53bd94;fill-opacity:1;fill-rule:nonzero;stroke:none;stroke-width:0.03527778"
       d="m 106.95028,230.94099 c -0.1905,-2.08809 -0.7045,-4.90431 -1.4979,-6.81037 -1.131,-2.7171 -2.41194,-5.35305 -3.83398,-7.88776 6.14679,3.97087 10.55511,14.67661 11.9327,22.53721 0.42193,2.40877 1.72473,9.42022 -2.19569,7.12152 -5.85046,-3.43041 -3.93241,-9.77476 -4.40513,-14.9606" />
    <path
       inkscape:connector-curvature="0"
       id="path20630"
       style="fill:#53bd94;fill-opacity:1;fill-rule:nonzero;stroke:none;stroke-width:0.03527778"
       d="m 115.94082,226.23882 c 0.92781,-2.17347 2.40206,-3.96946 3.71969,-5.86458 2.28423,-3.28507 4.14267,-6.95254 5.49698,-10.84721 1.41887,4.53178 1.3328,9.65024 -0.23706,14.1164 -0.8689,2.47192 -2.17453,8.28322 -2.74144,10.86591 -0.50377,2.29235 -0.0483,16.95164 -4.58258,14.58376 -1.67676,-0.87587 -2.09586,-5.81159 -2.36891,-7.54831 -0.61559,-3.91795 -0.85972,-11.6198 0.71332,-15.30597" />
    <path
       inkscape:connector-curvature="0"
       id="path20632"
       style="fill:#6acba6;fill-opacity:1;fill-rule:nonzero;stroke:none;stroke-width:0.03527778"
       d="m 109.47476,221.95857 c 0.0476,-4.35399 -1.16311,-8.62824 -1.14195,-12.98223 2.90972,4.81542 4.76215,10.45069 5.34388,16.256 0.4565,4.55613 1.32821,11.44658 2.60174,15.7226 0.76835,2.57881 0.38523,3.96558 -2.10644,3.19405 -7.5759,-2.34667 -4.76567,-15.96284 -4.69723,-22.19042" />
    <path
       inkscape:connector-curvature="0"
       id="path20634"
       style="fill:#ce4944;fill-opacity:1;fill-rule:nonzero;stroke:none;stroke-width:0.03527778"
       d="m 125.98193,242.47118 h -20.47698 c -0.29916,0 -0.53411,0.25647 -0.50836,0.55422 l 1.76495,20.35947 c 0.0649,0.74761 0.69074,1.32115 1.4411,1.32115 h 15.08125 c 0.75036,0 1.37654,-0.57354 1.4411,-1.32115 l 1.76494,-20.35947 c 0.0261,-0.29775 -0.20919,-0.55422 -0.508,-0.55422" />
    <path
       inkscape:connector-curvature="0"
       id="path20636"
       style="fill:#b53d3c;fill-opacity:1;fill-rule:nonzero;stroke:none;stroke-width:0.03527778"
       d="m 107.13337,246.88193 c 2.67406,0.23287 5.41267,0.0992 8.0959,0.10128 2.69028,0.002 5.41372,0.11504 8.09625,-0.10407 0.20179,-0.0165 0.20214,-0.29778 0,-0.31404 -2.68182,-0.21901 -5.40703,-0.10612 -8.09625,-0.10404 -2.68429,0.002 -5.42114,-0.13155 -8.0959,0.10129 -0.20532,0.0181 -0.20602,0.30166 0,0.31958" />
    <path
       inkscape:connector-curvature="0"
       id="path20638"
       style="fill:#b53d3c;fill-opacity:1;fill-rule:nonzero;stroke:none;stroke-width:0.03527778"
       d="m 108.67536,251.73234 c 4.30707,0.25396 8.94221,0.47692 13.23658,0.0385 0.21202,-0.0215 0.21237,-0.3091 0,-0.33059 -4.29437,-0.43808 -8.92881,-0.21554 -13.23658,0.0384 -0.16298,0.01 -0.16333,0.2442 0,0.25372" />
    <path
       inkscape:connector-curvature="0"
       id="path20640"
       style="fill:#b53d3c;fill-opacity:1;fill-rule:nonzero;stroke:none;stroke-width:0.03527778"
       d="m 109.57494,257.1407 c 4.21817,0.0801 8.50936,0.27411 12.72258,0.0332 0.21978,-0.0127 0.22014,-0.32949 0,-0.34191 -4.21358,-0.24088 -8.50406,-0.0472 -12.72258,0.0332 -0.17744,0.003 -0.17744,0.27189 0,0.27545" />
    <path
       inkscape:connector-curvature="0"
       id="path20642"
       style="fill:#b53d3c;fill-opacity:1;fill-rule:nonzero;stroke:none;stroke-width:0.03527778"
       d="m 110.86011,261.72188 c 3.40113,-0.17847 6.95008,0.27449 10.31734,-0.21693 0.13159,-0.019 0.13159,-0.24666 0,-0.26567 -3.36726,-0.491 -6.91621,-0.0385 -10.31734,-0.21732 -0.45049,-0.0236 -0.4512,0.72387 0,0.69992" />
  </g>
</svg>
