<?xml version="1.0" encoding="UTF-8" standalone="no"?>
<!-- Created with Inkscape (http://www.inkscape.org/) -->

<svg
   xmlns:dc="http://purl.org/dc/elements/1.1/"
   xmlns:cc="http://creativecommons.org/ns#"
   xmlns:rdf="http://www.w3.org/1999/02/22-rdf-syntax-ns#"
   xmlns:svg="http://www.w3.org/2000/svg"
   xmlns="http://www.w3.org/2000/svg"
   xmlns:sodipodi="http://sodipodi.sourceforge.net/DTD/sodipodi-0.dtd"
   xmlns:inkscape="http://www.inkscape.org/namespaces/inkscape"
   width="7.2732201mm"
   height="22.07436mm"
   viewBox="0 0 7.2732201 22.07436"
   version="1.1"
   id="svg23767"
   inkscape:version="0.92.5 (2060ec1f9f, 2020-04-08)"
   sodipodi:docname="power-socket.svg">
  <defs
     id="defs23761" />
  <sodipodi:namedview
     id="base"
     pagecolor="#ffffff"
     bordercolor="#666666"
     borderopacity="1.0"
     inkscape:pageopacity="0.0"
     inkscape:pageshadow="2"
     inkscape:zoom="0.35"
     inkscape:cx="-530.54105"
     inkscape:cy="256.00103"
     inkscape:document-units="mm"
     inkscape:current-layer="layer1"
     showgrid="false"
     inkscape:window-width="1366"
     inkscape:window-height="704"
     inkscape:window-x="0"
     inkscape:window-y="27"
     inkscape:window-maximized="1" />
  <metadata
     id="metadata23764">
    <rdf:RDF>
      <cc:Work
         rdf:about="">
        <dc:format>image/svg+xml</dc:format>
        <dc:type
           rdf:resource="http://purl.org/dc/dcmitype/StillImage" />
        <dc:title></dc:title>
      </cc:Work>
    </rdf:RDF>
  </metadata>
  <g
     inkscape:label="Layer 1"
     inkscape:groupmode="layer"
     id="layer1"
     transform="translate(-107.48839,-194.49258)">
    <path
       inkscape:connector-curvature="0"
       id="path20452"
       style="fill:#ffffff;fill-opacity:1;fill-rule:nonzero;stroke:none;stroke-width:0.03527778"
       d="m 114.37461,194.49258 h -6.49958 c -0.21343,0 -0.38664,0.17321 -0.38664,0.387 v 21.30107 c 0,0.21343 0.17321,0.38629 0.38664,0.38629 h 6.49958 c 0.21343,0 0.387,-0.17286 0.387,-0.38629 v -21.30107 c 0,-0.21379 -0.17357,-0.387 -0.387,-0.387" />
    <path
       inkscape:connector-curvature="0"
       id="path20454"
       style="fill:#ddd7d0;fill-opacity:1;fill-rule:nonzero;stroke:none;stroke-width:0.03527778"
       d="m 113.39001,198.87514 c 0,1.2513 -1.01388,2.26554 -2.26519,2.26554 -1.25095,0 -2.26518,-1.01424 -2.26518,-2.26554 0,-1.25095 1.01423,-2.26519 2.26518,-2.26519 1.25131,0 2.26519,1.01424 2.26519,2.26519" />
    <path
       inkscape:connector-curvature="0"
       id="path20456"
       style="fill:#898784;fill-opacity:1;fill-rule:nonzero;stroke:none;stroke-width:0.03527778"
       d="m 110.47818,199.55141 h -0.52916 v -1.35219 h 0.52916 v 1.35219" />
    <path
       inkscape:connector-curvature="0"
       id="path20458"
       style="fill:#898784;fill-opacity:1;fill-rule:nonzero;stroke:none;stroke-width:0.03527778"
       d="m 112.30063,199.55141 h -0.52916 v -1.35219 h 0.52916 v 1.35219" />
    <path
       inkscape:connector-curvature="0"
       id="path20460"
       style="fill:#ddd7d0;fill-opacity:1;fill-rule:nonzero;stroke:none;stroke-width:0.03527778"
       d="m 113.39001,205.52994 c 0,1.25095 -1.01388,2.26518 -2.26519,2.26518 -1.25095,0 -2.26518,-1.01423 -2.26518,-2.26518 0,-1.2513 1.01423,-2.26554 2.26518,-2.26554 1.25131,0 2.26519,1.01424 2.26519,2.26554" />
    <path
       inkscape:connector-curvature="0"
       id="path20462"
       style="fill:#898784;fill-opacity:1;fill-rule:nonzero;stroke:none;stroke-width:0.03527778"
       d="m 110.47818,206.20586 h -0.52916 v -1.3522 h 0.52916 v 1.3522" />
    <path
       inkscape:connector-curvature="0"
       id="path20464"
       style="fill:#898784;fill-opacity:1;fill-rule:nonzero;stroke:none;stroke-width:0.03527778"
       d="m 112.30063,206.20586 h -0.52916 v -1.3522 h 0.52916 v 1.3522" />
    <path
       inkscape:connector-curvature="0"
       id="path20466"
       style="fill:#ddd7d0;fill-opacity:1;fill-rule:nonzero;stroke:none;stroke-width:0.03527778"
       d="m 113.39001,212.18474 c 0,1.25095 -1.01388,2.26518 -2.26519,2.26518 -1.25095,0 -2.26518,-1.01423 -2.26518,-2.26518 0,-1.25095 1.01423,-2.26519 2.26518,-2.26519 1.25131,0 2.26519,1.01424 2.26519,2.26519" />
    <path
       inkscape:connector-curvature="0"
       id="path20468"
       style="fill:#898784;fill-opacity:1;fill-rule:nonzero;stroke:none;stroke-width:0.03527778"
       d="m 110.47818,212.86101 h -0.52916 v -1.35255 h 0.52916 v 1.35255" />
    <path
       inkscape:connector-curvature="0"
       id="path20470"
       style="fill:#898784;fill-opacity:1;fill-rule:nonzero;stroke:none;stroke-width:0.03527778"
       d="m 112.30063,212.86101 h -0.52916 v -1.35255 h 0.52916 v 1.35255" />
  </g>
</svg>
