<?xml version="1.0" encoding="UTF-8" standalone="no"?>
<!-- Created with Inkscape (http://www.inkscape.org/) -->

<svg
   xmlns:dc="http://purl.org/dc/elements/1.1/"
   xmlns:cc="http://creativecommons.org/ns#"
   xmlns:rdf="http://www.w3.org/1999/02/22-rdf-syntax-ns#"
   xmlns:svg="http://www.w3.org/2000/svg"
   xmlns="http://www.w3.org/2000/svg"
   xmlns:sodipodi="http://sodipodi.sourceforge.net/DTD/sodipodi-0.dtd"
   xmlns:inkscape="http://www.inkscape.org/namespaces/inkscape"
   width="35.117508mm"
   height="102.98756mm"
   viewBox="0 0 35.117508 102.98756"
   version="1.1"
   id="svg68722"
   inkscape:version="0.92.5 (2060ec1f9f, 2020-04-08)"
   sodipodi:docname="refrigerator.svg">
  <defs
     id="defs68716">
    <clipPath
       clipPathUnits="userSpaceOnUse"
       id="clipPath22308">
      <path
         d="m 1078.9,1131.63 h -19.6 c -10.26,0 -18.58,8.32 -18.58,18.58 v 275.04 c 0,10.27 8.32,18.59 18.58,18.59 h 19.6 c 10.26,0 18.59,-8.32 18.59,-18.59 v -275.04 c 0,-10.26 -8.33,-18.58 -18.59,-18.58"
         id="path22306"
         inkscape:connector-curvature="0" />
    </clipPath>
    <linearGradient
       x1="0"
       y1="0"
       x2="1"
       y2="0"
       gradientUnits="userSpaceOnUse"
       gradientTransform="matrix(-729.854,-729.854,729.854,-729.854,1000.91,1321.76)"
       spreadMethod="pad"
       id="linearGradient22314">
      <stop
         style="stop-opacity:1;stop-color:#c8c7c6"
         offset="0"
         id="stop22310" />
      <stop
         style="stop-opacity:1;stop-color:#a6a5a4"
         offset="1"
         id="stop22312" />
    </linearGradient>
    <clipPath
       clipPathUnits="userSpaceOnUse"
       id="clipPath22290">
      <path
         d="m 1078.9,1577.64 h -19.6 c -10.26,0 -18.58,8.32 -18.58,18.58 v 664.28 c 0,10.27 8.32,18.59 18.58,18.59 h 19.6 c 10.26,0 18.59,-8.32 18.59,-18.59 v -664.28 c 0,-10.26 -8.33,-18.58 -18.59,-18.58"
         id="path22288"
         inkscape:connector-curvature="0" />
    </clipPath>
    <linearGradient
       x1="0"
       y1="0"
       x2="1"
       y2="0"
       gradientUnits="userSpaceOnUse"
       gradientTransform="matrix(-953.237,-1035.16,1035.16,-953.237,1217.25,3022.85)"
       spreadMethod="pad"
       id="linearGradient22296">
      <stop
         style="stop-opacity:1;stop-color:#e8e8e7"
         offset="0"
         id="stop22292" />
      <stop
         style="stop-opacity:1;stop-color:#c8c7c6"
         offset="1"
         id="stop22294" />
    </linearGradient>
    <clipPath
       clipPathUnits="userSpaceOnUse"
       id="clipPath22262">
      <path
         d="M 1149.87,1512.76 H 220.961 c -12.203,0 -22.098,9.89 -22.098,22.09 v 1820.93 c 0,12.21 9.895,22.1 22.098,22.1 h 27.129 49.621 49.617 49.617 49.621 49.618 49.617 49.621 49.617 49.617 49.617 49.622 49.617 49.617 49.621 49.617 49.613 49.62 49.62 8.65 c 12.21,0 22.1,-9.89 22.1,-22.1 V 1706.94 1534.85 c 0,-12.2 -9.89,-22.09 -22.1,-22.09 m -90.57,766.33 c -10.26,0 -18.58,-8.32 -18.58,-18.59 v -664.28 c 0,-10.26 8.32,-18.58 18.58,-18.58 h 19.6 c 10.26,0 18.59,8.32 18.59,18.58 v 664.28 c 0,10.27 -8.33,18.59 -18.59,18.59 h -19.6"
         id="path22260"
         inkscape:connector-curvature="0" />
    </clipPath>
    <linearGradient
       x1="0"
       y1="0"
       x2="1"
       y2="0"
       gradientUnits="userSpaceOnUse"
       gradientTransform="matrix(-953.237,-1035.16,1035.16,-953.237,1217.25,3022.85)"
       spreadMethod="pad"
       id="linearGradient22268">
      <stop
         style="stop-opacity:1;stop-color:#ffffff"
         offset="0"
         id="stop22264" />
      <stop
         style="stop-opacity:1;stop-color:#e1e0df"
         offset="1"
         id="stop22266" />
    </linearGradient>
    <clipPath
       clipPathUnits="userSpaceOnUse"
       id="clipPath22246">
      <path
         d="M 1149.87,519.711 H 220.961 c -12.203,0 -22.098,9.891 -22.098,22.098 v 20.839 62.204 17.019 14.34 88.129 48.34 32.129 0.371 0.359 0.352 0.347 0.34 0.332 0.328 0.321 0.312 0.309 0.3 0.301 0.297 0.293 0.289 0.281 0.278 0.281 0.27 0.269 0.27 0.261 0.27 0.25 0.262 0.257 0.25 0.25 0.11 0.14 105.02 532.341 c 0,12.21 9.895,22.1 22.098,22.1 h 27.129 49.621 49.617 49.617 49.621 49.618 49.617 49.621 49.617 49.617 49.617 49.622 49.617 49.617 49.621 49.617 49.613 49.62 47.11 11.16 c 12.21,0 22.1,-9.89 22.1,-22.1 V 541.809 c 0,-12.207 -9.89,-22.098 -22.1,-22.098 m -90.57,924.129 c -10.26,0 -18.58,-8.32 -18.58,-18.59 v -275.04 c 0,-10.26 8.32,-18.58 18.58,-18.58 h 19.6 c 10.26,0 18.59,8.32 18.59,18.58 v 275.04 c 0,10.27 -8.33,18.59 -18.59,18.59 h -19.6"
         id="path22244"
         inkscape:connector-curvature="0" />
    </clipPath>
    <linearGradient
       x1="0"
       y1="0"
       x2="1"
       y2="0"
       gradientUnits="userSpaceOnUse"
       gradientTransform="matrix(-729.854,-729.854,729.854,-729.854,1000.91,1321.76)"
       spreadMethod="pad"
       id="linearGradient22252">
      <stop
         style="stop-opacity:1;stop-color:#e1e0df"
         offset="0"
         id="stop22248" />
      <stop
         style="stop-opacity:1;stop-color:#b9b8b7"
         offset="1"
         id="stop22250" />
    </linearGradient>
    <clipPath
       clipPathUnits="userSpaceOnUse"
       id="clipPath15522">
      <path
         d="m 198.863,562.648 h -3.617 c 0.102,1.852 0.234,3.711 0.402,5.582 l 2.438,55.84 0.777,0.782 v -62.204"
         id="path15520"
         inkscape:connector-curvature="0" />
    </clipPath>
    <clipPath
       clipPathUnits="userSpaceOnUse"
       id="clipPath15318">
      <path
         d="m 195.246,562.648 h -5.715 l 2.235,55.082 6.32,6.34 -2.438,-55.84 c -0.168,-1.871 -0.3,-3.73 -0.402,-5.582"
         id="path15316"
         inkscape:connector-curvature="0" />
    </clipPath>
    <clipPath
       clipPathUnits="userSpaceOnUse"
       id="clipPath15306">
      <path
         d="m 198.863,656.211 h -5.539 l 3.578,88.129 h 1.961 v -88.129"
         id="path15304"
         inkscape:connector-curvature="0" />
    </clipPath>
    <clipPath
       clipPathUnits="userSpaceOnUse"
       id="clipPath15102">
      <path
         d="m 189.531,562.648 h -5.937 l 1.84,48.731 6.332,6.351 -2.235,-55.082"
         id="path15100"
         inkscape:connector-curvature="0" />
    </clipPath>
    <clipPath
       clipPathUnits="userSpaceOnUse"
       id="clipPath15090">
      <path
         d="m 193.324,656.211 h -6.203 l 3.328,88.129 h 6.453 l -3.578,-88.129"
         id="path15088"
         inkscape:connector-curvature="0" />
    </clipPath>
    <clipPath
       clipPathUnits="userSpaceOnUse"
       id="clipPath14886">
      <path
         d="m 183.594,562.648 h -5.989 l 1.489,42.372 6.34,6.359 -1.84,-48.731"
         id="path14884"
         inkscape:connector-curvature="0" />
    </clipPath>
    <clipPath
       clipPathUnits="userSpaceOnUse"
       id="clipPath14874">
      <path
         d="m 187.121,656.211 h -6.23 l 3.089,88.129 h 6.469 l -3.328,-88.129"
         id="path14872"
         inkscape:connector-curvature="0" />
    </clipPath>
    <clipPath
       clipPathUnits="userSpaceOnUse"
       id="clipPath14646">
      <path
         d="m 177.605,562.648 h -6.035 l 1.176,36 6.348,6.372 -1.489,-42.372"
         id="path14644"
         inkscape:connector-curvature="0" />
    </clipPath>
    <clipPath
       clipPathUnits="userSpaceOnUse"
       id="clipPath14634">
      <path
         d="m 180.891,656.211 h -6.266 l 2.875,88.129 h 6.48 l -3.089,-88.129"
         id="path14632"
         inkscape:connector-curvature="0" />
    </clipPath>
    <clipPath
       clipPathUnits="userSpaceOnUse"
       id="clipPath14406">
      <path
         d="m 171.57,562.648 h -6.078 l 0.899,29.633 6.355,6.367 -1.176,-36"
         id="path14404"
         inkscape:connector-curvature="0" />
    </clipPath>
    <clipPath
       clipPathUnits="userSpaceOnUse"
       id="clipPath14394">
      <path
         d="m 174.625,656.211 h -6.293 l 2.676,88.129 h 6.492 l -2.875,-88.129"
         id="path14392"
         inkscape:connector-curvature="0" />
    </clipPath>
    <clipPath
       clipPathUnits="userSpaceOnUse"
       id="clipPath14166">
      <path
         d="m 165.492,562.648 h -6.117 l 0.656,23.25 6.36,6.383 -0.899,-29.633"
         id="path14164"
         inkscape:connector-curvature="0" />
    </clipPath>
    <clipPath
       clipPathUnits="userSpaceOnUse"
       id="clipPath14154">
      <path
         d="m 168.332,656.211 h -6.316 l 2.488,88.129 h 6.504 l -2.676,-88.129"
         id="path14152"
         inkscape:connector-curvature="0" />
    </clipPath>
    <clipPath
       clipPathUnits="userSpaceOnUse"
       id="clipPath13950">
      <path
         d="m 159.375,562.648 h -6.152 l 0.441,16.864 6.367,6.386 -0.656,-23.25"
         id="path13948"
         inkscape:connector-curvature="0" />
    </clipPath>
    <clipPath
       clipPathUnits="userSpaceOnUse"
       id="clipPath13938">
      <path
         d="m 162.016,656.211 h -6.336 l 2.312,88.129 h 6.512 l -2.488,-88.129"
         id="path13936"
         inkscape:connector-curvature="0" />
    </clipPath>
    <clipPath
       clipPathUnits="userSpaceOnUse"
       id="clipPath13734">
      <path
         d="m 153.223,562.648 h -6.184 l 0.254,10.473 6.371,6.391 -0.441,-16.864"
         id="path13732"
         inkscape:connector-curvature="0" />
    </clipPath>
    <clipPath
       clipPathUnits="userSpaceOnUse"
       id="clipPath13722">
      <path
         d="m 155.68,656.211 h -6.36 l 2.149,88.129 h 6.523 l -2.312,-88.129"
         id="path13720"
         inkscape:connector-curvature="0" />
    </clipPath>
    <clipPath
       clipPathUnits="userSpaceOnUse"
       id="clipPath13518">
      <path
         d="m 147.039,562.648 h -6.215 l 0.094,4.082 6.375,6.391 -0.254,-10.473"
         id="path13516"
         inkscape:connector-curvature="0" />
    </clipPath>
    <clipPath
       clipPathUnits="userSpaceOnUse"
       id="clipPath13506">
      <path
         d="m 149.32,656.211 h -6.375 l 1.996,88.129 h 6.528 l -2.149,-88.129"
         id="path13504"
         inkscape:connector-curvature="0" />
    </clipPath>
    <clipPath
       clipPathUnits="userSpaceOnUse"
       id="clipPath13302">
      <path
         d="m 134.539,560.328 0.051,2.32 h 2.262 l -2.313,-2.32"
         id="path13300"
         inkscape:connector-curvature="0" />
    </clipPath>
    <clipPath
       clipPathUnits="userSpaceOnUse"
       id="clipPath13290">
      <path
         d="m 140.824,562.648 h -3.972 l 4.066,4.082 -0.094,-4.082"
         id="path13288"
         inkscape:connector-curvature="0" />
    </clipPath>
    <clipPath
       clipPathUnits="userSpaceOnUse"
       id="clipPath13278">
      <path
         d="m 142.945,656.211 h -6.394 l 1.851,88.129 h 6.539 l -1.996,-88.129"
         id="path13276"
         inkscape:connector-curvature="0" />
    </clipPath>
    <clipPath
       clipPathUnits="userSpaceOnUse"
       id="clipPath13074">
      <path
         d="m 128.156,553.922 0.168,8.726 h 6.266 l -0.051,-2.32 -6.383,-6.406"
         id="path13072"
         inkscape:connector-curvature="0" />
    </clipPath>
    <clipPath
       clipPathUnits="userSpaceOnUse"
       id="clipPath13062">
      <path
         d="m 136.551,656.211 h -6.406 l 1.714,88.129 h 6.543 l -1.851,-88.129"
         id="path13060"
         inkscape:connector-curvature="0" />
    </clipPath>
    <clipPath
       clipPathUnits="userSpaceOnUse"
       id="clipPath12858">
      <path
         d="m 121.77,547.52 0.273,15.128 h 6.281 l -0.168,-8.726 -6.386,-6.402"
         id="path12856"
         inkscape:connector-curvature="0" />
    </clipPath>
    <clipPath
       clipPathUnits="userSpaceOnUse"
       id="clipPath12846">
      <path
         d="m 130.145,656.211 h -6.422 l 1.586,88.129 h 6.55 l -1.714,-88.129"
         id="path12844"
         inkscape:connector-curvature="0" />
    </clipPath>
    <clipPath
       clipPathUnits="userSpaceOnUse"
       id="clipPath12642">
      <path
         d="m 115.379,541.109 0.359,21.539 h 6.305 l -0.273,-15.128 -6.391,-6.411"
         id="path12640"
         inkscape:connector-curvature="0" />
    </clipPath>
    <clipPath
       clipPathUnits="userSpaceOnUse"
       id="clipPath12630">
      <path
         d="m 123.723,656.211 h -6.434 l 1.461,88.129 h 6.559 l -1.586,-88.129"
         id="path12628"
         inkscape:connector-curvature="0" />
    </clipPath>
    <clipPath
       clipPathUnits="userSpaceOnUse"
       id="clipPath12402">
      <path
         d="m 108.988,534.691 0.426,27.957 h 6.324 l -0.359,-21.539 -6.391,-6.418"
         id="path12400"
         inkscape:connector-curvature="0" />
    </clipPath>
    <clipPath
       clipPathUnits="userSpaceOnUse"
       id="clipPath12390">
      <path
         d="m 117.289,656.211 h -6.445 l 1.344,88.129 h 6.562 l -1.461,-88.129"
         id="path12388"
         inkscape:connector-curvature="0" />
    </clipPath>
    <clipPath
       clipPathUnits="userSpaceOnUse"
       id="clipPath12150">
      <path
         d="m 102.594,528.281 0.48,34.367 h 6.34 l -0.426,-27.957 -6.394,-6.41"
         id="path12148"
         inkscape:connector-curvature="0" />
    </clipPath>
    <clipPath
       clipPathUnits="userSpaceOnUse"
       id="clipPath12138">
      <path
         d="m 110.844,656.211 h -6.457 l 1.234,88.129 h 6.567 l -1.344,-88.129"
         id="path12136"
         inkscape:connector-curvature="0" />
    </clipPath>
    <clipPath
       clipPathUnits="userSpaceOnUse"
       id="clipPath11898">
      <path
         d="m 96.1953,521.859 0.5235,40.789 h 6.3552 l -0.48,-34.367 -6.3987,-6.422"
         id="path11896"
         inkscape:connector-curvature="0" />
    </clipPath>
    <clipPath
       clipPathUnits="userSpaceOnUse"
       id="clipPath11886">
      <path
         d="m 104.387,656.211 h -6.4651 l 1.1328,88.129 h 6.5663 l -1.234,-88.129"
         id="path11884"
         inkscape:connector-curvature="0" />
    </clipPath>
    <clipPath
       clipPathUnits="userSpaceOnUse"
       id="clipPath11670">
      <path
         d="m 89.7969,515.441 0.5547,47.207 h 6.3672 l -0.5235,-40.789 -6.3984,-6.418"
         id="path11668"
         inkscape:connector-curvature="0" />
    </clipPath>
    <clipPath
       clipPathUnits="userSpaceOnUse"
       id="clipPath11658">
      <path
         d="m 97.9219,656.211 h -6.4766 l 1.0352,88.129 h 6.5742 l -1.1328,-88.129"
         id="path11656"
         inkscape:connector-curvature="0" />
    </clipPath>
    <clipPath
       clipPathUnits="userSpaceOnUse"
       id="clipPath11454">
      <path
         d="m 83.3945,509.02 0.5703,53.628 h 6.3868 l -0.5547,-47.207 -6.4024,-6.421"
         id="path11452"
         inkscape:connector-curvature="0" />
    </clipPath>
    <clipPath
       clipPathUnits="userSpaceOnUse"
       id="clipPath11442">
      <path
         d="m 91.4453,656.211 h -6.4844 l 0.9375,88.129 h 6.5821 l -1.0352,-88.129"
         id="path11440"
         inkscape:connector-curvature="0" />
    </clipPath>
    <clipPath
       clipPathUnits="userSpaceOnUse"
       id="clipPath11238">
      <path
         d="m 76.9922,502.602 0.5781,60.046 h 6.3945 l -0.5703,-53.628 -6.4023,-6.418"
         id="path11236"
         inkscape:connector-curvature="0" />
    </clipPath>
    <clipPath
       clipPathUnits="userSpaceOnUse"
       id="clipPath11226">
      <path
         d="m 84.9609,656.211 h -6.4921 l 0.8476,88.129 h 6.582 l -0.9375,-88.129"
         id="path11224"
         inkscape:connector-curvature="0" />
    </clipPath>
    <clipPath
       clipPathUnits="userSpaceOnUse"
       id="clipPath11022">
      <path
         d="m 70.5859,496.172 0.5743,66.476 h 6.4101 l -0.5781,-60.046 -6.4063,-6.43"
         id="path11020"
         inkscape:connector-curvature="0" />
    </clipPath>
    <clipPath
       clipPathUnits="userSpaceOnUse"
       id="clipPath11010">
      <path
         d="m 78.4688,656.211 h -6.4961 l 0.7617,88.129 h 6.582 l -0.8476,-88.129"
         id="path11008"
         inkscape:connector-curvature="0" />
    </clipPath>
    <clipPath
       clipPathUnits="userSpaceOnUse"
       id="clipPath10806">
      <path
         d="m 64.1797,489.75 0.5625,72.898 h 6.418 l -0.5743,-66.476 -6.4062,-6.422"
         id="path10804"
         inkscape:connector-curvature="0" />
    </clipPath>
    <clipPath
       clipPathUnits="userSpaceOnUse"
       id="clipPath10794">
      <path
         d="m 71.9727,656.211 h -6.5079 l 0.6797,88.129 h 6.5899 l -0.7617,-88.129"
         id="path10792"
         inkscape:connector-curvature="0" />
    </clipPath>
    <clipPath
       clipPathUnits="userSpaceOnUse"
       id="clipPath10602">
      <path
         d="m 57.7734,483.32 0.5391,79.328 h 6.4297 l -0.5625,-72.898 -6.4063,-6.43"
         id="path10600"
         inkscape:connector-curvature="0" />
    </clipPath>
    <clipPath
       clipPathUnits="userSpaceOnUse"
       id="clipPath10590">
      <path
         d="m 65.4648,656.211 h -6.5117 l 0.5977,88.129 h 6.5937 l -0.6797,-88.129"
         id="path10588"
         inkscape:connector-curvature="0" />
    </clipPath>
    <clipPath
       clipPathUnits="userSpaceOnUse"
       id="clipPath10398">
      <path
         d="m 51.3633,476.891 0.5117,85.757 h 6.4375 l -0.5391,-79.328 -6.4101,-6.429"
         id="path10396"
         inkscape:connector-curvature="0" />
    </clipPath>
    <clipPath
       clipPathUnits="userSpaceOnUse"
       id="clipPath10386">
      <path
         d="m 58.9531,656.211 h -6.5195 l 0.5234,88.129 h 6.5938 l -0.5977,-88.129"
         id="path10384"
         inkscape:connector-curvature="0" />
    </clipPath>
    <clipPath
       clipPathUnits="userSpaceOnUse"
       id="clipPath10194">
      <path
         d="m 44.9531,470.461 0.4727,92.187 h 6.4492 l -0.5117,-85.757 -6.4102,-6.43"
         id="path10192"
         inkscape:connector-curvature="0" />
    </clipPath>
    <clipPath
       clipPathUnits="userSpaceOnUse"
       id="clipPath10182">
      <path
         d="m 52.4336,656.211 h -6.5273 l 0.457,88.129 h 6.5937 l -0.5234,-88.129"
         id="path10180"
         inkscape:connector-curvature="0" />
    </clipPath>
    <clipPath
       clipPathUnits="userSpaceOnUse"
       id="clipPath10008">
      <path
         d="m 38.5391,464.02 0.4297,98.628 h 6.457 l -0.4727,-92.187 -6.414,-6.441"
         id="path10006"
         inkscape:connector-curvature="0" />
    </clipPath>
    <clipPath
       clipPathUnits="userSpaceOnUse"
       id="clipPath9996">
      <path
         d="m 45.9063,656.211 h -6.5274 l 0.3828,88.129 h 6.6016 l -0.457,-88.129"
         id="path9994"
         inkscape:connector-curvature="0" />
    </clipPath>
    <clipPath
       clipPathUnits="userSpaceOnUse"
       id="clipPath9808">
      <path
         d="m 37.6328,463.109 h -5.4844 l 0.3594,99.539 h 6.461 l -0.4297,-98.628 -0.9063,-0.911"
         id="path9806"
         inkscape:connector-curvature="0" />
    </clipPath>
    <clipPath
       clipPathUnits="userSpaceOnUse"
       id="clipPath9796">
      <path
         d="m 39.3789,656.211 h -6.5351 l 0.3164,88.129 h 6.6015 l -0.3828,-88.129"
         id="path9794"
         inkscape:connector-curvature="0" />
    </clipPath>
    <clipPath
       clipPathUnits="userSpaceOnUse"
       id="clipPath9758">
      <path
         d="M 198.863,832.09 40.6172,833.219 H 81.707 l 117.156,-0.867 v -0.262"
         id="path9756"
         inkscape:connector-curvature="0" />
    </clipPath>
    <linearGradient
       x1="0"
       y1="0"
       x2="1"
       y2="0"
       gradientUnits="userSpaceOnUse"
       gradientTransform="matrix(0,960.262,960.262,0,3250,-12.8)"
       spreadMethod="pad"
       id="linearGradient9766">
      <stop
         style="stop-opacity:1;stop-color:#c5ab45"
         offset="0"
         id="stop9760" />
      <stop
         style="stop-opacity:1;stop-color:#c5ab45"
         offset="0.00534759"
         id="stop9762" />
      <stop
         style="stop-opacity:1;stop-color:#b48a1c"
         offset="1"
         id="stop9764" />
    </linearGradient>
    <clipPath
       clipPathUnits="userSpaceOnUse"
       id="clipPath9590">
      <path
         d="m 32.1484,463.109 h -6.4023 l 0.2891,99.539 h 6.4726 l -0.3594,-99.539"
         id="path9588"
         inkscape:connector-curvature="0" />
    </clipPath>
    <clipPath
       clipPathUnits="userSpaceOnUse"
       id="clipPath9578">
      <path
         d="m 32.8438,656.211 h -6.5391 l 0.2539,88.129 h 6.6016 l -0.3164,-88.129"
         id="path9576"
         inkscape:connector-curvature="0" />
    </clipPath>
    <clipPath
       clipPathUnits="userSpaceOnUse"
       id="clipPath9540">
      <path
         d="m 198.863,832.352 -117.156,0.867 h 37.664 l 79.492,-0.61 v -0.257"
         id="path9538"
         inkscape:connector-curvature="0" />
    </clipPath>
    <linearGradient
       x1="0"
       y1="0"
       x2="1"
       y2="0"
       gradientUnits="userSpaceOnUse"
       gradientTransform="matrix(0,960.262,960.262,0,3250,-12.8)"
       spreadMethod="pad"
       id="linearGradient9548">
      <stop
         style="stop-opacity:1;stop-color:#c6aa46"
         offset="0"
         id="stop9542" />
      <stop
         style="stop-opacity:1;stop-color:#c6aa46"
         offset="0.00534759"
         id="stop9544" />
      <stop
         style="stop-opacity:1;stop-color:#b68c1c"
         offset="1"
         id="stop9546" />
    </linearGradient>
    <clipPath
       clipPathUnits="userSpaceOnUse"
       id="clipPath9372">
      <path
         d="m 25.7461,463.109 h -6.4102 l 0.2188,99.539 h 6.4805 l -0.2891,-99.539"
         id="path9370"
         inkscape:connector-curvature="0" />
    </clipPath>
    <clipPath
       clipPathUnits="userSpaceOnUse"
       id="clipPath9360">
      <path
         d="m 26.3047,656.211 h -6.543 l 0.1914,88.129 h 6.6055 l -0.2539,-88.129"
         id="path9358"
         inkscape:connector-curvature="0" />
    </clipPath>
    <clipPath
       clipPathUnits="userSpaceOnUse"
       id="clipPath9348">
      <path
         d="m 20.1328,826.73 0.0039,0.75 h 0.836 l -0.8399,-0.75"
         id="path9346"
         inkscape:connector-curvature="0" />
    </clipPath>
    <clipPath
       clipPathUnits="userSpaceOnUse"
       id="clipPath9310">
      <path
         d="m 198.863,832.609 -79.492,0.61 h 34.547 l 44.945,-0.36 v -0.25"
         id="path9308"
         inkscape:connector-curvature="0" />
    </clipPath>
    <linearGradient
       x1="0"
       y1="0"
       x2="1"
       y2="0"
       gradientUnits="userSpaceOnUse"
       gradientTransform="matrix(0,960.262,960.262,0,3250,-12.8)"
       spreadMethod="pad"
       id="linearGradient9318">
      <stop
         style="stop-opacity:1;stop-color:#c6ad45"
         offset="0"
         id="stop9312" />
      <stop
         style="stop-opacity:1;stop-color:#c6ad45"
         offset="0.00534759"
         id="stop9314" />
      <stop
         style="stop-opacity:1;stop-color:#b88c1c"
         offset="1"
         id="stop9316" />
    </linearGradient>
    <clipPath
       clipPathUnits="userSpaceOnUse"
       id="clipPath9166">
      <path
         d="M 19.3359,463.109 H 12.918 l 0.1523,99.539 h 6.4844 l -0.2188,-99.539"
         id="path9164"
         inkscape:connector-curvature="0" />
    </clipPath>
    <clipPath
       clipPathUnits="userSpaceOnUse"
       id="clipPath9154">
      <path
         d="m 19.7617,656.211 h -6.5508 l 0.1368,88.129 h 6.6054 l -0.1914,-88.129"
         id="path9152"
         inkscape:connector-curvature="0" />
    </clipPath>
    <clipPath
       clipPathUnits="userSpaceOnUse"
       id="clipPath9142">
      <path
         d="m 13.4609,820.832 0.0118,6.648 h 6.664 l -0.0039,-0.75 -6.6719,-5.898"
         id="path9140"
         inkscape:connector-curvature="0" />
    </clipPath>
    <clipPath
       clipPathUnits="userSpaceOnUse"
       id="clipPath9104">
      <path
         d="m 198.863,832.859 -44.945,0.36 h 32.219 l 12.726,-0.11 v -0.25"
         id="path9102"
         inkscape:connector-curvature="0" />
    </clipPath>
    <linearGradient
       x1="0"
       y1="0"
       x2="1"
       y2="0"
       gradientUnits="userSpaceOnUse"
       gradientTransform="matrix(0,960.262,960.262,0,3250,-12.8)"
       spreadMethod="pad"
       id="linearGradient9112">
      <stop
         style="stop-opacity:1;stop-color:#c7ac46"
         offset="0"
         id="stop9106" />
      <stop
         style="stop-opacity:1;stop-color:#c7ac46"
         offset="0.00534759"
         id="stop9108" />
      <stop
         style="stop-opacity:1;stop-color:#b88c1c"
         offset="1"
         id="stop9110" />
    </linearGradient>
    <clipPath
       clipPathUnits="userSpaceOnUse"
       id="clipPath8960">
      <path
         d="M 12.918,463.109 H 6.49219 l 0.08594,99.539 H 13.0703 L 12.918,463.109"
         id="path8958"
         inkscape:connector-curvature="0" />
    </clipPath>
    <clipPath
       clipPathUnits="userSpaceOnUse"
       id="clipPath8948">
      <path
         d="M 13.2109,656.211 H 6.66016 l 0.07812,88.129 h 6.60942 l -0.1368,-88.129"
         id="path8946"
         inkscape:connector-curvature="0" />
    </clipPath>
    <clipPath
       clipPathUnits="userSpaceOnUse"
       id="clipPath8936">
      <path
         d="m 6.80078,814.93 0.00781,12.55 h 6.66411 l -0.0118,-6.648 -6.66012,-5.902"
         id="path8934"
         inkscape:connector-curvature="0" />
    </clipPath>
    <clipPath
       clipPathUnits="userSpaceOnUse"
       id="clipPath8898">
      <path
         d="m 198.863,833.109 -12.726,0.11 h 12.726 v -0.11"
         id="path8896"
         inkscape:connector-curvature="0" />
    </clipPath>
    <linearGradient
       x1="0"
       y1="0"
       x2="1"
       y2="0"
       gradientUnits="userSpaceOnUse"
       gradientTransform="matrix(0,960.262,960.262,0,3250,-12.8)"
       spreadMethod="pad"
       id="linearGradient8906">
      <stop
         style="stop-opacity:1;stop-color:#c7ad46"
         offset="0"
         id="stop8900" />
      <stop
         style="stop-opacity:1;stop-color:#c7ad46"
         offset="0.00534759"
         id="stop8902" />
      <stop
         style="stop-opacity:1;stop-color:#b98d1c"
         offset="1"
         id="stop8904" />
    </linearGradient>
    <clipPath
       clipPathUnits="userSpaceOnUse"
       id="clipPath8754">
      <path
         d="M 6.49219,463.109 H 0.0546875 l 0.0273438,99.539 H 6.57813 L 6.49219,463.109"
         id="path8752"
         inkscape:connector-curvature="0" />
    </clipPath>
    <clipPath
       clipPathUnits="userSpaceOnUse"
       id="clipPath8742">
      <path
         d="M 6.66016,656.211 H 0.105469 L 0.125,744.34 H 6.73828 L 6.66016,656.211"
         id="path8740"
         inkscape:connector-curvature="0" />
    </clipPath>
    <clipPath
       clipPathUnits="userSpaceOnUse"
       id="clipPath8730">
      <path
         d="M 0.144531,809.039 0.148438,827.48 H 6.80859 L 6.80078,814.93 0.144531,809.039"
         id="path8728"
         inkscape:connector-curvature="0" />
    </clipPath>
    <clipPath
       clipPathUnits="userSpaceOnUse"
       id="clipPath1708">
      <path
         d="M 0.0546875,463.109 H 0 v 99.539 H 0.0820313 L 0.0546875,463.109"
         id="path1706"
         inkscape:connector-curvature="0" />
    </clipPath>
    <clipPath
       clipPathUnits="userSpaceOnUse"
       id="clipPath1696">
      <path
         d="M 0.105469,656.211 H 0 V 744.34 H 0.125 L 0.105469,656.211"
         id="path1694"
         inkscape:connector-curvature="0" />
    </clipPath>
    <clipPath
       clipPathUnits="userSpaceOnUse"
       id="clipPath1684">
      <path
         d="m 0,808.91 v 18.57 H 0.148438 L 0.144531,809.039 0,808.91"
         id="path1682"
         inkscape:connector-curvature="0" />
    </clipPath>
  </defs>
  <sodipodi:namedview
     id="base"
     pagecolor="#ffffff"
     bordercolor="#666666"
     borderopacity="1.0"
     inkscape:pageopacity="0.0"
     inkscape:pageshadow="2"
     inkscape:zoom="0.7"
     inkscape:cx="116.18995"
     inkscape:cy="163.31217"
     inkscape:document-units="mm"
     inkscape:current-layer="layer1"
     showgrid="false"
     inkscape:window-width="1366"
     inkscape:window-height="704"
     inkscape:window-x="0"
     inkscape:window-y="27"
     inkscape:window-maximized="1" />
  <metadata
     id="metadata68719">
    <rdf:RDF>
      <cc:Work
         rdf:about="">
        <dc:format>image/svg+xml</dc:format>
        <dc:type
           rdf:resource="http://purl.org/dc/dcmitype/StillImage" />
        <dc:title></dc:title>
      </cc:Work>
    </rdf:RDF>
  </metadata>
  <g
     inkscape:label="Layer 1"
     inkscape:groupmode="layer"
     id="layer1"
     transform="translate(24.634365,-287.83955)">
    <path
       inkscape:connector-curvature="0"
       id="path15624"
       style="fill:#3c3b3d;fill-opacity:1;fill-rule:nonzero;stroke:none;stroke-width:0.03527778"
       d="M 10.483144,390.82671 H 8.8730667 v -0.13765 l 1.6100773,0.004 v 0.13405" />
    <g
       id="g22240"
       transform="matrix(0.03527778,0,0,-0.03527778,-31.64981,407.00366)">
      <g
         clip-path="url(#clipPath22246)"
         id="g22242">
        <path
           inkscape:connector-curvature="0"
           id="path22254"
           style="fill:url(#linearGradient22252);fill-opacity:1;fill-rule:nonzero;stroke:none"
           d="M 1149.87,519.711 H 220.961 c -12.203,0 -22.098,9.891 -22.098,22.098 v 20.839 62.204 17.019 14.34 88.129 48.34 32.129 0.371 0.359 0.352 0.347 0.34 0.332 0.328 0.321 0.312 0.309 0.3 0.301 0.297 0.293 0.289 0.281 0.278 0.281 0.27 0.269 0.27 0.261 0.27 0.25 0.262 0.257 0.25 0.25 0.11 0.14 105.02 532.341 c 0,12.21 9.895,22.1 22.098,22.1 h 27.129 49.621 49.617 49.617 49.621 49.618 49.617 49.621 49.617 49.617 49.617 49.622 49.617 49.617 49.621 49.617 49.613 49.62 47.11 11.16 c 12.21,0 22.1,-9.89 22.1,-22.1 V 541.809 c 0,-12.207 -9.89,-22.098 -22.1,-22.098 m -90.57,924.129 c -10.26,0 -18.58,-8.32 -18.58,-18.59 v -275.04 c 0,-10.26 8.32,-18.58 18.58,-18.58 h 19.6 c 10.26,0 18.59,8.32 18.59,18.58 v 275.04 c 0,10.27 -8.33,18.59 -18.59,18.59 h -19.6" />
      </g>
    </g>
    <g
       id="g22256"
       transform="matrix(0.03527778,0,0,-0.03527778,-31.64981,407.00366)">
      <g
         clip-path="url(#clipPath22262)"
         id="g22258">
        <path
           inkscape:connector-curvature="0"
           id="path22270"
           style="fill:url(#linearGradient22268);fill-opacity:1;fill-rule:nonzero;stroke:none"
           d="M 1149.87,1512.76 H 220.961 c -12.203,0 -22.098,9.89 -22.098,22.09 v 1820.93 c 0,12.21 9.895,22.1 22.098,22.1 h 27.129 49.621 49.617 49.617 49.621 49.618 49.617 49.621 49.617 49.617 49.617 49.622 49.617 49.617 49.621 49.617 49.613 49.62 49.62 8.65 c 12.21,0 22.1,-9.89 22.1,-22.1 V 1706.94 1534.85 c 0,-12.2 -9.89,-22.09 -22.1,-22.09 m -90.57,766.33 c -10.26,0 -18.58,-8.32 -18.58,-18.59 v -664.28 c 0,-10.26 8.32,-18.58 18.58,-18.58 h 19.6 c 10.26,0 18.59,8.32 18.59,18.58 v 664.28 c 0,10.27 -8.33,18.59 -18.59,18.59 h -19.6" />
      </g>
    </g>
    <path
       inkscape:connector-curvature="0"
       id="path22272"
       style="fill:#999690;fill-opacity:1;fill-rule:nonzero;stroke:none;stroke-width:0.03527778"
       d="M -23.461097,353.63685 H 8.5213477 v 0.71543 H -23.461097 v -0.71543" />
    <path
       inkscape:connector-curvature="0"
       id="path22274"
       style="fill:#bbb6ad;fill-opacity:1;fill-rule:nonzero;stroke:none;stroke-width:0.03527778"
       d="M -23.812641,390.82671 H 8.8730317 V 388.6694 H -23.812641 Z" />
    <path
       inkscape:connector-curvature="0"
       id="path22276"
       style="fill:#92908a;fill-opacity:1;fill-rule:nonzero;stroke:none;stroke-width:0.03527778"
       d="M -23.812641,389.47872 H 8.8730317 v -0.80933 H -23.812641 Z" />
    <path
       inkscape:connector-curvature="0"
       id="path22278"
       style="fill:#dfd9cf;fill-opacity:1;fill-rule:nonzero;stroke:none;stroke-width:0.03527778"
       d="m -10.54488,317.06685 h 5.7213487 c 0.671655,0 1.215956,-0.54469 1.215956,-1.21638 v -13.87475 c 0,-0.67134 -0.544301,-1.21602 -1.215956,-1.21602 H -10.54488 c -0.671654,0 -1.216131,0.54468 -1.216131,1.21602 v 13.87475 c 0,0.67169 0.544477,1.21638 1.216131,1.21638" />
    <path
       inkscape:connector-curvature="0"
       id="path22280"
       style="fill:#ffffff;fill-opacity:1;fill-rule:nonzero;stroke:none;stroke-width:0.03527778"
       d="m -10.280156,316.82837 h 5.6207377 c 0.659799,0 1.194612,-0.53481 1.194612,-1.19486 v -13.63098 c 0,-0.65969 -0.534813,-1.1945 -1.194612,-1.1945 h -5.6207377 c -0.6598,0 -1.194752,0.53481 -1.194752,1.1945 v 13.63098 c 0,0.66005 0.534952,1.19486 1.194752,1.19486" />
    <path
       inkscape:connector-curvature="0"
       id="path22282"
       style="fill:#a7b4c8;fill-opacity:1;fill-rule:nonzero;stroke:none;stroke-width:0.03527778"
       d="m -9.2167423,310.3676 h 3.49377 c 0.447004,0 0.809448,-0.3623 0.809448,-0.80927 v -6.47348 c 0,-0.44697 -0.362444,-0.80962 -0.809448,-0.80962 h -3.49377 c -0.446899,0 -0.8093077,0.36265 -0.8093077,0.80962 v 6.47348 c 0,0.44697 0.3624087,0.80927 0.8093077,0.80927" />
    <g
       id="g22284"
       transform="matrix(0.03527778,0,0,-0.03527778,-31.64981,407.00366)">
      <g
         clip-path="url(#clipPath22290)"
         id="g22286">
        <path
           inkscape:connector-curvature="0"
           id="path22298"
           style="fill:url(#linearGradient22296);fill-opacity:1;fill-rule:nonzero;stroke:none"
           d="m 1078.9,1577.64 h -19.6 c -10.26,0 -18.58,8.32 -18.58,18.58 v 664.28 c 0,10.27 8.32,18.59 18.58,18.59 h 19.6 c 10.26,0 18.59,-8.32 18.59,-18.59 v -664.28 c 0,-10.26 -8.33,-18.58 -18.59,-18.58" />
      </g>
    </g>
    <path
       inkscape:connector-curvature="0"
       id="path22300"
       style="fill:#ffffff;fill-opacity:1;fill-rule:nonzero;stroke:none;stroke-width:0.03527778"
       d="m 6.2921437,351.34803 h 0.691446 c 0.36195,0 0.65546,-0.29351 0.65546,-0.65546 v -23.43432 c 0,-0.36231 -0.29351,-0.65582 -0.65546,-0.65582 h -0.691446 c -0.36195,0 -0.65546,0.29351 -0.65546,0.65582 v 23.43432 c 0,0.36195 0.29351,0.65546 0.65546,0.65546" />
    <g
       id="g22302"
       transform="matrix(0.03527778,0,0,-0.03527778,-31.64981,407.00366)">
      <g
         clip-path="url(#clipPath22308)"
         id="g22304">
        <path
           inkscape:connector-curvature="0"
           id="path22316"
           style="fill:url(#linearGradient22314);fill-opacity:1;fill-rule:nonzero;stroke:none"
           d="m 1078.9,1131.63 h -19.6 c -10.26,0 -18.58,8.32 -18.58,18.58 v 275.04 c 0,10.27 8.32,18.59 18.58,18.59 h 19.6 c 10.26,0 18.59,-8.32 18.59,-18.59 v -275.04 c 0,-10.26 -8.33,-18.58 -18.59,-18.58" />
      </g>
    </g>
    <path
       inkscape:connector-curvature="0"
       id="path22318"
       style="fill:#ffffff;fill-opacity:1;fill-rule:nonzero;stroke:none;stroke-width:0.03527778"
       d="m 6.2921437,367.08227 h 0.691446 c 0.36195,0 0.65546,-0.29351 0.65546,-0.65546 v -9.7028 c 0,-0.3623 -0.29351,-0.65582 -0.65546,-0.65582 h -0.691446 c -0.36195,0 -0.65546,0.29352 -0.65546,0.65582 v 9.7028 c 0,0.36195 0.29351,0.65546 0.65546,0.65546" />
  </g>
</svg>
