<?xml version="1.0" encoding="UTF-8" standalone="no"?>
<!-- Created with Inkscape (http://www.inkscape.org/) -->

<svg
   xmlns:dc="http://purl.org/dc/elements/1.1/"
   xmlns:cc="http://creativecommons.org/ns#"
   xmlns:rdf="http://www.w3.org/1999/02/22-rdf-syntax-ns#"
   xmlns:svg="http://www.w3.org/2000/svg"
   xmlns="http://www.w3.org/2000/svg"
   xmlns:sodipodi="http://sodipodi.sourceforge.net/DTD/sodipodi-0.dtd"
   xmlns:inkscape="http://www.inkscape.org/namespaces/inkscape"
   width="82.483498mm"
   height="69.19178mm"
   viewBox="0 0 82.483498 69.19178"
   version="1.1"
   id="svg8352"
   inkscape:version="0.92.5 (2060ec1f9f, 2020-04-08)"
   sodipodi:docname="sofa-green.svg">
  <defs
     id="defs8346" />
  <sodipodi:namedview
     id="base"
     pagecolor="#ffffff"
     bordercolor="#666666"
     borderopacity="1.0"
     inkscape:pageopacity="0.0"
     inkscape:pageshadow="2"
     inkscape:zoom="0.35"
     inkscape:cx="-631.26852"
     inkscape:cy="705.04183"
     inkscape:document-units="mm"
     inkscape:current-layer="layer1"
     showgrid="false"
     inkscape:window-width="1366"
     inkscape:window-height="704"
     inkscape:window-x="0"
     inkscape:window-y="27"
     inkscape:window-maximized="1" />
  <metadata
     id="metadata8349">
    <rdf:RDF>
      <cc:Work
         rdf:about="">
        <dc:format>image/svg+xml</dc:format>
        <dc:type
           rdf:resource="http://purl.org/dc/dcmitype/StillImage" />
        <dc:title></dc:title>
      </cc:Work>
    </rdf:RDF>
  </metadata>
  <g
     inkscape:label="Layer 1"
     inkscape:groupmode="layer"
     id="layer1"
     transform="translate(-134.1392,-266.18387)">
    <path
       inkscape:connector-curvature="0"
       id="path38-5"
       style="fill:#7b7979;fill-opacity:1;fill-rule:nonzero;stroke:none;stroke-width:0.03527777"
       d="m 145.7687,333.68437 c 0,0.93376 -0.83503,1.69128 -1.8662,1.69128 h -1.134 c -1.03106,0 -1.86658,-0.75752 -1.86658,-1.69128 v -10.33039 c 0,-0.93381 0.83552,-1.69122 1.86658,-1.69122 h 1.134 c 1.03117,0 1.8662,0.75741 1.8662,1.69122 v 10.33039" />
    <path
       inkscape:connector-curvature="0"
       id="path40-9"
       style="fill:#7b7979;fill-opacity:1;fill-rule:nonzero;stroke:none;stroke-width:0.03527777"
       d="m 209.86066,333.68437 c 0,0.93376 -0.83679,1.69128 -1.86761,1.69128 h -1.13418 c -1.03046,0 -1.8669,-0.75752 -1.8669,-1.69128 v -10.33039 c 0,-0.93381 0.83644,-1.69122 1.8669,-1.69122 h 1.13418 c 1.03082,0 1.86761,0.75741 1.86761,1.69122 v 10.33039" />
    <path
       inkscape:connector-curvature="0"
       id="path42-4"
       style="fill:#80cc28;fill-opacity:1;fill-rule:nonzero;stroke:none;stroke-width:0.03527777"
       d="m 211.05516,314.83616 v -32.58855 c 0,-7.7343 -6.19866,-16.06374 -15.77904,-16.06374 h -38.04073 c -8.83603,0 -15.77908,8.32944 -15.77908,16.06374 v 32.58855 h 69.59885" />
    <path
       inkscape:connector-curvature="0"
       id="path44-9"
       style="fill:#b5dc17;fill-opacity:1;fill-rule:nonzero;stroke:none;stroke-width:0.03527777"
       d="m 202.58709,308.91584 v -24.65811 c 0,-5.85223 -4.69019,-12.15425 -11.93906,-12.15425 h -28.78385 c -6.68584,0 -11.93976,6.30202 -11.93976,12.15425 v 24.65811 h 52.66267" />
    <path
       inkscape:connector-curvature="0"
       id="path46-0"
       style="fill:#80cc28;fill-opacity:1;fill-rule:nonzero;stroke:none;stroke-width:0.03527777"
       d="m 145.35348,321.9912 h 60.48586 v -15.28932 h -60.48586 z" />
    <path
       inkscape:connector-curvature="0"
       id="path48-9"
       style="fill:#59a325;fill-opacity:1;fill-rule:nonzero;stroke:none;stroke-width:0.03527777"
       d="m 155.19951,314.34685 h -9.84603 v -3.71404 h 43.8979 c 0.87736,1.41534 2.03623,2.53435 3.36832,3.22051 h -37.42019 v 0.49353" />
    <path
       inkscape:connector-curvature="0"
       id="path50-1"
       style="fill:#80cc28;fill-opacity:1;fill-rule:nonzero;stroke:none;stroke-width:0.03527777"
       d="m 214.54802,326.03861 c 0,1.98643 -1.53035,3.59696 -3.41701,3.59696 h -71.50114 c -1.88669,0 -3.41602,-1.61053 -3.41602,-3.59696 v -8.09483 c 0,-1.98649 1.52933,-3.59693 3.41602,-3.59693 h 71.50114 c 1.88666,0 3.41701,1.61044 3.41701,3.59693 v 8.09483" />
    <path
       inkscape:connector-curvature="0"
       id="path52-7"
       style="fill:#b3c7b7;fill-opacity:1;fill-rule:nonzero;stroke:none;stroke-width:0.03527777"
       d="m 140.90192,329.63557 h -1.27205 c -0.004,0 -0.007,0 -0.0103,0 0.004,0 0.007,0 0.0103,0 h 1.27205" />
    <path
       inkscape:connector-curvature="0"
       id="path54-7"
       style="fill:#b3c7b7;fill-opacity:1;fill-rule:nonzero;stroke:none;stroke-width:0.03527777"
       d="m 139.61594,329.63557 c -0.002,0 -0.005,0 -0.007,0 0.002,0 0.005,0 0.007,0 m -0.011,0 c -0.002,0 -0.004,0 -0.006,0 0.002,0 0.004,0 0.006,0 m -0.0105,-7.9e-4 c -0.002,0 -0.004,0 -0.006,0 0.002,0 0.004,0 0.006,0 m -0.0106,0 c -0.002,0 -0.004,0 -0.006,0 0.002,0 0.004,0 0.006,0 m -0.0103,0 c -0.002,0 -0.004,-2.7e-4 -0.007,-2.7e-4 0.002,0 0.004,2.7e-4 0.007,2.7e-4 m -0.0105,-2.7e-4 c -0.003,0 -0.007,0 -0.0101,-7.9e-4 0.003,7.9e-4 0.007,7.9e-4 0.0101,7.9e-4 m -0.0136,-7.9e-4 c -0.002,0 -0.004,0 -0.006,0 0.002,0 0.004,0 0.006,0 m -0.0117,-2.5e-4 c -0.002,0 -0.003,0 -0.005,0 0.002,0 0.004,0 0.005,0 m -0.0105,-2.6e-4 c -0.001,0 -0.003,0 -0.005,0 10e-4,0 0.003,0 0.005,0 m -0.0103,0 c -0.001,-2.6e-4 -0.003,-2.6e-4 -0.005,-2.6e-4 0.002,0 0.003,0 0.005,2.6e-4 m -0.0103,-2.6e-4 c -0.001,-2.7e-4 -0.002,-2.7e-4 -0.004,-2.7e-4 10e-4,0 0.003,0 0.004,2.7e-4 m -0.0103,-8e-4 c -0.001,0 -0.002,0 -0.003,0 0.001,0 0.002,0 0.003,0 m -0.0285,-0.001 c -1.4e-4,0 -3.4e-4,0 -7.2e-4,0 1.1e-4,0 3.5e-4,0 7.2e-4,0 m -0.009,-7.9e-4 c -3.4e-4,0 -0.001,0 -0.001,0 3.4e-4,0 7.1e-4,0 0.001,0 m -0.01,-8e-4 c -3.4e-4,0 -10e-4,0 -10e-4,0 3.4e-4,0 7.1e-4,0 10e-4,0 m -0.01,-7.9e-4 c -2.9e-4,0 -3.4e-4,0 -7.2e-4,0 3e-4,0 3.5e-4,0 7.2e-4,0" />
    <path
       inkscape:connector-curvature="0"
       id="path56-1"
       style="fill:#59a325;fill-opacity:1;fill-rule:nonzero;stroke:none;stroke-width:0.03527777"
       d="m 198.22993,329.63557 h -37.83295 l 0.46073,-2.84758 h 37.37222 v 2.84758 m -40.7476,0 h -11.71363 -4.86678 -1.27205 c -0.004,0 -0.007,0 -0.0103,0 -0.001,0 -0.002,0 -0.004,0 -0.002,0 -0.005,0 -0.007,0 -10e-4,0 -0.002,0 -0.004,0 -0.002,0 -0.004,0 -0.006,0 -0.001,0 -0.003,0 -0.004,-7.9e-4 -0.002,0 -0.004,0 -0.006,0 -0.001,0 -0.003,0 -0.004,0 -0.002,0 -0.004,0 -0.006,0 -0.001,0 -0.003,0 -0.004,0 -0.002,0 -0.004,-2.7e-4 -0.007,-2.7e-4 -10e-4,0 -0.002,0 -0.004,0 -0.003,0 -0.007,0 -0.01,-7.9e-4 -0.001,0 -0.002,0 -0.004,0 -0.002,0 -0.004,0 -0.006,0 -0.002,0 -0.004,-2.5e-4 -0.005,-2.5e-4 -0.001,0 -0.004,0 -0.005,0 -0.002,0 -0.004,0 -0.005,-2.6e-4 -0.001,0 -0.003,0 -0.005,0 -0.002,0 -0.004,0 -0.006,0 -0.001,-2.6e-4 -0.003,-2.6e-4 -0.005,-2.6e-4 -0.002,0 -0.004,0 -0.006,0 -0.001,-2.7e-4 -0.003,-2.7e-4 -0.004,-2.7e-4 -0.002,0 -0.004,0 -0.006,-2.6e-4 -0.001,0 -0.002,0 -0.003,0 -0.009,-2.7e-4 -0.0171,-8e-4 -0.0257,-0.001 -1.4e-4,0 -3.4e-4,0 -7.1e-4,0 -0.003,-2.7e-4 -0.006,-2.7e-4 -0.008,-8e-4 -7.1e-4,0 -0.001,0 -0.001,0 -0.003,0 -0.006,-2.6e-4 -0.008,-2.6e-4 -7.1e-4,0 -7.1e-4,0 -0.001,0 -0.003,-2.7e-4 -0.006,-2.7e-4 -0.009,-8e-4 -2.9e-4,0 -3.4e-4,0 -7.1e-4,0 -1.5565,-0.0906 -2.83299,-1.27916 -3.14799,-2.84186 h 21.52256 l -0.33055,2.84759" />
    <path
       inkscape:connector-curvature="0"
       id="path58-1"
       style="fill:#80cc28;fill-opacity:1;fill-rule:nonzero;stroke:none;stroke-width:0.03527777"
       d="m 152.5311,329.63557 c 0,0 0,2.45276 -7.0538,2.45276 h -4.28392 c -3.89583,0 -7.05418,-2.32406 -7.05418,-5.19067 v -31.69747 c 0,-2.86561 3.15835,-5.18971 7.05418,-5.18971 h 4.28392 c 3.89643,0 7.0538,2.3241 7.0538,5.18971 v 34.43538" />
    <path
       inkscape:connector-curvature="0"
       id="path60-5"
       style="fill:#80cc28;fill-opacity:1;fill-rule:nonzero;stroke:none;stroke-width:0.03527777"
       d="m 216.6227,326.89766 c 0,2.86661 -3.15877,5.19067 -7.0552,5.19067 h -4.28237 c -7.0552,0 -7.0552,-2.32406 -7.0552,-2.32406 v -34.56408 c 0,-2.86561 3.15842,-5.18971 7.0552,-5.18971 h 4.28237 c 3.89643,0 7.0552,2.3241 7.0552,5.18971 v 31.69747" />
    <path
       inkscape:connector-curvature="0"
       id="path62-9"
       style="fill:#b5dc17;fill-opacity:1;fill-rule:nonzero;stroke:none;stroke-width:0.03527777"
       d="m 214.54802,324.97464 c 0,2.57348 -1.61008,4.66093 -3.59657,4.66093 h -2.18299 c -3.59657,0 -3.59657,-2.08745 -3.59657,-2.08745 v -31.04406 c 0,-2.57457 1.61043,-4.66125 3.59657,-4.66125 h 2.18299 c 1.98649,0 3.59657,2.08668 3.59657,4.66125 v 28.47058" />
    <path
       inkscape:connector-curvature="0"
       id="path64-7"
       style="fill:#b5dc17;fill-opacity:1;fill-rule:nonzero;stroke:none;stroke-width:0.03527777"
       d="m 146.34337,324.97464 c 0,2.57348 -1.61043,4.66093 -3.59681,4.66093 h -2.18363 c -3.59625,0 -3.59625,-2.08745 -3.59625,-2.08745 v -31.04406 c 0,-2.57457 1.61036,-4.66125 3.59625,-4.66125 h 2.18363 c 1.98638,0 3.59681,2.08668 3.59681,4.66125 v 28.47058" />
    <path
       inkscape:connector-curvature="0"
       id="path66-7"
       style="fill:#7fae19;fill-opacity:1;fill-rule:nonzero;stroke:none;stroke-width:0.03527777"
       d="m 164.40171,281.49725 c -0.79868,0 -1.44674,-0.647 -1.44674,-1.44604 0,-0.79833 0.64806,-1.44603 1.44674,-1.44603 0.7994,0 1.4478,0.6477 1.4478,1.44603 0,0.79904 -0.6484,1.44604 -1.4478,1.44604" />
    <path
       inkscape:connector-curvature="0"
       id="path68-6"
       style="fill:#7fae19;fill-opacity:1;fill-rule:nonzero;stroke:none;stroke-width:0.03527777"
       d="m 164.40171,298.8077 c -0.79868,0 -1.44674,-0.64841 -1.44674,-1.44604 0,-0.79939 0.64806,-1.44744 1.44674,-1.44744 0.7994,0 1.4478,0.64805 1.4478,1.44744 0,0.79763 -0.6484,1.44604 -1.4478,1.44604" />
    <path
       inkscape:connector-curvature="0"
       id="path70-7"
       style="fill:#7fae19;fill-opacity:1;fill-rule:nonzero;stroke:none;stroke-width:0.03527777"
       d="m 186.68878,281.27607 c -0.79869,0 -1.44709,-0.64699 -1.44709,-1.44603 0,-0.79834 0.6484,-1.44604 1.44709,-1.44604 0.79834,0 1.44674,0.6477 1.44674,1.44604 0,0.79904 -0.6484,1.44603 -1.44674,1.44603" />
    <path
       inkscape:connector-curvature="0"
       id="path72-3"
       style="fill:#7fae19;fill-opacity:1;fill-rule:nonzero;stroke:none;stroke-width:0.03527777"
       d="m 187.16548,299.06322 c -0.79869,0 -1.4471,-0.6484 -1.4471,-1.44603 0,-0.7994 0.64841,-1.44745 1.4471,-1.44745 0.79834,0 1.44674,0.64805 1.44674,1.44745 0,0.14922 -0.0226,0.29351 -0.0649,0.42933 -0.10407,0.17251 -0.20426,0.34925 -0.29986,0.53022 -0.26494,0.29845 -0.65158,0.48648 -1.08197,0.48648" />
    <path
       inkscape:connector-curvature="0"
       id="path74-6"
       style="fill:#b5dc17;fill-opacity:1;fill-rule:nonzero;stroke:none;stroke-width:0.03527777"
       d="m 154.55286,322.09139 h 42.08216 v -4.74942 h -42.08216 z" />
  </g>
</svg>
